G04 Generated by Ultiboard 14.3 *
%FSLAX34Y34*%
%MOMM*%

%ADD10C,0.0001*%
%ADD11C,0.2540*%
%ADD12C,0.0010*%
%ADD13C,0.1270*%
%ADD14C,1.2446*%
%ADD15C,1.3556*%
%ADD16C,1.0000*%
%ADD17C,1.4000*%
%ADD18C,1.6088*%
%ADD19C,1.5000*%
%ADD20R,1.5000X1.5000*%
%ADD21C,1.5366*%
%ADD22R,1.5366X1.5366*%


G04 ColorRGB 0000FF for the following layer *
%LNCopper Bottom*%
%LPD*%
G54D10*
G36*
X1196172Y101586D02*
X1196172Y101586D01*
X1098414Y3828D01*
X101586Y3828D01*
X3828Y101586D01*
X3828Y1098414D01*
X101586Y1196172D01*
X101586Y1196172D01*
X1098414Y1196172D01*
X1196172Y1098414D01*
X1196172Y101586D01*
D02*
G37*
%LPC*%
G36*
X958643Y351985D02*
G75*
D01*
G03X960145Y355600I-3603J3615*
G01*
X960145Y355600D01*
X960145Y376912D01*
G75*
D01*
G03X949935Y376912I-5105J9168*
G01*
X949935Y376912D01*
X949935Y357714D01*
X947846Y355625D01*
X934727Y355625D01*
G75*
D01*
G03X931111Y354129I-7J-5105*
G01*
X931111Y354129D01*
X926031Y349049D01*
G75*
D01*
G03X924535Y345431I3609J-3609*
G01*
X924535Y345431D01*
X924535Y319048D01*
G75*
D01*
G03X939732Y312753I5105J-9168*
G01*
X939732Y312753D01*
X943184Y316205D01*
X946668Y316205D01*
G75*
D01*
G03X963412Y316205I8372J-6325*
G01*
X963412Y316205D01*
X972068Y316205D01*
G74*
D01*
G03X970629Y313601I8372J6325*
G01*
X970629Y313601D01*
X976719Y313601D01*
X976719Y316205D01*
X984161Y316205D01*
X984161Y313601D01*
X990251Y313601D01*
G74*
D01*
G03X988812Y316205I9811J3721*
G01*
X988812Y316205D01*
X1061142Y316205D01*
G75*
D01*
G03X1066775Y305431I10738J-1245*
G01*
X1066775Y305431D01*
X1066775Y252716D01*
G75*
D01*
G03X1076985Y252716I5105J-9276*
G01*
X1076985Y252716D01*
X1076985Y305431D01*
G75*
D01*
G03X1068717Y325297I-5105J9529*
G01*
G74*
D01*
G03X1065530Y326415I3187J3987*
G01*
X1065530Y326415D01*
X941078Y326415D01*
G75*
D01*
G03X937461Y324919I-8J-5105*
G01*
X937461Y324919D01*
X934745Y322204D01*
X934745Y343326D01*
X936834Y345415D01*
X949960Y345415D01*
G74*
D01*
G03X953575Y346917I0J5105*
G01*
X953575Y346917D01*
X956172Y349513D01*
X956172Y349513D01*
X958643Y351985D01*
D02*
G37*
G36*
X482251Y412839D02*
X482251Y412839D01*
X476161Y412839D01*
X476161Y406749D01*
G74*
D01*
G03X482251Y412839I3721J9811*
G01*
D02*
G37*
G36*
X476172Y418975D02*
G75*
D01*
G03X476172Y418975I-3732J-2415*
G01*
D02*
G37*
G36*
X482251Y420281D02*
G74*
D01*
G03X476161Y426371I9811J3721*
G01*
X476161Y426371D01*
X476161Y420281D01*
X482251Y420281D01*
D02*
G37*
G36*
X716172Y270160D02*
G75*
D01*
G03X716172Y270160I-4972J9240*
G01*
D02*
G37*
G36*
X702032Y350495D02*
G75*
D01*
G03X702457Y361402I9168J5105*
G01*
X702457Y361402D01*
X698525Y365334D01*
X698525Y409320D01*
G74*
D01*
G03X702399Y406749I7595J7240*
G01*
X702399Y406749D01*
X702399Y412839D01*
X698525Y412839D01*
X698525Y420281D01*
X702399Y420281D01*
X702399Y426371D01*
G74*
D01*
G03X698525Y423800I3721J9811*
G01*
X698525Y423800D01*
X698525Y436880D01*
G74*
D01*
G03X697023Y440495I5105J0*
G01*
X697023Y440495D01*
X691955Y445563D01*
G74*
D01*
G03X688340Y447065I3615J3603*
G01*
X688340Y447065D01*
X647274Y447065D01*
X645185Y449154D01*
X645185Y490044D01*
G75*
D01*
G03X645185Y495476I10135J2716*
G01*
X645185Y495476D01*
X645185Y497840D01*
G74*
D01*
G03X643683Y501455I5105J0*
G01*
X643683Y501455D01*
X636075Y509063D01*
G74*
D01*
G03X632460Y510565I3615J3603*
G01*
X632460Y510565D01*
X560914Y510565D01*
X553745Y517734D01*
X553745Y549632D01*
G75*
D01*
G03X543535Y549632I-5105J9168*
G01*
X543535Y549632D01*
X543535Y515628D01*
G75*
D01*
G03X545031Y512011I5105J-8*
G01*
X545031Y512011D01*
X555191Y501851D01*
G75*
D01*
G03X558806Y500355I3609J3609*
G01*
X558806Y500355D01*
X566800Y500355D01*
G75*
D01*
G03X581280Y500355I7240J-7595*
G01*
X581280Y500355D01*
X592200Y500355D01*
G75*
D01*
G03X606680Y500355I7240J-7595*
G01*
X606680Y500355D01*
X630346Y500355D01*
X634975Y495726D01*
X634975Y447049D01*
G75*
D01*
G03X636471Y443431I5105J-9*
G01*
X636471Y443431D01*
X641551Y438351D01*
G75*
D01*
G03X645167Y436855I3609J3609*
G01*
X645167Y436855D01*
X686226Y436855D01*
X688315Y434766D01*
X688315Y423800D01*
G75*
D01*
G03X688315Y409320I-7595J-7240*
G01*
X688315Y409320D01*
X688315Y365787D01*
G75*
D01*
G03X696053Y353368I-2515J-10187*
G01*
X696053Y353368D01*
X697431Y351991D01*
G75*
D01*
G03X701047Y350495I3609J3609*
G01*
X701047Y350495D01*
X702032Y350495D01*
D02*
G37*
G36*
X485520Y363195D02*
G75*
D01*
G03X500000Y363195I7240J-7595*
G01*
X500000Y363195D01*
X510920Y363195D01*
G75*
D01*
G03X522971Y364925I7240J-7595*
G01*
G74*
D01*
G03X521763Y366835I4811J1705*
G01*
X521763Y366835D01*
X520324Y368275D01*
X561766Y368275D01*
X563855Y366186D01*
X563855Y364768D01*
G75*
D01*
G03X574065Y364768I5105J-9168*
G01*
X574065Y364768D01*
X574065Y368300D01*
G74*
D01*
G03X572563Y371915I5105J0*
G01*
X572563Y371915D01*
X567495Y376983D01*
G74*
D01*
G03X565558Y378201I3615J3603*
G01*
G75*
D01*
G03X563873Y378485I-1678J-4821*
G01*
X563873Y378485D01*
X337394Y378485D01*
X332765Y383114D01*
X332765Y409320D01*
G75*
D01*
G03X332765Y423800I7595J7240*
G01*
X332765Y423800D01*
X332765Y444500D01*
G74*
D01*
G03X331263Y448115I5105J0*
G01*
X331263Y448115D01*
X326195Y453183D01*
G74*
D01*
G03X322580Y454685I3615J3603*
G01*
X322580Y454685D01*
X271354Y454685D01*
X269265Y456774D01*
X269265Y483592D01*
G75*
D01*
G03X259055Y483592I-5105J9168*
G01*
X259055Y483592D01*
X259055Y454669D01*
G75*
D01*
G03X260551Y451051I5105J-9*
G01*
X260551Y451051D01*
X265631Y445971D01*
G75*
D01*
G03X269247Y444475I3609J3609*
G01*
X269247Y444475D01*
X320466Y444475D01*
X322555Y442386D01*
X322555Y423800D01*
G75*
D01*
G03X309855Y407392I-7595J-7240*
G01*
X309855Y407392D01*
X309855Y373389D01*
G75*
D01*
G03X311351Y369771I5105J-9*
G01*
X311351Y369771D01*
X316431Y364691D01*
G75*
D01*
G03X320047Y363195I3609J3609*
G01*
X320047Y363195D01*
X434720Y363195D01*
G74*
D01*
G03X432149Y359321I7240J7595*
G01*
X432149Y359321D01*
X438239Y359321D01*
X438239Y363195D01*
X445681Y363195D01*
X445681Y359321D01*
X451771Y359321D01*
G74*
D01*
G03X449200Y363195I9811J3721*
G01*
X449200Y363195D01*
X460120Y363195D01*
G75*
D01*
G03X462255Y346432I7240J-7595*
G01*
X462255Y346432D01*
X462255Y306914D01*
X444833Y289492D01*
G75*
D01*
G03X452052Y282273I-2873J-10092*
G01*
X452052Y282273D01*
X456774Y286995D01*
X460120Y286995D01*
G75*
D01*
G03X474600Y286995I7240J-7595*
G01*
X474600Y286995D01*
X485520Y286995D01*
G75*
D01*
G03X487655Y270232I7240J-7595*
G01*
X487655Y270232D01*
X487655Y246392D01*
G75*
D01*
G03X489151Y242771I5105J-12*
G01*
X489151Y242771D01*
X495749Y236172D01*
X496771Y235151D01*
G74*
D01*
G03X499349Y233761I3609J3609*
G01*
G75*
D01*
G03X500380Y233655I1031J4999*
G01*
X500380Y233655D01*
X800100Y233655D01*
G74*
D01*
G03X804288Y235842I0J5105*
G01*
G74*
D01*
G03X804979Y236421I2918J4188*
G01*
X804979Y236421D01*
X831643Y263085D01*
G75*
D01*
G03X833145Y266700I-3603J3615*
G01*
X833145Y266700D01*
X833145Y373806D01*
X851963Y392625D01*
G75*
D01*
G03X853465Y396240I-3603J3615*
G01*
X853465Y396240D01*
X853465Y419526D01*
X860634Y426695D01*
X886284Y426695D01*
G75*
D01*
G03X891716Y426695I2716J-10135*
G01*
X891716Y426695D01*
X911684Y426695D01*
G75*
D01*
G03X917116Y426695I2716J-10135*
G01*
X917116Y426695D01*
X962484Y426695D01*
G75*
D01*
G03X967916Y426695I2716J-10135*
G01*
X967916Y426695D01*
X987884Y426695D01*
G75*
D01*
G03X993316Y426695I2716J-10135*
G01*
X993316Y426695D01*
X1006266Y426695D01*
X1008784Y424177D01*
G75*
D01*
G03X1020811Y425885I7216J-7617*
G01*
G74*
D01*
G03X1019603Y427795I4811J1705*
G01*
X1019603Y427795D01*
X1011995Y435403D01*
G74*
D01*
G03X1009887Y436677I3615J3603*
G01*
G75*
D01*
G03X1008373Y436905I-1507J-4877*
G01*
X1008373Y436905D01*
X858520Y436905D01*
G75*
D01*
G03X857248Y436744I0J-5105*
G01*
G74*
D01*
G03X854911Y435409I1272J4944*
G01*
X854911Y435409D01*
X844751Y425249D01*
G75*
D01*
G03X843255Y421628I3609J-3609*
G01*
X843255Y421628D01*
X843255Y398354D01*
X824431Y379529D01*
G75*
D01*
G03X822935Y375910I3609J-3609*
G01*
X822935Y375910D01*
X822935Y358316D01*
G75*
D01*
G03X805205Y362840I-10135J-2716*
G01*
X805205Y362840D01*
X805205Y391160D01*
G74*
D01*
G03X803703Y394775I5105J0*
G01*
X803703Y394775D01*
X789536Y408943D01*
G75*
D01*
G03X777509Y407235I-7216J7617*
G01*
G74*
D01*
G03X778711Y405331I4811J1705*
G01*
X778711Y405331D01*
X794995Y389046D01*
X794995Y362840D01*
G75*
D01*
G03X779805Y362840I-7595J-7240*
G01*
X779805Y362840D01*
X779805Y378460D01*
G74*
D01*
G03X778303Y382075I5105J0*
G01*
X778303Y382075D01*
X770695Y389683D01*
G74*
D01*
G03X768587Y390957I3615J3603*
G01*
G75*
D01*
G03X767073Y391185I-1507J-4877*
G01*
X767073Y391185D01*
X728554Y391185D01*
X723925Y395814D01*
X723925Y409320D01*
G75*
D01*
G03X723925Y423800I7595J7240*
G01*
X723925Y423800D01*
X723925Y465246D01*
X734851Y476172D01*
X735123Y476445D01*
G75*
D01*
G03X736625Y480060I-3603J3615*
G01*
X736625Y480060D01*
X736625Y483592D01*
G75*
D01*
G03X726415Y483592I-5105J9168*
G01*
X726415Y483592D01*
X726415Y482174D01*
X720413Y476172D01*
X716172Y471931D01*
X715211Y470969D01*
G75*
D01*
G03X713715Y467352I3609J-3609*
G01*
X713715Y467352D01*
X713715Y423800D01*
G74*
D01*
G03X709841Y426371I7595J7240*
G01*
X709841Y426371D01*
X709841Y420281D01*
X713715Y420281D01*
X713715Y412839D01*
X709841Y412839D01*
X709841Y406749D01*
G74*
D01*
G03X713715Y409320I3721J9811*
G01*
X713715Y409320D01*
X713715Y393712D01*
G75*
D01*
G03X715211Y390091I5105J-12*
G01*
X715211Y390091D01*
X722831Y382471D01*
G74*
D01*
G03X725409Y381081I3609J3609*
G01*
G75*
D01*
G03X726440Y380975I1031J4999*
G01*
X726440Y380975D01*
X764966Y380975D01*
X769595Y376346D01*
X769595Y362840D01*
G75*
D01*
G03X769923Y348721I-7595J-7240*
G01*
G74*
D01*
G03X771091Y346911I4777J1799*
G01*
X771091Y346911D01*
X782295Y335706D01*
X782295Y288568D01*
G75*
D01*
G03X794995Y272160I5105J-9168*
G01*
X794995Y272160D01*
X794995Y268814D01*
X775126Y248945D01*
X578694Y248945D01*
X574065Y253574D01*
X574065Y270232D01*
G75*
D01*
G03X563855Y270232I-5105J9168*
G01*
X563855Y270232D01*
X563855Y251472D01*
G75*
D01*
G03X565351Y247851I5105J-12*
G01*
X565351Y247851D01*
X569336Y243865D01*
X502494Y243865D01*
X497865Y248494D01*
X497865Y270232D01*
G75*
D01*
G03X500000Y286995I-5105J9168*
G01*
X500000Y286995D01*
X503346Y286995D01*
X508068Y282273D01*
G75*
D01*
G03X527682Y283808I10092J-2873*
G01*
X527682Y283808D01*
X538455Y294581D01*
X538455Y288568D01*
G75*
D01*
G03X548665Y288568I5105J-9168*
G01*
X548665Y288568D01*
X548665Y297606D01*
X564952Y313893D01*
G75*
D01*
G03X557733Y321112I1468J8687*
G01*
X557733Y321112D01*
X548665Y312044D01*
X548665Y346432D01*
G75*
D01*
G03X538455Y346432I-5105J9168*
G01*
X538455Y346432D01*
X538455Y309019D01*
X519271Y289834D01*
G75*
D01*
G03X515287Y289492I-1111J-10434*
G01*
X515287Y289492D01*
X509075Y295703D01*
G74*
D01*
G03X505460Y297205I3615J3603*
G01*
X505460Y297205D01*
X466984Y297205D01*
X470963Y301185D01*
G75*
D01*
G03X472465Y304800I-3603J3615*
G01*
X472465Y304800D01*
X472465Y346432D01*
G75*
D01*
G03X474600Y363195I-5105J9168*
G01*
X474600Y363195D01*
X485520Y363195D01*
D02*
G37*
G36*
X61025Y955108D02*
G75*
D01*
G03X63228Y952905I2203J0*
G01*
X63228Y952905D01*
X76452Y952905D01*
G75*
D01*
G03X78655Y955108I0J2203*
G01*
X78655Y955108D01*
X78655Y974332D01*
G74*
D01*
G03X76452Y976535I2203J0*
G01*
X76452Y976535D01*
X63228Y976535D01*
G75*
D01*
G03X61025Y974332I0J-2203*
G01*
X61025Y974332D01*
X61025Y955108D01*
D02*
G37*
G36*
X716172Y227680D02*
G75*
D01*
G03X716172Y227680I-4972J-9240*
G01*
D02*
G37*
G36*
X716172Y151480D02*
G75*
D01*
G03X716172Y151480I-4972J-9240*
G01*
D02*
G37*
G36*
X236172Y771056D02*
G75*
D01*
G03X236172Y771056I2588J-10496*
G01*
D02*
G37*
G36*
X471081Y152051D02*
X471081Y152051D01*
X471081Y145961D01*
X477171Y145961D01*
G74*
D01*
G03X471081Y152051I9811J3721*
G01*
D02*
G37*
G36*
X471081Y132429D02*
G74*
D01*
G03X477171Y138519I3721J9811*
G01*
X477171Y138519D01*
X471081Y138519D01*
X471081Y132429D01*
D02*
G37*
G36*
X476172Y212743D02*
G75*
D01*
G03X476172Y212743I-8812J5697*
G01*
D02*
G37*
G36*
X236172Y412946D02*
G75*
D01*
G03X236172Y412946I2588J3614*
G01*
D02*
G37*
G36*
X236172Y624831D02*
G75*
D01*
G03X236172Y624831I2588J10169*
G01*
D02*
G37*
G36*
X236172Y555186D02*
G75*
D01*
G03X236172Y555186I2588J3614*
G01*
D02*
G37*
G36*
X236172Y482591D02*
G75*
D01*
G03X236172Y482591I2588J10169*
G01*
D02*
G37*
G36*
X236172Y660040D02*
G75*
D01*
G03X236172Y660040I2488J10520*
G01*
D02*
G37*
G36*
X956172Y1064322D02*
G75*
D01*
G03X956172Y1064322I9028J-7682*
G01*
D02*
G37*
G36*
X710276Y1060844D02*
X710276Y1060844D01*
X717156Y1060844D01*
X717156Y1067724D01*
G74*
D01*
G03X710276Y1060844I4204J11084*
G01*
D02*
G37*
G36*
X710276Y1052436D02*
G74*
D01*
G03X717156Y1045556I11084J4204*
G01*
X717156Y1045556D01*
X717156Y1052436D01*
X710276Y1052436D01*
D02*
G37*
G36*
X956172Y911922D02*
G75*
D01*
G03X956172Y911922I9028J-7682*
G01*
D02*
G37*
G36*
X956172Y761425D02*
G75*
D01*
G03X956172Y761425I9028J-5945*
G01*
D02*
G37*
G36*
X955389Y555079D02*
G74*
D01*
G03X961479Y548989I9811J3721*
G01*
X961479Y548989D01*
X961479Y555079D01*
X955389Y555079D01*
D02*
G37*
G36*
X955389Y562521D02*
X955389Y562521D01*
X961479Y562521D01*
X961479Y568611D01*
G74*
D01*
G03X955389Y562521I3721J9811*
G01*
D02*
G37*
G36*
X956172Y640347D02*
G75*
D01*
G03X956172Y640347I9028J-5347*
G01*
D02*
G37*
G36*
X956172Y671574D02*
G75*
D01*
G03X956172Y671574I8928J-6094*
G01*
D02*
G37*
G36*
X960095Y454669D02*
G75*
D01*
G03X961591Y451051I5105J-9*
G01*
X961591Y451051D01*
X969211Y443431D01*
G75*
D01*
G03X972827Y441935I3609J3609*
G01*
X972827Y441935D01*
X1059620Y441935D01*
G75*
D01*
G03X1059620Y452145I7180J5105*
G01*
X1059620Y452145D01*
X974934Y452145D01*
X970305Y456774D01*
X970305Y483592D01*
G75*
D01*
G03X960095Y483592I-5105J9168*
G01*
X960095Y483592D01*
X960095Y454669D01*
D02*
G37*
G36*
X243905Y955108D02*
G75*
D01*
G03X246108Y952905I2203J0*
G01*
X246108Y952905D01*
X259332Y952905D01*
G75*
D01*
G03X261535Y955108I0J2203*
G01*
X261535Y955108D01*
X261535Y974332D01*
G74*
D01*
G03X259332Y976535I2203J0*
G01*
X259332Y976535D01*
X246108Y976535D01*
G75*
D01*
G03X243905Y974332I0J-2203*
G01*
X243905Y974332D01*
X243905Y955108D01*
D02*
G37*
G36*
X710276Y900036D02*
G74*
D01*
G03X717156Y893156I11084J4204*
G01*
X717156Y893156D01*
X717156Y900036D01*
X710276Y900036D01*
D02*
G37*
G36*
X710276Y908444D02*
X710276Y908444D01*
X717156Y908444D01*
X717156Y915324D01*
G74*
D01*
G03X710276Y908444I4204J11084*
G01*
D02*
G37*
G36*
X716172Y764538D02*
G75*
D01*
G03X716172Y764538I-10052J-3978*
G01*
D02*
G37*
G36*
X476172Y775786D02*
G75*
D01*
G03X476172Y775786I-3732J-10146*
G01*
D02*
G37*
G36*
X716172Y638011D02*
G75*
D01*
G03X716172Y638011I-10052J-3011*
G01*
D02*
G37*
G36*
X716172Y674275D02*
G75*
D01*
G03X716172Y674275I-10152J-3715*
G01*
D02*
G37*
G36*
X716172Y495771D02*
G75*
D01*
G03X716172Y495771I-10052J-3011*
G01*
D02*
G37*
G36*
X476172Y625193D02*
G75*
D01*
G03X476172Y625193I-3732J9807*
G01*
D02*
G37*
G36*
X476161Y568611D02*
X476161Y568611D01*
X476161Y562521D01*
X482251Y562521D01*
G74*
D01*
G03X476161Y568611I9811J3721*
G01*
D02*
G37*
G36*
X476172Y556385D02*
G75*
D01*
G03X476172Y556385I-3732J2415*
G01*
D02*
G37*
G36*
X476161Y548989D02*
G74*
D01*
G03X482251Y555079I3721J9811*
G01*
X482251Y555079D01*
X476161Y555079D01*
X476161Y548989D01*
D02*
G37*
G36*
X476172Y482953D02*
G75*
D01*
G03X476172Y482953I-3732J9807*
G01*
D02*
G37*
G36*
X476172Y665532D02*
G75*
D01*
G03X476172Y665532I-3832J10108*
G01*
D02*
G37*
G36*
X701675Y416560D02*
G75*
D01*
G03X701675Y416560I4445J0*
G01*
D02*
G37*
G36*
X975995Y309880D02*
G75*
D01*
G03X975995Y309880I4445J0*
G01*
D02*
G37*
G36*
X976719Y300069D02*
X976719Y300069D01*
X976719Y306159D01*
X970629Y306159D01*
G74*
D01*
G03X976719Y300069I9811J3721*
G01*
D02*
G37*
G36*
X990251Y306159D02*
X990251Y306159D01*
X984161Y306159D01*
X984161Y300069D01*
G74*
D01*
G03X990251Y306159I3721J9811*
G01*
D02*
G37*
G36*
X751507Y279400D02*
G75*
D01*
G03X751507Y279400I10493J0*
G01*
D02*
G37*
G36*
X726107Y355600D02*
G75*
D01*
G03X726107Y355600I10493J0*
G01*
D02*
G37*
G36*
X726107Y279400D02*
G75*
D01*
G03X726107Y279400I10493J0*
G01*
D02*
G37*
G36*
X362039Y406749D02*
X362039Y406749D01*
X362039Y412839D01*
X355949Y412839D01*
G74*
D01*
G03X362039Y406749I9811J3721*
G01*
D02*
G37*
G36*
X361315Y416560D02*
G75*
D01*
G03X361315Y416560I4445J0*
G01*
D02*
G37*
G36*
X375571Y412839D02*
X375571Y412839D01*
X369481Y412839D01*
X369481Y406749D01*
G74*
D01*
G03X375571Y412839I3721J9811*
G01*
D02*
G37*
G36*
X411147Y416560D02*
G75*
D01*
G03X411147Y416560I10493J0*
G01*
D02*
G37*
G36*
X436547Y416560D02*
G75*
D01*
G03X436547Y416560I10493J0*
G01*
D02*
G37*
G36*
X468719Y406749D02*
X468719Y406749D01*
X468719Y412839D01*
X462629Y412839D01*
G74*
D01*
G03X468719Y406749I9811J3721*
G01*
D02*
G37*
G36*
X355949Y420281D02*
X355949Y420281D01*
X362039Y420281D01*
X362039Y426371D01*
G74*
D01*
G03X355949Y420281I3721J9811*
G01*
D02*
G37*
G36*
X369481Y426371D02*
X369481Y426371D01*
X369481Y420281D01*
X375571Y420281D01*
G74*
D01*
G03X369481Y426371I9811J3721*
G01*
D02*
G37*
G36*
X462629Y420281D02*
X462629Y420281D01*
X468719Y420281D01*
X468719Y426371D01*
G74*
D01*
G03X462629Y420281I3721J9811*
G01*
D02*
G37*
G36*
X797227Y416560D02*
G75*
D01*
G03X797227Y416560I10493J0*
G01*
D02*
G37*
G36*
X836841Y426371D02*
X836841Y426371D01*
X836841Y420281D01*
X842931Y420281D01*
G74*
D01*
G03X836841Y426371I9811J3721*
G01*
D02*
G37*
G36*
X829399Y406749D02*
X829399Y406749D01*
X829399Y412839D01*
X823309Y412839D01*
G74*
D01*
G03X829399Y406749I9811J3721*
G01*
D02*
G37*
G36*
X842931Y412839D02*
X842931Y412839D01*
X836841Y412839D01*
X836841Y406749D01*
G74*
D01*
G03X842931Y412839I3721J9811*
G01*
D02*
G37*
G36*
X828675Y416560D02*
G75*
D01*
G03X828675Y416560I4445J0*
G01*
D02*
G37*
G36*
X823309Y420281D02*
X823309Y420281D01*
X829399Y420281D01*
X829399Y426371D01*
G74*
D01*
G03X823309Y420281I3721J9811*
G01*
D02*
G37*
G36*
X746427Y416560D02*
G75*
D01*
G03X746427Y416560I10493J0*
G01*
D02*
G37*
G36*
X929989Y420281D02*
X929989Y420281D01*
X936079Y420281D01*
X936079Y426371D01*
G74*
D01*
G03X929989Y420281I3721J9811*
G01*
D02*
G37*
G36*
X949611Y412839D02*
X949611Y412839D01*
X943521Y412839D01*
X943521Y406749D01*
G74*
D01*
G03X949611Y412839I3721J9811*
G01*
D02*
G37*
G36*
X936079Y406749D02*
X936079Y406749D01*
X936079Y412839D01*
X929989Y412839D01*
G74*
D01*
G03X936079Y406749I9811J3721*
G01*
D02*
G37*
G36*
X935355Y416560D02*
G75*
D01*
G03X935355Y416560I4445J0*
G01*
D02*
G37*
G36*
X943521Y426371D02*
X943521Y426371D01*
X943521Y420281D01*
X949611Y420281D01*
G74*
D01*
G03X943521Y426371I9811J3721*
G01*
D02*
G37*
G36*
X914051Y382359D02*
X914051Y382359D01*
X907961Y382359D01*
X907961Y376269D01*
G74*
D01*
G03X914051Y382359I3721J9811*
G01*
D02*
G37*
G36*
X900519Y376269D02*
X900519Y376269D01*
X900519Y382359D01*
X894429Y382359D01*
G74*
D01*
G03X900519Y376269I9811J3721*
G01*
D02*
G37*
G36*
X894429Y389801D02*
X894429Y389801D01*
X900519Y389801D01*
X900519Y395891D01*
G74*
D01*
G03X894429Y389801I3721J9811*
G01*
D02*
G37*
G36*
X899795Y386080D02*
G75*
D01*
G03X899795Y386080I4445J0*
G01*
D02*
G37*
G36*
X907961Y395891D02*
X907961Y395891D01*
X907961Y389801D01*
X914051Y389801D01*
G74*
D01*
G03X907961Y395891I9811J3721*
G01*
D02*
G37*
G36*
X919147Y386080D02*
G75*
D01*
G03X919147Y386080I10493J0*
G01*
D02*
G37*
G36*
X893747Y309880D02*
G75*
D01*
G03X893747Y309880I10493J0*
G01*
D02*
G37*
G36*
X190950Y208280D02*
G75*
D01*
G03X190950Y208280I10810J0*
G01*
D02*
G37*
G36*
X51690Y80500D02*
G75*
D01*
G03X51690Y80500I28810J0*
G01*
D02*
G37*
G36*
X100950Y208380D02*
G75*
D01*
G03X100950Y208380I10810J0*
G01*
D02*
G37*
G36*
X589629Y420281D02*
X589629Y420281D01*
X595719Y420281D01*
X595719Y426371D01*
G74*
D01*
G03X589629Y420281I3721J9811*
G01*
D02*
G37*
G36*
X609251Y412839D02*
X609251Y412839D01*
X603161Y412839D01*
X603161Y406749D01*
G74*
D01*
G03X609251Y412839I3721J9811*
G01*
D02*
G37*
G36*
X595719Y406749D02*
X595719Y406749D01*
X595719Y412839D01*
X589629Y412839D01*
G74*
D01*
G03X595719Y406749I9811J3721*
G01*
D02*
G37*
G36*
X594995Y416560D02*
G75*
D01*
G03X594995Y416560I4445J0*
G01*
D02*
G37*
G36*
X603161Y426371D02*
X603161Y426371D01*
X603161Y420281D01*
X609251Y420281D01*
G74*
D01*
G03X603161Y426371I9811J3721*
G01*
D02*
G37*
G36*
X644827Y416560D02*
G75*
D01*
G03X644827Y416560I10493J0*
G01*
D02*
G37*
G36*
X563547Y416560D02*
G75*
D01*
G03X563547Y416560I10493J0*
G01*
D02*
G37*
G36*
X538147Y416560D02*
G75*
D01*
G03X538147Y416560I10493J0*
G01*
D02*
G37*
G36*
X512747Y416560D02*
G75*
D01*
G03X512747Y416560I10493J0*
G01*
D02*
G37*
G36*
X487347Y416560D02*
G75*
D01*
G03X487347Y416560I10493J0*
G01*
D02*
G37*
G36*
X664121Y365411D02*
X664121Y365411D01*
X664121Y359321D01*
X670211Y359321D01*
G74*
D01*
G03X664121Y365411I9811J3721*
G01*
D02*
G37*
G36*
X656679Y345789D02*
X656679Y345789D01*
X656679Y351879D01*
X650589Y351879D01*
G74*
D01*
G03X656679Y345789I9811J3721*
G01*
D02*
G37*
G36*
X650589Y359321D02*
X650589Y359321D01*
X656679Y359321D01*
X656679Y365411D01*
G74*
D01*
G03X650589Y359321I3721J9811*
G01*
D02*
G37*
G36*
X655955Y355600D02*
G75*
D01*
G03X655955Y355600I4445J0*
G01*
D02*
G37*
G36*
X670211Y351879D02*
X670211Y351879D01*
X664121Y351879D01*
X664121Y345789D01*
G74*
D01*
G03X670211Y351879I3721J9811*
G01*
D02*
G37*
G36*
X583867Y355600D02*
G75*
D01*
G03X583867Y355600I10493J0*
G01*
D02*
G37*
G36*
X675307Y279400D02*
G75*
D01*
G03X675307Y279400I10493J0*
G01*
D02*
G37*
G36*
X649907Y279400D02*
G75*
D01*
G03X649907Y279400I10493J0*
G01*
D02*
G37*
G36*
X583867Y279400D02*
G75*
D01*
G03X583867Y279400I10493J0*
G01*
D02*
G37*
G36*
X1090690Y80500D02*
G75*
D01*
G03X1090690Y80500I28810J0*
G01*
D02*
G37*
G36*
X984870Y192940D02*
G75*
D01*
G03X984870Y192940I10810J0*
G01*
D02*
G37*
G36*
X1036292Y193440D02*
G75*
D01*
G03X1036292Y193440I10588J0*
G01*
D02*
G37*
G36*
X1086292Y193440D02*
G75*
D01*
G03X1086292Y193440I10588J0*
G01*
D02*
G37*
G36*
X51690Y1119500D02*
G75*
D01*
G03X51690Y1119500I28810J0*
G01*
D02*
G37*
G36*
X105025Y1001332D02*
X105025Y1001332D01*
X105025Y988108D01*
G75*
D01*
G03X107228Y985905I2203J0*
G01*
X107228Y985905D01*
X126452Y985905D01*
G75*
D01*
G03X128655Y988108I0J2203*
G01*
X128655Y988108D01*
X128655Y1001332D01*
G74*
D01*
G03X126452Y1003535I2203J0*
G01*
X126452Y1003535D01*
X107228Y1003535D01*
G75*
D01*
G03X105025Y1001332I0J-2203*
G01*
D02*
G37*
G36*
X726107Y142240D02*
G75*
D01*
G03X726107Y142240I10493J0*
G01*
D02*
G37*
G36*
X751507Y142240D02*
G75*
D01*
G03X751507Y142240I10493J0*
G01*
D02*
G37*
G36*
X776907Y142240D02*
G75*
D01*
G03X776907Y142240I10493J0*
G01*
D02*
G37*
G36*
X802307Y142240D02*
G75*
D01*
G03X802307Y142240I10493J0*
G01*
D02*
G37*
G36*
X895822Y197477D02*
G75*
D01*
G03X895822Y188603I9858J-4437*
G01*
X895822Y188603D01*
X900259Y193040D01*
X895822Y197477D01*
D02*
G37*
G36*
X901243Y202898D02*
X901243Y202898D01*
X905680Y198461D01*
X910117Y202898D01*
G75*
D01*
G03X901243Y202898I-4437J-9858*
G01*
D02*
G37*
G36*
X915538Y197477D02*
X915538Y197477D01*
X911101Y193040D01*
X915538Y188603D01*
G75*
D01*
G03X915538Y197477I-9858J4437*
G01*
D02*
G37*
G36*
X910117Y183182D02*
X910117Y183182D01*
X905680Y187619D01*
X901243Y183182D01*
G75*
D01*
G03X910117Y183182I4437J9858*
G01*
D02*
G37*
G36*
X901680Y193040D02*
G75*
D01*
G03X901680Y193040I4000J0*
G01*
D02*
G37*
G36*
X726107Y218440D02*
G75*
D01*
G03X726107Y218440I10493J0*
G01*
D02*
G37*
G36*
X751507Y218440D02*
G75*
D01*
G03X751507Y218440I10493J0*
G01*
D02*
G37*
G36*
X776907Y218440D02*
G75*
D01*
G03X776907Y218440I10493J0*
G01*
D02*
G37*
G36*
X802307Y218440D02*
G75*
D01*
G03X802307Y218440I10493J0*
G01*
D02*
G37*
G36*
X98997Y740329D02*
X98997Y740329D01*
X114363Y740329D01*
G75*
D01*
G03X118191Y744157I0J3828*
G01*
X118191Y744157D01*
X118191Y759523D01*
G74*
D01*
G03X114363Y763351I3828J0*
G01*
X114363Y763351D01*
X98997Y763351D01*
G75*
D01*
G03X95169Y759523I0J-3828*
G01*
X95169Y759523D01*
X95169Y744157D01*
G75*
D01*
G03X98997Y740329I3828J0*
G01*
D02*
G37*
G36*
X202550Y760560D02*
G75*
D01*
G03X202550Y760560I10810J0*
G01*
D02*
G37*
G36*
X110953Y781316D02*
X110953Y781316D01*
X117426Y781316D01*
G74*
D01*
G03X110756Y787986I10746J4076*
G01*
X110756Y787986D01*
X110756Y781513D01*
G75*
D01*
G03X102604Y781513I-4076J-4273*
G01*
X102604Y781513D01*
X102604Y787986D01*
G74*
D01*
G03X95934Y781316I4076J10746*
G01*
X95934Y781316D01*
X102407Y781316D01*
G75*
D01*
G03X102407Y773164I4273J-4076*
G01*
X102407Y773164D01*
X95934Y773164D01*
G74*
D01*
G03X102604Y766494I10746J4076*
G01*
X102604Y766494D01*
X102604Y772967D01*
G75*
D01*
G03X110756Y772967I4076J4273*
G01*
X110756Y772967D01*
X110756Y766494D01*
G74*
D01*
G03X117426Y773164I4076J10746*
G01*
X117426Y773164D01*
X110953Y773164D01*
G75*
D01*
G03X110953Y781316I-4273J4076*
G01*
D02*
G37*
G36*
X95187Y802640D02*
G75*
D01*
G03X95187Y802640I11493J0*
G01*
D02*
G37*
G36*
X105530Y883920D02*
G75*
D01*
G03X105530Y883920I11310J0*
G01*
D02*
G37*
G36*
X229768Y876420D02*
X229768Y876420D01*
X229768Y891420D01*
G74*
D01*
G03X225940Y895248I3828J0*
G01*
X225940Y895248D01*
X210940Y895248D01*
G75*
D01*
G03X207112Y891420I0J-3828*
G01*
X207112Y891420D01*
X207112Y876420D01*
G75*
D01*
G03X210940Y872592I3828J0*
G01*
X210940Y872592D01*
X225940Y872592D01*
G75*
D01*
G03X229768Y876420I0J3828*
G01*
D02*
G37*
G36*
X105025Y941332D02*
X105025Y941332D01*
X105025Y928108D01*
G75*
D01*
G03X107228Y925905I2203J0*
G01*
X107228Y925905D01*
X126452Y925905D01*
G75*
D01*
G03X128655Y928108I0J2203*
G01*
X128655Y928108D01*
X128655Y941332D01*
G74*
D01*
G03X126452Y943535I2203J0*
G01*
X126452Y943535D01*
X107228Y943535D01*
G75*
D01*
G03X105025Y941332I0J-2203*
G01*
D02*
G37*
G36*
X664121Y228251D02*
X664121Y228251D01*
X664121Y222161D01*
X670211Y222161D01*
G74*
D01*
G03X664121Y228251I9811J3721*
G01*
D02*
G37*
G36*
X502571Y138519D02*
X502571Y138519D01*
X496481Y138519D01*
X496481Y132429D01*
G74*
D01*
G03X502571Y138519I3721J9811*
G01*
D02*
G37*
G36*
X488315Y142240D02*
G75*
D01*
G03X488315Y142240I4445J0*
G01*
D02*
G37*
G36*
X489039Y132429D02*
X489039Y132429D01*
X489039Y138519D01*
X482949Y138519D01*
G74*
D01*
G03X489039Y132429I9811J3721*
G01*
D02*
G37*
G36*
X513715Y142240D02*
G75*
D01*
G03X513715Y142240I4445J0*
G01*
D02*
G37*
G36*
X514439Y132429D02*
X514439Y132429D01*
X514439Y138519D01*
X508349Y138519D01*
G74*
D01*
G03X514439Y132429I9811J3721*
G01*
D02*
G37*
G36*
X533067Y142240D02*
G75*
D01*
G03X533067Y142240I10493J0*
G01*
D02*
G37*
G36*
X527971Y138519D02*
X527971Y138519D01*
X521881Y138519D01*
X521881Y132429D01*
G74*
D01*
G03X527971Y138519I3721J9811*
G01*
D02*
G37*
G36*
X558467Y142240D02*
G75*
D01*
G03X558467Y142240I10493J0*
G01*
D02*
G37*
G36*
X583867Y142240D02*
G75*
D01*
G03X583867Y142240I10493J0*
G01*
D02*
G37*
G36*
X649907Y142240D02*
G75*
D01*
G03X649907Y142240I10493J0*
G01*
D02*
G37*
G36*
X675307Y142240D02*
G75*
D01*
G03X675307Y142240I10493J0*
G01*
D02*
G37*
G36*
X496481Y152051D02*
X496481Y152051D01*
X496481Y145961D01*
X502571Y145961D01*
G74*
D01*
G03X496481Y152051I9811J3721*
G01*
D02*
G37*
G36*
X482949Y145961D02*
X482949Y145961D01*
X489039Y145961D01*
X489039Y152051D01*
G74*
D01*
G03X482949Y145961I3721J9811*
G01*
D02*
G37*
G36*
X508349Y145961D02*
X508349Y145961D01*
X514439Y145961D01*
X514439Y152051D01*
G74*
D01*
G03X508349Y145961I3721J9811*
G01*
D02*
G37*
G36*
X521881Y152051D02*
X521881Y152051D01*
X521881Y145961D01*
X527971Y145961D01*
G74*
D01*
G03X521881Y152051I9811J3721*
G01*
D02*
G37*
G36*
X482267Y218440D02*
G75*
D01*
G03X482267Y218440I10493J0*
G01*
D02*
G37*
G36*
X507667Y218440D02*
G75*
D01*
G03X507667Y218440I10493J0*
G01*
D02*
G37*
G36*
X533067Y218440D02*
G75*
D01*
G03X533067Y218440I10493J0*
G01*
D02*
G37*
G36*
X558467Y218440D02*
G75*
D01*
G03X558467Y218440I10493J0*
G01*
D02*
G37*
G36*
X583867Y218440D02*
G75*
D01*
G03X583867Y218440I10493J0*
G01*
D02*
G37*
G36*
X655955Y218440D02*
G75*
D01*
G03X655955Y218440I4445J0*
G01*
D02*
G37*
G36*
X656679Y208629D02*
X656679Y208629D01*
X656679Y214719D01*
X650589Y214719D01*
G74*
D01*
G03X656679Y208629I9811J3721*
G01*
D02*
G37*
G36*
X675307Y218440D02*
G75*
D01*
G03X675307Y218440I10493J0*
G01*
D02*
G37*
G36*
X670211Y214719D02*
X670211Y214719D01*
X664121Y214719D01*
X664121Y208629D01*
G74*
D01*
G03X670211Y214719I3721J9811*
G01*
D02*
G37*
G36*
X650589Y222161D02*
X650589Y222161D01*
X656679Y222161D01*
X656679Y228251D01*
G74*
D01*
G03X650589Y222161I3721J9811*
G01*
D02*
G37*
G36*
X445681Y228251D02*
X445681Y228251D01*
X445681Y222161D01*
X451771Y222161D01*
G74*
D01*
G03X445681Y228251I9811J3721*
G01*
D02*
G37*
G36*
X431467Y142240D02*
G75*
D01*
G03X431467Y142240I10493J0*
G01*
D02*
G37*
G36*
X463639Y132429D02*
X463639Y132429D01*
X463639Y138519D01*
X457549Y138519D01*
G74*
D01*
G03X463639Y132429I9811J3721*
G01*
D02*
G37*
G36*
X462915Y142240D02*
G75*
D01*
G03X462915Y142240I4445J0*
G01*
D02*
G37*
G36*
X457549Y145961D02*
X457549Y145961D01*
X463639Y145961D01*
X463639Y152051D01*
G74*
D01*
G03X457549Y145961I3721J9811*
G01*
D02*
G37*
G36*
X293990Y213460D02*
G75*
D01*
G03X293990Y213460I10810J0*
G01*
D02*
G37*
G36*
X383990Y213360D02*
G75*
D01*
G03X383990Y213360I10810J0*
G01*
D02*
G37*
G36*
X437515Y218440D02*
G75*
D01*
G03X437515Y218440I4445J0*
G01*
D02*
G37*
G36*
X438239Y208629D02*
X438239Y208629D01*
X438239Y214719D01*
X432149Y214719D01*
G74*
D01*
G03X438239Y208629I9811J3721*
G01*
D02*
G37*
G36*
X451771Y214719D02*
X451771Y214719D01*
X445681Y214719D01*
X445681Y208629D01*
G74*
D01*
G03X451771Y214719I3721J9811*
G01*
D02*
G37*
G36*
X432149Y222161D02*
X432149Y222161D01*
X438239Y222161D01*
X438239Y228251D01*
G74*
D01*
G03X432149Y222161I3721J9811*
G01*
D02*
G37*
G36*
X228949Y420281D02*
X228949Y420281D01*
X235039Y420281D01*
X235039Y426371D01*
G74*
D01*
G03X228949Y420281I3721J9811*
G01*
D02*
G37*
G36*
X101572Y279800D02*
G75*
D01*
G03X101572Y279800I10588J0*
G01*
D02*
G37*
G36*
X151572Y279800D02*
G75*
D01*
G03X151572Y279800I10588J0*
G01*
D02*
G37*
G36*
X122060Y326045D02*
X122060Y326045D01*
X115915Y326045D01*
X115915Y319900D01*
G74*
D01*
G03X122060Y326045I3755J9900*
G01*
D02*
G37*
G36*
X108405Y319900D02*
X108405Y319900D01*
X108405Y326045D01*
X102260Y326045D01*
G74*
D01*
G03X108405Y319900I9900J3755*
G01*
D02*
G37*
G36*
X151572Y329800D02*
G75*
D01*
G03X151572Y329800I10588J0*
G01*
D02*
G37*
G36*
X115915Y339700D02*
X115915Y339700D01*
X115915Y333555D01*
X122060Y333555D01*
G74*
D01*
G03X115915Y339700I9900J3755*
G01*
D02*
G37*
G36*
X102260Y333555D02*
X102260Y333555D01*
X108405Y333555D01*
X108405Y339700D01*
G74*
D01*
G03X102260Y333555I3755J9900*
G01*
D02*
G37*
G36*
X107160Y329800D02*
G75*
D01*
G03X107160Y329800I5000J0*
G01*
D02*
G37*
G36*
X177467Y416560D02*
G75*
D01*
G03X177467Y416560I10493J0*
G01*
D02*
G37*
G36*
X202867Y416560D02*
G75*
D01*
G03X202867Y416560I10493J0*
G01*
D02*
G37*
G36*
X235039Y406749D02*
X235039Y406749D01*
X235039Y412839D01*
X228949Y412839D01*
G74*
D01*
G03X235039Y406749I9811J3721*
G01*
D02*
G37*
G36*
X177467Y492760D02*
G75*
D01*
G03X177467Y492760I10493J0*
G01*
D02*
G37*
G36*
X202867Y492760D02*
G75*
D01*
G03X202867Y492760I10493J0*
G01*
D02*
G37*
G36*
X177467Y558800D02*
G75*
D01*
G03X177467Y558800I10493J0*
G01*
D02*
G37*
G36*
X202867Y558800D02*
G75*
D01*
G03X202867Y558800I10493J0*
G01*
D02*
G37*
G36*
X235039Y548989D02*
X235039Y548989D01*
X235039Y555079D01*
X228949Y555079D01*
G74*
D01*
G03X235039Y548989I9811J3721*
G01*
D02*
G37*
G36*
X228949Y562521D02*
X228949Y562521D01*
X235039Y562521D01*
X235039Y568611D01*
G74*
D01*
G03X228949Y562521I3721J9811*
G01*
D02*
G37*
G36*
X98997Y587929D02*
X98997Y587929D01*
X114363Y587929D01*
G75*
D01*
G03X118191Y591757I0J3828*
G01*
X118191Y591757D01*
X118191Y607123D01*
G74*
D01*
G03X114363Y610951I3828J0*
G01*
X114363Y610951D01*
X98997Y610951D01*
G75*
D01*
G03X95169Y607123I0J-3828*
G01*
X95169Y607123D01*
X95169Y591757D01*
G75*
D01*
G03X98997Y587929I3828J0*
G01*
D02*
G37*
G36*
X110953Y628916D02*
X110953Y628916D01*
X117426Y628916D01*
G74*
D01*
G03X110756Y635586I10746J4076*
G01*
X110756Y635586D01*
X110756Y629113D01*
G75*
D01*
G03X102604Y629113I-4076J-4273*
G01*
X102604Y629113D01*
X102604Y635586D01*
G74*
D01*
G03X95934Y628916I4076J10746*
G01*
X95934Y628916D01*
X102407Y628916D01*
G75*
D01*
G03X102407Y620764I4273J-4076*
G01*
X102407Y620764D01*
X95934Y620764D01*
G74*
D01*
G03X102604Y614094I10746J4076*
G01*
X102604Y614094D01*
X102604Y620567D01*
G75*
D01*
G03X110756Y620567I4076J4273*
G01*
X110756Y620567D01*
X110756Y614094D01*
G74*
D01*
G03X117426Y620764I4076J10746*
G01*
X117426Y620764D01*
X110953Y620764D01*
G75*
D01*
G03X110953Y628916I-4273J4076*
G01*
D02*
G37*
G36*
X95187Y650240D02*
G75*
D01*
G03X95187Y650240I11493J0*
G01*
D02*
G37*
G36*
X178149Y638721D02*
X178149Y638721D01*
X184239Y638721D01*
X184239Y644811D01*
G74*
D01*
G03X178149Y638721I3721J9811*
G01*
D02*
G37*
G36*
X184239Y625189D02*
X184239Y625189D01*
X184239Y631279D01*
X178149Y631279D01*
G74*
D01*
G03X184239Y625189I9811J3721*
G01*
D02*
G37*
G36*
X191681Y644811D02*
X191681Y644811D01*
X191681Y638721D01*
X197771Y638721D01*
G74*
D01*
G03X191681Y644811I9811J3721*
G01*
D02*
G37*
G36*
X197771Y631279D02*
X197771Y631279D01*
X191681Y631279D01*
X191681Y625189D01*
G74*
D01*
G03X197771Y631279I3721J9811*
G01*
D02*
G37*
G36*
X183515Y635000D02*
G75*
D01*
G03X183515Y635000I4445J0*
G01*
D02*
G37*
G36*
X202867Y635000D02*
G75*
D01*
G03X202867Y635000I10493J0*
G01*
D02*
G37*
G36*
X202450Y670560D02*
G75*
D01*
G03X202450Y670560I10810J0*
G01*
D02*
G37*
G36*
X1090690Y1119500D02*
G75*
D01*
G03X1090690Y1119500I28810J0*
G01*
D02*
G37*
G36*
X978746Y1056640D02*
G75*
D01*
G03X978746Y1056640I11854J0*
G01*
D02*
G37*
G36*
X1011555Y1056640D02*
G75*
D01*
G03X1011555Y1056640I4445J0*
G01*
D02*
G37*
G36*
X1011796Y1045556D02*
X1011796Y1045556D01*
X1011796Y1052436D01*
X1004916Y1052436D01*
G74*
D01*
G03X1011796Y1045556I11084J4204*
G01*
D02*
G37*
G36*
X1029546Y1056640D02*
G75*
D01*
G03X1029546Y1056640I11854J0*
G01*
D02*
G37*
G36*
X1027084Y1052436D02*
X1027084Y1052436D01*
X1020204Y1052436D01*
X1020204Y1045556D01*
G74*
D01*
G03X1027084Y1052436I4204J11084*
G01*
D02*
G37*
G36*
X1054946Y1056640D02*
G75*
D01*
G03X1054946Y1056640I11854J0*
G01*
D02*
G37*
G36*
X1004916Y1060844D02*
X1004916Y1060844D01*
X1011796Y1060844D01*
X1011796Y1067724D01*
G74*
D01*
G03X1004916Y1060844I4204J11084*
G01*
D02*
G37*
G36*
X1020204Y1067724D02*
X1020204Y1067724D01*
X1020204Y1060844D01*
X1027084Y1060844D01*
G74*
D01*
G03X1020204Y1067724I11084J4204*
G01*
D02*
G37*
G36*
X716915Y1056640D02*
G75*
D01*
G03X716915Y1056640I4445J0*
G01*
D02*
G37*
G36*
X734906Y1056640D02*
G75*
D01*
G03X734906Y1056640I11854J0*
G01*
D02*
G37*
G36*
X732444Y1052436D02*
X732444Y1052436D01*
X725564Y1052436D01*
X725564Y1045556D01*
G74*
D01*
G03X732444Y1052436I4204J11084*
G01*
D02*
G37*
G36*
X760306Y1056640D02*
G75*
D01*
G03X760306Y1056640I11854J0*
G01*
D02*
G37*
G36*
X806026Y1056640D02*
G75*
D01*
G03X806026Y1056640I11854J0*
G01*
D02*
G37*
G36*
X831426Y1056640D02*
G75*
D01*
G03X831426Y1056640I11854J0*
G01*
D02*
G37*
G36*
X864476Y1045556D02*
X864476Y1045556D01*
X864476Y1052436D01*
X857596Y1052436D01*
G74*
D01*
G03X864476Y1045556I11084J4204*
G01*
D02*
G37*
G36*
X864235Y1056640D02*
G75*
D01*
G03X864235Y1056640I4445J0*
G01*
D02*
G37*
G36*
X879764Y1052436D02*
X879764Y1052436D01*
X872884Y1052436D01*
X872884Y1045556D01*
G74*
D01*
G03X879764Y1052436I4204J11084*
G01*
D02*
G37*
G36*
X882226Y1056640D02*
G75*
D01*
G03X882226Y1056640I11854J0*
G01*
D02*
G37*
G36*
X907626Y1056640D02*
G75*
D01*
G03X907626Y1056640I11854J0*
G01*
D02*
G37*
G36*
X725564Y1067724D02*
X725564Y1067724D01*
X725564Y1060844D01*
X732444Y1060844D01*
G74*
D01*
G03X725564Y1067724I11084J4204*
G01*
D02*
G37*
G36*
X857596Y1060844D02*
X857596Y1060844D01*
X864476Y1060844D01*
X864476Y1067724D01*
G74*
D01*
G03X857596Y1060844I4204J11084*
G01*
D02*
G37*
G36*
X872884Y1067724D02*
X872884Y1067724D01*
X872884Y1060844D01*
X879764Y1060844D01*
G74*
D01*
G03X872884Y1067724I11084J4204*
G01*
D02*
G37*
G36*
X1071004Y915324D02*
X1071004Y915324D01*
X1071004Y908444D01*
X1077884Y908444D01*
G74*
D01*
G03X1071004Y915324I11084J4204*
G01*
D02*
G37*
G36*
X979790Y755480D02*
G75*
D01*
G03X979790Y755480I10810J0*
G01*
D02*
G37*
G36*
X1005190Y755480D02*
G75*
D01*
G03X1005190Y755480I10810J0*
G01*
D02*
G37*
G36*
X1030590Y755480D02*
G75*
D01*
G03X1030590Y755480I10810J0*
G01*
D02*
G37*
G36*
X1055990Y755480D02*
G75*
D01*
G03X1055990Y755480I10810J0*
G01*
D02*
G37*
G36*
X978746Y904240D02*
G75*
D01*
G03X978746Y904240I11854J0*
G01*
D02*
G37*
G36*
X1011796Y893156D02*
X1011796Y893156D01*
X1011796Y900036D01*
X1004916Y900036D01*
G74*
D01*
G03X1011796Y893156I11084J4204*
G01*
D02*
G37*
G36*
X1011555Y904240D02*
G75*
D01*
G03X1011555Y904240I4445J0*
G01*
D02*
G37*
G36*
X1027084Y900036D02*
X1027084Y900036D01*
X1020204Y900036D01*
X1020204Y893156D01*
G74*
D01*
G03X1027084Y900036I4204J11084*
G01*
D02*
G37*
G36*
X1029546Y904240D02*
G75*
D01*
G03X1029546Y904240I11854J0*
G01*
D02*
G37*
G36*
X1062596Y893156D02*
X1062596Y893156D01*
X1062596Y900036D01*
X1055716Y900036D01*
G74*
D01*
G03X1062596Y893156I11084J4204*
G01*
D02*
G37*
G36*
X1077884Y900036D02*
X1077884Y900036D01*
X1071004Y900036D01*
X1071004Y893156D01*
G74*
D01*
G03X1077884Y900036I4204J11084*
G01*
D02*
G37*
G36*
X1062355Y904240D02*
G75*
D01*
G03X1062355Y904240I4445J0*
G01*
D02*
G37*
G36*
X1004916Y908444D02*
X1004916Y908444D01*
X1011796Y908444D01*
X1011796Y915324D01*
G74*
D01*
G03X1004916Y908444I4204J11084*
G01*
D02*
G37*
G36*
X1020204Y915324D02*
X1020204Y915324D01*
X1020204Y908444D01*
X1027084Y908444D01*
G74*
D01*
G03X1020204Y915324I11084J4204*
G01*
D02*
G37*
G36*
X1055716Y908444D02*
X1055716Y908444D01*
X1062596Y908444D01*
X1062596Y915324D01*
G74*
D01*
G03X1055716Y908444I4204J11084*
G01*
D02*
G37*
G36*
X1055890Y665480D02*
G75*
D01*
G03X1055890Y665480I10810J0*
G01*
D02*
G37*
G36*
X980789Y496481D02*
X980789Y496481D01*
X986879Y496481D01*
X986879Y502571D01*
G74*
D01*
G03X980789Y496481I3721J9811*
G01*
D02*
G37*
G36*
X994321Y502571D02*
X994321Y502571D01*
X994321Y496481D01*
X1000411Y496481D01*
G74*
D01*
G03X994321Y502571I9811J3721*
G01*
D02*
G37*
G36*
X1000411Y489039D02*
X1000411Y489039D01*
X994321Y489039D01*
X994321Y482949D01*
G74*
D01*
G03X1000411Y489039I3721J9811*
G01*
D02*
G37*
G36*
X986879Y482949D02*
X986879Y482949D01*
X986879Y489039D01*
X980789Y489039D01*
G74*
D01*
G03X986879Y482949I9811J3721*
G01*
D02*
G37*
G36*
X986155Y492760D02*
G75*
D01*
G03X986155Y492760I4445J0*
G01*
D02*
G37*
G36*
X1005507Y492760D02*
G75*
D01*
G03X1005507Y492760I10493J0*
G01*
D02*
G37*
G36*
X1030907Y492760D02*
G75*
D01*
G03X1030907Y492760I10493J0*
G01*
D02*
G37*
G36*
X1056307Y492760D02*
G75*
D01*
G03X1056307Y492760I10493J0*
G01*
D02*
G37*
G36*
X960755Y558800D02*
G75*
D01*
G03X960755Y558800I4445J0*
G01*
D02*
G37*
G36*
X975011Y555079D02*
X975011Y555079D01*
X968921Y555079D01*
X968921Y548989D01*
G74*
D01*
G03X975011Y555079I3721J9811*
G01*
D02*
G37*
G36*
X1000411Y555079D02*
X1000411Y555079D01*
X994321Y555079D01*
X994321Y548989D01*
G74*
D01*
G03X1000411Y555079I3721J9811*
G01*
D02*
G37*
G36*
X986155Y558800D02*
G75*
D01*
G03X986155Y558800I4445J0*
G01*
D02*
G37*
G36*
X986879Y548989D02*
X986879Y548989D01*
X986879Y555079D01*
X980789Y555079D01*
G74*
D01*
G03X986879Y548989I9811J3721*
G01*
D02*
G37*
G36*
X1005507Y558800D02*
G75*
D01*
G03X1005507Y558800I10493J0*
G01*
D02*
G37*
G36*
X1030907Y558800D02*
G75*
D01*
G03X1030907Y558800I10493J0*
G01*
D02*
G37*
G36*
X1056307Y558800D02*
G75*
D01*
G03X1056307Y558800I10493J0*
G01*
D02*
G37*
G36*
X968921Y568611D02*
X968921Y568611D01*
X968921Y562521D01*
X975011Y562521D01*
G74*
D01*
G03X968921Y568611I9811J3721*
G01*
D02*
G37*
G36*
X994321Y568611D02*
X994321Y568611D01*
X994321Y562521D01*
X1000411Y562521D01*
G74*
D01*
G03X994321Y568611I9811J3721*
G01*
D02*
G37*
G36*
X980789Y562521D02*
X980789Y562521D01*
X986879Y562521D01*
X986879Y568611D01*
G74*
D01*
G03X980789Y562521I3721J9811*
G01*
D02*
G37*
G36*
X980107Y635000D02*
G75*
D01*
G03X980107Y635000I10493J0*
G01*
D02*
G37*
G36*
X1005507Y635000D02*
G75*
D01*
G03X1005507Y635000I10493J0*
G01*
D02*
G37*
G36*
X1030907Y635000D02*
G75*
D01*
G03X1030907Y635000I10493J0*
G01*
D02*
G37*
G36*
X1056307Y635000D02*
G75*
D01*
G03X1056307Y635000I10493J0*
G01*
D02*
G37*
G36*
X979690Y665480D02*
G75*
D01*
G03X979690Y665480I10810J0*
G01*
D02*
G37*
G36*
X1005090Y665480D02*
G75*
D01*
G03X1005090Y665480I10810J0*
G01*
D02*
G37*
G36*
X1030490Y665480D02*
G75*
D01*
G03X1030490Y665480I10810J0*
G01*
D02*
G37*
G36*
X287905Y1001332D02*
X287905Y1001332D01*
X287905Y988108D01*
G75*
D01*
G03X290108Y985905I2203J0*
G01*
X290108Y985905D01*
X309332Y985905D01*
G75*
D01*
G03X311535Y988108I0J2203*
G01*
X311535Y988108D01*
X311535Y1001332D01*
G74*
D01*
G03X309332Y1003535I2203J0*
G01*
X309332Y1003535D01*
X290108Y1003535D01*
G75*
D01*
G03X287905Y1001332I0J-2203*
G01*
D02*
G37*
G36*
X1086070Y314960D02*
G75*
D01*
G03X1086070Y314960I10810J0*
G01*
D02*
G37*
G36*
X969947Y386080D02*
G75*
D01*
G03X969947Y386080I10493J0*
G01*
D02*
G37*
G36*
X1039706Y386080D02*
G75*
D01*
G03X1039706Y386080I11854J0*
G01*
D02*
G37*
G36*
X1090506Y386080D02*
G75*
D01*
G03X1090506Y386080I11854J0*
G01*
D02*
G37*
G36*
X1030907Y416560D02*
G75*
D01*
G03X1030907Y416560I10493J0*
G01*
D02*
G37*
G36*
X1063079Y406749D02*
X1063079Y406749D01*
X1063079Y412839D01*
X1056989Y412839D01*
G74*
D01*
G03X1063079Y406749I9811J3721*
G01*
D02*
G37*
G36*
X1062355Y416560D02*
G75*
D01*
G03X1062355Y416560I4445J0*
G01*
D02*
G37*
G36*
X1076611Y412839D02*
X1076611Y412839D01*
X1070521Y412839D01*
X1070521Y406749D01*
G74*
D01*
G03X1076611Y412839I3721J9811*
G01*
D02*
G37*
G36*
X1056989Y420281D02*
X1056989Y420281D01*
X1063079Y420281D01*
X1063079Y426371D01*
G74*
D01*
G03X1056989Y420281I3721J9811*
G01*
D02*
G37*
G36*
X1070521Y426371D02*
X1070521Y426371D01*
X1070521Y420281D01*
X1076611Y420281D01*
G74*
D01*
G03X1070521Y426371I9811J3721*
G01*
D02*
G37*
G36*
X511386Y1056640D02*
G75*
D01*
G03X511386Y1056640I11854J0*
G01*
D02*
G37*
G36*
X536786Y1056640D02*
G75*
D01*
G03X536786Y1056640I11854J0*
G01*
D02*
G37*
G36*
X585124Y1052436D02*
X585124Y1052436D01*
X578244Y1052436D01*
X578244Y1045556D01*
G74*
D01*
G03X585124Y1052436I4204J11084*
G01*
D02*
G37*
G36*
X569595Y1056640D02*
G75*
D01*
G03X569595Y1056640I4445J0*
G01*
D02*
G37*
G36*
X569836Y1045556D02*
X569836Y1045556D01*
X569836Y1052436D01*
X562956Y1052436D01*
G74*
D01*
G03X569836Y1045556I11084J4204*
G01*
D02*
G37*
G36*
X587586Y1056640D02*
G75*
D01*
G03X587586Y1056640I11854J0*
G01*
D02*
G37*
G36*
X612986Y1056640D02*
G75*
D01*
G03X612986Y1056640I11854J0*
G01*
D02*
G37*
G36*
X658706Y1056640D02*
G75*
D01*
G03X658706Y1056640I11854J0*
G01*
D02*
G37*
G36*
X684106Y1056640D02*
G75*
D01*
G03X684106Y1056640I11854J0*
G01*
D02*
G37*
G36*
X578244Y1067724D02*
X578244Y1067724D01*
X578244Y1060844D01*
X585124Y1060844D01*
G74*
D01*
G03X578244Y1067724I11084J4204*
G01*
D02*
G37*
G36*
X562956Y1060844D02*
X562956Y1060844D01*
X569836Y1060844D01*
X569836Y1067724D01*
G74*
D01*
G03X562956Y1060844I4204J11084*
G01*
D02*
G37*
G36*
X923684Y915324D02*
X923684Y915324D01*
X923684Y908444D01*
X930564Y908444D01*
G74*
D01*
G03X923684Y915324I11084J4204*
G01*
D02*
G37*
G36*
X720710Y760560D02*
G75*
D01*
G03X720710Y760560I10810J0*
G01*
D02*
G37*
G36*
X746110Y760560D02*
G75*
D01*
G03X746110Y760560I10810J0*
G01*
D02*
G37*
G36*
X771510Y760560D02*
G75*
D01*
G03X771510Y760560I10810J0*
G01*
D02*
G37*
G36*
X796910Y760560D02*
G75*
D01*
G03X796910Y760560I10810J0*
G01*
D02*
G37*
G36*
X822310Y760560D02*
G75*
D01*
G03X822310Y760560I10810J0*
G01*
D02*
G37*
G36*
X903590Y755480D02*
G75*
D01*
G03X903590Y755480I10810J0*
G01*
D02*
G37*
G36*
X928990Y755480D02*
G75*
D01*
G03X928990Y755480I10810J0*
G01*
D02*
G37*
G36*
X761350Y788840D02*
G75*
D01*
G03X761350Y788840I10810J0*
G01*
D02*
G37*
G36*
X761450Y878840D02*
G75*
D01*
G03X761450Y878840I10810J0*
G01*
D02*
G37*
G36*
X716915Y904240D02*
G75*
D01*
G03X716915Y904240I4445J0*
G01*
D02*
G37*
G36*
X732444Y900036D02*
X732444Y900036D01*
X725564Y900036D01*
X725564Y893156D01*
G74*
D01*
G03X732444Y900036I4204J11084*
G01*
D02*
G37*
G36*
X734906Y904240D02*
G75*
D01*
G03X734906Y904240I11854J0*
G01*
D02*
G37*
G36*
X760306Y904240D02*
G75*
D01*
G03X760306Y904240I11854J0*
G01*
D02*
G37*
G36*
X806026Y904240D02*
G75*
D01*
G03X806026Y904240I11854J0*
G01*
D02*
G37*
G36*
X831426Y904240D02*
G75*
D01*
G03X831426Y904240I11854J0*
G01*
D02*
G37*
G36*
X864476Y893156D02*
X864476Y893156D01*
X864476Y900036D01*
X857596Y900036D01*
G74*
D01*
G03X864476Y893156I11084J4204*
G01*
D02*
G37*
G36*
X879764Y900036D02*
X879764Y900036D01*
X872884Y900036D01*
X872884Y893156D01*
G74*
D01*
G03X879764Y900036I4204J11084*
G01*
D02*
G37*
G36*
X864235Y904240D02*
G75*
D01*
G03X864235Y904240I4445J0*
G01*
D02*
G37*
G36*
X882226Y904240D02*
G75*
D01*
G03X882226Y904240I11854J0*
G01*
D02*
G37*
G36*
X915276Y893156D02*
X915276Y893156D01*
X915276Y900036D01*
X908396Y900036D01*
G74*
D01*
G03X915276Y893156I11084J4204*
G01*
D02*
G37*
G36*
X915035Y904240D02*
G75*
D01*
G03X915035Y904240I4445J0*
G01*
D02*
G37*
G36*
X930564Y900036D02*
X930564Y900036D01*
X923684Y900036D01*
X923684Y893156D01*
G74*
D01*
G03X930564Y900036I4204J11084*
G01*
D02*
G37*
G36*
X725564Y915324D02*
X725564Y915324D01*
X725564Y908444D01*
X732444Y908444D01*
G74*
D01*
G03X725564Y915324I11084J4204*
G01*
D02*
G37*
G36*
X857596Y908444D02*
X857596Y908444D01*
X864476Y908444D01*
X864476Y915324D01*
G74*
D01*
G03X857596Y908444I4204J11084*
G01*
D02*
G37*
G36*
X872884Y915324D02*
X872884Y915324D01*
X872884Y908444D01*
X879764Y908444D01*
G74*
D01*
G03X872884Y915324I11084J4204*
G01*
D02*
G37*
G36*
X908396Y908444D02*
X908396Y908444D01*
X915276Y908444D01*
X915276Y915324D01*
G74*
D01*
G03X908396Y908444I4204J11084*
G01*
D02*
G37*
G36*
X487030Y765640D02*
G75*
D01*
G03X487030Y765640I10810J0*
G01*
D02*
G37*
G36*
X512430Y765640D02*
G75*
D01*
G03X512430Y765640I10810J0*
G01*
D02*
G37*
G36*
X537830Y765640D02*
G75*
D01*
G03X537830Y765640I10810J0*
G01*
D02*
G37*
G36*
X563230Y765640D02*
G75*
D01*
G03X563230Y765640I10810J0*
G01*
D02*
G37*
G36*
X588630Y765640D02*
G75*
D01*
G03X588630Y765640I10810J0*
G01*
D02*
G37*
G36*
X669910Y760560D02*
G75*
D01*
G03X669910Y760560I10810J0*
G01*
D02*
G37*
G36*
X511386Y904240D02*
G75*
D01*
G03X511386Y904240I11854J0*
G01*
D02*
G37*
G36*
X536786Y904240D02*
G75*
D01*
G03X536786Y904240I11854J0*
G01*
D02*
G37*
G36*
X585124Y900036D02*
X585124Y900036D01*
X578244Y900036D01*
X578244Y893156D01*
G74*
D01*
G03X585124Y900036I4204J11084*
G01*
D02*
G37*
G36*
X569836Y893156D02*
X569836Y893156D01*
X569836Y900036D01*
X562956Y900036D01*
G74*
D01*
G03X569836Y893156I11084J4204*
G01*
D02*
G37*
G36*
X569595Y904240D02*
G75*
D01*
G03X569595Y904240I4445J0*
G01*
D02*
G37*
G36*
X587586Y904240D02*
G75*
D01*
G03X587586Y904240I11854J0*
G01*
D02*
G37*
G36*
X620636Y893156D02*
X620636Y893156D01*
X620636Y900036D01*
X613756Y900036D01*
G74*
D01*
G03X620636Y893156I11084J4204*
G01*
D02*
G37*
G36*
X635924Y900036D02*
X635924Y900036D01*
X629044Y900036D01*
X629044Y893156D01*
G74*
D01*
G03X635924Y900036I4204J11084*
G01*
D02*
G37*
G36*
X620395Y904240D02*
G75*
D01*
G03X620395Y904240I4445J0*
G01*
D02*
G37*
G36*
X658706Y904240D02*
G75*
D01*
G03X658706Y904240I11854J0*
G01*
D02*
G37*
G36*
X684106Y904240D02*
G75*
D01*
G03X684106Y904240I11854J0*
G01*
D02*
G37*
G36*
X578244Y915324D02*
X578244Y915324D01*
X578244Y908444D01*
X585124Y908444D01*
G74*
D01*
G03X578244Y915324I11084J4204*
G01*
D02*
G37*
G36*
X562956Y908444D02*
X562956Y908444D01*
X569836Y908444D01*
X569836Y915324D01*
G74*
D01*
G03X562956Y908444I4204J11084*
G01*
D02*
G37*
G36*
X613756Y908444D02*
X613756Y908444D01*
X620636Y908444D01*
X620636Y915324D01*
G74*
D01*
G03X613756Y908444I4204J11084*
G01*
D02*
G37*
G36*
X629044Y915324D02*
X629044Y915324D01*
X629044Y908444D01*
X635924Y908444D01*
G74*
D01*
G03X629044Y915324I11084J4204*
G01*
D02*
G37*
G36*
X928890Y665480D02*
G75*
D01*
G03X928890Y665480I10810J0*
G01*
D02*
G37*
G36*
X903490Y665480D02*
G75*
D01*
G03X903490Y665480I10810J0*
G01*
D02*
G37*
G36*
X822210Y670560D02*
G75*
D01*
G03X822210Y670560I10810J0*
G01*
D02*
G37*
G36*
X796810Y670560D02*
G75*
D01*
G03X796810Y670560I10810J0*
G01*
D02*
G37*
G36*
X771410Y670560D02*
G75*
D01*
G03X771410Y670560I10810J0*
G01*
D02*
G37*
G36*
X746010Y670560D02*
G75*
D01*
G03X746010Y670560I10810J0*
G01*
D02*
G37*
G36*
X720610Y670560D02*
G75*
D01*
G03X720610Y670560I10810J0*
G01*
D02*
G37*
G36*
X929307Y635000D02*
G75*
D01*
G03X929307Y635000I10493J0*
G01*
D02*
G37*
G36*
X903907Y635000D02*
G75*
D01*
G03X903907Y635000I10493J0*
G01*
D02*
G37*
G36*
X898811Y631279D02*
X898811Y631279D01*
X892721Y631279D01*
X892721Y625189D01*
G74*
D01*
G03X898811Y631279I3721J9811*
G01*
D02*
G37*
G36*
X879189Y638721D02*
X879189Y638721D01*
X885279Y638721D01*
X885279Y644811D01*
G74*
D01*
G03X879189Y638721I3721J9811*
G01*
D02*
G37*
G36*
X885279Y625189D02*
X885279Y625189D01*
X885279Y631279D01*
X879189Y631279D01*
G74*
D01*
G03X885279Y625189I9811J3721*
G01*
D02*
G37*
G36*
X892721Y644811D02*
X892721Y644811D01*
X892721Y638721D01*
X898811Y638721D01*
G74*
D01*
G03X892721Y644811I9811J3721*
G01*
D02*
G37*
G36*
X884555Y635000D02*
G75*
D01*
G03X884555Y635000I4445J0*
G01*
D02*
G37*
G36*
X822627Y635000D02*
G75*
D01*
G03X822627Y635000I10493J0*
G01*
D02*
G37*
G36*
X797227Y635000D02*
G75*
D01*
G03X797227Y635000I10493J0*
G01*
D02*
G37*
G36*
X771827Y635000D02*
G75*
D01*
G03X771827Y635000I10493J0*
G01*
D02*
G37*
G36*
X746427Y635000D02*
G75*
D01*
G03X746427Y635000I10493J0*
G01*
D02*
G37*
G36*
X721027Y635000D02*
G75*
D01*
G03X721027Y635000I10493J0*
G01*
D02*
G37*
G36*
X929989Y562521D02*
X929989Y562521D01*
X936079Y562521D01*
X936079Y568611D01*
G74*
D01*
G03X929989Y562521I3721J9811*
G01*
D02*
G37*
G36*
X949611Y555079D02*
X949611Y555079D01*
X943521Y555079D01*
X943521Y548989D01*
G74*
D01*
G03X949611Y555079I3721J9811*
G01*
D02*
G37*
G36*
X936079Y548989D02*
X936079Y548989D01*
X936079Y555079D01*
X929989Y555079D01*
G74*
D01*
G03X936079Y548989I9811J3721*
G01*
D02*
G37*
G36*
X935355Y558800D02*
G75*
D01*
G03X935355Y558800I4445J0*
G01*
D02*
G37*
G36*
X943521Y568611D02*
X943521Y568611D01*
X943521Y562521D01*
X949611Y562521D01*
G74*
D01*
G03X943521Y568611I9811J3721*
G01*
D02*
G37*
G36*
X747109Y562521D02*
X747109Y562521D01*
X753199Y562521D01*
X753199Y568611D01*
G74*
D01*
G03X747109Y562521I3721J9811*
G01*
D02*
G37*
G36*
X766731Y555079D02*
X766731Y555079D01*
X760641Y555079D01*
X760641Y548989D01*
G74*
D01*
G03X766731Y555079I3721J9811*
G01*
D02*
G37*
G36*
X753199Y548989D02*
X753199Y548989D01*
X753199Y555079D01*
X747109Y555079D01*
G74*
D01*
G03X753199Y548989I9811J3721*
G01*
D02*
G37*
G36*
X752475Y558800D02*
G75*
D01*
G03X752475Y558800I4445J0*
G01*
D02*
G37*
G36*
X760641Y568611D02*
X760641Y568611D01*
X760641Y562521D01*
X766731Y562521D01*
G74*
D01*
G03X760641Y568611I9811J3721*
G01*
D02*
G37*
G36*
X735241Y568611D02*
X735241Y568611D01*
X735241Y562521D01*
X741331Y562521D01*
G74*
D01*
G03X735241Y568611I9811J3721*
G01*
D02*
G37*
G36*
X727799Y548989D02*
X727799Y548989D01*
X727799Y555079D01*
X721709Y555079D01*
G74*
D01*
G03X727799Y548989I9811J3721*
G01*
D02*
G37*
G36*
X741331Y555079D02*
X741331Y555079D01*
X735241Y555079D01*
X735241Y548989D01*
G74*
D01*
G03X741331Y555079I3721J9811*
G01*
D02*
G37*
G36*
X727075Y558800D02*
G75*
D01*
G03X727075Y558800I4445J0*
G01*
D02*
G37*
G36*
X721709Y562521D02*
X721709Y562521D01*
X727799Y562521D01*
X727799Y568611D01*
G74*
D01*
G03X721709Y562521I3721J9811*
G01*
D02*
G37*
G36*
X903907Y558800D02*
G75*
D01*
G03X903907Y558800I10493J0*
G01*
D02*
G37*
G36*
X878507Y558800D02*
G75*
D01*
G03X878507Y558800I10493J0*
G01*
D02*
G37*
G36*
X822627Y558800D02*
G75*
D01*
G03X822627Y558800I10493J0*
G01*
D02*
G37*
G36*
X797227Y558800D02*
G75*
D01*
G03X797227Y558800I10493J0*
G01*
D02*
G37*
G36*
X771827Y558800D02*
G75*
D01*
G03X771827Y558800I10493J0*
G01*
D02*
G37*
G36*
X929307Y492760D02*
G75*
D01*
G03X929307Y492760I10493J0*
G01*
D02*
G37*
G36*
X903907Y492760D02*
G75*
D01*
G03X903907Y492760I10493J0*
G01*
D02*
G37*
G36*
X878507Y492760D02*
G75*
D01*
G03X878507Y492760I10493J0*
G01*
D02*
G37*
G36*
X822627Y492760D02*
G75*
D01*
G03X822627Y492760I10493J0*
G01*
D02*
G37*
G36*
X797227Y492760D02*
G75*
D01*
G03X797227Y492760I10493J0*
G01*
D02*
G37*
G36*
X760641Y502571D02*
X760641Y502571D01*
X760641Y496481D01*
X766731Y496481D01*
G74*
D01*
G03X760641Y502571I9811J3721*
G01*
D02*
G37*
G36*
X753199Y482949D02*
X753199Y482949D01*
X753199Y489039D01*
X747109Y489039D01*
G74*
D01*
G03X753199Y482949I9811J3721*
G01*
D02*
G37*
G36*
X747109Y496481D02*
X747109Y496481D01*
X753199Y496481D01*
X753199Y502571D01*
G74*
D01*
G03X747109Y496481I3721J9811*
G01*
D02*
G37*
G36*
X752475Y492760D02*
G75*
D01*
G03X752475Y492760I4445J0*
G01*
D02*
G37*
G36*
X766731Y489039D02*
X766731Y489039D01*
X760641Y489039D01*
X760641Y482949D01*
G74*
D01*
G03X766731Y489039I3721J9811*
G01*
D02*
G37*
G36*
X771827Y492760D02*
G75*
D01*
G03X771827Y492760I10493J0*
G01*
D02*
G37*
G36*
X563130Y675640D02*
G75*
D01*
G03X563130Y675640I10810J0*
G01*
D02*
G37*
G36*
X537730Y675640D02*
G75*
D01*
G03X537730Y675640I10810J0*
G01*
D02*
G37*
G36*
X512330Y675640D02*
G75*
D01*
G03X512330Y675640I10810J0*
G01*
D02*
G37*
G36*
X486930Y675640D02*
G75*
D01*
G03X486930Y675640I10810J0*
G01*
D02*
G37*
G36*
X669810Y670560D02*
G75*
D01*
G03X669810Y670560I10810J0*
G01*
D02*
G37*
G36*
X670227Y635000D02*
G75*
D01*
G03X670227Y635000I10493J0*
G01*
D02*
G37*
G36*
X651599Y625189D02*
X651599Y625189D01*
X651599Y631279D01*
X645509Y631279D01*
G74*
D01*
G03X651599Y625189I9811J3721*
G01*
D02*
G37*
G36*
X645509Y638721D02*
X645509Y638721D01*
X651599Y638721D01*
X651599Y644811D01*
G74*
D01*
G03X645509Y638721I3721J9811*
G01*
D02*
G37*
G36*
X659041Y644811D02*
X659041Y644811D01*
X659041Y638721D01*
X665131Y638721D01*
G74*
D01*
G03X659041Y644811I9811J3721*
G01*
D02*
G37*
G36*
X665131Y631279D02*
X665131Y631279D01*
X659041Y631279D01*
X659041Y625189D01*
G74*
D01*
G03X665131Y631279I3721J9811*
G01*
D02*
G37*
G36*
X650875Y635000D02*
G75*
D01*
G03X650875Y635000I4445J0*
G01*
D02*
G37*
G36*
X588947Y635000D02*
G75*
D01*
G03X588947Y635000I10493J0*
G01*
D02*
G37*
G36*
X563547Y635000D02*
G75*
D01*
G03X563547Y635000I10493J0*
G01*
D02*
G37*
G36*
X538147Y635000D02*
G75*
D01*
G03X538147Y635000I10493J0*
G01*
D02*
G37*
G36*
X512747Y635000D02*
G75*
D01*
G03X512747Y635000I10493J0*
G01*
D02*
G37*
G36*
X487347Y635000D02*
G75*
D01*
G03X487347Y635000I10493J0*
G01*
D02*
G37*
G36*
X696309Y562521D02*
X696309Y562521D01*
X702399Y562521D01*
X702399Y568611D01*
G74*
D01*
G03X696309Y562521I3721J9811*
G01*
D02*
G37*
G36*
X715931Y555079D02*
X715931Y555079D01*
X709841Y555079D01*
X709841Y548989D01*
G74*
D01*
G03X715931Y555079I3721J9811*
G01*
D02*
G37*
G36*
X702399Y548989D02*
X702399Y548989D01*
X702399Y555079D01*
X696309Y555079D01*
G74*
D01*
G03X702399Y548989I9811J3721*
G01*
D02*
G37*
G36*
X701675Y558800D02*
G75*
D01*
G03X701675Y558800I4445J0*
G01*
D02*
G37*
G36*
X709841Y568611D02*
X709841Y568611D01*
X709841Y562521D01*
X715931Y562521D01*
G74*
D01*
G03X709841Y568611I9811J3721*
G01*
D02*
G37*
G36*
X513429Y562521D02*
X513429Y562521D01*
X519519Y562521D01*
X519519Y568611D01*
G74*
D01*
G03X513429Y562521I3721J9811*
G01*
D02*
G37*
G36*
X533051Y555079D02*
X533051Y555079D01*
X526961Y555079D01*
X526961Y548989D01*
G74*
D01*
G03X533051Y555079I3721J9811*
G01*
D02*
G37*
G36*
X519519Y548989D02*
X519519Y548989D01*
X519519Y555079D01*
X513429Y555079D01*
G74*
D01*
G03X519519Y548989I9811J3721*
G01*
D02*
G37*
G36*
X518795Y558800D02*
G75*
D01*
G03X518795Y558800I4445J0*
G01*
D02*
G37*
G36*
X526961Y568611D02*
X526961Y568611D01*
X526961Y562521D01*
X533051Y562521D01*
G74*
D01*
G03X526961Y568611I9811J3721*
G01*
D02*
G37*
G36*
X488029Y562521D02*
X488029Y562521D01*
X494119Y562521D01*
X494119Y568611D01*
G74*
D01*
G03X488029Y562521I3721J9811*
G01*
D02*
G37*
G36*
X507651Y555079D02*
X507651Y555079D01*
X501561Y555079D01*
X501561Y548989D01*
G74*
D01*
G03X507651Y555079I3721J9811*
G01*
D02*
G37*
G36*
X494119Y548989D02*
X494119Y548989D01*
X494119Y555079D01*
X488029Y555079D01*
G74*
D01*
G03X494119Y548989I9811J3721*
G01*
D02*
G37*
G36*
X493395Y558800D02*
G75*
D01*
G03X493395Y558800I4445J0*
G01*
D02*
G37*
G36*
X501561Y568611D02*
X501561Y568611D01*
X501561Y562521D01*
X507651Y562521D01*
G74*
D01*
G03X501561Y568611I9811J3721*
G01*
D02*
G37*
G36*
X670227Y558800D02*
G75*
D01*
G03X670227Y558800I10493J0*
G01*
D02*
G37*
G36*
X644827Y558800D02*
G75*
D01*
G03X644827Y558800I10493J0*
G01*
D02*
G37*
G36*
X588947Y558800D02*
G75*
D01*
G03X588947Y558800I10493J0*
G01*
D02*
G37*
G36*
X563547Y558800D02*
G75*
D01*
G03X563547Y558800I10493J0*
G01*
D02*
G37*
G36*
X538147Y492760D02*
G75*
D01*
G03X538147Y492760I10493J0*
G01*
D02*
G37*
G36*
X670227Y492760D02*
G75*
D01*
G03X670227Y492760I10493J0*
G01*
D02*
G37*
G36*
X526961Y502571D02*
X526961Y502571D01*
X526961Y496481D01*
X533051Y496481D01*
G74*
D01*
G03X526961Y502571I9811J3721*
G01*
D02*
G37*
G36*
X519519Y482949D02*
X519519Y482949D01*
X519519Y489039D01*
X513429Y489039D01*
G74*
D01*
G03X519519Y482949I9811J3721*
G01*
D02*
G37*
G36*
X513429Y496481D02*
X513429Y496481D01*
X519519Y496481D01*
X519519Y502571D01*
G74*
D01*
G03X513429Y496481I3721J9811*
G01*
D02*
G37*
G36*
X518795Y492760D02*
G75*
D01*
G03X518795Y492760I4445J0*
G01*
D02*
G37*
G36*
X533051Y489039D02*
X533051Y489039D01*
X526961Y489039D01*
X526961Y482949D01*
G74*
D01*
G03X533051Y489039I3721J9811*
G01*
D02*
G37*
G36*
X487347Y492760D02*
G75*
D01*
G03X487347Y492760I10493J0*
G01*
D02*
G37*
G36*
X588530Y675640D02*
G75*
D01*
G03X588530Y675640I10810J0*
G01*
D02*
G37*
G36*
X253350Y760560D02*
G75*
D01*
G03X253350Y760560I10810J0*
G01*
D02*
G37*
G36*
X278750Y760560D02*
G75*
D01*
G03X278750Y760560I10810J0*
G01*
D02*
G37*
G36*
X304150Y760560D02*
G75*
D01*
G03X304150Y760560I10810J0*
G01*
D02*
G37*
G36*
X329550Y760560D02*
G75*
D01*
G03X329550Y760560I10810J0*
G01*
D02*
G37*
G36*
X354950Y760560D02*
G75*
D01*
G03X354950Y760560I10810J0*
G01*
D02*
G37*
G36*
X436230Y765640D02*
G75*
D01*
G03X436230Y765640I10810J0*
G01*
D02*
G37*
G36*
X278750Y858920D02*
G75*
D01*
G03X278750Y858920I10810J0*
G01*
D02*
G37*
G36*
X370190Y858920D02*
G75*
D01*
G03X370190Y858920I10810J0*
G01*
D02*
G37*
G36*
X278750Y883920D02*
G75*
D01*
G03X278750Y883920I10810J0*
G01*
D02*
G37*
G36*
X371142Y888357D02*
G75*
D01*
G03X371142Y879483I9858J-4437*
G01*
X371142Y879483D01*
X375579Y883920D01*
X371142Y888357D01*
D02*
G37*
G36*
X385437Y874062D02*
X385437Y874062D01*
X381000Y878499D01*
X376563Y874062D01*
G75*
D01*
G03X385437Y874062I4437J9858*
G01*
D02*
G37*
G36*
X377000Y883920D02*
G75*
D01*
G03X377000Y883920I4000J0*
G01*
D02*
G37*
G36*
X390858Y888357D02*
X390858Y888357D01*
X386421Y883920D01*
X390858Y879483D01*
G75*
D01*
G03X390858Y888357I-9858J4437*
G01*
D02*
G37*
G36*
X376563Y893778D02*
X376563Y893778D01*
X381000Y889341D01*
X385437Y893778D01*
G75*
D01*
G03X376563Y893778I-4437J-9858*
G01*
D02*
G37*
G36*
X294193Y931594D02*
X294193Y931594D01*
X287905Y931594D01*
X287905Y928108D01*
G75*
D01*
G03X290108Y925905I2203J0*
G01*
X290108Y925905D01*
X296594Y925905D01*
X296594Y930703D01*
G75*
D01*
G03X296720Y930701I126J4017*
G01*
X296720Y930701D01*
X302720Y930701D01*
G74*
D01*
G03X302846Y930703I0J4019*
G01*
X302846Y930703D01*
X302846Y925905D01*
X309332Y925905D01*
G75*
D01*
G03X311535Y928108I0J2203*
G01*
X311535Y928108D01*
X311535Y931594D01*
X305247Y931594D01*
G75*
D01*
G03X305247Y937846I-2527J3126*
G01*
X305247Y937846D01*
X311535Y937846D01*
X311535Y941332D01*
G74*
D01*
G03X309332Y943535I2203J0*
G01*
X309332Y943535D01*
X302846Y943535D01*
X302846Y938737D01*
G74*
D01*
G03X302720Y938739I126J4017*
G01*
X302720Y938739D01*
X296720Y938739D01*
G75*
D01*
G03X296594Y938737I0J-4019*
G01*
X296594Y938737D01*
X296594Y943535D01*
X290108Y943535D01*
G75*
D01*
G03X287905Y941332I0J-2203*
G01*
X287905Y941332D01*
X287905Y937846D01*
X294193Y937846D01*
G75*
D01*
G03X294193Y931594I2527J-3126*
G01*
D02*
G37*
G36*
X436130Y675640D02*
G75*
D01*
G03X436130Y675640I10810J0*
G01*
D02*
G37*
G36*
X354850Y670560D02*
G75*
D01*
G03X354850Y670560I10810J0*
G01*
D02*
G37*
G36*
X329450Y670560D02*
G75*
D01*
G03X329450Y670560I10810J0*
G01*
D02*
G37*
G36*
X304050Y670560D02*
G75*
D01*
G03X304050Y670560I10810J0*
G01*
D02*
G37*
G36*
X278650Y670560D02*
G75*
D01*
G03X278650Y670560I10810J0*
G01*
D02*
G37*
G36*
X253250Y670560D02*
G75*
D01*
G03X253250Y670560I10810J0*
G01*
D02*
G37*
G36*
X425361Y644811D02*
X425361Y644811D01*
X425361Y638721D01*
X431451Y638721D01*
G74*
D01*
G03X425361Y644811I9811J3721*
G01*
D02*
G37*
G36*
X417919Y625189D02*
X417919Y625189D01*
X417919Y631279D01*
X411829Y631279D01*
G74*
D01*
G03X417919Y625189I9811J3721*
G01*
D02*
G37*
G36*
X411829Y638721D02*
X411829Y638721D01*
X417919Y638721D01*
X417919Y644811D01*
G74*
D01*
G03X411829Y638721I3721J9811*
G01*
D02*
G37*
G36*
X417195Y635000D02*
G75*
D01*
G03X417195Y635000I4445J0*
G01*
D02*
G37*
G36*
X431451Y631279D02*
X431451Y631279D01*
X425361Y631279D01*
X425361Y625189D01*
G74*
D01*
G03X431451Y631279I3721J9811*
G01*
D02*
G37*
G36*
X436547Y635000D02*
G75*
D01*
G03X436547Y635000I10493J0*
G01*
D02*
G37*
G36*
X355267Y635000D02*
G75*
D01*
G03X355267Y635000I10493J0*
G01*
D02*
G37*
G36*
X329867Y635000D02*
G75*
D01*
G03X329867Y635000I10493J0*
G01*
D02*
G37*
G36*
X304467Y635000D02*
G75*
D01*
G03X304467Y635000I10493J0*
G01*
D02*
G37*
G36*
X279067Y635000D02*
G75*
D01*
G03X279067Y635000I10493J0*
G01*
D02*
G37*
G36*
X253667Y635000D02*
G75*
D01*
G03X253667Y635000I10493J0*
G01*
D02*
G37*
G36*
X468719Y548989D02*
X468719Y548989D01*
X468719Y555079D01*
X462629Y555079D01*
G74*
D01*
G03X468719Y548989I9811J3721*
G01*
D02*
G37*
G36*
X462629Y562521D02*
X462629Y562521D01*
X468719Y562521D01*
X468719Y568611D01*
G74*
D01*
G03X462629Y562521I3721J9811*
G01*
D02*
G37*
G36*
X279749Y562521D02*
X279749Y562521D01*
X285839Y562521D01*
X285839Y568611D01*
G74*
D01*
G03X279749Y562521I3721J9811*
G01*
D02*
G37*
G36*
X299371Y555079D02*
X299371Y555079D01*
X293281Y555079D01*
X293281Y548989D01*
G74*
D01*
G03X299371Y555079I3721J9811*
G01*
D02*
G37*
G36*
X285839Y548989D02*
X285839Y548989D01*
X285839Y555079D01*
X279749Y555079D01*
G74*
D01*
G03X285839Y548989I9811J3721*
G01*
D02*
G37*
G36*
X285115Y558800D02*
G75*
D01*
G03X285115Y558800I4445J0*
G01*
D02*
G37*
G36*
X293281Y568611D02*
X293281Y568611D01*
X293281Y562521D01*
X299371Y562521D01*
G74*
D01*
G03X293281Y568611I9811J3721*
G01*
D02*
G37*
G36*
X254349Y562521D02*
X254349Y562521D01*
X260439Y562521D01*
X260439Y568611D01*
G74*
D01*
G03X254349Y562521I3721J9811*
G01*
D02*
G37*
G36*
X273971Y555079D02*
X273971Y555079D01*
X267881Y555079D01*
X267881Y548989D01*
G74*
D01*
G03X273971Y555079I3721J9811*
G01*
D02*
G37*
G36*
X260439Y548989D02*
X260439Y548989D01*
X260439Y555079D01*
X254349Y555079D01*
G74*
D01*
G03X260439Y548989I9811J3721*
G01*
D02*
G37*
G36*
X259715Y558800D02*
G75*
D01*
G03X259715Y558800I4445J0*
G01*
D02*
G37*
G36*
X267881Y568611D02*
X267881Y568611D01*
X267881Y562521D01*
X273971Y562521D01*
G74*
D01*
G03X267881Y568611I9811J3721*
G01*
D02*
G37*
G36*
X248571Y555079D02*
X248571Y555079D01*
X242481Y555079D01*
X242481Y548989D01*
G74*
D01*
G03X248571Y555079I3721J9811*
G01*
D02*
G37*
G36*
X242481Y568611D02*
X242481Y568611D01*
X242481Y562521D01*
X248571Y562521D01*
G74*
D01*
G03X242481Y568611I9811J3721*
G01*
D02*
G37*
G36*
X436547Y558800D02*
G75*
D01*
G03X436547Y558800I10493J0*
G01*
D02*
G37*
G36*
X411147Y558800D02*
G75*
D01*
G03X411147Y558800I10493J0*
G01*
D02*
G37*
G36*
X355267Y558800D02*
G75*
D01*
G03X355267Y558800I10493J0*
G01*
D02*
G37*
G36*
X329867Y558800D02*
G75*
D01*
G03X329867Y558800I10493J0*
G01*
D02*
G37*
G36*
X304467Y558800D02*
G75*
D01*
G03X304467Y558800I10493J0*
G01*
D02*
G37*
G36*
X436547Y492760D02*
G75*
D01*
G03X436547Y492760I10493J0*
G01*
D02*
G37*
G36*
X411147Y492760D02*
G75*
D01*
G03X411147Y492760I10493J0*
G01*
D02*
G37*
G36*
X355267Y492760D02*
G75*
D01*
G03X355267Y492760I10493J0*
G01*
D02*
G37*
G36*
X329867Y492760D02*
G75*
D01*
G03X329867Y492760I10493J0*
G01*
D02*
G37*
G36*
X304467Y492760D02*
G75*
D01*
G03X304467Y492760I10493J0*
G01*
D02*
G37*
G36*
X299371Y489039D02*
X299371Y489039D01*
X293281Y489039D01*
X293281Y482949D01*
G74*
D01*
G03X299371Y489039I3721J9811*
G01*
D02*
G37*
G36*
X279749Y496481D02*
X279749Y496481D01*
X285839Y496481D01*
X285839Y502571D01*
G74*
D01*
G03X279749Y496481I3721J9811*
G01*
D02*
G37*
G36*
X285839Y482949D02*
X285839Y482949D01*
X285839Y489039D01*
X279749Y489039D01*
G74*
D01*
G03X285839Y482949I9811J3721*
G01*
D02*
G37*
G36*
X293281Y502571D02*
X293281Y502571D01*
X293281Y496481D01*
X299371Y496481D01*
G74*
D01*
G03X293281Y502571I9811J3721*
G01*
D02*
G37*
G36*
X285115Y492760D02*
G75*
D01*
G03X285115Y492760I4445J0*
G01*
D02*
G37*
G36*
X437515Y355600D02*
G75*
D01*
G03X437515Y355600I4445J0*
G01*
D02*
G37*
G36*
X243812Y279800D02*
G75*
D01*
G03X243812Y279800I10588J0*
G01*
D02*
G37*
G36*
X293812Y279800D02*
G75*
D01*
G03X293812Y279800I10588J0*
G01*
D02*
G37*
G36*
X243812Y329800D02*
G75*
D01*
G03X243812Y329800I10588J0*
G01*
D02*
G37*
G36*
X300645Y319900D02*
X300645Y319900D01*
X300645Y326045D01*
X294500Y326045D01*
G74*
D01*
G03X300645Y319900I9900J3755*
G01*
D02*
G37*
G36*
X314300Y326045D02*
X314300Y326045D01*
X308155Y326045D01*
X308155Y319900D01*
G74*
D01*
G03X314300Y326045I3755J9900*
G01*
D02*
G37*
G36*
X294500Y333555D02*
X294500Y333555D01*
X300645Y333555D01*
X300645Y339700D01*
G74*
D01*
G03X294500Y333555I3755J9900*
G01*
D02*
G37*
G36*
X299400Y329800D02*
G75*
D01*
G03X299400Y329800I5000J0*
G01*
D02*
G37*
G36*
X308155Y339700D02*
X308155Y339700D01*
X308155Y333555D01*
X314300Y333555D01*
G74*
D01*
G03X308155Y339700I9900J3755*
G01*
D02*
G37*
G36*
X438239Y345789D02*
X438239Y345789D01*
X438239Y351879D01*
X432149Y351879D01*
G74*
D01*
G03X438239Y345789I9811J3721*
G01*
D02*
G37*
G36*
X451771Y351879D02*
X451771Y351879D01*
X445681Y351879D01*
X445681Y345789D01*
G74*
D01*
G03X451771Y351879I3721J9811*
G01*
D02*
G37*
G36*
X253667Y416560D02*
G75*
D01*
G03X253667Y416560I10493J0*
G01*
D02*
G37*
G36*
X248571Y412839D02*
X248571Y412839D01*
X242481Y412839D01*
X242481Y406749D01*
G74*
D01*
G03X248571Y412839I3721J9811*
G01*
D02*
G37*
G36*
X279067Y416560D02*
G75*
D01*
G03X279067Y416560I10493J0*
G01*
D02*
G37*
G36*
X242481Y426371D02*
X242481Y426371D01*
X242481Y420281D01*
X248571Y420281D01*
G74*
D01*
G03X242481Y426371I9811J3721*
G01*
D02*
G37*
%LPD*%
G36*
X803703Y263085D02*
G75*
D01*
G03X805205Y266700I-3603J3615*
G01*
X805205Y266700D01*
X805205Y272160D01*
G75*
D01*
G03X822935Y276684I7595J7240*
G01*
X822935Y276684D01*
X822935Y268814D01*
X797986Y243865D01*
X784484Y243865D01*
X803703Y263085D01*
D02*
G37*
G36*
X822935Y282116D02*
G75*
D01*
G03X805205Y286640I-10135J-2716*
G01*
X805205Y286640D01*
X805205Y348360D01*
G75*
D01*
G03X822935Y352884I7595J7240*
G01*
X822935Y352884D01*
X822935Y282116D01*
D02*
G37*
G36*
X794995Y286640D02*
G74*
D01*
G03X792505Y288568I7595J7240*
G01*
X792505Y288568D01*
X792505Y337820D01*
G74*
D01*
G03X791003Y341435I5105J0*
G01*
X791003Y341435D01*
X787332Y345107D01*
G75*
D01*
G03X794995Y348360I68J10493*
G01*
X794995Y348360D01*
X794995Y286640D01*
D02*
G37*
G36*
X320065Y407392D02*
G74*
D01*
G03X322555Y409320I5105J9168*
G01*
X322555Y409320D01*
X322555Y381012D01*
G75*
D01*
G03X324051Y377391I5105J-12*
G01*
X324051Y377391D01*
X328036Y373405D01*
X322154Y373405D01*
X320065Y375494D01*
X320065Y407392D01*
D02*
G37*
G54D11*
X320065Y407392D02*
G74*
D01*
G03X322555Y409320I5105J9168*
G01*
X322555Y381012D01*
G75*
D01*
G03X324051Y377391I5105J-12*
G01*
X328036Y373405D01*
X322154Y373405D01*
X320065Y375494D01*
X320065Y407392D01*
X803703Y263085D02*
G75*
D01*
G03X805205Y266700I-3603J3615*
G01*
X805205Y272160D01*
G75*
D01*
G03X822935Y276684I7595J7240*
G01*
X822935Y268814D01*
X797986Y243865D01*
X784484Y243865D01*
X803703Y263085D01*
X822935Y282116D02*
G75*
D01*
G03X805205Y286640I-10135J-2716*
G01*
X805205Y348360D01*
G75*
D01*
G03X822935Y352884I7595J7240*
G01*
X822935Y282116D01*
X794995Y286640D02*
G74*
D01*
G03X792505Y288568I7595J7240*
G01*
X792505Y337820D01*
G74*
D01*
G03X791003Y341435I5105J0*
G01*
X787332Y345107D01*
G75*
D01*
G03X794995Y348360I68J10493*
G01*
X794995Y286640D01*
X958643Y351985D02*
G75*
D01*
G03X960145Y355600I-3603J3615*
G01*
X960145Y376912D01*
G75*
D01*
G03X949935Y376912I-5105J9168*
G01*
X949935Y357714D01*
X947846Y355625D01*
X934727Y355625D01*
G75*
D01*
G03X931111Y354129I-7J-5105*
G01*
X926031Y349049D01*
G75*
D01*
G03X924535Y345431I3609J-3609*
G01*
X924535Y319048D01*
G75*
D01*
G03X939732Y312753I5105J-9168*
G01*
X943184Y316205D01*
X946668Y316205D01*
G75*
D01*
G03X963412Y316205I8372J-6325*
G01*
X972068Y316205D01*
G74*
D01*
G03X970629Y313601I8372J6325*
G01*
X976719Y313601D01*
X976719Y316205D01*
X984161Y316205D01*
X984161Y313601D01*
X990251Y313601D01*
G74*
D01*
G03X988812Y316205I9811J3721*
G01*
X1061142Y316205D01*
G75*
D01*
G03X1066775Y305431I10738J-1245*
G01*
X1066775Y252716D01*
G75*
D01*
G03X1076985Y252716I5105J-9276*
G01*
X1076985Y305431D01*
G75*
D01*
G03X1068717Y325297I-5105J9529*
G01*
G74*
D01*
G03X1065530Y326415I3187J3987*
G01*
X941078Y326415D01*
G75*
D01*
G03X937461Y324919I-8J-5105*
G01*
X934745Y322204D01*
X934745Y343326D01*
X936834Y345415D01*
X949960Y345415D01*
G74*
D01*
G03X953575Y346917I0J5105*
G01*
X956172Y349513D01*
X956172Y349513D01*
X958643Y351985D01*
X482251Y412839D02*
X476161Y412839D01*
X476161Y406749D01*
G74*
D01*
G03X482251Y412839I3721J9811*
G01*
X476172Y418975D02*
G75*
D01*
G03X476172Y418975I-3732J-2415*
G01*
X482251Y420281D02*
G74*
D01*
G03X476161Y426371I9811J3721*
G01*
X476161Y420281D01*
X482251Y420281D01*
X716172Y270160D02*
G75*
D01*
G03X716172Y270160I-4972J9240*
G01*
X702032Y350495D02*
G75*
D01*
G03X702457Y361402I9168J5105*
G01*
X698525Y365334D01*
X698525Y409320D01*
G74*
D01*
G03X702399Y406749I7595J7240*
G01*
X702399Y412839D01*
X698525Y412839D01*
X698525Y420281D01*
X702399Y420281D01*
X702399Y426371D01*
G74*
D01*
G03X698525Y423800I3721J9811*
G01*
X698525Y436880D01*
G74*
D01*
G03X697023Y440495I5105J0*
G01*
X691955Y445563D01*
G74*
D01*
G03X688340Y447065I3615J3603*
G01*
X647274Y447065D01*
X645185Y449154D01*
X645185Y490044D01*
G75*
D01*
G03X645185Y495476I10135J2716*
G01*
X645185Y497840D01*
G74*
D01*
G03X643683Y501455I5105J0*
G01*
X636075Y509063D01*
G74*
D01*
G03X632460Y510565I3615J3603*
G01*
X560914Y510565D01*
X553745Y517734D01*
X553745Y549632D01*
G75*
D01*
G03X543535Y549632I-5105J9168*
G01*
X543535Y515628D01*
G75*
D01*
G03X545031Y512011I5105J-8*
G01*
X555191Y501851D01*
G75*
D01*
G03X558806Y500355I3609J3609*
G01*
X566800Y500355D01*
G75*
D01*
G03X581280Y500355I7240J-7595*
G01*
X592200Y500355D01*
G75*
D01*
G03X606680Y500355I7240J-7595*
G01*
X630346Y500355D01*
X634975Y495726D01*
X634975Y447049D01*
G75*
D01*
G03X636471Y443431I5105J-9*
G01*
X641551Y438351D01*
G75*
D01*
G03X645167Y436855I3609J3609*
G01*
X686226Y436855D01*
X688315Y434766D01*
X688315Y423800D01*
G75*
D01*
G03X688315Y409320I-7595J-7240*
G01*
X688315Y365787D01*
G75*
D01*
G03X696053Y353368I-2515J-10187*
G01*
X697431Y351991D01*
G75*
D01*
G03X701047Y350495I3609J3609*
G01*
X702032Y350495D01*
X485520Y363195D02*
G75*
D01*
G03X500000Y363195I7240J-7595*
G01*
X510920Y363195D01*
G75*
D01*
G03X522971Y364925I7240J-7595*
G01*
G74*
D01*
G03X521763Y366835I4811J1705*
G01*
X520324Y368275D01*
X561766Y368275D01*
X563855Y366186D01*
X563855Y364768D01*
G75*
D01*
G03X574065Y364768I5105J-9168*
G01*
X574065Y368300D01*
G74*
D01*
G03X572563Y371915I5105J0*
G01*
X567495Y376983D01*
G74*
D01*
G03X565558Y378201I3615J3603*
G01*
G75*
D01*
G03X563873Y378485I-1678J-4821*
G01*
X337394Y378485D01*
X332765Y383114D01*
X332765Y409320D01*
G75*
D01*
G03X332765Y423800I7595J7240*
G01*
X332765Y444500D01*
G74*
D01*
G03X331263Y448115I5105J0*
G01*
X326195Y453183D01*
G74*
D01*
G03X322580Y454685I3615J3603*
G01*
X271354Y454685D01*
X269265Y456774D01*
X269265Y483592D01*
G75*
D01*
G03X259055Y483592I-5105J9168*
G01*
X259055Y454669D01*
G75*
D01*
G03X260551Y451051I5105J-9*
G01*
X265631Y445971D01*
G75*
D01*
G03X269247Y444475I3609J3609*
G01*
X320466Y444475D01*
X322555Y442386D01*
X322555Y423800D01*
G75*
D01*
G03X309855Y407392I-7595J-7240*
G01*
X309855Y373389D01*
G75*
D01*
G03X311351Y369771I5105J-9*
G01*
X316431Y364691D01*
G75*
D01*
G03X320047Y363195I3609J3609*
G01*
X434720Y363195D01*
G74*
D01*
G03X432149Y359321I7240J7595*
G01*
X438239Y359321D01*
X438239Y363195D01*
X445681Y363195D01*
X445681Y359321D01*
X451771Y359321D01*
G74*
D01*
G03X449200Y363195I9811J3721*
G01*
X460120Y363195D01*
G75*
D01*
G03X462255Y346432I7240J-7595*
G01*
X462255Y306914D01*
X444833Y289492D01*
G75*
D01*
G03X452052Y282273I-2873J-10092*
G01*
X456774Y286995D01*
X460120Y286995D01*
G75*
D01*
G03X474600Y286995I7240J-7595*
G01*
X485520Y286995D01*
G75*
D01*
G03X487655Y270232I7240J-7595*
G01*
X487655Y246392D01*
G75*
D01*
G03X489151Y242771I5105J-12*
G01*
X495749Y236172D01*
X496771Y235151D01*
G74*
D01*
G03X499349Y233761I3609J3609*
G01*
G75*
D01*
G03X500380Y233655I1031J4999*
G01*
X800100Y233655D01*
G74*
D01*
G03X804288Y235842I0J5105*
G01*
G74*
D01*
G03X804979Y236421I2918J4188*
G01*
X831643Y263085D01*
G75*
D01*
G03X833145Y266700I-3603J3615*
G01*
X833145Y373806D01*
X851963Y392625D01*
G75*
D01*
G03X853465Y396240I-3603J3615*
G01*
X853465Y419526D01*
X860634Y426695D01*
X886284Y426695D01*
G75*
D01*
G03X891716Y426695I2716J-10135*
G01*
X911684Y426695D01*
G75*
D01*
G03X917116Y426695I2716J-10135*
G01*
X962484Y426695D01*
G75*
D01*
G03X967916Y426695I2716J-10135*
G01*
X987884Y426695D01*
G75*
D01*
G03X993316Y426695I2716J-10135*
G01*
X1006266Y426695D01*
X1008784Y424177D01*
G75*
D01*
G03X1020811Y425885I7216J-7617*
G01*
G74*
D01*
G03X1019603Y427795I4811J1705*
G01*
X1011995Y435403D01*
G74*
D01*
G03X1009887Y436677I3615J3603*
G01*
G75*
D01*
G03X1008373Y436905I-1507J-4877*
G01*
X858520Y436905D01*
G75*
D01*
G03X857248Y436744I0J-5105*
G01*
G74*
D01*
G03X854911Y435409I1272J4944*
G01*
X844751Y425249D01*
G75*
D01*
G03X843255Y421628I3609J-3609*
G01*
X843255Y398354D01*
X824431Y379529D01*
G75*
D01*
G03X822935Y375910I3609J-3609*
G01*
X822935Y358316D01*
G75*
D01*
G03X805205Y362840I-10135J-2716*
G01*
X805205Y391160D01*
G74*
D01*
G03X803703Y394775I5105J0*
G01*
X789536Y408943D01*
G75*
D01*
G03X777509Y407235I-7216J7617*
G01*
G74*
D01*
G03X778711Y405331I4811J1705*
G01*
X794995Y389046D01*
X794995Y362840D01*
G75*
D01*
G03X779805Y362840I-7595J-7240*
G01*
X779805Y378460D01*
G74*
D01*
G03X778303Y382075I5105J0*
G01*
X770695Y389683D01*
G74*
D01*
G03X768587Y390957I3615J3603*
G01*
G75*
D01*
G03X767073Y391185I-1507J-4877*
G01*
X728554Y391185D01*
X723925Y395814D01*
X723925Y409320D01*
G75*
D01*
G03X723925Y423800I7595J7240*
G01*
X723925Y465246D01*
X734851Y476172D01*
X735123Y476445D01*
G75*
D01*
G03X736625Y480060I-3603J3615*
G01*
X736625Y483592D01*
G75*
D01*
G03X726415Y483592I-5105J9168*
G01*
X726415Y482174D01*
X720413Y476172D01*
X716172Y471931D01*
X715211Y470969D01*
G75*
D01*
G03X713715Y467352I3609J-3609*
G01*
X713715Y423800D01*
G74*
D01*
G03X709841Y426371I7595J7240*
G01*
X709841Y420281D01*
X713715Y420281D01*
X713715Y412839D01*
X709841Y412839D01*
X709841Y406749D01*
G74*
D01*
G03X713715Y409320I3721J9811*
G01*
X713715Y393712D01*
G75*
D01*
G03X715211Y390091I5105J-12*
G01*
X722831Y382471D01*
G74*
D01*
G03X725409Y381081I3609J3609*
G01*
G75*
D01*
G03X726440Y380975I1031J4999*
G01*
X764966Y380975D01*
X769595Y376346D01*
X769595Y362840D01*
G75*
D01*
G03X769923Y348721I-7595J-7240*
G01*
G74*
D01*
G03X771091Y346911I4777J1799*
G01*
X782295Y335706D01*
X782295Y288568D01*
G75*
D01*
G03X794995Y272160I5105J-9168*
G01*
X794995Y268814D01*
X775126Y248945D01*
X578694Y248945D01*
X574065Y253574D01*
X574065Y270232D01*
G75*
D01*
G03X563855Y270232I-5105J9168*
G01*
X563855Y251472D01*
G75*
D01*
G03X565351Y247851I5105J-12*
G01*
X569336Y243865D01*
X502494Y243865D01*
X497865Y248494D01*
X497865Y270232D01*
G75*
D01*
G03X500000Y286995I-5105J9168*
G01*
X503346Y286995D01*
X508068Y282273D01*
G75*
D01*
G03X527682Y283808I10092J-2873*
G01*
X538455Y294581D01*
X538455Y288568D01*
G75*
D01*
G03X548665Y288568I5105J-9168*
G01*
X548665Y297606D01*
X564952Y313893D01*
G75*
D01*
G03X557733Y321112I1468J8687*
G01*
X548665Y312044D01*
X548665Y346432D01*
G75*
D01*
G03X538455Y346432I-5105J9168*
G01*
X538455Y309019D01*
X519271Y289834D01*
G75*
D01*
G03X515287Y289492I-1111J-10434*
G01*
X509075Y295703D01*
G74*
D01*
G03X505460Y297205I3615J3603*
G01*
X466984Y297205D01*
X470963Y301185D01*
G75*
D01*
G03X472465Y304800I-3603J3615*
G01*
X472465Y346432D01*
G75*
D01*
G03X474600Y363195I-5105J9168*
G01*
X485520Y363195D01*
X61025Y955108D02*
G75*
D01*
G03X63228Y952905I2203J0*
G01*
X76452Y952905D01*
G75*
D01*
G03X78655Y955108I0J2203*
G01*
X78655Y974332D01*
G74*
D01*
G03X76452Y976535I2203J0*
G01*
X63228Y976535D01*
G75*
D01*
G03X61025Y974332I0J-2203*
G01*
X61025Y955108D01*
X716172Y227680D02*
G75*
D01*
G03X716172Y227680I-4972J-9240*
G01*
X716172Y151480D02*
G75*
D01*
G03X716172Y151480I-4972J-9240*
G01*
X236172Y771056D02*
G75*
D01*
G03X236172Y771056I2588J-10496*
G01*
X471081Y152051D02*
X471081Y145961D01*
X477171Y145961D01*
G74*
D01*
G03X471081Y152051I9811J3721*
G01*
X471081Y132429D02*
G74*
D01*
G03X477171Y138519I3721J9811*
G01*
X471081Y138519D01*
X471081Y132429D01*
X476172Y212743D02*
G75*
D01*
G03X476172Y212743I-8812J5697*
G01*
X236172Y412946D02*
G75*
D01*
G03X236172Y412946I2588J3614*
G01*
X236172Y624831D02*
G75*
D01*
G03X236172Y624831I2588J10169*
G01*
X236172Y555186D02*
G75*
D01*
G03X236172Y555186I2588J3614*
G01*
X236172Y482591D02*
G75*
D01*
G03X236172Y482591I2588J10169*
G01*
X236172Y660040D02*
G75*
D01*
G03X236172Y660040I2488J10520*
G01*
X956172Y1064322D02*
G75*
D01*
G03X956172Y1064322I9028J-7682*
G01*
X710276Y1060844D02*
X717156Y1060844D01*
X717156Y1067724D01*
G74*
D01*
G03X710276Y1060844I4204J11084*
G01*
X710276Y1052436D02*
G74*
D01*
G03X717156Y1045556I11084J4204*
G01*
X717156Y1052436D01*
X710276Y1052436D01*
X956172Y911922D02*
G75*
D01*
G03X956172Y911922I9028J-7682*
G01*
X956172Y761425D02*
G75*
D01*
G03X956172Y761425I9028J-5945*
G01*
X955389Y555079D02*
G74*
D01*
G03X961479Y548989I9811J3721*
G01*
X961479Y555079D01*
X955389Y555079D01*
X955389Y562521D02*
X961479Y562521D01*
X961479Y568611D01*
G74*
D01*
G03X955389Y562521I3721J9811*
G01*
X956172Y640347D02*
G75*
D01*
G03X956172Y640347I9028J-5347*
G01*
X956172Y671574D02*
G75*
D01*
G03X956172Y671574I8928J-6094*
G01*
X960095Y454669D02*
G75*
D01*
G03X961591Y451051I5105J-9*
G01*
X969211Y443431D01*
G75*
D01*
G03X972827Y441935I3609J3609*
G01*
X1059620Y441935D01*
G75*
D01*
G03X1059620Y452145I7180J5105*
G01*
X974934Y452145D01*
X970305Y456774D01*
X970305Y483592D01*
G75*
D01*
G03X960095Y483592I-5105J9168*
G01*
X960095Y454669D01*
X243905Y955108D02*
G75*
D01*
G03X246108Y952905I2203J0*
G01*
X259332Y952905D01*
G75*
D01*
G03X261535Y955108I0J2203*
G01*
X261535Y974332D01*
G74*
D01*
G03X259332Y976535I2203J0*
G01*
X246108Y976535D01*
G75*
D01*
G03X243905Y974332I0J-2203*
G01*
X243905Y955108D01*
X710276Y900036D02*
G74*
D01*
G03X717156Y893156I11084J4204*
G01*
X717156Y900036D01*
X710276Y900036D01*
X710276Y908444D02*
X717156Y908444D01*
X717156Y915324D01*
G74*
D01*
G03X710276Y908444I4204J11084*
G01*
X716172Y764538D02*
G75*
D01*
G03X716172Y764538I-10052J-3978*
G01*
X476172Y775786D02*
G75*
D01*
G03X476172Y775786I-3732J-10146*
G01*
X716172Y638011D02*
G75*
D01*
G03X716172Y638011I-10052J-3011*
G01*
X716172Y674275D02*
G75*
D01*
G03X716172Y674275I-10152J-3715*
G01*
X716172Y495771D02*
G75*
D01*
G03X716172Y495771I-10052J-3011*
G01*
X476172Y625193D02*
G75*
D01*
G03X476172Y625193I-3732J9807*
G01*
X476161Y568611D02*
X476161Y562521D01*
X482251Y562521D01*
G74*
D01*
G03X476161Y568611I9811J3721*
G01*
X476172Y556385D02*
G75*
D01*
G03X476172Y556385I-3732J2415*
G01*
X476161Y548989D02*
G74*
D01*
G03X482251Y555079I3721J9811*
G01*
X476161Y555079D01*
X476161Y548989D01*
X476172Y482953D02*
G75*
D01*
G03X476172Y482953I-3732J9807*
G01*
X476172Y665532D02*
G75*
D01*
G03X476172Y665532I-3832J10108*
G01*
X701675Y416560D02*
G75*
D01*
G03X701675Y416560I4445J0*
G01*
X975995Y309880D02*
G75*
D01*
G03X975995Y309880I4445J0*
G01*
X976719Y300069D02*
X976719Y306159D01*
X970629Y306159D01*
G74*
D01*
G03X976719Y300069I9811J3721*
G01*
X990251Y306159D02*
X984161Y306159D01*
X984161Y300069D01*
G74*
D01*
G03X990251Y306159I3721J9811*
G01*
X751507Y279400D02*
G75*
D01*
G03X751507Y279400I10493J0*
G01*
X726107Y355600D02*
G75*
D01*
G03X726107Y355600I10493J0*
G01*
X726107Y279400D02*
G75*
D01*
G03X726107Y279400I10493J0*
G01*
X362039Y406749D02*
X362039Y412839D01*
X355949Y412839D01*
G74*
D01*
G03X362039Y406749I9811J3721*
G01*
X361315Y416560D02*
G75*
D01*
G03X361315Y416560I4445J0*
G01*
X375571Y412839D02*
X369481Y412839D01*
X369481Y406749D01*
G74*
D01*
G03X375571Y412839I3721J9811*
G01*
X411147Y416560D02*
G75*
D01*
G03X411147Y416560I10493J0*
G01*
X436547Y416560D02*
G75*
D01*
G03X436547Y416560I10493J0*
G01*
X468719Y406749D02*
X468719Y412839D01*
X462629Y412839D01*
G74*
D01*
G03X468719Y406749I9811J3721*
G01*
X355949Y420281D02*
X362039Y420281D01*
X362039Y426371D01*
G74*
D01*
G03X355949Y420281I3721J9811*
G01*
X369481Y426371D02*
X369481Y420281D01*
X375571Y420281D01*
G74*
D01*
G03X369481Y426371I9811J3721*
G01*
X462629Y420281D02*
X468719Y420281D01*
X468719Y426371D01*
G74*
D01*
G03X462629Y420281I3721J9811*
G01*
X797227Y416560D02*
G75*
D01*
G03X797227Y416560I10493J0*
G01*
X836841Y426371D02*
X836841Y420281D01*
X842931Y420281D01*
G74*
D01*
G03X836841Y426371I9811J3721*
G01*
X829399Y406749D02*
X829399Y412839D01*
X823309Y412839D01*
G74*
D01*
G03X829399Y406749I9811J3721*
G01*
X842931Y412839D02*
X836841Y412839D01*
X836841Y406749D01*
G74*
D01*
G03X842931Y412839I3721J9811*
G01*
X828675Y416560D02*
G75*
D01*
G03X828675Y416560I4445J0*
G01*
X823309Y420281D02*
X829399Y420281D01*
X829399Y426371D01*
G74*
D01*
G03X823309Y420281I3721J9811*
G01*
X746427Y416560D02*
G75*
D01*
G03X746427Y416560I10493J0*
G01*
X929989Y420281D02*
X936079Y420281D01*
X936079Y426371D01*
G74*
D01*
G03X929989Y420281I3721J9811*
G01*
X949611Y412839D02*
X943521Y412839D01*
X943521Y406749D01*
G74*
D01*
G03X949611Y412839I3721J9811*
G01*
X936079Y406749D02*
X936079Y412839D01*
X929989Y412839D01*
G74*
D01*
G03X936079Y406749I9811J3721*
G01*
X935355Y416560D02*
G75*
D01*
G03X935355Y416560I4445J0*
G01*
X943521Y426371D02*
X943521Y420281D01*
X949611Y420281D01*
G74*
D01*
G03X943521Y426371I9811J3721*
G01*
X914051Y382359D02*
X907961Y382359D01*
X907961Y376269D01*
G74*
D01*
G03X914051Y382359I3721J9811*
G01*
X900519Y376269D02*
X900519Y382359D01*
X894429Y382359D01*
G74*
D01*
G03X900519Y376269I9811J3721*
G01*
X894429Y389801D02*
X900519Y389801D01*
X900519Y395891D01*
G74*
D01*
G03X894429Y389801I3721J9811*
G01*
X899795Y386080D02*
G75*
D01*
G03X899795Y386080I4445J0*
G01*
X907961Y395891D02*
X907961Y389801D01*
X914051Y389801D01*
G74*
D01*
G03X907961Y395891I9811J3721*
G01*
X919147Y386080D02*
G75*
D01*
G03X919147Y386080I10493J0*
G01*
X893747Y309880D02*
G75*
D01*
G03X893747Y309880I10493J0*
G01*
X190950Y208280D02*
G75*
D01*
G03X190950Y208280I10810J0*
G01*
X51690Y80500D02*
G75*
D01*
G03X51690Y80500I28810J0*
G01*
X100950Y208380D02*
G75*
D01*
G03X100950Y208380I10810J0*
G01*
X589629Y420281D02*
X595719Y420281D01*
X595719Y426371D01*
G74*
D01*
G03X589629Y420281I3721J9811*
G01*
X609251Y412839D02*
X603161Y412839D01*
X603161Y406749D01*
G74*
D01*
G03X609251Y412839I3721J9811*
G01*
X595719Y406749D02*
X595719Y412839D01*
X589629Y412839D01*
G74*
D01*
G03X595719Y406749I9811J3721*
G01*
X594995Y416560D02*
G75*
D01*
G03X594995Y416560I4445J0*
G01*
X603161Y426371D02*
X603161Y420281D01*
X609251Y420281D01*
G74*
D01*
G03X603161Y426371I9811J3721*
G01*
X644827Y416560D02*
G75*
D01*
G03X644827Y416560I10493J0*
G01*
X563547Y416560D02*
G75*
D01*
G03X563547Y416560I10493J0*
G01*
X538147Y416560D02*
G75*
D01*
G03X538147Y416560I10493J0*
G01*
X512747Y416560D02*
G75*
D01*
G03X512747Y416560I10493J0*
G01*
X487347Y416560D02*
G75*
D01*
G03X487347Y416560I10493J0*
G01*
X664121Y365411D02*
X664121Y359321D01*
X670211Y359321D01*
G74*
D01*
G03X664121Y365411I9811J3721*
G01*
X656679Y345789D02*
X656679Y351879D01*
X650589Y351879D01*
G74*
D01*
G03X656679Y345789I9811J3721*
G01*
X650589Y359321D02*
X656679Y359321D01*
X656679Y365411D01*
G74*
D01*
G03X650589Y359321I3721J9811*
G01*
X655955Y355600D02*
G75*
D01*
G03X655955Y355600I4445J0*
G01*
X670211Y351879D02*
X664121Y351879D01*
X664121Y345789D01*
G74*
D01*
G03X670211Y351879I3721J9811*
G01*
X583867Y355600D02*
G75*
D01*
G03X583867Y355600I10493J0*
G01*
X675307Y279400D02*
G75*
D01*
G03X675307Y279400I10493J0*
G01*
X649907Y279400D02*
G75*
D01*
G03X649907Y279400I10493J0*
G01*
X583867Y279400D02*
G75*
D01*
G03X583867Y279400I10493J0*
G01*
X1090690Y80500D02*
G75*
D01*
G03X1090690Y80500I28810J0*
G01*
X984870Y192940D02*
G75*
D01*
G03X984870Y192940I10810J0*
G01*
X1036292Y193440D02*
G75*
D01*
G03X1036292Y193440I10588J0*
G01*
X1086292Y193440D02*
G75*
D01*
G03X1086292Y193440I10588J0*
G01*
X51690Y1119500D02*
G75*
D01*
G03X51690Y1119500I28810J0*
G01*
X105025Y1001332D02*
X105025Y988108D01*
G75*
D01*
G03X107228Y985905I2203J0*
G01*
X126452Y985905D01*
G75*
D01*
G03X128655Y988108I0J2203*
G01*
X128655Y1001332D01*
G74*
D01*
G03X126452Y1003535I2203J0*
G01*
X107228Y1003535D01*
G75*
D01*
G03X105025Y1001332I0J-2203*
G01*
X726107Y142240D02*
G75*
D01*
G03X726107Y142240I10493J0*
G01*
X751507Y142240D02*
G75*
D01*
G03X751507Y142240I10493J0*
G01*
X776907Y142240D02*
G75*
D01*
G03X776907Y142240I10493J0*
G01*
X802307Y142240D02*
G75*
D01*
G03X802307Y142240I10493J0*
G01*
X895822Y197477D02*
G75*
D01*
G03X895822Y188603I9858J-4437*
G01*
X900259Y193040D01*
X895822Y197477D01*
X901243Y202898D02*
X905680Y198461D01*
X910117Y202898D01*
G75*
D01*
G03X901243Y202898I-4437J-9858*
G01*
X915538Y197477D02*
X911101Y193040D01*
X915538Y188603D01*
G75*
D01*
G03X915538Y197477I-9858J4437*
G01*
X910117Y183182D02*
X905680Y187619D01*
X901243Y183182D01*
G75*
D01*
G03X910117Y183182I4437J9858*
G01*
X901680Y193040D02*
G75*
D01*
G03X901680Y193040I4000J0*
G01*
X726107Y218440D02*
G75*
D01*
G03X726107Y218440I10493J0*
G01*
X751507Y218440D02*
G75*
D01*
G03X751507Y218440I10493J0*
G01*
X776907Y218440D02*
G75*
D01*
G03X776907Y218440I10493J0*
G01*
X802307Y218440D02*
G75*
D01*
G03X802307Y218440I10493J0*
G01*
X98997Y740329D02*
X114363Y740329D01*
G75*
D01*
G03X118191Y744157I0J3828*
G01*
X118191Y759523D01*
G74*
D01*
G03X114363Y763351I3828J0*
G01*
X98997Y763351D01*
G75*
D01*
G03X95169Y759523I0J-3828*
G01*
X95169Y744157D01*
G75*
D01*
G03X98997Y740329I3828J0*
G01*
X202550Y760560D02*
G75*
D01*
G03X202550Y760560I10810J0*
G01*
X110953Y781316D02*
X117426Y781316D01*
G74*
D01*
G03X110756Y787986I10746J4076*
G01*
X110756Y781513D01*
G75*
D01*
G03X102604Y781513I-4076J-4273*
G01*
X102604Y787986D01*
G74*
D01*
G03X95934Y781316I4076J10746*
G01*
X102407Y781316D01*
G75*
D01*
G03X102407Y773164I4273J-4076*
G01*
X95934Y773164D01*
G74*
D01*
G03X102604Y766494I10746J4076*
G01*
X102604Y772967D01*
G75*
D01*
G03X110756Y772967I4076J4273*
G01*
X110756Y766494D01*
G74*
D01*
G03X117426Y773164I4076J10746*
G01*
X110953Y773164D01*
G75*
D01*
G03X110953Y781316I-4273J4076*
G01*
X95187Y802640D02*
G75*
D01*
G03X95187Y802640I11493J0*
G01*
X105530Y883920D02*
G75*
D01*
G03X105530Y883920I11310J0*
G01*
X229768Y876420D02*
X229768Y891420D01*
G74*
D01*
G03X225940Y895248I3828J0*
G01*
X210940Y895248D01*
G75*
D01*
G03X207112Y891420I0J-3828*
G01*
X207112Y876420D01*
G75*
D01*
G03X210940Y872592I3828J0*
G01*
X225940Y872592D01*
G75*
D01*
G03X229768Y876420I0J3828*
G01*
X105025Y941332D02*
X105025Y928108D01*
G75*
D01*
G03X107228Y925905I2203J0*
G01*
X126452Y925905D01*
G75*
D01*
G03X128655Y928108I0J2203*
G01*
X128655Y941332D01*
G74*
D01*
G03X126452Y943535I2203J0*
G01*
X107228Y943535D01*
G75*
D01*
G03X105025Y941332I0J-2203*
G01*
X664121Y228251D02*
X664121Y222161D01*
X670211Y222161D01*
G74*
D01*
G03X664121Y228251I9811J3721*
G01*
X502571Y138519D02*
X496481Y138519D01*
X496481Y132429D01*
G74*
D01*
G03X502571Y138519I3721J9811*
G01*
X488315Y142240D02*
G75*
D01*
G03X488315Y142240I4445J0*
G01*
X489039Y132429D02*
X489039Y138519D01*
X482949Y138519D01*
G74*
D01*
G03X489039Y132429I9811J3721*
G01*
X513715Y142240D02*
G75*
D01*
G03X513715Y142240I4445J0*
G01*
X514439Y132429D02*
X514439Y138519D01*
X508349Y138519D01*
G74*
D01*
G03X514439Y132429I9811J3721*
G01*
X533067Y142240D02*
G75*
D01*
G03X533067Y142240I10493J0*
G01*
X527971Y138519D02*
X521881Y138519D01*
X521881Y132429D01*
G74*
D01*
G03X527971Y138519I3721J9811*
G01*
X558467Y142240D02*
G75*
D01*
G03X558467Y142240I10493J0*
G01*
X583867Y142240D02*
G75*
D01*
G03X583867Y142240I10493J0*
G01*
X649907Y142240D02*
G75*
D01*
G03X649907Y142240I10493J0*
G01*
X675307Y142240D02*
G75*
D01*
G03X675307Y142240I10493J0*
G01*
X496481Y152051D02*
X496481Y145961D01*
X502571Y145961D01*
G74*
D01*
G03X496481Y152051I9811J3721*
G01*
X482949Y145961D02*
X489039Y145961D01*
X489039Y152051D01*
G74*
D01*
G03X482949Y145961I3721J9811*
G01*
X508349Y145961D02*
X514439Y145961D01*
X514439Y152051D01*
G74*
D01*
G03X508349Y145961I3721J9811*
G01*
X521881Y152051D02*
X521881Y145961D01*
X527971Y145961D01*
G74*
D01*
G03X521881Y152051I9811J3721*
G01*
X482267Y218440D02*
G75*
D01*
G03X482267Y218440I10493J0*
G01*
X507667Y218440D02*
G75*
D01*
G03X507667Y218440I10493J0*
G01*
X533067Y218440D02*
G75*
D01*
G03X533067Y218440I10493J0*
G01*
X558467Y218440D02*
G75*
D01*
G03X558467Y218440I10493J0*
G01*
X583867Y218440D02*
G75*
D01*
G03X583867Y218440I10493J0*
G01*
X655955Y218440D02*
G75*
D01*
G03X655955Y218440I4445J0*
G01*
X656679Y208629D02*
X656679Y214719D01*
X650589Y214719D01*
G74*
D01*
G03X656679Y208629I9811J3721*
G01*
X675307Y218440D02*
G75*
D01*
G03X675307Y218440I10493J0*
G01*
X670211Y214719D02*
X664121Y214719D01*
X664121Y208629D01*
G74*
D01*
G03X670211Y214719I3721J9811*
G01*
X650589Y222161D02*
X656679Y222161D01*
X656679Y228251D01*
G74*
D01*
G03X650589Y222161I3721J9811*
G01*
X445681Y228251D02*
X445681Y222161D01*
X451771Y222161D01*
G74*
D01*
G03X445681Y228251I9811J3721*
G01*
X431467Y142240D02*
G75*
D01*
G03X431467Y142240I10493J0*
G01*
X463639Y132429D02*
X463639Y138519D01*
X457549Y138519D01*
G74*
D01*
G03X463639Y132429I9811J3721*
G01*
X462915Y142240D02*
G75*
D01*
G03X462915Y142240I4445J0*
G01*
X457549Y145961D02*
X463639Y145961D01*
X463639Y152051D01*
G74*
D01*
G03X457549Y145961I3721J9811*
G01*
X293990Y213460D02*
G75*
D01*
G03X293990Y213460I10810J0*
G01*
X383990Y213360D02*
G75*
D01*
G03X383990Y213360I10810J0*
G01*
X437515Y218440D02*
G75*
D01*
G03X437515Y218440I4445J0*
G01*
X438239Y208629D02*
X438239Y214719D01*
X432149Y214719D01*
G74*
D01*
G03X438239Y208629I9811J3721*
G01*
X451771Y214719D02*
X445681Y214719D01*
X445681Y208629D01*
G74*
D01*
G03X451771Y214719I3721J9811*
G01*
X432149Y222161D02*
X438239Y222161D01*
X438239Y228251D01*
G74*
D01*
G03X432149Y222161I3721J9811*
G01*
X228949Y420281D02*
X235039Y420281D01*
X235039Y426371D01*
G74*
D01*
G03X228949Y420281I3721J9811*
G01*
X101572Y279800D02*
G75*
D01*
G03X101572Y279800I10588J0*
G01*
X151572Y279800D02*
G75*
D01*
G03X151572Y279800I10588J0*
G01*
X122060Y326045D02*
X115915Y326045D01*
X115915Y319900D01*
G74*
D01*
G03X122060Y326045I3755J9900*
G01*
X108405Y319900D02*
X108405Y326045D01*
X102260Y326045D01*
G74*
D01*
G03X108405Y319900I9900J3755*
G01*
X151572Y329800D02*
G75*
D01*
G03X151572Y329800I10588J0*
G01*
X115915Y339700D02*
X115915Y333555D01*
X122060Y333555D01*
G74*
D01*
G03X115915Y339700I9900J3755*
G01*
X102260Y333555D02*
X108405Y333555D01*
X108405Y339700D01*
G74*
D01*
G03X102260Y333555I3755J9900*
G01*
X107160Y329800D02*
G75*
D01*
G03X107160Y329800I5000J0*
G01*
X177467Y416560D02*
G75*
D01*
G03X177467Y416560I10493J0*
G01*
X202867Y416560D02*
G75*
D01*
G03X202867Y416560I10493J0*
G01*
X235039Y406749D02*
X235039Y412839D01*
X228949Y412839D01*
G74*
D01*
G03X235039Y406749I9811J3721*
G01*
X177467Y492760D02*
G75*
D01*
G03X177467Y492760I10493J0*
G01*
X202867Y492760D02*
G75*
D01*
G03X202867Y492760I10493J0*
G01*
X177467Y558800D02*
G75*
D01*
G03X177467Y558800I10493J0*
G01*
X202867Y558800D02*
G75*
D01*
G03X202867Y558800I10493J0*
G01*
X235039Y548989D02*
X235039Y555079D01*
X228949Y555079D01*
G74*
D01*
G03X235039Y548989I9811J3721*
G01*
X228949Y562521D02*
X235039Y562521D01*
X235039Y568611D01*
G74*
D01*
G03X228949Y562521I3721J9811*
G01*
X98997Y587929D02*
X114363Y587929D01*
G75*
D01*
G03X118191Y591757I0J3828*
G01*
X118191Y607123D01*
G74*
D01*
G03X114363Y610951I3828J0*
G01*
X98997Y610951D01*
G75*
D01*
G03X95169Y607123I0J-3828*
G01*
X95169Y591757D01*
G75*
D01*
G03X98997Y587929I3828J0*
G01*
X110953Y628916D02*
X117426Y628916D01*
G74*
D01*
G03X110756Y635586I10746J4076*
G01*
X110756Y629113D01*
G75*
D01*
G03X102604Y629113I-4076J-4273*
G01*
X102604Y635586D01*
G74*
D01*
G03X95934Y628916I4076J10746*
G01*
X102407Y628916D01*
G75*
D01*
G03X102407Y620764I4273J-4076*
G01*
X95934Y620764D01*
G74*
D01*
G03X102604Y614094I10746J4076*
G01*
X102604Y620567D01*
G75*
D01*
G03X110756Y620567I4076J4273*
G01*
X110756Y614094D01*
G74*
D01*
G03X117426Y620764I4076J10746*
G01*
X110953Y620764D01*
G75*
D01*
G03X110953Y628916I-4273J4076*
G01*
X95187Y650240D02*
G75*
D01*
G03X95187Y650240I11493J0*
G01*
X178149Y638721D02*
X184239Y638721D01*
X184239Y644811D01*
G74*
D01*
G03X178149Y638721I3721J9811*
G01*
X184239Y625189D02*
X184239Y631279D01*
X178149Y631279D01*
G74*
D01*
G03X184239Y625189I9811J3721*
G01*
X191681Y644811D02*
X191681Y638721D01*
X197771Y638721D01*
G74*
D01*
G03X191681Y644811I9811J3721*
G01*
X197771Y631279D02*
X191681Y631279D01*
X191681Y625189D01*
G74*
D01*
G03X197771Y631279I3721J9811*
G01*
X183515Y635000D02*
G75*
D01*
G03X183515Y635000I4445J0*
G01*
X202867Y635000D02*
G75*
D01*
G03X202867Y635000I10493J0*
G01*
X202450Y670560D02*
G75*
D01*
G03X202450Y670560I10810J0*
G01*
X1090690Y1119500D02*
G75*
D01*
G03X1090690Y1119500I28810J0*
G01*
X978746Y1056640D02*
G75*
D01*
G03X978746Y1056640I11854J0*
G01*
X1011555Y1056640D02*
G75*
D01*
G03X1011555Y1056640I4445J0*
G01*
X1011796Y1045556D02*
X1011796Y1052436D01*
X1004916Y1052436D01*
G74*
D01*
G03X1011796Y1045556I11084J4204*
G01*
X1029546Y1056640D02*
G75*
D01*
G03X1029546Y1056640I11854J0*
G01*
X1027084Y1052436D02*
X1020204Y1052436D01*
X1020204Y1045556D01*
G74*
D01*
G03X1027084Y1052436I4204J11084*
G01*
X1054946Y1056640D02*
G75*
D01*
G03X1054946Y1056640I11854J0*
G01*
X1004916Y1060844D02*
X1011796Y1060844D01*
X1011796Y1067724D01*
G74*
D01*
G03X1004916Y1060844I4204J11084*
G01*
X1020204Y1067724D02*
X1020204Y1060844D01*
X1027084Y1060844D01*
G74*
D01*
G03X1020204Y1067724I11084J4204*
G01*
X716915Y1056640D02*
G75*
D01*
G03X716915Y1056640I4445J0*
G01*
X734906Y1056640D02*
G75*
D01*
G03X734906Y1056640I11854J0*
G01*
X732444Y1052436D02*
X725564Y1052436D01*
X725564Y1045556D01*
G74*
D01*
G03X732444Y1052436I4204J11084*
G01*
X760306Y1056640D02*
G75*
D01*
G03X760306Y1056640I11854J0*
G01*
X806026Y1056640D02*
G75*
D01*
G03X806026Y1056640I11854J0*
G01*
X831426Y1056640D02*
G75*
D01*
G03X831426Y1056640I11854J0*
G01*
X864476Y1045556D02*
X864476Y1052436D01*
X857596Y1052436D01*
G74*
D01*
G03X864476Y1045556I11084J4204*
G01*
X864235Y1056640D02*
G75*
D01*
G03X864235Y1056640I4445J0*
G01*
X879764Y1052436D02*
X872884Y1052436D01*
X872884Y1045556D01*
G74*
D01*
G03X879764Y1052436I4204J11084*
G01*
X882226Y1056640D02*
G75*
D01*
G03X882226Y1056640I11854J0*
G01*
X907626Y1056640D02*
G75*
D01*
G03X907626Y1056640I11854J0*
G01*
X725564Y1067724D02*
X725564Y1060844D01*
X732444Y1060844D01*
G74*
D01*
G03X725564Y1067724I11084J4204*
G01*
X857596Y1060844D02*
X864476Y1060844D01*
X864476Y1067724D01*
G74*
D01*
G03X857596Y1060844I4204J11084*
G01*
X872884Y1067724D02*
X872884Y1060844D01*
X879764Y1060844D01*
G74*
D01*
G03X872884Y1067724I11084J4204*
G01*
X1071004Y915324D02*
X1071004Y908444D01*
X1077884Y908444D01*
G74*
D01*
G03X1071004Y915324I11084J4204*
G01*
X979790Y755480D02*
G75*
D01*
G03X979790Y755480I10810J0*
G01*
X1005190Y755480D02*
G75*
D01*
G03X1005190Y755480I10810J0*
G01*
X1030590Y755480D02*
G75*
D01*
G03X1030590Y755480I10810J0*
G01*
X1055990Y755480D02*
G75*
D01*
G03X1055990Y755480I10810J0*
G01*
X978746Y904240D02*
G75*
D01*
G03X978746Y904240I11854J0*
G01*
X1011796Y893156D02*
X1011796Y900036D01*
X1004916Y900036D01*
G74*
D01*
G03X1011796Y893156I11084J4204*
G01*
X1011555Y904240D02*
G75*
D01*
G03X1011555Y904240I4445J0*
G01*
X1027084Y900036D02*
X1020204Y900036D01*
X1020204Y893156D01*
G74*
D01*
G03X1027084Y900036I4204J11084*
G01*
X1029546Y904240D02*
G75*
D01*
G03X1029546Y904240I11854J0*
G01*
X1062596Y893156D02*
X1062596Y900036D01*
X1055716Y900036D01*
G74*
D01*
G03X1062596Y893156I11084J4204*
G01*
X1077884Y900036D02*
X1071004Y900036D01*
X1071004Y893156D01*
G74*
D01*
G03X1077884Y900036I4204J11084*
G01*
X1062355Y904240D02*
G75*
D01*
G03X1062355Y904240I4445J0*
G01*
X1004916Y908444D02*
X1011796Y908444D01*
X1011796Y915324D01*
G74*
D01*
G03X1004916Y908444I4204J11084*
G01*
X1020204Y915324D02*
X1020204Y908444D01*
X1027084Y908444D01*
G74*
D01*
G03X1020204Y915324I11084J4204*
G01*
X1055716Y908444D02*
X1062596Y908444D01*
X1062596Y915324D01*
G74*
D01*
G03X1055716Y908444I4204J11084*
G01*
X1055890Y665480D02*
G75*
D01*
G03X1055890Y665480I10810J0*
G01*
X980789Y496481D02*
X986879Y496481D01*
X986879Y502571D01*
G74*
D01*
G03X980789Y496481I3721J9811*
G01*
X994321Y502571D02*
X994321Y496481D01*
X1000411Y496481D01*
G74*
D01*
G03X994321Y502571I9811J3721*
G01*
X1000411Y489039D02*
X994321Y489039D01*
X994321Y482949D01*
G74*
D01*
G03X1000411Y489039I3721J9811*
G01*
X986879Y482949D02*
X986879Y489039D01*
X980789Y489039D01*
G74*
D01*
G03X986879Y482949I9811J3721*
G01*
X986155Y492760D02*
G75*
D01*
G03X986155Y492760I4445J0*
G01*
X1005507Y492760D02*
G75*
D01*
G03X1005507Y492760I10493J0*
G01*
X1030907Y492760D02*
G75*
D01*
G03X1030907Y492760I10493J0*
G01*
X1056307Y492760D02*
G75*
D01*
G03X1056307Y492760I10493J0*
G01*
X960755Y558800D02*
G75*
D01*
G03X960755Y558800I4445J0*
G01*
X975011Y555079D02*
X968921Y555079D01*
X968921Y548989D01*
G74*
D01*
G03X975011Y555079I3721J9811*
G01*
X1000411Y555079D02*
X994321Y555079D01*
X994321Y548989D01*
G74*
D01*
G03X1000411Y555079I3721J9811*
G01*
X986155Y558800D02*
G75*
D01*
G03X986155Y558800I4445J0*
G01*
X986879Y548989D02*
X986879Y555079D01*
X980789Y555079D01*
G74*
D01*
G03X986879Y548989I9811J3721*
G01*
X1005507Y558800D02*
G75*
D01*
G03X1005507Y558800I10493J0*
G01*
X1030907Y558800D02*
G75*
D01*
G03X1030907Y558800I10493J0*
G01*
X1056307Y558800D02*
G75*
D01*
G03X1056307Y558800I10493J0*
G01*
X968921Y568611D02*
X968921Y562521D01*
X975011Y562521D01*
G74*
D01*
G03X968921Y568611I9811J3721*
G01*
X994321Y568611D02*
X994321Y562521D01*
X1000411Y562521D01*
G74*
D01*
G03X994321Y568611I9811J3721*
G01*
X980789Y562521D02*
X986879Y562521D01*
X986879Y568611D01*
G74*
D01*
G03X980789Y562521I3721J9811*
G01*
X980107Y635000D02*
G75*
D01*
G03X980107Y635000I10493J0*
G01*
X1005507Y635000D02*
G75*
D01*
G03X1005507Y635000I10493J0*
G01*
X1030907Y635000D02*
G75*
D01*
G03X1030907Y635000I10493J0*
G01*
X1056307Y635000D02*
G75*
D01*
G03X1056307Y635000I10493J0*
G01*
X979690Y665480D02*
G75*
D01*
G03X979690Y665480I10810J0*
G01*
X1005090Y665480D02*
G75*
D01*
G03X1005090Y665480I10810J0*
G01*
X1030490Y665480D02*
G75*
D01*
G03X1030490Y665480I10810J0*
G01*
X287905Y1001332D02*
X287905Y988108D01*
G75*
D01*
G03X290108Y985905I2203J0*
G01*
X309332Y985905D01*
G75*
D01*
G03X311535Y988108I0J2203*
G01*
X311535Y1001332D01*
G74*
D01*
G03X309332Y1003535I2203J0*
G01*
X290108Y1003535D01*
G75*
D01*
G03X287905Y1001332I0J-2203*
G01*
X1086070Y314960D02*
G75*
D01*
G03X1086070Y314960I10810J0*
G01*
X969947Y386080D02*
G75*
D01*
G03X969947Y386080I10493J0*
G01*
X1039706Y386080D02*
G75*
D01*
G03X1039706Y386080I11854J0*
G01*
X1090506Y386080D02*
G75*
D01*
G03X1090506Y386080I11854J0*
G01*
X1030907Y416560D02*
G75*
D01*
G03X1030907Y416560I10493J0*
G01*
X1063079Y406749D02*
X1063079Y412839D01*
X1056989Y412839D01*
G74*
D01*
G03X1063079Y406749I9811J3721*
G01*
X1062355Y416560D02*
G75*
D01*
G03X1062355Y416560I4445J0*
G01*
X1076611Y412839D02*
X1070521Y412839D01*
X1070521Y406749D01*
G74*
D01*
G03X1076611Y412839I3721J9811*
G01*
X1056989Y420281D02*
X1063079Y420281D01*
X1063079Y426371D01*
G74*
D01*
G03X1056989Y420281I3721J9811*
G01*
X1070521Y426371D02*
X1070521Y420281D01*
X1076611Y420281D01*
G74*
D01*
G03X1070521Y426371I9811J3721*
G01*
X511386Y1056640D02*
G75*
D01*
G03X511386Y1056640I11854J0*
G01*
X536786Y1056640D02*
G75*
D01*
G03X536786Y1056640I11854J0*
G01*
X585124Y1052436D02*
X578244Y1052436D01*
X578244Y1045556D01*
G74*
D01*
G03X585124Y1052436I4204J11084*
G01*
X569595Y1056640D02*
G75*
D01*
G03X569595Y1056640I4445J0*
G01*
X569836Y1045556D02*
X569836Y1052436D01*
X562956Y1052436D01*
G74*
D01*
G03X569836Y1045556I11084J4204*
G01*
X587586Y1056640D02*
G75*
D01*
G03X587586Y1056640I11854J0*
G01*
X612986Y1056640D02*
G75*
D01*
G03X612986Y1056640I11854J0*
G01*
X658706Y1056640D02*
G75*
D01*
G03X658706Y1056640I11854J0*
G01*
X684106Y1056640D02*
G75*
D01*
G03X684106Y1056640I11854J0*
G01*
X578244Y1067724D02*
X578244Y1060844D01*
X585124Y1060844D01*
G74*
D01*
G03X578244Y1067724I11084J4204*
G01*
X562956Y1060844D02*
X569836Y1060844D01*
X569836Y1067724D01*
G74*
D01*
G03X562956Y1060844I4204J11084*
G01*
X923684Y915324D02*
X923684Y908444D01*
X930564Y908444D01*
G74*
D01*
G03X923684Y915324I11084J4204*
G01*
X720710Y760560D02*
G75*
D01*
G03X720710Y760560I10810J0*
G01*
X746110Y760560D02*
G75*
D01*
G03X746110Y760560I10810J0*
G01*
X771510Y760560D02*
G75*
D01*
G03X771510Y760560I10810J0*
G01*
X796910Y760560D02*
G75*
D01*
G03X796910Y760560I10810J0*
G01*
X822310Y760560D02*
G75*
D01*
G03X822310Y760560I10810J0*
G01*
X903590Y755480D02*
G75*
D01*
G03X903590Y755480I10810J0*
G01*
X928990Y755480D02*
G75*
D01*
G03X928990Y755480I10810J0*
G01*
X761350Y788840D02*
G75*
D01*
G03X761350Y788840I10810J0*
G01*
X761450Y878840D02*
G75*
D01*
G03X761450Y878840I10810J0*
G01*
X716915Y904240D02*
G75*
D01*
G03X716915Y904240I4445J0*
G01*
X732444Y900036D02*
X725564Y900036D01*
X725564Y893156D01*
G74*
D01*
G03X732444Y900036I4204J11084*
G01*
X734906Y904240D02*
G75*
D01*
G03X734906Y904240I11854J0*
G01*
X760306Y904240D02*
G75*
D01*
G03X760306Y904240I11854J0*
G01*
X806026Y904240D02*
G75*
D01*
G03X806026Y904240I11854J0*
G01*
X831426Y904240D02*
G75*
D01*
G03X831426Y904240I11854J0*
G01*
X864476Y893156D02*
X864476Y900036D01*
X857596Y900036D01*
G74*
D01*
G03X864476Y893156I11084J4204*
G01*
X879764Y900036D02*
X872884Y900036D01*
X872884Y893156D01*
G74*
D01*
G03X879764Y900036I4204J11084*
G01*
X864235Y904240D02*
G75*
D01*
G03X864235Y904240I4445J0*
G01*
X882226Y904240D02*
G75*
D01*
G03X882226Y904240I11854J0*
G01*
X915276Y893156D02*
X915276Y900036D01*
X908396Y900036D01*
G74*
D01*
G03X915276Y893156I11084J4204*
G01*
X915035Y904240D02*
G75*
D01*
G03X915035Y904240I4445J0*
G01*
X930564Y900036D02*
X923684Y900036D01*
X923684Y893156D01*
G74*
D01*
G03X930564Y900036I4204J11084*
G01*
X725564Y915324D02*
X725564Y908444D01*
X732444Y908444D01*
G74*
D01*
G03X725564Y915324I11084J4204*
G01*
X857596Y908444D02*
X864476Y908444D01*
X864476Y915324D01*
G74*
D01*
G03X857596Y908444I4204J11084*
G01*
X872884Y915324D02*
X872884Y908444D01*
X879764Y908444D01*
G74*
D01*
G03X872884Y915324I11084J4204*
G01*
X908396Y908444D02*
X915276Y908444D01*
X915276Y915324D01*
G74*
D01*
G03X908396Y908444I4204J11084*
G01*
X487030Y765640D02*
G75*
D01*
G03X487030Y765640I10810J0*
G01*
X512430Y765640D02*
G75*
D01*
G03X512430Y765640I10810J0*
G01*
X537830Y765640D02*
G75*
D01*
G03X537830Y765640I10810J0*
G01*
X563230Y765640D02*
G75*
D01*
G03X563230Y765640I10810J0*
G01*
X588630Y765640D02*
G75*
D01*
G03X588630Y765640I10810J0*
G01*
X669910Y760560D02*
G75*
D01*
G03X669910Y760560I10810J0*
G01*
X511386Y904240D02*
G75*
D01*
G03X511386Y904240I11854J0*
G01*
X536786Y904240D02*
G75*
D01*
G03X536786Y904240I11854J0*
G01*
X585124Y900036D02*
X578244Y900036D01*
X578244Y893156D01*
G74*
D01*
G03X585124Y900036I4204J11084*
G01*
X569836Y893156D02*
X569836Y900036D01*
X562956Y900036D01*
G74*
D01*
G03X569836Y893156I11084J4204*
G01*
X569595Y904240D02*
G75*
D01*
G03X569595Y904240I4445J0*
G01*
X587586Y904240D02*
G75*
D01*
G03X587586Y904240I11854J0*
G01*
X620636Y893156D02*
X620636Y900036D01*
X613756Y900036D01*
G74*
D01*
G03X620636Y893156I11084J4204*
G01*
X635924Y900036D02*
X629044Y900036D01*
X629044Y893156D01*
G74*
D01*
G03X635924Y900036I4204J11084*
G01*
X620395Y904240D02*
G75*
D01*
G03X620395Y904240I4445J0*
G01*
X658706Y904240D02*
G75*
D01*
G03X658706Y904240I11854J0*
G01*
X684106Y904240D02*
G75*
D01*
G03X684106Y904240I11854J0*
G01*
X578244Y915324D02*
X578244Y908444D01*
X585124Y908444D01*
G74*
D01*
G03X578244Y915324I11084J4204*
G01*
X562956Y908444D02*
X569836Y908444D01*
X569836Y915324D01*
G74*
D01*
G03X562956Y908444I4204J11084*
G01*
X613756Y908444D02*
X620636Y908444D01*
X620636Y915324D01*
G74*
D01*
G03X613756Y908444I4204J11084*
G01*
X629044Y915324D02*
X629044Y908444D01*
X635924Y908444D01*
G74*
D01*
G03X629044Y915324I11084J4204*
G01*
X928890Y665480D02*
G75*
D01*
G03X928890Y665480I10810J0*
G01*
X903490Y665480D02*
G75*
D01*
G03X903490Y665480I10810J0*
G01*
X822210Y670560D02*
G75*
D01*
G03X822210Y670560I10810J0*
G01*
X796810Y670560D02*
G75*
D01*
G03X796810Y670560I10810J0*
G01*
X771410Y670560D02*
G75*
D01*
G03X771410Y670560I10810J0*
G01*
X746010Y670560D02*
G75*
D01*
G03X746010Y670560I10810J0*
G01*
X720610Y670560D02*
G75*
D01*
G03X720610Y670560I10810J0*
G01*
X929307Y635000D02*
G75*
D01*
G03X929307Y635000I10493J0*
G01*
X903907Y635000D02*
G75*
D01*
G03X903907Y635000I10493J0*
G01*
X898811Y631279D02*
X892721Y631279D01*
X892721Y625189D01*
G74*
D01*
G03X898811Y631279I3721J9811*
G01*
X879189Y638721D02*
X885279Y638721D01*
X885279Y644811D01*
G74*
D01*
G03X879189Y638721I3721J9811*
G01*
X885279Y625189D02*
X885279Y631279D01*
X879189Y631279D01*
G74*
D01*
G03X885279Y625189I9811J3721*
G01*
X892721Y644811D02*
X892721Y638721D01*
X898811Y638721D01*
G74*
D01*
G03X892721Y644811I9811J3721*
G01*
X884555Y635000D02*
G75*
D01*
G03X884555Y635000I4445J0*
G01*
X822627Y635000D02*
G75*
D01*
G03X822627Y635000I10493J0*
G01*
X797227Y635000D02*
G75*
D01*
G03X797227Y635000I10493J0*
G01*
X771827Y635000D02*
G75*
D01*
G03X771827Y635000I10493J0*
G01*
X746427Y635000D02*
G75*
D01*
G03X746427Y635000I10493J0*
G01*
X721027Y635000D02*
G75*
D01*
G03X721027Y635000I10493J0*
G01*
X929989Y562521D02*
X936079Y562521D01*
X936079Y568611D01*
G74*
D01*
G03X929989Y562521I3721J9811*
G01*
X949611Y555079D02*
X943521Y555079D01*
X943521Y548989D01*
G74*
D01*
G03X949611Y555079I3721J9811*
G01*
X936079Y548989D02*
X936079Y555079D01*
X929989Y555079D01*
G74*
D01*
G03X936079Y548989I9811J3721*
G01*
X935355Y558800D02*
G75*
D01*
G03X935355Y558800I4445J0*
G01*
X943521Y568611D02*
X943521Y562521D01*
X949611Y562521D01*
G74*
D01*
G03X943521Y568611I9811J3721*
G01*
X747109Y562521D02*
X753199Y562521D01*
X753199Y568611D01*
G74*
D01*
G03X747109Y562521I3721J9811*
G01*
X766731Y555079D02*
X760641Y555079D01*
X760641Y548989D01*
G74*
D01*
G03X766731Y555079I3721J9811*
G01*
X753199Y548989D02*
X753199Y555079D01*
X747109Y555079D01*
G74*
D01*
G03X753199Y548989I9811J3721*
G01*
X752475Y558800D02*
G75*
D01*
G03X752475Y558800I4445J0*
G01*
X760641Y568611D02*
X760641Y562521D01*
X766731Y562521D01*
G74*
D01*
G03X760641Y568611I9811J3721*
G01*
X735241Y568611D02*
X735241Y562521D01*
X741331Y562521D01*
G74*
D01*
G03X735241Y568611I9811J3721*
G01*
X727799Y548989D02*
X727799Y555079D01*
X721709Y555079D01*
G74*
D01*
G03X727799Y548989I9811J3721*
G01*
X741331Y555079D02*
X735241Y555079D01*
X735241Y548989D01*
G74*
D01*
G03X741331Y555079I3721J9811*
G01*
X727075Y558800D02*
G75*
D01*
G03X727075Y558800I4445J0*
G01*
X721709Y562521D02*
X727799Y562521D01*
X727799Y568611D01*
G74*
D01*
G03X721709Y562521I3721J9811*
G01*
X903907Y558800D02*
G75*
D01*
G03X903907Y558800I10493J0*
G01*
X878507Y558800D02*
G75*
D01*
G03X878507Y558800I10493J0*
G01*
X822627Y558800D02*
G75*
D01*
G03X822627Y558800I10493J0*
G01*
X797227Y558800D02*
G75*
D01*
G03X797227Y558800I10493J0*
G01*
X771827Y558800D02*
G75*
D01*
G03X771827Y558800I10493J0*
G01*
X929307Y492760D02*
G75*
D01*
G03X929307Y492760I10493J0*
G01*
X903907Y492760D02*
G75*
D01*
G03X903907Y492760I10493J0*
G01*
X878507Y492760D02*
G75*
D01*
G03X878507Y492760I10493J0*
G01*
X822627Y492760D02*
G75*
D01*
G03X822627Y492760I10493J0*
G01*
X797227Y492760D02*
G75*
D01*
G03X797227Y492760I10493J0*
G01*
X760641Y502571D02*
X760641Y496481D01*
X766731Y496481D01*
G74*
D01*
G03X760641Y502571I9811J3721*
G01*
X753199Y482949D02*
X753199Y489039D01*
X747109Y489039D01*
G74*
D01*
G03X753199Y482949I9811J3721*
G01*
X747109Y496481D02*
X753199Y496481D01*
X753199Y502571D01*
G74*
D01*
G03X747109Y496481I3721J9811*
G01*
X752475Y492760D02*
G75*
D01*
G03X752475Y492760I4445J0*
G01*
X766731Y489039D02*
X760641Y489039D01*
X760641Y482949D01*
G74*
D01*
G03X766731Y489039I3721J9811*
G01*
X771827Y492760D02*
G75*
D01*
G03X771827Y492760I10493J0*
G01*
X563130Y675640D02*
G75*
D01*
G03X563130Y675640I10810J0*
G01*
X537730Y675640D02*
G75*
D01*
G03X537730Y675640I10810J0*
G01*
X512330Y675640D02*
G75*
D01*
G03X512330Y675640I10810J0*
G01*
X486930Y675640D02*
G75*
D01*
G03X486930Y675640I10810J0*
G01*
X669810Y670560D02*
G75*
D01*
G03X669810Y670560I10810J0*
G01*
X670227Y635000D02*
G75*
D01*
G03X670227Y635000I10493J0*
G01*
X651599Y625189D02*
X651599Y631279D01*
X645509Y631279D01*
G74*
D01*
G03X651599Y625189I9811J3721*
G01*
X645509Y638721D02*
X651599Y638721D01*
X651599Y644811D01*
G74*
D01*
G03X645509Y638721I3721J9811*
G01*
X659041Y644811D02*
X659041Y638721D01*
X665131Y638721D01*
G74*
D01*
G03X659041Y644811I9811J3721*
G01*
X665131Y631279D02*
X659041Y631279D01*
X659041Y625189D01*
G74*
D01*
G03X665131Y631279I3721J9811*
G01*
X650875Y635000D02*
G75*
D01*
G03X650875Y635000I4445J0*
G01*
X588947Y635000D02*
G75*
D01*
G03X588947Y635000I10493J0*
G01*
X563547Y635000D02*
G75*
D01*
G03X563547Y635000I10493J0*
G01*
X538147Y635000D02*
G75*
D01*
G03X538147Y635000I10493J0*
G01*
X512747Y635000D02*
G75*
D01*
G03X512747Y635000I10493J0*
G01*
X487347Y635000D02*
G75*
D01*
G03X487347Y635000I10493J0*
G01*
X696309Y562521D02*
X702399Y562521D01*
X702399Y568611D01*
G74*
D01*
G03X696309Y562521I3721J9811*
G01*
X715931Y555079D02*
X709841Y555079D01*
X709841Y548989D01*
G74*
D01*
G03X715931Y555079I3721J9811*
G01*
X702399Y548989D02*
X702399Y555079D01*
X696309Y555079D01*
G74*
D01*
G03X702399Y548989I9811J3721*
G01*
X701675Y558800D02*
G75*
D01*
G03X701675Y558800I4445J0*
G01*
X709841Y568611D02*
X709841Y562521D01*
X715931Y562521D01*
G74*
D01*
G03X709841Y568611I9811J3721*
G01*
X513429Y562521D02*
X519519Y562521D01*
X519519Y568611D01*
G74*
D01*
G03X513429Y562521I3721J9811*
G01*
X533051Y555079D02*
X526961Y555079D01*
X526961Y548989D01*
G74*
D01*
G03X533051Y555079I3721J9811*
G01*
X519519Y548989D02*
X519519Y555079D01*
X513429Y555079D01*
G74*
D01*
G03X519519Y548989I9811J3721*
G01*
X518795Y558800D02*
G75*
D01*
G03X518795Y558800I4445J0*
G01*
X526961Y568611D02*
X526961Y562521D01*
X533051Y562521D01*
G74*
D01*
G03X526961Y568611I9811J3721*
G01*
X488029Y562521D02*
X494119Y562521D01*
X494119Y568611D01*
G74*
D01*
G03X488029Y562521I3721J9811*
G01*
X507651Y555079D02*
X501561Y555079D01*
X501561Y548989D01*
G74*
D01*
G03X507651Y555079I3721J9811*
G01*
X494119Y548989D02*
X494119Y555079D01*
X488029Y555079D01*
G74*
D01*
G03X494119Y548989I9811J3721*
G01*
X493395Y558800D02*
G75*
D01*
G03X493395Y558800I4445J0*
G01*
X501561Y568611D02*
X501561Y562521D01*
X507651Y562521D01*
G74*
D01*
G03X501561Y568611I9811J3721*
G01*
X670227Y558800D02*
G75*
D01*
G03X670227Y558800I10493J0*
G01*
X644827Y558800D02*
G75*
D01*
G03X644827Y558800I10493J0*
G01*
X588947Y558800D02*
G75*
D01*
G03X588947Y558800I10493J0*
G01*
X563547Y558800D02*
G75*
D01*
G03X563547Y558800I10493J0*
G01*
X538147Y492760D02*
G75*
D01*
G03X538147Y492760I10493J0*
G01*
X670227Y492760D02*
G75*
D01*
G03X670227Y492760I10493J0*
G01*
X526961Y502571D02*
X526961Y496481D01*
X533051Y496481D01*
G74*
D01*
G03X526961Y502571I9811J3721*
G01*
X519519Y482949D02*
X519519Y489039D01*
X513429Y489039D01*
G74*
D01*
G03X519519Y482949I9811J3721*
G01*
X513429Y496481D02*
X519519Y496481D01*
X519519Y502571D01*
G74*
D01*
G03X513429Y496481I3721J9811*
G01*
X518795Y492760D02*
G75*
D01*
G03X518795Y492760I4445J0*
G01*
X533051Y489039D02*
X526961Y489039D01*
X526961Y482949D01*
G74*
D01*
G03X533051Y489039I3721J9811*
G01*
X487347Y492760D02*
G75*
D01*
G03X487347Y492760I10493J0*
G01*
X588530Y675640D02*
G75*
D01*
G03X588530Y675640I10810J0*
G01*
X253350Y760560D02*
G75*
D01*
G03X253350Y760560I10810J0*
G01*
X278750Y760560D02*
G75*
D01*
G03X278750Y760560I10810J0*
G01*
X304150Y760560D02*
G75*
D01*
G03X304150Y760560I10810J0*
G01*
X329550Y760560D02*
G75*
D01*
G03X329550Y760560I10810J0*
G01*
X354950Y760560D02*
G75*
D01*
G03X354950Y760560I10810J0*
G01*
X436230Y765640D02*
G75*
D01*
G03X436230Y765640I10810J0*
G01*
X278750Y858920D02*
G75*
D01*
G03X278750Y858920I10810J0*
G01*
X370190Y858920D02*
G75*
D01*
G03X370190Y858920I10810J0*
G01*
X278750Y883920D02*
G75*
D01*
G03X278750Y883920I10810J0*
G01*
X371142Y888357D02*
G75*
D01*
G03X371142Y879483I9858J-4437*
G01*
X375579Y883920D01*
X371142Y888357D01*
X385437Y874062D02*
X381000Y878499D01*
X376563Y874062D01*
G75*
D01*
G03X385437Y874062I4437J9858*
G01*
X377000Y883920D02*
G75*
D01*
G03X377000Y883920I4000J0*
G01*
X390858Y888357D02*
X386421Y883920D01*
X390858Y879483D01*
G75*
D01*
G03X390858Y888357I-9858J4437*
G01*
X376563Y893778D02*
X381000Y889341D01*
X385437Y893778D01*
G75*
D01*
G03X376563Y893778I-4437J-9858*
G01*
X294193Y931594D02*
X287905Y931594D01*
X287905Y928108D01*
G75*
D01*
G03X290108Y925905I2203J0*
G01*
X296594Y925905D01*
X296594Y930703D01*
G75*
D01*
G03X296720Y930701I126J4017*
G01*
X302720Y930701D01*
G74*
D01*
G03X302846Y930703I0J4019*
G01*
X302846Y925905D01*
X309332Y925905D01*
G75*
D01*
G03X311535Y928108I0J2203*
G01*
X311535Y931594D01*
X305247Y931594D01*
G75*
D01*
G03X305247Y937846I-2527J3126*
G01*
X311535Y937846D01*
X311535Y941332D01*
G74*
D01*
G03X309332Y943535I2203J0*
G01*
X302846Y943535D01*
X302846Y938737D01*
G74*
D01*
G03X302720Y938739I126J4017*
G01*
X296720Y938739D01*
G75*
D01*
G03X296594Y938737I0J-4019*
G01*
X296594Y943535D01*
X290108Y943535D01*
G75*
D01*
G03X287905Y941332I0J-2203*
G01*
X287905Y937846D01*
X294193Y937846D01*
G75*
D01*
G03X294193Y931594I2527J-3126*
G01*
X436130Y675640D02*
G75*
D01*
G03X436130Y675640I10810J0*
G01*
X354850Y670560D02*
G75*
D01*
G03X354850Y670560I10810J0*
G01*
X329450Y670560D02*
G75*
D01*
G03X329450Y670560I10810J0*
G01*
X304050Y670560D02*
G75*
D01*
G03X304050Y670560I10810J0*
G01*
X278650Y670560D02*
G75*
D01*
G03X278650Y670560I10810J0*
G01*
X253250Y670560D02*
G75*
D01*
G03X253250Y670560I10810J0*
G01*
X425361Y644811D02*
X425361Y638721D01*
X431451Y638721D01*
G74*
D01*
G03X425361Y644811I9811J3721*
G01*
X417919Y625189D02*
X417919Y631279D01*
X411829Y631279D01*
G74*
D01*
G03X417919Y625189I9811J3721*
G01*
X411829Y638721D02*
X417919Y638721D01*
X417919Y644811D01*
G74*
D01*
G03X411829Y638721I3721J9811*
G01*
X417195Y635000D02*
G75*
D01*
G03X417195Y635000I4445J0*
G01*
X431451Y631279D02*
X425361Y631279D01*
X425361Y625189D01*
G74*
D01*
G03X431451Y631279I3721J9811*
G01*
X436547Y635000D02*
G75*
D01*
G03X436547Y635000I10493J0*
G01*
X355267Y635000D02*
G75*
D01*
G03X355267Y635000I10493J0*
G01*
X329867Y635000D02*
G75*
D01*
G03X329867Y635000I10493J0*
G01*
X304467Y635000D02*
G75*
D01*
G03X304467Y635000I10493J0*
G01*
X279067Y635000D02*
G75*
D01*
G03X279067Y635000I10493J0*
G01*
X253667Y635000D02*
G75*
D01*
G03X253667Y635000I10493J0*
G01*
X468719Y548989D02*
X468719Y555079D01*
X462629Y555079D01*
G74*
D01*
G03X468719Y548989I9811J3721*
G01*
X462629Y562521D02*
X468719Y562521D01*
X468719Y568611D01*
G74*
D01*
G03X462629Y562521I3721J9811*
G01*
X279749Y562521D02*
X285839Y562521D01*
X285839Y568611D01*
G74*
D01*
G03X279749Y562521I3721J9811*
G01*
X299371Y555079D02*
X293281Y555079D01*
X293281Y548989D01*
G74*
D01*
G03X299371Y555079I3721J9811*
G01*
X285839Y548989D02*
X285839Y555079D01*
X279749Y555079D01*
G74*
D01*
G03X285839Y548989I9811J3721*
G01*
X285115Y558800D02*
G75*
D01*
G03X285115Y558800I4445J0*
G01*
X293281Y568611D02*
X293281Y562521D01*
X299371Y562521D01*
G74*
D01*
G03X293281Y568611I9811J3721*
G01*
X254349Y562521D02*
X260439Y562521D01*
X260439Y568611D01*
G74*
D01*
G03X254349Y562521I3721J9811*
G01*
X273971Y555079D02*
X267881Y555079D01*
X267881Y548989D01*
G74*
D01*
G03X273971Y555079I3721J9811*
G01*
X260439Y548989D02*
X260439Y555079D01*
X254349Y555079D01*
G74*
D01*
G03X260439Y548989I9811J3721*
G01*
X259715Y558800D02*
G75*
D01*
G03X259715Y558800I4445J0*
G01*
X267881Y568611D02*
X267881Y562521D01*
X273971Y562521D01*
G74*
D01*
G03X267881Y568611I9811J3721*
G01*
X248571Y555079D02*
X242481Y555079D01*
X242481Y548989D01*
G74*
D01*
G03X248571Y555079I3721J9811*
G01*
X242481Y568611D02*
X242481Y562521D01*
X248571Y562521D01*
G74*
D01*
G03X242481Y568611I9811J3721*
G01*
X436547Y558800D02*
G75*
D01*
G03X436547Y558800I10493J0*
G01*
X411147Y558800D02*
G75*
D01*
G03X411147Y558800I10493J0*
G01*
X355267Y558800D02*
G75*
D01*
G03X355267Y558800I10493J0*
G01*
X329867Y558800D02*
G75*
D01*
G03X329867Y558800I10493J0*
G01*
X304467Y558800D02*
G75*
D01*
G03X304467Y558800I10493J0*
G01*
X436547Y492760D02*
G75*
D01*
G03X436547Y492760I10493J0*
G01*
X411147Y492760D02*
G75*
D01*
G03X411147Y492760I10493J0*
G01*
X355267Y492760D02*
G75*
D01*
G03X355267Y492760I10493J0*
G01*
X329867Y492760D02*
G75*
D01*
G03X329867Y492760I10493J0*
G01*
X304467Y492760D02*
G75*
D01*
G03X304467Y492760I10493J0*
G01*
X299371Y489039D02*
X293281Y489039D01*
X293281Y482949D01*
G74*
D01*
G03X299371Y489039I3721J9811*
G01*
X279749Y496481D02*
X285839Y496481D01*
X285839Y502571D01*
G74*
D01*
G03X279749Y496481I3721J9811*
G01*
X285839Y482949D02*
X285839Y489039D01*
X279749Y489039D01*
G74*
D01*
G03X285839Y482949I9811J3721*
G01*
X293281Y502571D02*
X293281Y496481D01*
X299371Y496481D01*
G74*
D01*
G03X293281Y502571I9811J3721*
G01*
X285115Y492760D02*
G75*
D01*
G03X285115Y492760I4445J0*
G01*
X437515Y355600D02*
G75*
D01*
G03X437515Y355600I4445J0*
G01*
X243812Y279800D02*
G75*
D01*
G03X243812Y279800I10588J0*
G01*
X293812Y279800D02*
G75*
D01*
G03X293812Y279800I10588J0*
G01*
X243812Y329800D02*
G75*
D01*
G03X243812Y329800I10588J0*
G01*
X300645Y319900D02*
X300645Y326045D01*
X294500Y326045D01*
G74*
D01*
G03X300645Y319900I9900J3755*
G01*
X314300Y326045D02*
X308155Y326045D01*
X308155Y319900D01*
G74*
D01*
G03X314300Y326045I3755J9900*
G01*
X294500Y333555D02*
X300645Y333555D01*
X300645Y339700D01*
G74*
D01*
G03X294500Y333555I3755J9900*
G01*
X299400Y329800D02*
G75*
D01*
G03X299400Y329800I5000J0*
G01*
X308155Y339700D02*
X308155Y333555D01*
X314300Y333555D01*
G74*
D01*
G03X308155Y339700I9900J3755*
G01*
X438239Y345789D02*
X438239Y351879D01*
X432149Y351879D01*
G74*
D01*
G03X438239Y345789I9811J3721*
G01*
X451771Y351879D02*
X445681Y351879D01*
X445681Y345789D01*
G74*
D01*
G03X451771Y351879I3721J9811*
G01*
X253667Y416560D02*
G75*
D01*
G03X253667Y416560I10493J0*
G01*
X248571Y412839D02*
X242481Y412839D01*
X242481Y406749D01*
G74*
D01*
G03X248571Y412839I3721J9811*
G01*
X279067Y416560D02*
G75*
D01*
G03X279067Y416560I10493J0*
G01*
X242481Y426371D02*
X242481Y420281D01*
X248571Y420281D01*
G74*
D01*
G03X242481Y426371I9811J3721*
G01*
X1196172Y101586D02*
X1098414Y3828D01*
X101586Y3828D01*
X3828Y101586D01*
X3828Y1098414D01*
X101586Y1196172D01*
X101586Y1196172D01*
X1098414Y1196172D01*
X1196172Y1098414D01*
X1196172Y101586D01*
X500380Y238760D02*
X492760Y246380D01*
X500380Y238760D02*
X800100Y238760D01*
X828040Y266700D02*
X801370Y240030D01*
X492760Y246380D02*
X492760Y279400D01*
X576580Y243840D02*
X568960Y251460D01*
X576580Y243840D02*
X777240Y243840D01*
X568960Y251460D02*
X568960Y279400D01*
X800100Y266700D02*
X777240Y243840D01*
X1071880Y314960D02*
X1071880Y243440D01*
X441960Y279400D02*
X467360Y304800D01*
X505460Y292100D02*
X518160Y279400D01*
X543560Y299720D02*
X543560Y279400D01*
X787400Y279400D02*
X787400Y337820D01*
X800100Y391160D02*
X800100Y266700D01*
X828040Y375920D02*
X828040Y266700D01*
X454660Y292100D02*
X505460Y292100D01*
X518160Y281504D02*
X543560Y306904D01*
X566420Y322580D02*
X543560Y299720D01*
X467360Y304800D02*
X467360Y355600D01*
X543560Y306904D02*
X543560Y355600D01*
X929640Y309880D02*
X929640Y345440D01*
X929640Y309880D02*
X941070Y321310D01*
X1065530Y321310D02*
X1071880Y314960D01*
X787400Y337820D02*
X774700Y350520D01*
X941070Y321310D02*
X1065530Y321310D01*
X518160Y363220D02*
X518160Y355600D01*
X568960Y355600D02*
X568960Y368300D01*
X693420Y363220D02*
X701040Y355600D01*
X711200Y355600D01*
X774700Y350520D02*
X774700Y378460D01*
X929640Y345440D02*
X934720Y350520D01*
X949960Y350520D01*
X955040Y355600D01*
X955040Y386080D01*
X314960Y416560D02*
X314960Y373380D01*
X320040Y368300D01*
X513080Y368300D01*
X335280Y373380D02*
X327660Y381000D01*
X563880Y373380D02*
X335280Y373380D01*
X513080Y368300D02*
X518160Y363220D01*
X568960Y368300D02*
X563880Y373380D01*
X561340Y373380D02*
X563880Y373380D01*
X693420Y436880D02*
X693420Y363220D01*
X774700Y378460D02*
X767080Y386080D01*
X848360Y396240D02*
X828040Y375920D01*
X327660Y381000D02*
X327660Y444500D01*
X726440Y386080D02*
X718820Y393700D01*
X718820Y467360D01*
X767080Y386080D02*
X726440Y386080D01*
X782320Y408940D02*
X800100Y391160D01*
X848360Y421640D02*
X848360Y396240D01*
X782320Y416560D02*
X782320Y408940D01*
X1016000Y416560D02*
X1016000Y424180D01*
X688340Y441960D02*
X693420Y436880D01*
X858520Y431800D02*
X848360Y421640D01*
X1008380Y431800D02*
X858520Y431800D01*
X1016000Y424180D02*
X1008380Y431800D01*
X264160Y492760D02*
X264160Y454660D01*
X269240Y449580D02*
X322580Y449580D01*
X264160Y454660D02*
X269240Y449580D01*
X322580Y449580D02*
X327660Y444500D01*
X640080Y447040D02*
X645160Y441960D01*
X640080Y497840D02*
X640080Y447040D01*
X645160Y441960D02*
X688340Y441960D01*
X965200Y492760D02*
X965200Y454660D01*
X972820Y447040D02*
X1066800Y447040D01*
X965200Y454660D02*
X972820Y447040D01*
X718820Y467360D02*
X731520Y480060D01*
X731520Y492760D01*
X632460Y505460D02*
X640080Y497840D01*
X548640Y515620D02*
X558800Y505460D01*
X632460Y505460D01*
X548640Y558800D02*
X548640Y515620D01*
G54D12*
G36*
X74840Y972720D02*
X74840Y972720D01*
X64840Y972720D01*
X64840Y956720D01*
X74840Y956720D01*
X74840Y972720D01*
D02*
G37*
X64840Y972720D01*
X64840Y956720D01*
X74840Y956720D01*
X74840Y972720D01*
G36*
X108840Y999720D02*
X108840Y999720D01*
X108840Y989720D01*
X124840Y989720D01*
X124840Y999720D01*
X108840Y999720D01*
D02*
G37*
X108840Y989720D01*
X124840Y989720D01*
X124840Y999720D01*
X108840Y999720D01*
G36*
X108840Y939720D02*
X108840Y939720D01*
X108840Y929720D01*
X124840Y929720D01*
X124840Y939720D01*
X108840Y939720D01*
D02*
G37*
X108840Y929720D01*
X124840Y929720D01*
X124840Y939720D01*
X108840Y939720D01*
G36*
X257720Y972720D02*
X257720Y972720D01*
X247720Y972720D01*
X247720Y956720D01*
X257720Y956720D01*
X257720Y972720D01*
D02*
G37*
X247720Y972720D01*
X247720Y956720D01*
X257720Y956720D01*
X257720Y972720D01*
G36*
X291720Y999720D02*
X291720Y999720D01*
X291720Y989720D01*
X307720Y989720D01*
X307720Y999720D01*
X291720Y999720D01*
D02*
G37*
X291720Y989720D01*
X307720Y989720D01*
X307720Y999720D01*
X291720Y999720D01*
G36*
X291720Y939720D02*
X291720Y939720D01*
X291720Y929720D01*
X307720Y929720D01*
X307720Y939720D01*
X291720Y939720D01*
D02*
G37*
X291720Y929720D01*
X307720Y929720D01*
X307720Y939720D01*
X291720Y939720D01*
G54D13*
X-2540Y-2540D02*
X-2540Y117968D01*
X-2540Y-2540D02*
X117968Y-2540D01*
X1202540Y-2540D02*
X1082032Y-2540D01*
X1202540Y-2540D02*
X1202540Y117968D01*
X1202540Y1202540D02*
X1202540Y1082032D01*
X1202540Y1202540D02*
X1082032Y1202540D01*
X-2540Y1202540D02*
X117968Y1202540D01*
X-2540Y1202540D02*
X-2540Y1082032D01*
X-52540Y-2540D02*
X-152540Y-2540D01*
X-102540Y-52540D02*
X-102540Y47460D01*
X-140040Y-2540D02*
G75*
D01*
G02X-140040Y-2540I37500J0*
G01*
X1252540Y-2540D02*
X1352540Y-2540D01*
X1302540Y-52540D02*
X1302540Y47460D01*
X1265040Y-2540D02*
G75*
D01*
G02X1265040Y-2540I37500J0*
G01*
X1290040Y-2540D02*
G75*
D01*
G02X1290040Y-2540I12500J0*
G01*
X-52540Y1202540D02*
X-152540Y1202540D01*
X-102540Y1152540D02*
X-102540Y1252540D01*
X-140040Y1202540D02*
G75*
D01*
G02X-140040Y1202540I37500J0*
G01*
X-127540Y1202540D02*
G75*
D01*
G02X-127540Y1202540I25000J0*
G01*
X-115040Y1202540D02*
G75*
D01*
G02X-115040Y1202540I12500J0*
G01*
G54D14*
X441960Y218440D03*
X518160Y142240D03*
X467360Y142240D03*
X492760Y142240D03*
X543560Y142240D03*
X568960Y142240D03*
X594360Y142240D03*
X594360Y218440D03*
X518160Y218440D03*
X467360Y218440D03*
X492760Y218440D03*
X543560Y218440D03*
X568960Y218440D03*
X441960Y142240D03*
X660400Y218440D03*
X736600Y142240D03*
X685800Y142240D03*
X711200Y142240D03*
X762000Y142240D03*
X787400Y142240D03*
X812800Y142240D03*
X812800Y218440D03*
X736600Y218440D03*
X685800Y218440D03*
X711200Y218440D03*
X762000Y218440D03*
X787400Y218440D03*
X660400Y142240D03*
X441960Y355600D03*
X518160Y279400D03*
X467360Y279400D03*
X492760Y279400D03*
X543560Y279400D03*
X568960Y279400D03*
X594360Y279400D03*
X594360Y355600D03*
X518160Y355600D03*
X467360Y355600D03*
X492760Y355600D03*
X543560Y355600D03*
X568960Y355600D03*
X441960Y279400D03*
X660400Y355600D03*
X736600Y279400D03*
X685800Y279400D03*
X711200Y279400D03*
X762000Y279400D03*
X787400Y279400D03*
X812800Y279400D03*
X812800Y355600D03*
X736600Y355600D03*
X685800Y355600D03*
X711200Y355600D03*
X762000Y355600D03*
X787400Y355600D03*
X660400Y279400D03*
X904240Y386080D03*
X929640Y309880D03*
X980440Y309880D03*
X955040Y309880D03*
X980440Y386080D03*
X929640Y386080D03*
X955040Y386080D03*
X904240Y309880D03*
X187960Y635000D03*
X238760Y558800D03*
X213360Y558800D03*
X264160Y558800D03*
X314960Y558800D03*
X289560Y558800D03*
X340360Y558800D03*
X365760Y558800D03*
X340360Y635000D03*
X264160Y635000D03*
X238760Y635000D03*
X213360Y635000D03*
X314960Y635000D03*
X289560Y635000D03*
X365760Y635000D03*
X187960Y558800D03*
X421640Y635000D03*
X472440Y558800D03*
X447040Y558800D03*
X497840Y558800D03*
X548640Y558800D03*
X523240Y558800D03*
X574040Y558800D03*
X599440Y558800D03*
X574040Y635000D03*
X497840Y635000D03*
X472440Y635000D03*
X447040Y635000D03*
X548640Y635000D03*
X523240Y635000D03*
X599440Y635000D03*
X421640Y558800D03*
X655320Y635000D03*
X706120Y558800D03*
X680720Y558800D03*
X731520Y558800D03*
X782320Y558800D03*
X756920Y558800D03*
X807720Y558800D03*
X833120Y558800D03*
X807720Y635000D03*
X731520Y635000D03*
X706120Y635000D03*
X680720Y635000D03*
X782320Y635000D03*
X756920Y635000D03*
X833120Y635000D03*
X655320Y558800D03*
X889000Y635000D03*
X939800Y558800D03*
X914400Y558800D03*
X965200Y558800D03*
X1016000Y558800D03*
X990600Y558800D03*
X1041400Y558800D03*
X1066800Y558800D03*
X1041400Y635000D03*
X965200Y635000D03*
X939800Y635000D03*
X914400Y635000D03*
X1016000Y635000D03*
X990600Y635000D03*
X1066800Y635000D03*
X889000Y558800D03*
X365760Y416560D03*
X314960Y492760D03*
X340360Y492760D03*
X289560Y492760D03*
X238760Y492760D03*
X264160Y492760D03*
X213360Y492760D03*
X187960Y492760D03*
X213360Y416560D03*
X289560Y416560D03*
X314960Y416560D03*
X340360Y416560D03*
X238760Y416560D03*
X264160Y416560D03*
X187960Y416560D03*
X365760Y492760D03*
X599440Y416560D03*
X548640Y492760D03*
X574040Y492760D03*
X523240Y492760D03*
X472440Y492760D03*
X497840Y492760D03*
X447040Y492760D03*
X421640Y492760D03*
X447040Y416560D03*
X523240Y416560D03*
X548640Y416560D03*
X574040Y416560D03*
X472440Y416560D03*
X497840Y416560D03*
X421640Y416560D03*
X599440Y492760D03*
X833120Y416560D03*
X782320Y492760D03*
X807720Y492760D03*
X756920Y492760D03*
X706120Y492760D03*
X731520Y492760D03*
X680720Y492760D03*
X655320Y492760D03*
X680720Y416560D03*
X756920Y416560D03*
X782320Y416560D03*
X807720Y416560D03*
X706120Y416560D03*
X731520Y416560D03*
X655320Y416560D03*
X833120Y492760D03*
X1066800Y416560D03*
X1016000Y492760D03*
X1041400Y492760D03*
X990600Y492760D03*
X939800Y492760D03*
X965200Y492760D03*
X914400Y492760D03*
X889000Y492760D03*
X914400Y416560D03*
X990600Y416560D03*
X1016000Y416560D03*
X1041400Y416560D03*
X939800Y416560D03*
X965200Y416560D03*
X889000Y416560D03*
X1066800Y492760D03*
G54D15*
X1046880Y193440D03*
X1096880Y193440D03*
X1071880Y243440D03*
X112160Y329800D03*
X162160Y329800D03*
X112160Y279800D03*
X162160Y279800D03*
X304400Y329800D03*
X254400Y329800D03*
X254400Y279800D03*
X304400Y279800D03*
G54D16*
X566420Y322580D03*
X1066800Y447040D03*
G54D17*
X914400Y755480D03*
X914300Y665480D03*
X939800Y755480D03*
X939700Y665480D03*
X965200Y755480D03*
X965100Y665480D03*
X990600Y755480D03*
X990500Y665480D03*
X1016000Y755480D03*
X1015900Y665480D03*
X1041400Y755480D03*
X1041300Y665480D03*
X1066800Y755480D03*
X1066700Y665480D03*
X213360Y760560D03*
X213260Y670560D03*
X238760Y760560D03*
X238660Y670560D03*
X264160Y760560D03*
X264060Y670560D03*
X289560Y760560D03*
X289460Y670560D03*
X314960Y760560D03*
X314860Y670560D03*
X340360Y760560D03*
X340260Y670560D03*
X365760Y760560D03*
X365660Y670560D03*
X447040Y765640D03*
X446940Y675640D03*
X472440Y765640D03*
X472340Y675640D03*
X497840Y765640D03*
X497740Y675640D03*
X523240Y765640D03*
X523140Y675640D03*
X548640Y765640D03*
X548540Y675640D03*
X574040Y765640D03*
X573940Y675640D03*
X599440Y765640D03*
X599340Y675640D03*
X680720Y760560D03*
X680620Y670560D03*
X706120Y760560D03*
X706020Y670560D03*
X731520Y760560D03*
X731420Y670560D03*
X756920Y760560D03*
X756820Y670560D03*
X782320Y760560D03*
X782220Y670560D03*
X807720Y760560D03*
X807620Y670560D03*
X833120Y760560D03*
X833020Y670560D03*
X772160Y788840D03*
X772260Y878840D03*
X289560Y858920D03*
X289560Y883920D03*
X381000Y858920D03*
X381000Y883920D03*
X1096880Y314960D03*
X1071880Y314960D03*
X394800Y213360D03*
X304800Y213460D03*
X905680Y193040D03*
X995680Y192940D03*
X201760Y208280D03*
X111760Y208380D03*
G54D18*
X721360Y904240D03*
X670560Y904240D03*
X695960Y904240D03*
X746760Y904240D03*
X772160Y904240D03*
X721360Y1056640D03*
X670560Y1056640D03*
X695960Y1056640D03*
X746760Y1056640D03*
X772160Y1056640D03*
X868680Y904240D03*
X817880Y904240D03*
X843280Y904240D03*
X894080Y904240D03*
X919480Y904240D03*
X868680Y1056640D03*
X817880Y1056640D03*
X843280Y1056640D03*
X894080Y1056640D03*
X919480Y1056640D03*
X1016000Y904240D03*
X965200Y904240D03*
X990600Y904240D03*
X1041400Y904240D03*
X1066800Y904240D03*
X1016000Y1056640D03*
X965200Y1056640D03*
X990600Y1056640D03*
X1041400Y1056640D03*
X1066800Y1056640D03*
X1051560Y386080D03*
X1102360Y386080D03*
X574040Y904240D03*
X523240Y904240D03*
X548640Y904240D03*
X599440Y904240D03*
X624840Y904240D03*
X574040Y1056640D03*
X523240Y1056640D03*
X548640Y1056640D03*
X599440Y1056640D03*
X624840Y1056640D03*
G54D19*
X116840Y883920D03*
G54D20*
X218440Y883920D03*
G54D21*
X106680Y802640D03*
X106680Y777240D03*
X106680Y624840D03*
X106680Y650240D03*
G54D22*
X106680Y751840D03*
X106680Y599440D03*

M02*
