G04 Generated by Ultiboard 14.3 *
%FSLAX34Y34*%
%MOMM*%

%ADD10C,0.0001*%
%ADD11C,0.1270*%


G04 ColorRGB FF14FF for the following layer *
%LNSilkscreen Bottom*%
%LPD*%
G54D10*
G54D11*
X-2540Y-2540D02*
X-2540Y117968D01*
X-2540Y-2540D02*
X117968Y-2540D01*
X1202540Y-2540D02*
X1082032Y-2540D01*
X1202540Y-2540D02*
X1202540Y117968D01*
X1202540Y1202540D02*
X1202540Y1082032D01*
X1202540Y1202540D02*
X1082032Y1202540D01*
X-2540Y1202540D02*
X117968Y1202540D01*
X-2540Y1202540D02*
X-2540Y1082032D01*
X-52540Y-2540D02*
X-152540Y-2540D01*
X-102540Y-52540D02*
X-102540Y47460D01*
X-140040Y-2540D02*
G75*
D01*
G02X-140040Y-2540I37500J0*
G01*
X1252540Y-2540D02*
X1352540Y-2540D01*
X1302540Y-52540D02*
X1302540Y47460D01*
X1265040Y-2540D02*
G75*
D01*
G02X1265040Y-2540I37500J0*
G01*
X1290040Y-2540D02*
G75*
D01*
G02X1290040Y-2540I12500J0*
G01*
X-52540Y1202540D02*
X-152540Y1202540D01*
X-102540Y1152540D02*
X-102540Y1252540D01*
X-140040Y1202540D02*
G75*
D01*
G02X-140040Y1202540I37500J0*
G01*
X-127540Y1202540D02*
G75*
D01*
G02X-127540Y1202540I25000J0*
G01*
X-115040Y1202540D02*
G75*
D01*
G02X-115040Y1202540I12500J0*
G01*

M02*
