G04 Generated by Ultiboard 14.3 *
%FSLAX34Y34*%
%MOMM*%

%ADD10C,0.0001*%
%ADD11C,0.0010*%
%ADD12C,0.1270*%
%ADD13C,6.00000*%
%ADD14C,1.2446*%
%ADD15R,1.2446X1.2446*%
%ADD16C,1.3556*%
%ADD17C,1.0000*%
%ADD18C,1.4000*%
%ADD19R,1.4000X1.4000*%
%ADD20C,1.6088*%
%ADD21C,5.0000*%
%ADD22C,1.5000*%
%ADD23R,1.5000X1.5000*%
%ADD24C,1.5366*%
%ADD25R,1.5366X1.5366*%


G04 ColorRGB FF00CC for the following layer *
%LNSolder Mask Top*%
%LPD*%
G54D10*
G54D11*
G36*
X74840Y972720D02*
X74840Y972720D01*
X64840Y972720D01*
X64840Y956720D01*
X74840Y956720D01*
X74840Y972720D01*
D02*
G37*
X64840Y972720D01*
X64840Y956720D01*
X74840Y956720D01*
X74840Y972720D01*
G36*
X108840Y999720D02*
X108840Y999720D01*
X108840Y989720D01*
X124840Y989720D01*
X124840Y999720D01*
X108840Y999720D01*
D02*
G37*
X108840Y989720D01*
X124840Y989720D01*
X124840Y999720D01*
X108840Y999720D01*
G36*
X108840Y939720D02*
X108840Y939720D01*
X108840Y929720D01*
X124840Y929720D01*
X124840Y939720D01*
X108840Y939720D01*
D02*
G37*
X108840Y929720D01*
X124840Y929720D01*
X124840Y939720D01*
X108840Y939720D01*
G36*
X257720Y972720D02*
X257720Y972720D01*
X247720Y972720D01*
X247720Y956720D01*
X257720Y956720D01*
X257720Y972720D01*
D02*
G37*
X247720Y972720D01*
X247720Y956720D01*
X257720Y956720D01*
X257720Y972720D01*
G36*
X291720Y999720D02*
X291720Y999720D01*
X291720Y989720D01*
X307720Y989720D01*
X307720Y999720D01*
X291720Y999720D01*
D02*
G37*
X291720Y989720D01*
X307720Y989720D01*
X307720Y999720D01*
X291720Y999720D01*
G36*
X291720Y939720D02*
X291720Y939720D01*
X291720Y929720D01*
X307720Y929720D01*
X307720Y939720D01*
X291720Y939720D01*
D02*
G37*
X291720Y929720D01*
X307720Y929720D01*
X307720Y939720D01*
X291720Y939720D01*
G54D12*
X-2540Y-2540D02*
X-2540Y117968D01*
X-2540Y-2540D02*
X117968Y-2540D01*
X1202540Y-2540D02*
X1082032Y-2540D01*
X1202540Y-2540D02*
X1202540Y117968D01*
X1202540Y1202540D02*
X1202540Y1082032D01*
X1202540Y1202540D02*
X1082032Y1202540D01*
X-2540Y1202540D02*
X117968Y1202540D01*
X-2540Y1202540D02*
X-2540Y1082032D01*
X-52540Y-2540D02*
X-152540Y-2540D01*
X-102540Y-52540D02*
X-102540Y47460D01*
X-140040Y-2540D02*
G75*
D01*
G02X-140040Y-2540I37500J0*
G01*
X1252540Y-2540D02*
X1352540Y-2540D01*
X1302540Y-52540D02*
X1302540Y47460D01*
X1265040Y-2540D02*
G75*
D01*
G02X1265040Y-2540I37500J0*
G01*
X1290040Y-2540D02*
G75*
D01*
G02X1290040Y-2540I12500J0*
G01*
X-52540Y1202540D02*
X-152540Y1202540D01*
X-102540Y1152540D02*
X-102540Y1252540D01*
X-140040Y1202540D02*
G75*
D01*
G02X-140040Y1202540I37500J0*
G01*
X-127540Y1202540D02*
G75*
D01*
G02X-127540Y1202540I25000J0*
G01*
X-115040Y1202540D02*
G75*
D01*
G02X-115040Y1202540I12500J0*
G01*
G54D13*
X80500Y1119500D03*
X1119500Y1119500D03*
X80500Y80500D03*
X1119500Y80500D03*
G54D14*
X441960Y218440D03*
X518160Y142240D03*
X467360Y142240D03*
X492760Y142240D03*
X543560Y142240D03*
X568960Y142240D03*
X594360Y142240D03*
X594360Y218440D03*
X518160Y218440D03*
X467360Y218440D03*
X492760Y218440D03*
X543560Y218440D03*
X568960Y218440D03*
X660400Y218440D03*
X736600Y142240D03*
X685800Y142240D03*
X711200Y142240D03*
X762000Y142240D03*
X787400Y142240D03*
X812800Y142240D03*
X812800Y218440D03*
X736600Y218440D03*
X685800Y218440D03*
X711200Y218440D03*
X762000Y218440D03*
X787400Y218440D03*
X441960Y355600D03*
X518160Y279400D03*
X467360Y279400D03*
X492760Y279400D03*
X543560Y279400D03*
X568960Y279400D03*
X594360Y279400D03*
X594360Y355600D03*
X518160Y355600D03*
X467360Y355600D03*
X492760Y355600D03*
X543560Y355600D03*
X568960Y355600D03*
X660400Y355600D03*
X736600Y279400D03*
X685800Y279400D03*
X711200Y279400D03*
X762000Y279400D03*
X787400Y279400D03*
X812800Y279400D03*
X812800Y355600D03*
X736600Y355600D03*
X685800Y355600D03*
X711200Y355600D03*
X762000Y355600D03*
X787400Y355600D03*
X904240Y386080D03*
X929640Y309880D03*
X980440Y309880D03*
X955040Y309880D03*
X980440Y386080D03*
X929640Y386080D03*
X955040Y386080D03*
X187960Y635000D03*
X238760Y558800D03*
X213360Y558800D03*
X264160Y558800D03*
X314960Y558800D03*
X289560Y558800D03*
X340360Y558800D03*
X365760Y558800D03*
X340360Y635000D03*
X264160Y635000D03*
X238760Y635000D03*
X213360Y635000D03*
X314960Y635000D03*
X289560Y635000D03*
X365760Y635000D03*
X421640Y635000D03*
X472440Y558800D03*
X447040Y558800D03*
X497840Y558800D03*
X548640Y558800D03*
X523240Y558800D03*
X574040Y558800D03*
X599440Y558800D03*
X574040Y635000D03*
X497840Y635000D03*
X472440Y635000D03*
X447040Y635000D03*
X548640Y635000D03*
X523240Y635000D03*
X599440Y635000D03*
X655320Y635000D03*
X706120Y558800D03*
X680720Y558800D03*
X731520Y558800D03*
X782320Y558800D03*
X756920Y558800D03*
X807720Y558800D03*
X833120Y558800D03*
X807720Y635000D03*
X731520Y635000D03*
X706120Y635000D03*
X680720Y635000D03*
X782320Y635000D03*
X756920Y635000D03*
X833120Y635000D03*
X889000Y635000D03*
X939800Y558800D03*
X914400Y558800D03*
X965200Y558800D03*
X1016000Y558800D03*
X990600Y558800D03*
X1041400Y558800D03*
X1066800Y558800D03*
X1041400Y635000D03*
X965200Y635000D03*
X939800Y635000D03*
X914400Y635000D03*
X1016000Y635000D03*
X990600Y635000D03*
X1066800Y635000D03*
X365760Y416560D03*
X314960Y492760D03*
X340360Y492760D03*
X289560Y492760D03*
X238760Y492760D03*
X264160Y492760D03*
X213360Y492760D03*
X187960Y492760D03*
X213360Y416560D03*
X289560Y416560D03*
X314960Y416560D03*
X340360Y416560D03*
X238760Y416560D03*
X264160Y416560D03*
X187960Y416560D03*
X599440Y416560D03*
X548640Y492760D03*
X574040Y492760D03*
X523240Y492760D03*
X472440Y492760D03*
X497840Y492760D03*
X447040Y492760D03*
X421640Y492760D03*
X447040Y416560D03*
X523240Y416560D03*
X548640Y416560D03*
X574040Y416560D03*
X472440Y416560D03*
X497840Y416560D03*
X421640Y416560D03*
X833120Y416560D03*
X782320Y492760D03*
X807720Y492760D03*
X756920Y492760D03*
X706120Y492760D03*
X731520Y492760D03*
X680720Y492760D03*
X655320Y492760D03*
X680720Y416560D03*
X756920Y416560D03*
X782320Y416560D03*
X807720Y416560D03*
X706120Y416560D03*
X731520Y416560D03*
X655320Y416560D03*
X1066800Y416560D03*
X1016000Y492760D03*
X1041400Y492760D03*
X990600Y492760D03*
X939800Y492760D03*
X965200Y492760D03*
X914400Y492760D03*
X889000Y492760D03*
X914400Y416560D03*
X990600Y416560D03*
X1016000Y416560D03*
X1041400Y416560D03*
X939800Y416560D03*
X965200Y416560D03*
X889000Y416560D03*
G54D15*
X441960Y142240D03*
X660400Y142240D03*
X441960Y279400D03*
X660400Y279400D03*
X904240Y309880D03*
X187960Y558800D03*
X421640Y558800D03*
X655320Y558800D03*
X889000Y558800D03*
X365760Y492760D03*
X599440Y492760D03*
X833120Y492760D03*
X1066800Y492760D03*
G54D16*
X1046880Y193440D03*
X1096880Y193440D03*
X1071880Y243440D03*
X112160Y329800D03*
X162160Y329800D03*
X112160Y279800D03*
X162160Y279800D03*
X304400Y329800D03*
X254400Y329800D03*
X254400Y279800D03*
X304400Y279800D03*
G54D17*
X566420Y322580D03*
X1066800Y447040D03*
G54D18*
X914400Y755480D03*
X939800Y755480D03*
X965200Y755480D03*
X990600Y755480D03*
X1016000Y755480D03*
X1041400Y755480D03*
X1066800Y755480D03*
X213360Y760560D03*
X238760Y760560D03*
X264160Y760560D03*
X289560Y760560D03*
X314960Y760560D03*
X340360Y760560D03*
X365760Y760560D03*
X447040Y765640D03*
X472440Y765640D03*
X497840Y765640D03*
X523240Y765640D03*
X548640Y765640D03*
X574040Y765640D03*
X599440Y765640D03*
X680720Y760560D03*
X706120Y760560D03*
X731520Y760560D03*
X756920Y760560D03*
X782320Y760560D03*
X807720Y760560D03*
X833120Y760560D03*
X772160Y788840D03*
X289560Y858920D03*
X381000Y858920D03*
X1096880Y314960D03*
X394800Y213360D03*
X905680Y193040D03*
X201760Y208280D03*
G54D19*
X914300Y665480D03*
X939700Y665480D03*
X965100Y665480D03*
X990500Y665480D03*
X1015900Y665480D03*
X1041300Y665480D03*
X1066700Y665480D03*
X213260Y670560D03*
X238660Y670560D03*
X264060Y670560D03*
X289460Y670560D03*
X314860Y670560D03*
X340260Y670560D03*
X365660Y670560D03*
X446940Y675640D03*
X472340Y675640D03*
X497740Y675640D03*
X523140Y675640D03*
X548540Y675640D03*
X573940Y675640D03*
X599340Y675640D03*
X680620Y670560D03*
X706020Y670560D03*
X731420Y670560D03*
X756820Y670560D03*
X782220Y670560D03*
X807620Y670560D03*
X833020Y670560D03*
X772260Y878840D03*
X289560Y883920D03*
X381000Y883920D03*
X1071880Y314960D03*
X304800Y213460D03*
X995680Y192940D03*
X111760Y208380D03*
G54D20*
X721360Y904240D03*
X670560Y904240D03*
X695960Y904240D03*
X746760Y904240D03*
X772160Y904240D03*
X721360Y1056640D03*
X670560Y1056640D03*
X695960Y1056640D03*
X746760Y1056640D03*
X772160Y1056640D03*
X868680Y904240D03*
X817880Y904240D03*
X843280Y904240D03*
X894080Y904240D03*
X919480Y904240D03*
X868680Y1056640D03*
X817880Y1056640D03*
X843280Y1056640D03*
X894080Y1056640D03*
X919480Y1056640D03*
X1016000Y904240D03*
X965200Y904240D03*
X990600Y904240D03*
X1041400Y904240D03*
X1066800Y904240D03*
X1016000Y1056640D03*
X965200Y1056640D03*
X990600Y1056640D03*
X1041400Y1056640D03*
X1066800Y1056640D03*
X1051560Y386080D03*
X1102360Y386080D03*
X574040Y904240D03*
X523240Y904240D03*
X548640Y904240D03*
X599440Y904240D03*
X624840Y904240D03*
X574040Y1056640D03*
X523240Y1056640D03*
X548640Y1056640D03*
X599440Y1056640D03*
X624840Y1056640D03*
G54D21*
X80500Y80500D03*
X1119500Y80500D03*
X1119500Y1119500D03*
X80500Y1119500D03*
G54D22*
X116840Y883920D03*
G54D23*
X218440Y883920D03*
G54D24*
X106680Y802640D03*
X106680Y777240D03*
X106680Y624840D03*
X106680Y650240D03*
G54D25*
X106680Y751840D03*
X106680Y599440D03*

M02*
