M48
METRIC,TZ
VER,1
FMAT,2
DETECT,ON
ATC,ON
T1C0.8890
T2C1.0000
T3C0.6000
T4C0.8000
T5C5.0000
T6C0.9000
T7C1.1810
%
T1
X441960Y218440
X518160Y142240
X467360
X492760
X543560
X568960
X594360
Y218440
X518160
X467360
X492760
X543560
X568960
X441960Y142240
X660400Y218440
X736600Y142240
X685800
X711200
X762000
X787400
X812800
Y218440
X736600
X685800
X711200
X762000
X787400
X660400Y142240
X441960Y355600
X518160Y279400
X467360
X492760
X543560
X568960
X594360
Y355600
X518160
X467360
X492760
X543560
X568960
X441960Y279400
X660400Y355600
X736600Y279400
X685800
X711200
X762000
X787400
X812800
Y355600
X736600
X685800
X711200
X762000
X787400
X660400Y279400
X904240Y386080
X929640Y309880
X980440
X955040
X980440Y386080
X929640
X955040
X904240Y309880
X187960Y635000
X238760Y558800
X213360
X264160
X314960
X289560
X340360
X365760
X340360Y635000
X264160
X238760
X213360
X314960
X289560
X365760
X187960Y558800
X421640Y635000
X472440Y558800
X447040
X497840
X548640
X523240
X574040
X599440
X574040Y635000
X497840
X472440
X447040
X548640
X523240
X599440
X421640Y558800
X655320Y635000
X706120Y558800
X680720
X731520
X782320
X756920
X807720
X833120
X807720Y635000
X731520
X706120
X680720
X782320
X756920
X833120
X655320Y558800
X889000Y635000
X939800Y558800
X914400
X965200
X1016000
X990600
X1041400
X1066800
X1041400Y635000
X965200
X939800
X914400
X1016000
X990600
X1066800
X889000Y558800
X721360Y904240
X670560
X695960
X746760
X772160
X721360Y1056640
X670560
X695960
X746760
X772160
X868680Y904240
X817880
X843280
X894080
X919480
X868680Y1056640
X817880
X843280
X894080
X919480
X1016000Y904240
X965200
X990600
X1041400
X1066800
X1016000Y1056640
X965200
X990600
X1041400
X1066800
X1051560Y386080
X1102360
X574040Y904240
X523240
X548640
X599440
X624840
X574040Y1056640
X523240
X548640
X599440
X624840
X365760Y416560
X314960Y492760
X340360
X289560
X238760
X264160
X213360
X187960
X213360Y416560
X289560
X314960
X340360
X238760
X264160
X187960
X365760Y492760
X599440Y416560
X548640Y492760
X574040
X523240
X472440
X497840
X447040
X421640
X447040Y416560
X523240
X548640
X574040
X472440
X497840
X421640
X599440Y492760
X833120Y416560
X782320Y492760
X807720
X756920
X706120
X731520
X680720
X655320
X680720Y416560
X756920
X782320
X807720
X706120
X731520
X655320
X833120Y492760
X1066800Y416560
X1016000Y492760
X1041400
X990600
X939800
X965200
X914400
X889000
X914400Y416560
X990600
X1016000
X1041400
X939800
X965200
X889000
X1066800Y492760
T2
X1046880Y193440
X1096880
X1071880Y243440
X112160Y329800
X162160
X112160Y279800
X162160
X304400Y329800
X254400
Y279800
X304400
T3
X566420Y322580
X1066800Y447040
T4
X914400Y755480
X914300Y665480
X939800Y755480
X939700Y665480
X965200Y755480
X965100Y665480
X990600Y755480
X990500Y665480
X1016000Y755480
X1015900Y665480
X1041400Y755480
X1041300Y665480
X1066800Y755480
X1066700Y665480
X213360Y760560
X213260Y670560
X238760Y760560
X238660Y670560
X264160Y760560
X264060Y670560
X289560Y760560
X289460Y670560
X314960Y760560
X314860Y670560
X340360Y760560
X340260Y670560
X365760Y760560
X365660Y670560
X447040Y765640
X446940Y675640
X472440Y765640
X472340Y675640
X497840Y765640
X497740Y675640
X523240Y765640
X523140Y675640
X548640Y765640
X548540Y675640
X574040Y765640
X573940Y675640
X599440Y765640
X599340Y675640
X680720Y760560
X680620Y670560
X706120Y760560
X706020Y670560
X731520Y760560
X731420Y670560
X756920Y760560
X756820Y670560
X782320Y760560
X782220Y670560
X807720Y760560
X807620Y670560
X833120Y760560
X833020Y670560
X772160Y788840
X772260Y878840
X289560Y858920
Y883920
X381000Y858920
Y883920
X1096880Y314960
X1071880
X394800Y213360
X304800Y213460
X69840Y967720G85X69840Y961720
X113840Y994720G85X119840Y994720
X113840Y934720G85X119840Y934720
X905680Y193040
X995680Y192940
X252720Y967720G85X252720Y961720
X296720Y994720G85X302720Y994720
X296720Y934720G85X302720Y934720
X201760Y208280
X111760Y208380
T5
X80500Y80500
X1119500
Y1119500
X80500
T6
X116840Y883920
X218440
T7
X106680Y802640
Y777240
Y751840
Y624840
Y650240
Y599440
M30
