G04 Generated by Ultiboard 14.3 *
%FSLAX34Y34*%
%MOMM*%

%ADD10C,0.0001*%
%ADD11C,0.2540*%
%ADD12C,0.0010*%
%ADD13C,0.1270*%
%ADD14C,1.2446*%
%ADD15R,1.2446X1.2446*%
%ADD16C,1.3556*%
%ADD17C,1.0000*%
%ADD18C,1.4000*%
%ADD19R,1.4000X1.4000*%
%ADD20C,1.6088*%
%ADD21C,1.5000*%
%ADD22R,1.5000X1.5000*%
%ADD23C,1.5366*%
%ADD24R,1.5366X1.5366*%


G04 ColorRGB 00FF00 for the following layer *
%LNCopper Top*%
%LPD*%
G54D10*
G36*
X101586Y3828D02*
X101586Y3828D01*
X3828Y101586D01*
X3828Y1098414D01*
X101586Y1196172D01*
X101586Y1196172D01*
X1098414Y1196172D01*
X1196172Y1098414D01*
X1196172Y101586D01*
X1098414Y3828D01*
X101586Y3828D01*
D02*
G37*
%LPC*%
G36*
X1112520Y124435D02*
G74*
D01*
G03X1116135Y125937I0J5105*
G01*
X1116135Y125937D01*
X1123743Y133545D01*
G75*
D01*
G03X1125245Y137160I-3603J3615*
G01*
X1125245Y137160D01*
X1125245Y439420D01*
G74*
D01*
G03X1123743Y443035I5105J0*
G01*
X1123743Y443035D01*
X1116135Y450643D01*
G74*
D01*
G03X1114027Y451917I3615J3603*
G01*
G75*
D01*
G03X1112513Y452145I-1507J-4877*
G01*
X1112513Y452145D01*
X1073980Y452145D01*
G75*
D01*
G03X1073980Y441935I-7180J-5105*
G01*
X1073980Y441935D01*
X1110406Y441935D01*
X1115035Y437306D01*
X1115035Y139274D01*
X1110406Y134645D01*
X820040Y134645D01*
G74*
D01*
G03X822611Y138519I7240J7595*
G01*
X822611Y138519D01*
X816521Y138519D01*
X816521Y134645D01*
X809079Y134645D01*
X809079Y138519D01*
X802989Y138519D01*
G74*
D01*
G03X805560Y134645I9811J3721*
G01*
X805560Y134645D01*
X794640Y134645D01*
G75*
D01*
G03X780160Y134645I-7240J7595*
G01*
X780160Y134645D01*
X769240Y134645D01*
G74*
D01*
G03X771811Y138519I7240J7595*
G01*
X771811Y138519D01*
X765721Y138519D01*
X765721Y134645D01*
X758279Y134645D01*
X758279Y138519D01*
X752189Y138519D01*
G74*
D01*
G03X754760Y134645I9811J3721*
G01*
X754760Y134645D01*
X743840Y134645D01*
G74*
D01*
G03X746411Y138519I7240J7595*
G01*
X746411Y138519D01*
X740321Y138519D01*
X740321Y134645D01*
X732879Y134645D01*
X732879Y138519D01*
X726789Y138519D01*
G74*
D01*
G03X729360Y134645I9811J3721*
G01*
X729360Y134645D01*
X719138Y134645D01*
X718789Y134994D01*
G75*
D01*
G03X706852Y132690I-7589J7246*
G01*
G74*
D01*
G03X707591Y131755I4348J2674*
G01*
X707591Y131755D01*
X713415Y125931D01*
G74*
D01*
G03X715081Y124820I3609J3609*
G01*
G75*
D01*
G03X717024Y124435I1943J4720*
G01*
X717024Y124435D01*
X1112520Y124435D01*
D02*
G37*
G36*
X714921Y208629D02*
G74*
D01*
G03X721011Y214719I3721J9811*
G01*
X721011Y214719D01*
X714921Y214719D01*
X714921Y208629D01*
D02*
G37*
G36*
X714921Y228251D02*
X714921Y228251D01*
X714921Y222161D01*
X721011Y222161D01*
G74*
D01*
G03X714921Y228251I9811J3721*
G01*
D02*
G37*
G36*
X1079579Y236172D02*
G75*
D01*
G03X1079579Y236172I-7699J7268*
G01*
D02*
G37*
G36*
X654177Y268886D02*
X654177Y268886D01*
X663695Y268886D01*
X665856Y266725D01*
X477094Y266725D01*
X476172Y267647D01*
X476172Y267647D01*
X473162Y270657D01*
G75*
D01*
G03X462255Y270232I-5802J8743*
G01*
X462255Y270232D01*
X462255Y269252D01*
G75*
D01*
G03X463751Y265631I5105J-12*
G01*
X463751Y265631D01*
X471371Y258011D01*
G74*
D01*
G03X473949Y256621I3609J3609*
G01*
G75*
D01*
G03X474980Y256515I1031J4999*
G01*
X474980Y256515D01*
X701416Y256515D01*
X694891Y249989D01*
G75*
D01*
G03X693395Y246372I3609J-3609*
G01*
X693395Y246372D01*
X693395Y225680D01*
G74*
D01*
G03X689521Y228251I7595J7240*
G01*
X689521Y228251D01*
X689521Y222161D01*
X693395Y222161D01*
X693395Y215474D01*
X692640Y214719D01*
X689521Y214719D01*
X689521Y211600D01*
X682191Y204269D01*
G75*
D01*
G03X680695Y200652I3609J-3609*
G01*
X680695Y200652D01*
X680695Y151408D01*
G75*
D01*
G03X690905Y151408I5105J-9168*
G01*
X690905Y151408D01*
X690905Y198546D01*
X702103Y209745D01*
G74*
D01*
G03X703277Y211561I3603J3615*
G01*
G74*
D01*
G03X707479Y208629I7923J6879*
G01*
X707479Y208629D01*
X707479Y214719D01*
X703605Y214719D01*
X703605Y222161D01*
X707479Y222161D01*
X707479Y228251D01*
G74*
D01*
G03X703605Y225680I3721J9811*
G01*
X703605Y225680D01*
X703605Y244266D01*
X710774Y251435D01*
X944880Y251435D01*
G74*
D01*
G03X948495Y252937I0J5105*
G01*
X948495Y252937D01*
X956172Y260613D01*
X958643Y263085D01*
G75*
D01*
G03X960145Y266700I-3603J3615*
G01*
X960145Y266700D01*
X960145Y300712D01*
G74*
D01*
G03X962635Y302640I5105J9168*
G01*
X962635Y302640D01*
X962635Y198129D01*
G75*
D01*
G03X964131Y194511I5105J-9*
G01*
X964131Y194511D01*
X969311Y189331D01*
G75*
D01*
G03X972927Y187835I3609J3609*
G01*
X972927Y187835D01*
X984852Y187835D01*
X984852Y185940D01*
G75*
D01*
G03X988680Y182112I3828J0*
G01*
X988680Y182112D01*
X1002680Y182112D01*
G75*
D01*
G03X1006508Y185940I0J3828*
G01*
X1006508Y185940D01*
X1006508Y192915D01*
X1036305Y192915D01*
G75*
D01*
G03X1042583Y203117I10575J525*
G01*
G74*
D01*
G03X1042300Y203125I283J5097*
G01*
X1042300Y203125D01*
X1004805Y203125D01*
G74*
D01*
G03X1002680Y203768I2125J3185*
G01*
X1002680Y203768D01*
X988680Y203768D01*
G75*
D01*
G03X984852Y199940I0J-3828*
G01*
X984852Y199940D01*
X984852Y198045D01*
X975034Y198045D01*
X972845Y200234D01*
X972845Y302640D01*
G75*
D01*
G03X972845Y317120I7595J7240*
G01*
X972845Y317120D01*
X972845Y340360D01*
G74*
D01*
G03X971343Y343975I5105J0*
G01*
X971343Y343975D01*
X966275Y349043D01*
G74*
D01*
G03X962660Y350545I3615J3603*
G01*
X962660Y350545D01*
X936834Y350545D01*
X934745Y352634D01*
X934745Y376912D01*
G75*
D01*
G03X924535Y376912I-5105J9168*
G01*
X924535Y376912D01*
X924535Y350529D01*
G75*
D01*
G03X926031Y346911I5105J-9*
G01*
X926031Y346911D01*
X931111Y341831D01*
G75*
D01*
G03X934727Y340335I3609J3609*
G01*
X934727Y340335D01*
X960546Y340335D01*
X962635Y338246D01*
X962635Y317120D01*
G75*
D01*
G03X949935Y300712I-7595J-7240*
G01*
X949935Y300712D01*
X949935Y268814D01*
X942766Y261645D01*
X781944Y261645D01*
X789398Y269099D01*
G75*
D01*
G03X778988Y273127I-1998J10301*
G01*
X778988Y273127D01*
X772586Y266725D01*
X698124Y266725D01*
X702103Y270705D01*
G74*
D01*
G03X703277Y272521I3603J3615*
G01*
G75*
D01*
G03X716305Y288568I7923J6879*
G01*
X716305Y288568D01*
X716305Y302260D01*
G74*
D01*
G03X714803Y305875I5105J0*
G01*
X714803Y305875D01*
X709735Y310943D01*
G74*
D01*
G03X707798Y312161I3615J3603*
G01*
G75*
D01*
G03X706113Y312445I-1678J-4821*
G01*
X706113Y312445D01*
X497865Y312445D01*
X497865Y346432D01*
G75*
D01*
G03X487655Y346432I-5105J9168*
G01*
X487655Y346432D01*
X487655Y309893D01*
G75*
D01*
G03X488318Y307365I5105J-13*
G01*
X488318Y307365D01*
X408514Y307365D01*
X394995Y320884D01*
X394995Y474545D01*
G74*
D01*
G03X393493Y478160I5105J0*
G01*
X393493Y478160D01*
X386720Y484933D01*
G74*
D01*
G03X384882Y486115I3615J3603*
G01*
G75*
D01*
G03X383097Y486435I-1777J-4785*
G01*
X383097Y486435D01*
X376272Y486435D01*
G75*
D01*
G03X376274Y486537I-4289J102*
G01*
X376274Y486537D01*
X376274Y498983D01*
G74*
D01*
G03X371983Y503274I4291J0*
G01*
X371983Y503274D01*
X359537Y503274D01*
G75*
D01*
G03X355246Y498983I0J-4291*
G01*
X355246Y498983D01*
X355246Y486537D01*
G75*
D01*
G03X355248Y486435I4291J0*
G01*
X355248Y486435D01*
X348732Y486435D01*
G75*
D01*
G03X337487Y502852I-8372J6325*
G01*
X337487Y502852D01*
X332765Y507574D01*
X332765Y526206D01*
X355393Y548835D01*
G75*
D01*
G03X356895Y552450I-3603J3615*
G01*
X356895Y552450D01*
X356895Y553187D01*
G74*
D01*
G03X362039Y548989I8865J5613*
G01*
X362039Y548989D01*
X362039Y555079D01*
X356895Y555079D01*
X356895Y562521D01*
X362039Y562521D01*
X362039Y568611D01*
G74*
D01*
G03X356895Y564413I3721J9811*
G01*
X356895Y564413D01*
X356895Y570230D01*
G74*
D01*
G03X355393Y573845I5105J0*
G01*
X355393Y573845D01*
X343975Y585263D01*
G74*
D01*
G03X342262Y586397I3615J3603*
G01*
G75*
D01*
G03X340352Y586765I-1902J-4737*
G01*
X340352Y586765D01*
X193040Y586765D01*
G75*
D01*
G03X191768Y586604I0J-5105*
G01*
G74*
D01*
G03X189431Y585269I1272J4944*
G01*
X189431Y585269D01*
X179271Y575109D01*
G75*
D01*
G03X177775Y571488I3609J-3609*
G01*
X177775Y571488D01*
X177775Y566671D01*
G74*
D01*
G03X177446Y565023I3962J1648*
G01*
X177446Y565023D01*
X177446Y552577D01*
G75*
D01*
G03X181737Y548286I4291J0*
G01*
X181737Y548286D01*
X194183Y548286D01*
G74*
D01*
G03X197520Y549880I0J4291*
G01*
G74*
D01*
G03X198321Y548841I4410J2570*
G01*
X198321Y548841D01*
X203175Y543986D01*
X203175Y497849D01*
G75*
D01*
G03X203446Y496199I5105J-9*
G01*
G75*
D01*
G03X223613Y490528I9914J-3439*
G01*
X223613Y490528D01*
X224991Y489151D01*
G74*
D01*
G03X226949Y487930I3609J3609*
G01*
G75*
D01*
G03X228600Y487655I1651J4830*
G01*
X228600Y487655D01*
X229592Y487655D01*
G75*
D01*
G03X248852Y495633I9168J5105*
G01*
X248852Y495633D01*
X253574Y500355D01*
X256920Y500355D01*
G75*
D01*
G03X271400Y500355I7240J-7595*
G01*
X271400Y500355D01*
X282320Y500355D01*
G75*
D01*
G03X297155Y485520I7240J-7595*
G01*
X297155Y485520D01*
X297155Y485146D01*
G75*
D01*
G03X298651Y481531I5105J-6*
G01*
X298651Y481531D01*
X304009Y476172D01*
X307541Y472641D01*
G75*
D01*
G03X311152Y471145I3609J3609*
G01*
X311152Y471145D01*
X378142Y471145D01*
X379705Y469582D01*
X379705Y314137D01*
G75*
D01*
G03X381201Y310516I5105J-12*
G01*
X381201Y310516D01*
X394512Y297205D01*
X266707Y297205D01*
G75*
D01*
G03X263091Y295709I-7J-5105*
G01*
X263091Y295709D01*
X257350Y289969D01*
G75*
D01*
G03X264569Y282750I-2950J-10169*
G01*
X264569Y282750D01*
X268814Y286995D01*
X296633Y286995D01*
G75*
D01*
G03X304375Y269212I7767J-7195*
G01*
X304375Y269212D01*
X304375Y224288D01*
X297800Y224288D01*
G75*
D01*
G03X293972Y220460I0J-3828*
G01*
X293972Y220460D01*
X293972Y206460D01*
G75*
D01*
G03X297800Y202632I3828J0*
G01*
X297800Y202632D01*
X311800Y202632D01*
G75*
D01*
G03X315628Y206460I0J3828*
G01*
X315628Y206460D01*
X315628Y220460D01*
G74*
D01*
G03X314585Y223087I3828J0*
G01*
X314585Y223087D01*
X314585Y274720D01*
G74*
D01*
G03X314362Y276212I5105J0*
G01*
G75*
D01*
G03X312167Y286995I-9962J3588*
G01*
X312167Y286995D01*
X427146Y286995D01*
X431446Y282695D01*
X431446Y273177D01*
G75*
D01*
G03X435737Y268886I4291J0*
G01*
X435737Y268886D01*
X448183Y268886D01*
G75*
D01*
G03X452474Y273177I0J4291*
G01*
X452474Y273177D01*
X452474Y285623D01*
G74*
D01*
G03X448183Y289914I4291J0*
G01*
X448183Y289914D01*
X438665Y289914D01*
X436504Y292075D01*
X673526Y292075D01*
X678584Y287017D01*
G75*
D01*
G03X678560Y271805I7216J-7617*
G01*
X678560Y271805D01*
X675214Y271805D01*
X670914Y276105D01*
X670914Y285623D01*
G74*
D01*
G03X666623Y289914I4291J0*
G01*
X666623Y289914D01*
X654177Y289914D01*
G75*
D01*
G03X649886Y285623I0J-4291*
G01*
X649886Y285623D01*
X649886Y273177D01*
G75*
D01*
G03X654177Y268886I4291J0*
G01*
D02*
G37*
G36*
X476172Y136543D02*
G75*
D01*
G03X476172Y136543I-8812J5697*
G01*
D02*
G37*
G36*
X476172Y212743D02*
G75*
D01*
G03X476172Y212743I-8812J5697*
G01*
D02*
G37*
G36*
X956172Y411213D02*
G75*
D01*
G03X956172Y411213I9028J5347*
G01*
D02*
G37*
G36*
X956172Y375648D02*
G75*
D01*
G03X956172Y375648I-1132J10432*
G01*
D02*
G37*
G36*
X863625Y309880D02*
X863625Y309880D01*
X863625Y460166D01*
X868254Y464795D01*
X1036320Y464795D01*
G74*
D01*
G03X1039935Y466297I0J5105*
G01*
X1039935Y466297D01*
X1045003Y471365D01*
G75*
D01*
G03X1046505Y474980I-3603J3615*
G01*
X1046505Y474980D01*
X1046505Y483592D01*
G75*
D01*
G03X1051380Y496002I-5105J9168*
G01*
G75*
D01*
G03X1051596Y497474I-4888J1472*
G01*
X1051596Y497474D01*
X1051596Y541080D01*
X1058985Y548469D01*
G74*
D01*
G03X1060263Y550592I3603J3615*
G01*
G75*
D01*
G03X1060486Y567181I6537J8208*
G01*
X1060486Y567181D01*
X1060486Y567324D01*
G74*
D01*
G03X1058985Y570940I5104J0*
G01*
X1058985Y570940D01*
X1050101Y579824D01*
G75*
D01*
G03X1046490Y581319I-3609J-3610*
G01*
X1046490Y581319D01*
X956172Y581319D01*
X956172Y581319D01*
X896632Y581319D01*
G75*
D01*
G03X893016Y579818I0J-5105*
G01*
X893016Y579818D01*
X885402Y572204D01*
G74*
D01*
G03X883958Y569314I3610J3610*
G01*
X883958Y569314D01*
X882777Y569314D01*
G75*
D01*
G03X878486Y565023I0J-4291*
G01*
X878486Y565023D01*
X878486Y552577D01*
G75*
D01*
G03X882777Y548286I4291J0*
G01*
X882777Y548286D01*
X895223Y548286D01*
G74*
D01*
G03X898280Y549567I0J4291*
G01*
X898280Y549567D01*
X904038Y543809D01*
X904038Y497669D01*
G75*
D01*
G03X904372Y495848I5105J-6*
G01*
G75*
D01*
G03X904308Y489887I10028J-3088*
G01*
X904308Y489887D01*
X894506Y480085D01*
X863606Y480085D01*
G75*
D01*
G03X859991Y478589I-6J-5105*
G01*
X859991Y478589D01*
X857573Y476172D01*
X849831Y468429D01*
G75*
D01*
G03X848335Y464812I3609J-3609*
G01*
X848335Y464812D01*
X848335Y314534D01*
X843706Y309905D01*
X741687Y309905D01*
G75*
D01*
G03X738071Y308409I-7J-5105*
G01*
X738071Y308409D01*
X732991Y303329D01*
G75*
D01*
G03X731495Y299711I3609J-3609*
G01*
X731495Y299711D01*
X731495Y288568D01*
G75*
D01*
G03X741705Y288568I5105J-9168*
G01*
X741705Y288568D01*
X741705Y297606D01*
X743794Y299695D01*
X759836Y299695D01*
X758391Y298249D01*
G75*
D01*
G03X756895Y294631I3609J-3609*
G01*
X756895Y294631D01*
X756895Y288568D01*
G75*
D01*
G03X767105Y288568I5105J-9168*
G01*
X767105Y288568D01*
X767105Y292526D01*
X769194Y294615D01*
X848360Y294615D01*
G74*
D01*
G03X851975Y296117I0J5105*
G01*
X851975Y296117D01*
X862123Y306265D01*
G75*
D01*
G03X863625Y309880I-3603J3615*
G01*
D02*
G37*
G36*
X170185Y124435D02*
X170185Y124435D01*
X434340Y124435D01*
G74*
D01*
G03X437955Y125937I0J5105*
G01*
X437955Y125937D01*
X443745Y131726D01*
X448183Y131726D01*
G75*
D01*
G03X452474Y136017I0J4291*
G01*
X452474Y136017D01*
X452474Y148463D01*
G74*
D01*
G03X448183Y152754I4291J0*
G01*
X448183Y152754D01*
X435737Y152754D01*
G75*
D01*
G03X431446Y148463I0J-4291*
G01*
X431446Y148463D01*
X431446Y136017D01*
G75*
D01*
G03X431672Y134645I4291J0*
G01*
X431672Y134645D01*
X172294Y134645D01*
X167265Y139674D01*
X167265Y270524D01*
G75*
D01*
G03X157055Y270524I-5105J9276*
G01*
X157055Y270524D01*
X157055Y137567D01*
G75*
D01*
G03X158551Y133951I5105J-7*
G01*
X158551Y133951D01*
X166571Y125931D01*
G75*
D01*
G03X170185Y124435I3609J3609*
G01*
D02*
G37*
G36*
X637515Y1059173D02*
X637515Y1059173D01*
X637515Y888574D01*
X634740Y885799D01*
X527217Y885799D01*
G75*
D01*
G03X528345Y889000I-3977J3201*
G01*
X528345Y889000D01*
X528345Y893541D01*
G75*
D01*
G03X532341Y911835I-5105J10699*
G01*
X532341Y911835D01*
X539539Y911835D01*
G75*
D01*
G03X552159Y915560I9101J-7595*
G01*
X552159Y915560D01*
X550804Y916915D01*
X592246Y916915D01*
X594259Y914902D01*
G75*
D01*
G03X604545Y914939I5181J-10662*
G01*
X604545Y914939D01*
X604545Y916940D01*
G74*
D01*
G03X603043Y920555I5105J0*
G01*
X603043Y920555D01*
X601604Y921995D01*
X614680Y921995D01*
G74*
D01*
G03X618295Y923497I0J5105*
G01*
X618295Y923497D01*
X628443Y933645D01*
G75*
D01*
G03X629945Y937260I-3603J3615*
G01*
X629945Y937260D01*
X629945Y1045941D01*
G75*
D01*
G03X619735Y1045941I-5105J10699*
G01*
X619735Y1045941D01*
X619735Y939374D01*
X612566Y932205D01*
X596524Y932205D01*
X603043Y938725D01*
G75*
D01*
G03X604545Y942340I-3603J3615*
G01*
X604545Y942340D01*
X604545Y1045941D01*
G75*
D01*
G03X594335Y1045941I-5105J10699*
G01*
X594335Y1045941D01*
X594335Y944454D01*
X587166Y937285D01*
X512704Y937285D01*
X526843Y951425D01*
G75*
D01*
G03X528345Y955040I-3603J3615*
G01*
X528345Y955040D01*
X528345Y1045941D01*
G75*
D01*
G03X532341Y1064235I-5105J10699*
G01*
X532341Y1064235D01*
X533826Y1064235D01*
X537465Y1060596D01*
G75*
D01*
G03X544684Y1067815I11175J-3956*
G01*
X544684Y1067815D01*
X539555Y1072943D01*
G74*
D01*
G03X535940Y1074445I3615J3603*
G01*
X535940Y1074445D01*
X518167Y1074445D01*
G75*
D01*
G03X514551Y1072949I-7J-5105*
G01*
X514551Y1072949D01*
X506931Y1065329D01*
G75*
D01*
G03X505435Y1061711I3609J-3609*
G01*
X505435Y1061711D01*
X505435Y952074D01*
X476172Y922811D01*
X475406Y922045D01*
X462286Y922045D01*
G75*
D01*
G03X458671Y920549I-6J-5105*
G01*
X458671Y920549D01*
X428191Y890069D01*
G75*
D01*
G03X426695Y886452I3609J-3609*
G01*
X426695Y886452D01*
X426695Y812825D01*
X220987Y812825D01*
G75*
D01*
G03X217371Y811329I-7J-5105*
G01*
X217371Y811329D01*
X209751Y803709D01*
G75*
D01*
G03X208255Y800091I3609J-3609*
G01*
X208255Y800091D01*
X208255Y770089D01*
G75*
D01*
G03X218465Y770089I5105J-9529*
G01*
X218465Y770089D01*
X218465Y797986D01*
X223094Y802615D01*
X239136Y802615D01*
X236172Y799651D01*
X236172Y799651D01*
X235151Y798629D01*
G75*
D01*
G03X233655Y795011I3609J-3609*
G01*
X233655Y795011D01*
X233655Y770089D01*
G75*
D01*
G03X243865Y770089I5105J-9529*
G01*
X243865Y770089D01*
X243865Y792906D01*
X248494Y797535D01*
X264536Y797535D01*
X260551Y793549D01*
G75*
D01*
G03X259055Y789931I3609J-3609*
G01*
X259055Y789931D01*
X259055Y770089D01*
G75*
D01*
G03X269265Y770089I5105J-9529*
G01*
X269265Y770089D01*
X269265Y787826D01*
X273894Y792455D01*
X289936Y792455D01*
X285951Y788469D01*
G75*
D01*
G03X284455Y784851I3609J-3609*
G01*
X284455Y784851D01*
X284455Y770089D01*
G75*
D01*
G03X294665Y770089I5105J-9529*
G01*
X294665Y770089D01*
X294665Y782746D01*
X299294Y787375D01*
X312796Y787375D01*
X311351Y785929D01*
G75*
D01*
G03X309855Y782311I3609J-3609*
G01*
X309855Y782311D01*
X309855Y770089D01*
G75*
D01*
G03X320065Y770089I5105J-9529*
G01*
X320065Y770089D01*
X320065Y780206D01*
X322154Y782295D01*
X338196Y782295D01*
X336751Y780849D01*
G75*
D01*
G03X335255Y777231I3609J-3609*
G01*
X335255Y777231D01*
X335255Y770089D01*
G75*
D01*
G03X345465Y770089I5105J-9529*
G01*
X345465Y770089D01*
X345465Y775126D01*
X347554Y777215D01*
X363596Y777215D01*
X362151Y775769D01*
G75*
D01*
G03X360655Y772151I3609J-3609*
G01*
X360655Y772151D01*
X360655Y770089D01*
G75*
D01*
G03X370893Y770074I5105J-9529*
G01*
X370893Y770074D01*
X372954Y772135D01*
X438399Y772135D01*
G75*
D01*
G03X456873Y770130I8641J-6495*
G01*
X456873Y770130D01*
X467335Y780592D01*
X467335Y775169D01*
G75*
D01*
G03X477545Y775169I5105J-9529*
G01*
X477545Y775169D01*
X477545Y780156D01*
X487874Y769827D01*
G75*
D01*
G03X508575Y764366I9966J-4187*
G01*
X508575Y764366D01*
X510911Y762031D01*
G74*
D01*
G03X512731Y760859I3609J3609*
G01*
G74*
D01*
G03X513674Y760606I1789J4781*
G01*
G75*
D01*
G03X514883Y772496I9566J5034*
G01*
X514883Y772496D01*
X487705Y799674D01*
X487705Y860350D01*
X644475Y860350D01*
G74*
D01*
G03X648090Y861851I0J5105*
G01*
X648090Y861851D01*
X661463Y875225D01*
G75*
D01*
G03X662965Y878840I-3603J3615*
G01*
X662965Y878840D01*
X662965Y895139D01*
G75*
D01*
G03X679140Y896061I7595J9101*
G01*
X679140Y896061D01*
X685775Y889426D01*
X685775Y835685D01*
X665486Y835685D01*
G75*
D01*
G03X661871Y834189I-6J-5105*
G01*
X661871Y834189D01*
X651711Y824029D01*
G75*
D01*
G03X650215Y820412I3609J-3609*
G01*
X650215Y820412D01*
X650215Y762025D01*
X609627Y762025D01*
G75*
D01*
G03X593018Y756945I-10187J3615*
G01*
X593018Y756945D01*
X581234Y756945D01*
X580896Y757283D01*
G75*
D01*
G03X569006Y756074I-6856J8357*
G01*
G74*
D01*
G03X570431Y753311I5034J846*
G01*
X570431Y753311D01*
X571876Y751865D01*
X563454Y751865D01*
X556786Y758533D01*
G75*
D01*
G03X545621Y755260I-8146J7107*
G01*
X545621Y755260D01*
X557731Y743151D01*
G75*
D01*
G03X561345Y741655I3609J3609*
G01*
X561345Y741655D01*
X657860Y741655D01*
G74*
D01*
G03X661475Y743157I0J5105*
G01*
X661475Y743157D01*
X669083Y750765D01*
G75*
D01*
G03X670585Y754380I-3603J3615*
G01*
X670585Y754380D01*
X670585Y756801D01*
G75*
D01*
G03X691067Y763688I10135J3759*
G01*
X691067Y763688D01*
X693733Y766354D01*
G74*
D01*
G03X694891Y764571I4767J1826*
G01*
X694891Y764571D01*
X695773Y763688D01*
G75*
D01*
G03X716855Y759286I10347J-3128*
G01*
X716855Y759286D01*
X719191Y756951D01*
G74*
D01*
G03X721954Y755526I3609J3609*
G01*
G75*
D01*
G03X740161Y767055I9566J5034*
G01*
X740161Y767055D01*
X748279Y767055D01*
G75*
D01*
G03X760437Y770782I8641J-6495*
G01*
X760437Y770782D01*
X755455Y775763D01*
G74*
D01*
G03X753518Y776981I3615J3603*
G01*
G75*
D01*
G03X751833Y777265I-1678J-4821*
G01*
X751833Y777265D01*
X720934Y777265D01*
X713765Y784434D01*
X713765Y803066D01*
X716172Y805473D01*
X724963Y814265D01*
G75*
D01*
G03X726465Y817880I-3603J3615*
G01*
X726465Y817880D01*
X726465Y845795D01*
X787400Y845795D01*
G74*
D01*
G03X791015Y847297I0J5105*
G01*
X791015Y847297D01*
X803703Y859985D01*
G75*
D01*
G03X805205Y863600I-3603J3615*
G01*
X805205Y863600D01*
X805205Y1029126D01*
X807294Y1031215D01*
X911860Y1031215D01*
G74*
D01*
G03X915475Y1032717I0J5105*
G01*
X915475Y1032717D01*
X923083Y1040325D01*
G75*
D01*
G03X924585Y1043940I-3603J3615*
G01*
X924585Y1043940D01*
X924585Y1045941D01*
G74*
D01*
G03X927075Y1047539I5105J10699*
G01*
X927075Y1047539D01*
X927075Y913341D01*
G75*
D01*
G03X919526Y892386I-7595J-9101*
G01*
G75*
D01*
G03X919455Y891531I5034J-846*
G01*
X919455Y891531D01*
X919455Y765035D01*
G75*
D01*
G03X924168Y750849I-5055J-9555*
G01*
G74*
D01*
G03X925635Y751877I2148J4631*
G01*
X925635Y751877D01*
X927100Y753341D01*
X928571Y751871D01*
G74*
D01*
G03X930032Y750849I3609J3609*
G01*
G75*
D01*
G03X948441Y761975I9768J4631*
G01*
X948441Y761975D01*
X956559Y761975D01*
G75*
D01*
G03X968717Y765702I8641J-6495*
G01*
X968717Y765702D01*
X967364Y767055D01*
X983406Y767055D01*
X985467Y764994D01*
G75*
D01*
G03X996995Y746764I5133J-9514*
G01*
G75*
D01*
G03X998421Y742316I5035J-839*
G01*
X998421Y742316D01*
X998634Y742102D01*
G74*
D01*
G03X998642Y742094I3614J3606*
G01*
X998642Y742094D01*
X1000126Y740611D01*
G74*
D01*
G03X1001864Y739471I3609J3609*
G01*
G75*
D01*
G03X1003735Y739115I1871J4749*
G01*
X1003735Y739115D01*
X1064252Y739115D01*
G75*
D01*
G03X1066085Y739453I8J5105*
G01*
G74*
D01*
G03X1067875Y740617I1825J4767*
G01*
X1067875Y740617D01*
X1070403Y743145D01*
G74*
D01*
G03X1071834Y745914I3603J3615*
G01*
G75*
D01*
G03X1057914Y749325I-5034J9566*
G01*
X1057914Y749325D01*
X1050286Y749325D01*
G75*
D01*
G03X1046505Y765009I-8886J6155*
G01*
X1046505Y765009D01*
X1046505Y782320D01*
G74*
D01*
G03X1045003Y785935I5105J0*
G01*
X1045003Y785935D01*
X1039935Y791003D01*
G74*
D01*
G03X1037998Y792221I3615J3603*
G01*
G75*
D01*
G03X1036313Y792505I-1678J-4821*
G01*
X1036313Y792505D01*
X960145Y792505D01*
X960145Y874186D01*
X967314Y881355D01*
X972820Y881355D01*
G74*
D01*
G03X976435Y882857I0J5105*
G01*
X976435Y882857D01*
X986644Y893065D01*
G75*
D01*
G03X999701Y911835I3956J11175*
G01*
X999701Y911835D01*
X1006899Y911835D01*
G75*
D01*
G03X1025101Y911835I9101J-7595*
G01*
X1025101Y911835D01*
X1032299Y911835D01*
G75*
D01*
G03X1044919Y915560I9101J-7595*
G01*
X1044919Y915560D01*
X1039935Y920543D01*
G74*
D01*
G03X1036320Y922045I3615J3603*
G01*
X1036320Y922045D01*
X985527Y922045D01*
G75*
D01*
G03X981911Y920549I-7J-5105*
G01*
X981911Y920549D01*
X974291Y912929D01*
G74*
D01*
G03X973816Y912382I3609J3609*
G01*
G75*
D01*
G03X954811Y898530I-8616J-8142*
G01*
X954811Y898530D01*
X952525Y896244D01*
X952525Y1029126D01*
X956182Y1032783D01*
X1058208Y1032783D01*
G74*
D01*
G03X1061823Y1034284I0J5105*
G01*
X1061823Y1034284D01*
X1070403Y1042865D01*
G74*
D01*
G03X1071875Y1045927I3603J3615*
G01*
G75*
D01*
G03X1060018Y1046917I-5075J10713*
G01*
X1060018Y1046917D01*
X1056093Y1042992D01*
X1042591Y1042992D01*
X1044919Y1045320D01*
G75*
D01*
G03X1032299Y1049045I-3519J11320*
G01*
X1032299Y1049045D01*
X1025101Y1049045D01*
G75*
D01*
G03X1006899Y1049045I-9101J7595*
G01*
X1006899Y1049045D01*
X999701Y1049045D01*
G75*
D01*
G03X994119Y1067960I-9101J7595*
G01*
X994119Y1067960D01*
X989135Y1072943D01*
G74*
D01*
G03X985520Y1074445I3615J3603*
G01*
X985520Y1074445D01*
X940244Y1074445D01*
G75*
D01*
G03X936626Y1072949I-8J-5105*
G01*
X936626Y1072949D01*
X928571Y1064894D01*
G74*
D01*
G03X928282Y1064580I3609J3610*
G01*
G75*
D01*
G03X914299Y1045978I-8802J-7940*
G01*
X914299Y1045978D01*
X909746Y1041425D01*
X896244Y1041425D01*
X897683Y1042865D01*
G74*
D01*
G03X899155Y1045927I3603J3615*
G01*
G75*
D01*
G03X887298Y1046917I-5075J10713*
G01*
X887298Y1046917D01*
X886886Y1046505D01*
X874828Y1046505D01*
G75*
D01*
G03X862532Y1046505I-6148J10135*
G01*
X862532Y1046505D01*
X849428Y1046505D01*
G75*
D01*
G03X846799Y1067960I-6148J10135*
G01*
X846799Y1067960D01*
X841815Y1072943D01*
G74*
D01*
G03X838200Y1074445I3615J3603*
G01*
X838200Y1074445D01*
X795026Y1074445D01*
G75*
D01*
G03X791411Y1072949I-6J-5105*
G01*
X791411Y1072949D01*
X781883Y1063422D01*
G75*
D01*
G03X761771Y1050930I-9723J-6782*
G01*
X761771Y1050930D01*
X752266Y1041425D01*
X743844Y1041425D01*
X747213Y1044794D01*
G75*
D01*
G03X737377Y1049396I-453J11846*
G01*
X737377Y1049396D01*
X734486Y1046505D01*
X727508Y1046505D01*
G75*
D01*
G03X715212Y1046505I-6148J10135*
G01*
X715212Y1046505D01*
X702108Y1046505D01*
G75*
D01*
G03X696413Y1068486I-6148J10135*
G01*
X696413Y1068486D01*
X692482Y1072417D01*
G74*
D01*
G03X688866Y1073919I3616J3603*
G01*
X688866Y1073919D01*
X652259Y1073919D01*
G75*
D01*
G03X648645Y1072423I-5J-5105*
G01*
X648645Y1072423D01*
X639011Y1062789D01*
G75*
D01*
G03X637515Y1059173I3609J-3609*
G01*
D02*
G37*
G36*
X243905Y955108D02*
G75*
D01*
G03X246108Y952905I2203J0*
G01*
X246108Y952905D01*
X249594Y952905D01*
X249594Y959193D01*
G75*
D01*
G03X255846Y959193I3126J2527*
G01*
X255846Y959193D01*
X255846Y952905D01*
X259332Y952905D01*
G75*
D01*
G03X261535Y955108I0J2203*
G01*
X261535Y955108D01*
X261535Y961594D01*
X256737Y961594D01*
G75*
D01*
G03X256739Y961720I-4017J126*
G01*
X256739Y961720D01*
X256739Y967720D01*
G74*
D01*
G03X256737Y967846I4019J0*
G01*
X256737Y967846D01*
X261535Y967846D01*
X261535Y974332D01*
G74*
D01*
G03X259332Y976535I2203J0*
G01*
X259332Y976535D01*
X255846Y976535D01*
X255846Y970247D01*
G75*
D01*
G03X249594Y970247I-3126J-2527*
G01*
X249594Y970247D01*
X249594Y976535D01*
X246108Y976535D01*
G75*
D01*
G03X243905Y974332I0J-2203*
G01*
X243905Y974332D01*
X243905Y967846D01*
X248703Y967846D01*
G74*
D01*
G03X248701Y967720I4017J126*
G01*
X248701Y967720D01*
X248701Y961720D01*
G75*
D01*
G03X248703Y961594I4019J0*
G01*
X248703Y961594D01*
X243905Y961594D01*
X243905Y955108D01*
D02*
G37*
G36*
X476172Y349903D02*
G75*
D01*
G03X476172Y349903I-8812J5697*
G01*
D02*
G37*
G36*
X476172Y406753D02*
G75*
D01*
G03X476172Y406753I-3732J9807*
G01*
D02*
G37*
G36*
X278732Y876920D02*
G75*
D01*
G03X282560Y873092I3828J0*
G01*
X282560Y873092D01*
X296560Y873092D01*
G75*
D01*
G03X300388Y876920I0J3828*
G01*
X300388Y876920D01*
X300388Y890920D01*
G74*
D01*
G03X296560Y894748I3828J0*
G01*
X296560Y894748D01*
X282560Y894748D01*
G75*
D01*
G03X280435Y894105I0J-3828*
G01*
X280435Y894105D01*
X228669Y894105D01*
G74*
D01*
G03X225940Y895248I2729J2685*
G01*
X225940Y895248D01*
X210940Y895248D01*
G75*
D01*
G03X207112Y891420I0J-3828*
G01*
X207112Y891420D01*
X207112Y876420D01*
G75*
D01*
G03X210940Y872592I3828J0*
G01*
X210940Y872592D01*
X213335Y872592D01*
X213335Y863174D01*
X211246Y861085D01*
X111760Y861085D01*
G75*
D01*
G03X111015Y861030I0J-5105*
G01*
G74*
D01*
G03X108151Y859589I745J5050*
G01*
X108151Y859589D01*
X103071Y854509D01*
G75*
D01*
G03X101575Y850887I3609J-3609*
G01*
X101575Y850887D01*
X101575Y812937D01*
G75*
D01*
G03X95789Y798968I5105J-10297*
G01*
X95789Y798968D01*
X90371Y793549D01*
G75*
D01*
G03X88875Y789929I3609J-3609*
G01*
X88875Y789929D01*
X88875Y662948D01*
G75*
D01*
G03X90371Y659331I5105J-8*
G01*
X90371Y659331D01*
X95789Y653912D01*
G75*
D01*
G03X103008Y661131I10891J-3672*
G01*
X103008Y661131D01*
X99085Y665054D01*
X99085Y740329D01*
X102598Y740329D01*
X102598Y747573D01*
G75*
D01*
G03X110762Y747573I4082J4267*
G01*
X110762Y747573D01*
X110762Y740329D01*
X114363Y740329D01*
G75*
D01*
G03X118191Y744157I0J3828*
G01*
X118191Y744157D01*
X118191Y747758D01*
X110947Y747758D01*
G75*
D01*
G03X110947Y755922I-4267J4082*
G01*
X110947Y755922D01*
X118191Y755922D01*
X118191Y759523D01*
G74*
D01*
G03X114363Y763351I3828J0*
G01*
X114363Y763351D01*
X110762Y763351D01*
X110762Y756107D01*
G75*
D01*
G03X102598Y756107I-4082J-4267*
G01*
X102598Y756107D01*
X102598Y763351D01*
X99085Y763351D01*
X99085Y768615D01*
G75*
D01*
G03X99085Y785865I7595J8625*
G01*
X99085Y785865D01*
X99085Y787826D01*
X103008Y791749D01*
G75*
D01*
G03X111785Y812937I3672J10891*
G01*
X111785Y812937D01*
X111785Y848786D01*
X113874Y850875D01*
X213353Y850875D01*
G75*
D01*
G03X215038Y851159I7J5105*
G01*
G74*
D01*
G03X216975Y852377I1678J4821*
G01*
X216975Y852377D01*
X222043Y857445D01*
G75*
D01*
G03X223545Y861060I-3603J3615*
G01*
X223545Y861060D01*
X223545Y872592D01*
X225940Y872592D01*
G75*
D01*
G03X229768Y876420I0J3828*
G01*
X229768Y876420D01*
X229768Y883895D01*
X278732Y883895D01*
X278732Y876920D01*
D02*
G37*
G36*
X236172Y406391D02*
G75*
D01*
G03X236172Y406391I2588J10169*
G01*
D02*
G37*
G36*
X716172Y364840D02*
G75*
D01*
G03X716172Y364840I-4972J-9240*
G01*
D02*
G37*
G36*
X716172Y419571D02*
G75*
D01*
G03X716172Y419571I-10052J-3011*
G01*
D02*
G37*
G36*
X714815Y476457D02*
X714815Y476457D01*
X722423Y484065D01*
G74*
D01*
G03X723597Y485881I3603J3615*
G01*
G75*
D01*
G03X739115Y485520I7923J6879*
G01*
X739115Y485520D01*
X739115Y423800D01*
G75*
D01*
G03X739115Y409320I-7595J-7240*
G01*
X739115Y409320D01*
X739115Y408952D01*
G75*
D01*
G03X740611Y405331I5105J-12*
G01*
X740611Y405331D01*
X758165Y387776D01*
X758165Y365367D01*
G75*
D01*
G03X768375Y363935I3835J-9767*
G01*
X768375Y363935D01*
X768375Y367406D01*
X777308Y358473D01*
G75*
D01*
G03X784527Y365692I10092J-2873*
G01*
X784527Y365692D01*
X773455Y376764D01*
X773455Y410947D01*
G75*
D01*
G03X773455Y422173I8865J5613*
G01*
X773455Y422173D01*
X773455Y428416D01*
X811323Y466285D01*
G75*
D01*
G03X812825Y469900I-3603J3615*
G01*
X812825Y469900D01*
X812825Y483592D01*
G75*
D01*
G03X817318Y497000I-5105J9168*
G01*
G75*
D01*
G03X817592Y498651I-4830J1651*
G01*
X817592Y498651D01*
X817592Y542256D01*
X824981Y549645D01*
G74*
D01*
G03X825999Y551093I3603J3616*
G01*
G74*
D01*
G03X829399Y548989I7121J7707*
G01*
X829399Y548989D01*
X829399Y555079D01*
X826482Y555079D01*
X826482Y562521D01*
X829399Y562521D01*
X829399Y568611D01*
G74*
D01*
G03X826482Y566927I3721J9811*
G01*
X826482Y566927D01*
X826482Y568501D01*
G74*
D01*
G03X824981Y572116I5104J0*
G01*
X824981Y572116D01*
X816103Y580994D01*
G74*
D01*
G03X812733Y582489I3615J3603*
G01*
G75*
D01*
G03X812486Y582495I-245J-5098*
G01*
X812486Y582495D01*
X662628Y582495D01*
G75*
D01*
G03X661597Y582390I0J-5104*
G01*
G74*
D01*
G03X659018Y581000I1031J5000*
G01*
X659018Y581000D01*
X651398Y573380D01*
G75*
D01*
G03X649903Y569758I3610J-3610*
G01*
X649903Y569758D01*
X649903Y569314D01*
X649097Y569314D01*
G75*
D01*
G03X644806Y565023I0J-4291*
G01*
X644806Y565023D01*
X644806Y552577D01*
G75*
D01*
G03X649097Y548286I4291J0*
G01*
X649097Y548286D01*
X661543Y548286D01*
G74*
D01*
G03X664993Y550026I0J4291*
G01*
X664993Y550026D01*
X670223Y544796D01*
X670223Y498660D01*
G75*
D01*
G03X670824Y496248I5105J-10*
G01*
G75*
D01*
G03X683593Y482668I9896J-3488*
G01*
X683593Y482668D01*
X689811Y476451D01*
G74*
D01*
G03X691944Y475174I3609J3609*
G01*
G75*
D01*
G03X693420Y474955I1476J4886*
G01*
X693420Y474955D01*
X711193Y474955D01*
G75*
D01*
G03X712707Y475183I7J5105*
G01*
G74*
D01*
G03X714815Y476457I1507J4877*
G01*
D02*
G37*
G36*
X463044Y488089D02*
G75*
D01*
G03X464002Y498997I9396J4671*
G01*
X464002Y498997D01*
X452451Y510547D01*
X452451Y549810D01*
G75*
D01*
G03X453796Y566829I-5411J8990*
G01*
X453796Y566829D01*
X465684Y566829D01*
G75*
D01*
G03X479196Y566829I6756J-8029*
G01*
X479196Y566829D01*
X491084Y566829D01*
G75*
D01*
G03X504596Y566829I6756J-8029*
G01*
X504596Y566829D01*
X516484Y566829D01*
G75*
D01*
G03X529996Y566829I6756J-8029*
G01*
X529996Y566829D01*
X541752Y566829D01*
X541813Y566768D01*
G75*
D01*
G03X553953Y567849I6827J-7968*
G01*
G74*
D01*
G03X552550Y570469I5007J996*
G01*
X552550Y570469D01*
X551110Y571909D01*
X577312Y571909D01*
X583212Y566009D01*
X583212Y563897D01*
G75*
D01*
G03X569242Y549468I-9172J-5097*
G01*
X569242Y549468D01*
X569242Y510547D01*
X557332Y498638D01*
G75*
D01*
G03X558036Y488089I-8692J-5878*
G01*
X558036Y488089D01*
X559106Y488089D01*
G74*
D01*
G03X562722Y489590I0J5104*
G01*
X562722Y489590D01*
X563765Y490633D01*
G74*
D01*
G03X568935Y483592I10275J2127*
G01*
X568935Y483592D01*
X568935Y440175D01*
G75*
D01*
G03X570431Y436554I5105J-11*
G01*
X570431Y436554D01*
X581334Y425651D01*
G74*
D01*
G03X583523Y424357I3610J3609*
G01*
G75*
D01*
G03X584944Y424155I1421J4903*
G01*
X584944Y424155D01*
X592200Y424155D01*
G75*
D01*
G03X606680Y424155I7240J-7595*
G01*
X606680Y424155D01*
X648080Y424155D01*
G75*
D01*
G03X662915Y409320I7240J-7595*
G01*
X662915Y409320D01*
X662915Y365787D01*
G75*
D01*
G03X670893Y355668I-2515J-10187*
G01*
X670893Y355668D01*
X674571Y351991D01*
G74*
D01*
G03X676475Y350789I3609J3609*
G01*
G75*
D01*
G03X678183Y362816I9325J4811*
G01*
X678183Y362816D01*
X673125Y367874D01*
X673125Y409320D01*
G75*
D01*
G03X672797Y423439I7595J7240*
G01*
G74*
D01*
G03X671623Y425255I4777J1799*
G01*
X671623Y425255D01*
X664015Y432863D01*
G74*
D01*
G03X660400Y434365I3615J3603*
G01*
X660400Y434365D01*
X587058Y434365D01*
X579145Y442278D01*
X579145Y483592D01*
G75*
D01*
G03X584011Y496028I-5105J9168*
G01*
G75*
D01*
G03X584531Y498273I-4585J2245*
G01*
X584531Y498273D01*
X584531Y541879D01*
X591922Y549269D01*
G74*
D01*
G03X592885Y550606I3606J3614*
G01*
G74*
D01*
G03X595719Y548989I6555J8194*
G01*
X595719Y548989D01*
X595719Y555079D01*
X593421Y555079D01*
X593421Y562521D01*
X595719Y562521D01*
X595719Y568611D01*
G74*
D01*
G03X593421Y567395I3721J9811*
G01*
X593421Y567395D01*
X593421Y568123D01*
G74*
D01*
G03X591920Y571739I5105J0*
G01*
X591920Y571739D01*
X583036Y580623D01*
G75*
D01*
G03X579419Y582118I-3610J-3610*
G01*
X579419Y582118D01*
X476172Y582118D01*
X476172Y582118D01*
X429571Y582118D01*
G75*
D01*
G03X427990Y581868I-5J-5105*
G01*
G74*
D01*
G03X425953Y580618I1576J4855*
G01*
X425953Y580618D01*
X418337Y573003D01*
G75*
D01*
G03X416842Y569381I3609J-3610*
G01*
X416842Y569381D01*
X416842Y569314D01*
X415417Y569314D01*
G75*
D01*
G03X411126Y565023I0J-4291*
G01*
X411126Y565023D01*
X411126Y552577D01*
G75*
D01*
G03X415417Y548286I4291J0*
G01*
X415417Y548286D01*
X427863Y548286D01*
G74*
D01*
G03X431413Y550167I0J4291*
G01*
X431413Y550167D01*
X437162Y544419D01*
X437162Y498282D01*
G75*
D01*
G03X437369Y496832I5104J-9*
G01*
G75*
D01*
G03X457409Y491152I9671J-4072*
G01*
X457409Y491152D01*
X458977Y489584D01*
G74*
D01*
G03X460935Y488363I3609J3609*
G01*
G75*
D01*
G03X462586Y488089I1651J4830*
G01*
X462586Y488089D01*
X463044Y488089D01*
D02*
G37*
G36*
X500713Y482668D02*
X500713Y482668D01*
X507209Y476172D01*
X532105Y451276D01*
X532105Y422173D01*
G75*
D01*
G03X532105Y410947I-8865J-5613*
G01*
X532105Y410947D01*
X532105Y397518D01*
G75*
D01*
G03X533601Y393901I5105J-8*
G01*
X533601Y393901D01*
X551155Y376346D01*
X551155Y362840D01*
G75*
D01*
G03X551155Y348360I-7595J-7240*
G01*
X551155Y348360D01*
X551155Y332748D01*
G75*
D01*
G03X552651Y329131I5105J-8*
G01*
X552651Y329131D01*
X557733Y324048D01*
G75*
D01*
G03X573600Y317475I8687J-1468*
G01*
X573600Y317475D01*
X800095Y317475D01*
G75*
D01*
G03X801174Y317590I5J5105*
G01*
G74*
D01*
G03X803715Y318977I1074J4990*
G01*
X803715Y318977D01*
X816403Y331665D01*
G75*
D01*
G03X817905Y335280I-3603J3615*
G01*
X817905Y335280D01*
X817905Y346432D01*
G75*
D01*
G03X807695Y346432I-5105J9168*
G01*
X807695Y346432D01*
X807695Y337394D01*
X797986Y327685D01*
X736224Y327685D01*
X740203Y331665D01*
G75*
D01*
G03X741705Y335280I-3603J3615*
G01*
X741705Y335280D01*
X741705Y346432D01*
G75*
D01*
G03X731495Y346432I-5105J9168*
G01*
X731495Y346432D01*
X731495Y337394D01*
X726866Y332765D01*
X576154Y332765D01*
X574065Y334854D01*
X574065Y346432D01*
G75*
D01*
G03X561365Y362840I-5105J9168*
G01*
X561365Y362840D01*
X561365Y378460D01*
G74*
D01*
G03X560702Y380975I5105J0*
G01*
X560702Y380975D01*
X587166Y380975D01*
X589255Y378886D01*
X589255Y364768D01*
G75*
D01*
G03X599465Y364768I5105J-9168*
G01*
X599465Y364768D01*
X599465Y381000D01*
G74*
D01*
G03X597963Y384615I5105J0*
G01*
X597963Y384615D01*
X592895Y389683D01*
G74*
D01*
G03X589280Y391185I3615J3603*
G01*
X589280Y391185D01*
X557939Y391185D01*
X553745Y395379D01*
X553745Y407392D01*
G75*
D01*
G03X542315Y424932I-5105J9168*
G01*
X542315Y424932D01*
X542315Y453390D01*
G74*
D01*
G03X540813Y457005I5105J0*
G01*
X540813Y457005D01*
X521647Y476172D01*
X521647Y476172D01*
X507932Y489887D01*
G75*
D01*
G03X500713Y482668I-10092J2873*
G01*
D02*
G37*
G36*
X112135Y269212D02*
X112135Y269212D01*
X112135Y219208D01*
X104760Y219208D01*
G75*
D01*
G03X100932Y215380I0J-3828*
G01*
X100932Y215380D01*
X100932Y201380D01*
G75*
D01*
G03X104760Y197552I3828J0*
G01*
X104760Y197552D01*
X118760Y197552D01*
G75*
D01*
G03X122588Y201380I0J3828*
G01*
X122588Y201380D01*
X122588Y215380D01*
G74*
D01*
G03X122345Y216725I3828J0*
G01*
X122345Y216725D01*
X122345Y274720D01*
G74*
D01*
G03X122122Y276212I5105J0*
G01*
G75*
D01*
G03X112135Y269212I-9962J3588*
G01*
D02*
G37*
G36*
X63228Y952905D02*
X63228Y952905D01*
X66714Y952905D01*
X66714Y959193D01*
G75*
D01*
G03X72966Y959193I3126J2527*
G01*
X72966Y959193D01*
X72966Y952905D01*
X76452Y952905D01*
G75*
D01*
G03X78655Y955108I0J2203*
G01*
X78655Y955108D01*
X78655Y961594D01*
X73857Y961594D01*
G75*
D01*
G03X73859Y961720I-4017J126*
G01*
X73859Y961720D01*
X73859Y967720D01*
G74*
D01*
G03X73857Y967846I4019J0*
G01*
X73857Y967846D01*
X78655Y967846D01*
X78655Y974332D01*
G74*
D01*
G03X76452Y976535I2203J0*
G01*
X76452Y976535D01*
X72966Y976535D01*
X72966Y970247D01*
G75*
D01*
G03X66714Y970247I-3126J-2527*
G01*
X66714Y970247D01*
X66714Y976535D01*
X63228Y976535D01*
G75*
D01*
G03X61025Y974332I0J-2203*
G01*
X61025Y974332D01*
X61025Y967846D01*
X65823Y967846D01*
G74*
D01*
G03X65821Y967720I4017J126*
G01*
X65821Y967720D01*
X65821Y961720D01*
G75*
D01*
G03X65823Y961594I4019J0*
G01*
X65823Y961594D01*
X61025Y961594D01*
X61025Y955108D01*
G75*
D01*
G03X63228Y952905I2203J0*
G01*
D02*
G37*
G36*
X231660Y659732D02*
X231660Y659732D01*
X238635Y659732D01*
X238635Y645492D01*
G75*
D01*
G03X248604Y638632I125J-10492*
G01*
G75*
D01*
G03X248845Y640180I-4864J1548*
G01*
X248845Y640180D01*
X248845Y661435D01*
G75*
D01*
G03X249488Y663560I-3185J2125*
G01*
X249488Y663560D01*
X249488Y677560D01*
G74*
D01*
G03X245660Y681388I3828J0*
G01*
X245660Y681388D01*
X231660Y681388D01*
G75*
D01*
G03X227832Y677560I0J-3828*
G01*
X227832Y677560D01*
X227832Y663560D01*
G75*
D01*
G03X231660Y659732I3828J0*
G01*
D02*
G37*
G36*
X965075Y645492D02*
G75*
D01*
G03X975044Y638632I125J-10492*
G01*
G75*
D01*
G03X975285Y640180I-4864J1548*
G01*
X975285Y640180D01*
X975285Y656355D01*
G75*
D01*
G03X975928Y658480I-3185J2125*
G01*
X975928Y658480D01*
X975928Y672480D01*
G74*
D01*
G03X972100Y676308I3828J0*
G01*
X972100Y676308D01*
X958100Y676308D01*
G75*
D01*
G03X954272Y672480I0J-3828*
G01*
X954272Y672480D01*
X954272Y658480D01*
G75*
D01*
G03X958100Y654652I3828J0*
G01*
X958100Y654652D01*
X965075Y654652D01*
X965075Y645492D01*
D02*
G37*
G36*
X705995Y645492D02*
G75*
D01*
G03X715964Y638632I125J-10492*
G01*
G75*
D01*
G03X716205Y640180I-4864J1548*
G01*
X716205Y640180D01*
X716205Y661435D01*
G75*
D01*
G03X716848Y663560I-3185J2125*
G01*
X716848Y663560D01*
X716848Y677560D01*
G74*
D01*
G03X713020Y681388I3828J0*
G01*
X713020Y681388D01*
X699020Y681388D01*
G75*
D01*
G03X695192Y677560I0J-3828*
G01*
X695192Y677560D01*
X695192Y663560D01*
G75*
D01*
G03X699020Y659732I3828J0*
G01*
X699020Y659732D01*
X705995Y659732D01*
X705995Y645492D01*
D02*
G37*
G36*
X472315Y645492D02*
G75*
D01*
G03X482284Y638632I125J-10492*
G01*
G75*
D01*
G03X482525Y640180I-4864J1548*
G01*
X482525Y640180D01*
X482525Y666515D01*
G75*
D01*
G03X483168Y668640I-3185J2125*
G01*
X483168Y668640D01*
X483168Y682640D01*
G74*
D01*
G03X479340Y686468I3828J0*
G01*
X479340Y686468D01*
X465340Y686468D01*
G75*
D01*
G03X461512Y682640I0J-3828*
G01*
X461512Y682640D01*
X461512Y668640D01*
G75*
D01*
G03X465340Y664812I3828J0*
G01*
X465340Y664812D01*
X472315Y664812D01*
X472315Y645492D01*
D02*
G37*
G36*
X598081Y289211D02*
X598081Y289211D01*
X598081Y283121D01*
X604171Y283121D01*
G74*
D01*
G03X598081Y289211I9811J3721*
G01*
D02*
G37*
G36*
X590639Y269589D02*
X590639Y269589D01*
X590639Y275679D01*
X584549Y275679D01*
G74*
D01*
G03X590639Y269589I9811J3721*
G01*
D02*
G37*
G36*
X604171Y275679D02*
X604171Y275679D01*
X598081Y275679D01*
X598081Y269589D01*
G74*
D01*
G03X604171Y275679I3721J9811*
G01*
D02*
G37*
G36*
X589915Y279400D02*
G75*
D01*
G03X589915Y279400I4445J0*
G01*
D02*
G37*
G36*
X584549Y283121D02*
X584549Y283121D01*
X590639Y283121D01*
X590639Y289211D01*
G74*
D01*
G03X584549Y283121I3721J9811*
G01*
D02*
G37*
G36*
X558467Y279400D02*
G75*
D01*
G03X558467Y279400I10493J0*
G01*
D02*
G37*
G36*
X533067Y279400D02*
G75*
D01*
G03X533067Y279400I10493J0*
G01*
D02*
G37*
G36*
X507667Y279400D02*
G75*
D01*
G03X507667Y279400I10493J0*
G01*
D02*
G37*
G36*
X482267Y279400D02*
G75*
D01*
G03X482267Y279400I10493J0*
G01*
D02*
G37*
G36*
X211618Y212717D02*
X211618Y212717D01*
X207181Y208280D01*
X211618Y203843D01*
G75*
D01*
G03X211618Y212717I-9858J4437*
G01*
D02*
G37*
G36*
X206197Y198422D02*
X206197Y198422D01*
X201760Y202859D01*
X197323Y198422D01*
G75*
D01*
G03X206197Y198422I4437J9858*
G01*
D02*
G37*
G36*
X197323Y218138D02*
X197323Y218138D01*
X201760Y213701D01*
X206197Y218138D01*
G75*
D01*
G03X197323Y218138I-4437J-9858*
G01*
D02*
G37*
G36*
X197760Y208280D02*
G75*
D01*
G03X197760Y208280I4000J0*
G01*
D02*
G37*
G36*
X191902Y212717D02*
G75*
D01*
G03X191902Y203843I9858J-4437*
G01*
X191902Y203843D01*
X196339Y208280D01*
X191902Y212717D01*
D02*
G37*
G36*
X612986Y904240D02*
G75*
D01*
G03X612986Y904240I11854J0*
G01*
D02*
G37*
G36*
X562186Y904240D02*
G75*
D01*
G03X562186Y904240I11854J0*
G01*
D02*
G37*
G36*
X512747Y492760D02*
G75*
D01*
G03X512747Y492760I10493J0*
G01*
D02*
G37*
G36*
X431467Y355600D02*
G75*
D01*
G03X431467Y355600I10493J0*
G01*
D02*
G37*
G36*
X411147Y416560D02*
G75*
D01*
G03X411147Y416560I10493J0*
G01*
D02*
G37*
G36*
X436547Y416560D02*
G75*
D01*
G03X436547Y416560I10493J0*
G01*
D02*
G37*
G36*
X1086980Y197195D02*
X1086980Y197195D01*
X1093125Y197195D01*
X1093125Y203340D01*
G74*
D01*
G03X1086980Y197195I3755J9900*
G01*
D02*
G37*
G36*
X1091880Y193440D02*
G75*
D01*
G03X1091880Y193440I5000J0*
G01*
D02*
G37*
G36*
X1093125Y183540D02*
X1093125Y183540D01*
X1093125Y189685D01*
X1086980Y189685D01*
G74*
D01*
G03X1093125Y183540I9900J3755*
G01*
D02*
G37*
G36*
X1100635Y203340D02*
X1100635Y203340D01*
X1100635Y197195D01*
X1106780Y197195D01*
G74*
D01*
G03X1100635Y203340I9900J3755*
G01*
D02*
G37*
G36*
X1106780Y189685D02*
X1106780Y189685D01*
X1100635Y189685D01*
X1100635Y183540D01*
G74*
D01*
G03X1106780Y189685I3755J9900*
G01*
D02*
G37*
G36*
X791121Y228251D02*
X791121Y228251D01*
X791121Y222161D01*
X797211Y222161D01*
G74*
D01*
G03X791121Y228251I9811J3721*
G01*
D02*
G37*
G36*
X808355Y142240D02*
G75*
D01*
G03X808355Y142240I4445J0*
G01*
D02*
G37*
G36*
X757555Y142240D02*
G75*
D01*
G03X757555Y142240I4445J0*
G01*
D02*
G37*
G36*
X732155Y142240D02*
G75*
D01*
G03X732155Y142240I4445J0*
G01*
D02*
G37*
G36*
X726789Y145961D02*
X726789Y145961D01*
X732879Y145961D01*
X732879Y152051D01*
G74*
D01*
G03X726789Y145961I3721J9811*
G01*
D02*
G37*
G36*
X740321Y152051D02*
X740321Y152051D01*
X740321Y145961D01*
X746411Y145961D01*
G74*
D01*
G03X740321Y152051I9811J3721*
G01*
D02*
G37*
G36*
X752189Y145961D02*
X752189Y145961D01*
X758279Y145961D01*
X758279Y152051D01*
G74*
D01*
G03X752189Y145961I3721J9811*
G01*
D02*
G37*
G36*
X765721Y152051D02*
X765721Y152051D01*
X765721Y145961D01*
X771811Y145961D01*
G74*
D01*
G03X765721Y152051I9811J3721*
G01*
D02*
G37*
G36*
X816521Y152051D02*
X816521Y152051D01*
X816521Y145961D01*
X822611Y145961D01*
G74*
D01*
G03X816521Y152051I9811J3721*
G01*
D02*
G37*
G36*
X802989Y145961D02*
X802989Y145961D01*
X809079Y145961D01*
X809079Y152051D01*
G74*
D01*
G03X802989Y145961I3721J9811*
G01*
D02*
G37*
G36*
X894870Y193040D02*
G75*
D01*
G03X894870Y193040I10810J0*
G01*
D02*
G37*
G36*
X726107Y218440D02*
G75*
D01*
G03X726107Y218440I10493J0*
G01*
D02*
G37*
G36*
X757555Y218440D02*
G75*
D01*
G03X757555Y218440I4445J0*
G01*
D02*
G37*
G36*
X758279Y208629D02*
X758279Y208629D01*
X758279Y214719D01*
X752189Y214719D01*
G74*
D01*
G03X758279Y208629I9811J3721*
G01*
D02*
G37*
G36*
X783679Y208629D02*
X783679Y208629D01*
X783679Y214719D01*
X777589Y214719D01*
G74*
D01*
G03X783679Y208629I9811J3721*
G01*
D02*
G37*
G36*
X771811Y214719D02*
X771811Y214719D01*
X765721Y214719D01*
X765721Y208629D01*
G74*
D01*
G03X771811Y214719I3721J9811*
G01*
D02*
G37*
G36*
X782955Y218440D02*
G75*
D01*
G03X782955Y218440I4445J0*
G01*
D02*
G37*
G36*
X797211Y214719D02*
X797211Y214719D01*
X791121Y214719D01*
X791121Y208629D01*
G74*
D01*
G03X797211Y214719I3721J9811*
G01*
D02*
G37*
G36*
X802307Y218440D02*
G75*
D01*
G03X802307Y218440I10493J0*
G01*
D02*
G37*
G36*
X752189Y222161D02*
X752189Y222161D01*
X758279Y222161D01*
X758279Y228251D01*
G74*
D01*
G03X752189Y222161I3721J9811*
G01*
D02*
G37*
G36*
X777589Y222161D02*
X777589Y222161D01*
X783679Y222161D01*
X783679Y228251D01*
G74*
D01*
G03X777589Y222161I3721J9811*
G01*
D02*
G37*
G36*
X765721Y228251D02*
X765721Y228251D01*
X765721Y222161D01*
X771811Y222161D01*
G74*
D01*
G03X765721Y228251I9811J3721*
G01*
D02*
G37*
G36*
X563547Y416560D02*
G75*
D01*
G03X563547Y416560I10493J0*
G01*
D02*
G37*
G36*
X287905Y941332D02*
X287905Y941332D01*
X287905Y928108D01*
G75*
D01*
G03X290108Y925905I2203J0*
G01*
X290108Y925905D01*
X309332Y925905D01*
G75*
D01*
G03X311535Y928108I0J2203*
G01*
X311535Y928108D01*
X311535Y941332D01*
G74*
D01*
G03X309332Y943535I2203J0*
G01*
X309332Y943535D01*
X290108Y943535D01*
G75*
D01*
G03X287905Y941332I0J-2203*
G01*
D02*
G37*
G36*
X370172Y890920D02*
X370172Y890920D01*
X370172Y876920D01*
G75*
D01*
G03X374000Y873092I3828J0*
G01*
X374000Y873092D01*
X388000Y873092D01*
G75*
D01*
G03X391828Y876920I0J3828*
G01*
X391828Y876920D01*
X391828Y890920D01*
G74*
D01*
G03X388000Y894748I3828J0*
G01*
X388000Y894748D01*
X374000Y894748D01*
G75*
D01*
G03X370172Y890920I0J-3828*
G01*
D02*
G37*
G36*
X376563Y868778D02*
X376563Y868778D01*
X381000Y864341D01*
X385437Y868778D01*
G75*
D01*
G03X376563Y868778I-4437J-9858*
G01*
D02*
G37*
G36*
X285123Y868778D02*
X285123Y868778D01*
X289560Y864341D01*
X293997Y868778D01*
G75*
D01*
G03X285123Y868778I-4437J-9858*
G01*
D02*
G37*
G36*
X390858Y863357D02*
X390858Y863357D01*
X386421Y858920D01*
X390858Y854483D01*
G75*
D01*
G03X390858Y863357I-9858J4437*
G01*
D02*
G37*
G36*
X377000Y858920D02*
G75*
D01*
G03X377000Y858920I4000J0*
G01*
D02*
G37*
G36*
X385437Y849062D02*
X385437Y849062D01*
X381000Y853499D01*
X376563Y849062D01*
G75*
D01*
G03X385437Y849062I4437J9858*
G01*
D02*
G37*
G36*
X371142Y863357D02*
G75*
D01*
G03X371142Y854483I9858J-4437*
G01*
X371142Y854483D01*
X375579Y858920D01*
X371142Y863357D01*
D02*
G37*
G36*
X293997Y849062D02*
X293997Y849062D01*
X289560Y853499D01*
X285123Y849062D01*
G75*
D01*
G03X293997Y849062I4437J9858*
G01*
D02*
G37*
G36*
X285560Y858920D02*
G75*
D01*
G03X285560Y858920I4000J0*
G01*
D02*
G37*
G36*
X299418Y863357D02*
X299418Y863357D01*
X294981Y858920D01*
X299418Y854483D01*
G75*
D01*
G03X299418Y863357I-9858J4437*
G01*
D02*
G37*
G36*
X279702Y863357D02*
G75*
D01*
G03X279702Y854483I9858J-4437*
G01*
X279702Y854483D01*
X284139Y858920D01*
X279702Y863357D01*
D02*
G37*
G36*
X243812Y329800D02*
G75*
D01*
G03X243812Y329800I10588J0*
G01*
D02*
G37*
G36*
X293812Y329800D02*
G75*
D01*
G03X293812Y329800I10588J0*
G01*
D02*
G37*
G36*
X253667Y416560D02*
G75*
D01*
G03X253667Y416560I10493J0*
G01*
D02*
G37*
G36*
X279067Y416560D02*
G75*
D01*
G03X279067Y416560I10493J0*
G01*
D02*
G37*
G36*
X304467Y416560D02*
G75*
D01*
G03X304467Y416560I10493J0*
G01*
D02*
G37*
G36*
X329867Y416560D02*
G75*
D01*
G03X329867Y416560I10493J0*
G01*
D02*
G37*
G36*
X355267Y416560D02*
G75*
D01*
G03X355267Y416560I10493J0*
G01*
D02*
G37*
G36*
X487347Y416560D02*
G75*
D01*
G03X487347Y416560I10493J0*
G01*
D02*
G37*
G36*
X507667Y355600D02*
G75*
D01*
G03X507667Y355600I10493J0*
G01*
D02*
G37*
G36*
X797227Y416560D02*
G75*
D01*
G03X797227Y416560I10493J0*
G01*
D02*
G37*
G36*
X929307Y416560D02*
G75*
D01*
G03X929307Y416560I10493J0*
G01*
D02*
G37*
G36*
X903907Y416560D02*
G75*
D01*
G03X903907Y416560I10493J0*
G01*
D02*
G37*
G36*
X878507Y416560D02*
G75*
D01*
G03X878507Y416560I10493J0*
G01*
D02*
G37*
G36*
X822627Y416560D02*
G75*
D01*
G03X822627Y416560I10493J0*
G01*
D02*
G37*
G36*
X893747Y386080D02*
G75*
D01*
G03X893747Y386080I10493J0*
G01*
D02*
G37*
G36*
X910463Y299366D02*
G75*
D01*
G03X914754Y303657I0J4291*
G01*
X914754Y303657D01*
X914754Y306152D01*
X907968Y306152D01*
X907968Y299366D01*
X910463Y299366D01*
D02*
G37*
G36*
X898017Y299366D02*
X898017Y299366D01*
X900512Y299366D01*
X900512Y306152D01*
X893726Y306152D01*
X893726Y303657D01*
G75*
D01*
G03X898017Y299366I4291J0*
G01*
D02*
G37*
G36*
X898017Y320394D02*
G75*
D01*
G03X893726Y316103I0J-4291*
G01*
X893726Y316103D01*
X893726Y313608D01*
X900512Y313608D01*
X900512Y320394D01*
X898017Y320394D01*
D02*
G37*
G36*
X899795Y309880D02*
G75*
D01*
G03X899795Y309880I4445J0*
G01*
D02*
G37*
G36*
X914754Y316103D02*
G74*
D01*
G03X910463Y320394I4291J0*
G01*
X910463Y320394D01*
X907968Y320394D01*
X907968Y313608D01*
X914754Y313608D01*
X914754Y316103D01*
D02*
G37*
G36*
X919147Y309880D02*
G75*
D01*
G03X919147Y309880I10493J0*
G01*
D02*
G37*
G36*
X816521Y289211D02*
X816521Y289211D01*
X816521Y283121D01*
X822611Y283121D01*
G74*
D01*
G03X816521Y289211I9811J3721*
G01*
D02*
G37*
G36*
X809079Y269589D02*
X809079Y269589D01*
X809079Y275679D01*
X802989Y275679D01*
G74*
D01*
G03X809079Y269589I9811J3721*
G01*
D02*
G37*
G36*
X822611Y275679D02*
X822611Y275679D01*
X816521Y275679D01*
X816521Y269589D01*
G74*
D01*
G03X822611Y275679I3721J9811*
G01*
D02*
G37*
G36*
X808355Y279400D02*
G75*
D01*
G03X808355Y279400I4445J0*
G01*
D02*
G37*
G36*
X802989Y283121D02*
X802989Y283121D01*
X809079Y283121D01*
X809079Y289211D01*
G74*
D01*
G03X802989Y283121I3721J9811*
G01*
D02*
G37*
G36*
X51690Y80500D02*
G75*
D01*
G03X51690Y80500I28810J0*
G01*
D02*
G37*
G36*
X1090690Y80500D02*
G75*
D01*
G03X1090690Y80500I28810J0*
G01*
D02*
G37*
G36*
X51690Y1119500D02*
G75*
D01*
G03X51690Y1119500I28810J0*
G01*
D02*
G37*
G36*
X111313Y991594D02*
X111313Y991594D01*
X105025Y991594D01*
X105025Y988108D01*
G75*
D01*
G03X107228Y985905I2203J0*
G01*
X107228Y985905D01*
X113714Y985905D01*
X113714Y990703D01*
G75*
D01*
G03X113840Y990701I126J4017*
G01*
X113840Y990701D01*
X119840Y990701D01*
G74*
D01*
G03X119966Y990703I0J4019*
G01*
X119966Y990703D01*
X119966Y985905D01*
X126452Y985905D01*
G75*
D01*
G03X128655Y988108I0J2203*
G01*
X128655Y988108D01*
X128655Y991594D01*
X122367Y991594D01*
G75*
D01*
G03X122367Y997846I-2527J3126*
G01*
X122367Y997846D01*
X128655Y997846D01*
X128655Y1001332D01*
G74*
D01*
G03X126452Y1003535I2203J0*
G01*
X126452Y1003535D01*
X119966Y1003535D01*
X119966Y998737D01*
G74*
D01*
G03X119840Y998739I126J4017*
G01*
X119840Y998739D01*
X113840Y998739D01*
G75*
D01*
G03X113714Y998737I0J-4019*
G01*
X113714Y998737D01*
X113714Y1003535D01*
X107228Y1003535D01*
G75*
D01*
G03X105025Y1001332I0J-2203*
G01*
X105025Y1001332D01*
X105025Y997846D01*
X111313Y997846D01*
G75*
D01*
G03X111313Y991594I2527J-3126*
G01*
D02*
G37*
G36*
X107228Y925905D02*
X107228Y925905D01*
X118436Y925905D01*
X119355Y924986D01*
X119355Y894947D01*
G75*
D01*
G03X127586Y887447I-2515J-11027*
G01*
X127586Y887447D01*
X128063Y887925D01*
G75*
D01*
G03X129565Y891540I-3603J3615*
G01*
X129565Y891540D01*
X129565Y927100D01*
G74*
D01*
G03X128655Y930008I5105J0*
G01*
X128655Y930008D01*
X128655Y941332D01*
G74*
D01*
G03X126452Y943535I2203J0*
G01*
X126452Y943535D01*
X107228Y943535D01*
G75*
D01*
G03X105025Y941332I0J-2203*
G01*
X105025Y941332D01*
X105025Y928108D01*
G75*
D01*
G03X107228Y925905I2203J0*
G01*
D02*
G37*
G36*
X682079Y208629D02*
X682079Y208629D01*
X682079Y214719D01*
X675989Y214719D01*
G74*
D01*
G03X682079Y208629I9811J3721*
G01*
D02*
G37*
G36*
X681355Y218440D02*
G75*
D01*
G03X681355Y218440I4445J0*
G01*
D02*
G37*
G36*
X706755Y218440D02*
G75*
D01*
G03X706755Y218440I4445J0*
G01*
D02*
G37*
G36*
X482267Y142240D02*
G75*
D01*
G03X482267Y142240I10493J0*
G01*
D02*
G37*
G36*
X546276Y152375D02*
X546276Y152375D01*
X566244Y152375D01*
G75*
D01*
G03X571676Y152375I2716J-10135*
G01*
X571676Y152375D01*
X591644Y152375D01*
G75*
D01*
G03X597076Y152375I2716J-10135*
G01*
X597076Y152375D01*
X652416Y152375D01*
G74*
D01*
G03X649886Y148463I1761J3912*
G01*
X649886Y148463D01*
X649886Y136017D01*
G75*
D01*
G03X654177Y131726I4291J0*
G01*
X654177Y131726D01*
X666623Y131726D01*
G75*
D01*
G03X670914Y136017I0J4291*
G01*
X670914Y136017D01*
X670914Y148463D01*
G74*
D01*
G03X666623Y152754I4291J0*
G01*
X666623Y152754D01*
X665492Y152754D01*
G74*
D01*
G03X664003Y156015I5092J354*
G01*
X664003Y156015D01*
X658935Y161083D01*
G74*
D01*
G03X655320Y162585I3615J3603*
G01*
X655320Y162585D01*
X499954Y162585D01*
X497865Y164674D01*
X497865Y209272D01*
G75*
D01*
G03X487655Y209272I-5105J9168*
G01*
X487655Y209272D01*
X487655Y162569D01*
G75*
D01*
G03X489151Y158951I5105J-9*
G01*
X489151Y158951D01*
X494231Y153871D01*
G75*
D01*
G03X497847Y152375I3609J3609*
G01*
X497847Y152375D01*
X515444Y152375D01*
G75*
D01*
G03X520876Y152375I2716J-10135*
G01*
X520876Y152375D01*
X540844Y152375D01*
G75*
D01*
G03X546276Y152375I2716J-10135*
G01*
D02*
G37*
G36*
X513715Y218440D02*
G75*
D01*
G03X513715Y218440I4445J0*
G01*
D02*
G37*
G36*
X514439Y208629D02*
X514439Y208629D01*
X514439Y214719D01*
X508349Y214719D01*
G74*
D01*
G03X514439Y208629I9811J3721*
G01*
D02*
G37*
G36*
X533067Y218440D02*
G75*
D01*
G03X533067Y218440I10493J0*
G01*
D02*
G37*
G36*
X527971Y214719D02*
X527971Y214719D01*
X521881Y214719D01*
X521881Y208629D01*
G74*
D01*
G03X527971Y214719I3721J9811*
G01*
D02*
G37*
G36*
X558467Y218440D02*
G75*
D01*
G03X558467Y218440I10493J0*
G01*
D02*
G37*
G36*
X583867Y218440D02*
G75*
D01*
G03X583867Y218440I10493J0*
G01*
D02*
G37*
G36*
X649907Y218440D02*
G75*
D01*
G03X649907Y218440I10493J0*
G01*
D02*
G37*
G36*
X508349Y222161D02*
X508349Y222161D01*
X514439Y222161D01*
X514439Y228251D01*
G74*
D01*
G03X508349Y222161I3721J9811*
G01*
D02*
G37*
G36*
X521881Y228251D02*
X521881Y228251D01*
X521881Y222161D01*
X527971Y222161D01*
G74*
D01*
G03X521881Y228251I9811J3721*
G01*
D02*
G37*
G36*
X675989Y222161D02*
X675989Y222161D01*
X682079Y222161D01*
X682079Y228251D01*
G74*
D01*
G03X675989Y222161I3721J9811*
G01*
D02*
G37*
G36*
X101572Y329800D02*
G75*
D01*
G03X101572Y329800I10588J0*
G01*
D02*
G37*
G36*
X151572Y329800D02*
G75*
D01*
G03X151572Y329800I10588J0*
G01*
D02*
G37*
G36*
X177467Y416560D02*
G75*
D01*
G03X177467Y416560I10493J0*
G01*
D02*
G37*
G36*
X202867Y416560D02*
G75*
D01*
G03X202867Y416560I10493J0*
G01*
D02*
G37*
G36*
X178149Y496481D02*
X178149Y496481D01*
X184239Y496481D01*
X184239Y502571D01*
G74*
D01*
G03X178149Y496481I3721J9811*
G01*
D02*
G37*
G36*
X184239Y482949D02*
X184239Y482949D01*
X184239Y489039D01*
X178149Y489039D01*
G74*
D01*
G03X184239Y482949I9811J3721*
G01*
D02*
G37*
G36*
X191681Y502571D02*
X191681Y502571D01*
X191681Y496481D01*
X197771Y496481D01*
G74*
D01*
G03X191681Y502571I9811J3721*
G01*
D02*
G37*
G36*
X197771Y489039D02*
X197771Y489039D01*
X191681Y489039D01*
X191681Y482949D01*
G74*
D01*
G03X197771Y489039I3721J9811*
G01*
D02*
G37*
G36*
X183515Y492760D02*
G75*
D01*
G03X183515Y492760I4445J0*
G01*
D02*
G37*
G36*
X110762Y595173D02*
X110762Y595173D01*
X110762Y587929D01*
X114363Y587929D01*
G75*
D01*
G03X118191Y591757I0J3828*
G01*
X118191Y591757D01*
X118191Y595358D01*
X110947Y595358D01*
G75*
D01*
G03X110947Y603522I-4267J4082*
G01*
X110947Y603522D01*
X118191Y603522D01*
X118191Y607123D01*
G74*
D01*
G03X114363Y610951I3828J0*
G01*
X114363Y610951D01*
X110762Y610951D01*
X110762Y603707D01*
G75*
D01*
G03X102598Y603707I-4082J-4267*
G01*
X102598Y603707D01*
X102598Y610951D01*
X98997Y610951D01*
G75*
D01*
G03X95169Y607123I0J-3828*
G01*
X95169Y607123D01*
X95169Y603522D01*
X102413Y603522D01*
G75*
D01*
G03X102413Y595358I4267J-4082*
G01*
X102413Y595358D01*
X95169Y595358D01*
X95169Y591757D01*
G75*
D01*
G03X98997Y587929I3828J0*
G01*
X98997Y587929D01*
X102598Y587929D01*
X102598Y595173D01*
G75*
D01*
G03X110762Y595173I4082J4267*
G01*
D02*
G37*
G36*
X95187Y624840D02*
G75*
D01*
G03X95187Y624840I11493J0*
G01*
D02*
G37*
G36*
X177467Y635000D02*
G75*
D01*
G03X177467Y635000I10493J0*
G01*
D02*
G37*
G36*
X223445Y661435D02*
G75*
D01*
G03X224088Y663560I-3185J2125*
G01*
X224088Y663560D01*
X224088Y677560D01*
G74*
D01*
G03X220260Y681388I3828J0*
G01*
X220260Y681388D01*
X206260Y681388D01*
G75*
D01*
G03X202432Y677560I0J-3828*
G01*
X202432Y677560D01*
X202432Y663560D01*
G75*
D01*
G03X206260Y659732I3828J0*
G01*
X206260Y659732D01*
X213235Y659732D01*
X213235Y645492D01*
G75*
D01*
G03X223204Y638632I125J-10492*
G01*
G75*
D01*
G03X223445Y640180I-4864J1548*
G01*
X223445Y640180D01*
X223445Y661435D01*
D02*
G37*
G36*
X390363Y223218D02*
X390363Y223218D01*
X394800Y218781D01*
X399237Y223218D01*
G75*
D01*
G03X390363Y223218I-4437J-9858*
G01*
D02*
G37*
G36*
X384942Y217797D02*
G75*
D01*
G03X384942Y208923I9858J-4437*
G01*
X384942Y208923D01*
X389379Y213360D01*
X384942Y217797D01*
D02*
G37*
G36*
X399237Y203502D02*
X399237Y203502D01*
X394800Y207939D01*
X390363Y203502D01*
G75*
D01*
G03X399237Y203502I4437J9858*
G01*
D02*
G37*
G36*
X390800Y213360D02*
G75*
D01*
G03X390800Y213360I4000J0*
G01*
D02*
G37*
G36*
X404658Y217797D02*
X404658Y217797D01*
X400221Y213360D01*
X404658Y208923D01*
G75*
D01*
G03X404658Y217797I-9858J4437*
G01*
D02*
G37*
G36*
X431467Y218440D02*
G75*
D01*
G03X431467Y218440I10493J0*
G01*
D02*
G37*
G36*
X1090690Y1119500D02*
G75*
D01*
G03X1090690Y1119500I28810J0*
G01*
D02*
G37*
G36*
X1054946Y904240D02*
G75*
D01*
G03X1054946Y904240I11854J0*
G01*
D02*
G37*
G36*
X1066675Y645492D02*
G75*
D01*
G03X1076644Y638632I125J-10492*
G01*
G75*
D01*
G03X1076885Y640180I-4864J1548*
G01*
X1076885Y640180D01*
X1076885Y656355D01*
G75*
D01*
G03X1077528Y658480I-3185J2125*
G01*
X1077528Y658480D01*
X1077528Y672480D01*
G74*
D01*
G03X1073700Y676308I3828J0*
G01*
X1073700Y676308D01*
X1059700Y676308D01*
G75*
D01*
G03X1055872Y672480I0J-3828*
G01*
X1055872Y672480D01*
X1055872Y658480D01*
G75*
D01*
G03X1059700Y654652I3828J0*
G01*
X1059700Y654652D01*
X1066675Y654652D01*
X1066675Y645492D01*
D02*
G37*
G36*
X1073023Y503274D02*
X1073023Y503274D01*
X1060577Y503274D01*
G75*
D01*
G03X1056286Y498983I0J-4291*
G01*
X1056286Y498983D01*
X1056286Y486537D01*
G75*
D01*
G03X1060577Y482246I4291J0*
G01*
X1060577Y482246D01*
X1073023Y482246D01*
G75*
D01*
G03X1077314Y486537I0J4291*
G01*
X1077314Y486537D01*
X1077314Y498983D01*
G74*
D01*
G03X1073023Y503274I4291J0*
G01*
D02*
G37*
G36*
X990475Y645492D02*
G75*
D01*
G03X1000444Y638632I125J-10492*
G01*
G75*
D01*
G03X1000685Y640180I-4864J1548*
G01*
X1000685Y640180D01*
X1000685Y656355D01*
G75*
D01*
G03X1001328Y658480I-3185J2125*
G01*
X1001328Y658480D01*
X1001328Y672480D01*
G74*
D01*
G03X997500Y676308I3828J0*
G01*
X997500Y676308D01*
X983500Y676308D01*
G75*
D01*
G03X979672Y672480I0J-3828*
G01*
X979672Y672480D01*
X979672Y658480D01*
G75*
D01*
G03X983500Y654652I3828J0*
G01*
X983500Y654652D01*
X990475Y654652D01*
X990475Y645492D01*
D02*
G37*
G36*
X1015875Y645492D02*
G75*
D01*
G03X1025844Y638632I125J-10492*
G01*
G75*
D01*
G03X1026085Y640180I-4864J1548*
G01*
X1026085Y640180D01*
X1026085Y656355D01*
G75*
D01*
G03X1026728Y658480I-3185J2125*
G01*
X1026728Y658480D01*
X1026728Y672480D01*
G74*
D01*
G03X1022900Y676308I3828J0*
G01*
X1022900Y676308D01*
X1008900Y676308D01*
G75*
D01*
G03X1005072Y672480I0J-3828*
G01*
X1005072Y672480D01*
X1005072Y658480D01*
G75*
D01*
G03X1008900Y654652I3828J0*
G01*
X1008900Y654652D01*
X1015875Y654652D01*
X1015875Y645492D01*
D02*
G37*
G36*
X1051485Y656355D02*
G75*
D01*
G03X1052128Y658480I-3185J2125*
G01*
X1052128Y658480D01*
X1052128Y672480D01*
G74*
D01*
G03X1048300Y676308I3828J0*
G01*
X1048300Y676308D01*
X1034300Y676308D01*
G75*
D01*
G03X1030472Y672480I0J-3828*
G01*
X1030472Y672480D01*
X1030472Y658480D01*
G75*
D01*
G03X1034300Y654652I3828J0*
G01*
X1034300Y654652D01*
X1041275Y654652D01*
X1041275Y645492D01*
G75*
D01*
G03X1051244Y638632I125J-10492*
G01*
G75*
D01*
G03X1051485Y640180I-4864J1548*
G01*
X1051485Y640180D01*
X1051485Y656355D01*
D02*
G37*
G36*
X294193Y991594D02*
X294193Y991594D01*
X287905Y991594D01*
X287905Y988108D01*
G75*
D01*
G03X290108Y985905I2203J0*
G01*
X290108Y985905D01*
X296594Y985905D01*
X296594Y990703D01*
G75*
D01*
G03X296720Y990701I126J4017*
G01*
X296720Y990701D01*
X302720Y990701D01*
G74*
D01*
G03X302846Y990703I0J4019*
G01*
X302846Y990703D01*
X302846Y985905D01*
X309332Y985905D01*
G75*
D01*
G03X311535Y988108I0J2203*
G01*
X311535Y988108D01*
X311535Y991594D01*
X305247Y991594D01*
G75*
D01*
G03X305247Y997846I-2527J3126*
G01*
X305247Y997846D01*
X311535Y997846D01*
X311535Y1001332D01*
G74*
D01*
G03X309332Y1003535I2203J0*
G01*
X309332Y1003535D01*
X302846Y1003535D01*
X302846Y998737D01*
G74*
D01*
G03X302720Y998739I126J4017*
G01*
X302720Y998739D01*
X296720Y998739D01*
G75*
D01*
G03X296594Y998737I0J-4019*
G01*
X296594Y998737D01*
X296594Y1003535D01*
X290108Y1003535D01*
G75*
D01*
G03X287905Y1001332I0J-2203*
G01*
X287905Y1001332D01*
X287905Y997846D01*
X294193Y997846D01*
G75*
D01*
G03X294193Y991594I2527J-3126*
G01*
D02*
G37*
G36*
X1064880Y304132D02*
X1064880Y304132D01*
X1078880Y304132D01*
G75*
D01*
G03X1082708Y307960I0J3828*
G01*
X1082708Y307960D01*
X1082708Y321960D01*
G74*
D01*
G03X1078880Y325788I3828J0*
G01*
X1078880Y325788D01*
X1064880Y325788D01*
G75*
D01*
G03X1061052Y321960I0J-3828*
G01*
X1061052Y321960D01*
X1061052Y307960D01*
G75*
D01*
G03X1064880Y304132I3828J0*
G01*
D02*
G37*
G36*
X1101317Y305102D02*
X1101317Y305102D01*
X1096880Y309539D01*
X1092443Y305102D01*
G75*
D01*
G03X1101317Y305102I4437J9858*
G01*
D02*
G37*
G36*
X1092880Y314960D02*
G75*
D01*
G03X1092880Y314960I4000J0*
G01*
D02*
G37*
G36*
X1087022Y319397D02*
G75*
D01*
G03X1087022Y310523I9858J-4437*
G01*
X1087022Y310523D01*
X1091459Y314960D01*
X1087022Y319397D01*
D02*
G37*
G36*
X1106738Y319397D02*
X1106738Y319397D01*
X1102301Y314960D01*
X1106738Y310523D01*
G75*
D01*
G03X1106738Y319397I-9858J4437*
G01*
D02*
G37*
G36*
X1092443Y324818D02*
X1092443Y324818D01*
X1096880Y320381D01*
X1101317Y324818D01*
G75*
D01*
G03X1092443Y324818I-4437J-9858*
G01*
D02*
G37*
G36*
X1039706Y386055D02*
G75*
D01*
G03X1045494Y396265I11854J25*
G01*
X1045494Y396265D01*
X985527Y396265D01*
G75*
D01*
G03X983879Y395994I-7J-5105*
G01*
G75*
D01*
G03X990933Y386055I-3439J-9914*
G01*
X990933Y386055D01*
X1039706Y386055D01*
D02*
G37*
G36*
X1107225Y375270D02*
X1107225Y375270D01*
X1102360Y380135D01*
X1097495Y375270D01*
G75*
D01*
G03X1107225Y375270I4865J10810*
G01*
D02*
G37*
G36*
X1097495Y396890D02*
X1097495Y396890D01*
X1102360Y392025D01*
X1107225Y396890D01*
G75*
D01*
G03X1097495Y396890I-4865J-10810*
G01*
D02*
G37*
G36*
X1097915Y386080D02*
G75*
D01*
G03X1097915Y386080I4445J0*
G01*
D02*
G37*
G36*
X1091550Y390945D02*
G75*
D01*
G03X1091550Y381215I10810J-4865*
G01*
X1091550Y381215D01*
X1096415Y386080D01*
X1091550Y390945D01*
D02*
G37*
G36*
X1113170Y390945D02*
X1113170Y390945D01*
X1108305Y386080D01*
X1113170Y381215D01*
G75*
D01*
G03X1113170Y390945I-10810J4865*
G01*
D02*
G37*
G36*
X980107Y416560D02*
G75*
D01*
G03X980107Y416560I10493J0*
G01*
D02*
G37*
G36*
X1005507Y416560D02*
G75*
D01*
G03X1005507Y416560I10493J0*
G01*
D02*
G37*
G36*
X1030907Y416560D02*
G75*
D01*
G03X1030907Y416560I10493J0*
G01*
D02*
G37*
G36*
X1056307Y416560D02*
G75*
D01*
G03X1056307Y416560I10493J0*
G01*
D02*
G37*
G36*
X562186Y1056640D02*
G75*
D01*
G03X562186Y1056640I11854J0*
G01*
D02*
G37*
G36*
X789606Y752575D02*
X789606Y752575D01*
X801571Y740611D01*
G75*
D01*
G03X805186Y739115I3609J3609*
G01*
X805186Y739115D01*
X843280Y739115D01*
G74*
D01*
G03X846895Y740617I0J5105*
G01*
X846895Y740617D01*
X854503Y748225D01*
G75*
D01*
G03X856005Y751840I-3603J3615*
G01*
X856005Y751840D01*
X856005Y769620D01*
G74*
D01*
G03X854503Y773235I5105J0*
G01*
X854503Y773235D01*
X845845Y781894D01*
X845845Y881806D01*
X859583Y895545D01*
G74*
D01*
G03X860064Y896098I3603J3615*
G01*
G75*
D01*
G03X874828Y914375I8616J8142*
G01*
X874828Y914375D01*
X886886Y914375D01*
X887298Y913963D01*
G75*
D01*
G03X899155Y914953I6782J-9723*
G01*
G74*
D01*
G03X897683Y918015I5075J553*
G01*
X897683Y918015D01*
X892615Y923083D01*
G74*
D01*
G03X889000Y924585I3615J3603*
G01*
X889000Y924585D01*
X863607Y924585D01*
G75*
D01*
G03X859991Y923089I-7J-5105*
G01*
X859991Y923089D01*
X852371Y915469D01*
G74*
D01*
G03X851052Y913191I3609J3609*
G01*
G75*
D01*
G03X832105Y900284I-7772J-8951*
G01*
X832105Y900284D01*
X832051Y900229D01*
G74*
D01*
G03X830893Y898446I3609J3609*
G01*
X830893Y898446D01*
X829055Y900284D01*
G75*
D01*
G03X821836Y893065I-11175J3956*
G01*
X821836Y893065D01*
X825475Y889426D01*
X825475Y774710D01*
G75*
D01*
G03X826971Y771091I5105J-10*
G01*
X826971Y771091D01*
X827987Y770074D01*
G75*
D01*
G03X824234Y754405I5133J-9514*
G01*
X824234Y754405D01*
X822534Y754405D01*
X818349Y758590D01*
G75*
D01*
G03X796946Y759672I-10629J1970*
G01*
X796946Y759672D01*
X792542Y764077D01*
G75*
D01*
G03X789606Y752575I-10222J-3517*
G01*
D02*
G37*
G36*
X768160Y788840D02*
G75*
D01*
G03X768160Y788840I4000J0*
G01*
D02*
G37*
G36*
X767723Y798698D02*
X767723Y798698D01*
X772160Y794261D01*
X776597Y798698D01*
G75*
D01*
G03X767723Y798698I-4437J-9858*
G01*
D02*
G37*
G36*
X762302Y793277D02*
G75*
D01*
G03X762302Y784403I9858J-4437*
G01*
X762302Y784403D01*
X766739Y788840D01*
X762302Y793277D01*
D02*
G37*
G36*
X782018Y793277D02*
X782018Y793277D01*
X777581Y788840D01*
X782018Y784403D01*
G75*
D01*
G03X782018Y793277I-9858J4437*
G01*
D02*
G37*
G36*
X776597Y778982D02*
X776597Y778982D01*
X772160Y783419D01*
X767723Y778982D01*
G75*
D01*
G03X776597Y778982I4437J9858*
G01*
D02*
G37*
G36*
X817805Y661435D02*
G75*
D01*
G03X818448Y663560I-3185J2125*
G01*
X818448Y663560D01*
X818448Y677560D01*
G74*
D01*
G03X814620Y681388I3828J0*
G01*
X814620Y681388D01*
X800620Y681388D01*
G75*
D01*
G03X796792Y677560I0J-3828*
G01*
X796792Y677560D01*
X796792Y663560D01*
G75*
D01*
G03X800620Y659732I3828J0*
G01*
X800620Y659732D01*
X807595Y659732D01*
X807595Y645492D01*
G75*
D01*
G03X817564Y638632I125J-10492*
G01*
G75*
D01*
G03X817805Y640180I-4864J1548*
G01*
X817805Y640180D01*
X817805Y661435D01*
D02*
G37*
G36*
X792405Y661435D02*
G75*
D01*
G03X793048Y663560I-3185J2125*
G01*
X793048Y663560D01*
X793048Y677560D01*
G74*
D01*
G03X789220Y681388I3828J0*
G01*
X789220Y681388D01*
X775220Y681388D01*
G75*
D01*
G03X771392Y677560I0J-3828*
G01*
X771392Y677560D01*
X771392Y663560D01*
G75*
D01*
G03X775220Y659732I3828J0*
G01*
X775220Y659732D01*
X782195Y659732D01*
X782195Y645492D01*
G75*
D01*
G03X792164Y638632I125J-10492*
G01*
G75*
D01*
G03X792405Y640180I-4864J1548*
G01*
X792405Y640180D01*
X792405Y661435D01*
D02*
G37*
G36*
X767005Y661435D02*
G75*
D01*
G03X767648Y663560I-3185J2125*
G01*
X767648Y663560D01*
X767648Y677560D01*
G74*
D01*
G03X763820Y681388I3828J0*
G01*
X763820Y681388D01*
X749820Y681388D01*
G75*
D01*
G03X745992Y677560I0J-3828*
G01*
X745992Y677560D01*
X745992Y663560D01*
G75*
D01*
G03X749820Y659732I3828J0*
G01*
X749820Y659732D01*
X756795Y659732D01*
X756795Y645492D01*
G75*
D01*
G03X766764Y638632I125J-10492*
G01*
G75*
D01*
G03X767005Y640180I-4864J1548*
G01*
X767005Y640180D01*
X767005Y661435D01*
D02*
G37*
G36*
X741605Y661435D02*
G75*
D01*
G03X742248Y663560I-3185J2125*
G01*
X742248Y663560D01*
X742248Y677560D01*
G74*
D01*
G03X738420Y681388I3828J0*
G01*
X738420Y681388D01*
X724420Y681388D01*
G75*
D01*
G03X720592Y677560I0J-3828*
G01*
X720592Y677560D01*
X720592Y663560D01*
G75*
D01*
G03X724420Y659732I3828J0*
G01*
X724420Y659732D01*
X731395Y659732D01*
X731395Y645492D01*
G75*
D01*
G03X741364Y638632I125J-10492*
G01*
G75*
D01*
G03X741605Y640180I-4864J1548*
G01*
X741605Y640180D01*
X741605Y661435D01*
D02*
G37*
G36*
X939675Y645492D02*
G75*
D01*
G03X949644Y638632I125J-10492*
G01*
G75*
D01*
G03X949885Y640180I-4864J1548*
G01*
X949885Y640180D01*
X949885Y656355D01*
G75*
D01*
G03X950528Y658480I-3185J2125*
G01*
X950528Y658480D01*
X950528Y672480D01*
G74*
D01*
G03X946700Y676308I3828J0*
G01*
X946700Y676308D01*
X932700Y676308D01*
G75*
D01*
G03X928872Y672480I0J-3828*
G01*
X928872Y672480D01*
X928872Y658480D01*
G75*
D01*
G03X932700Y654652I3828J0*
G01*
X932700Y654652D01*
X939675Y654652D01*
X939675Y645492D01*
D02*
G37*
G36*
X914275Y645492D02*
G75*
D01*
G03X924244Y638632I125J-10492*
G01*
G75*
D01*
G03X924485Y640180I-4864J1548*
G01*
X924485Y640180D01*
X924485Y656355D01*
G75*
D01*
G03X925128Y658480I-3185J2125*
G01*
X925128Y658480D01*
X925128Y672480D01*
G74*
D01*
G03X921300Y676308I3828J0*
G01*
X921300Y676308D01*
X907300Y676308D01*
G75*
D01*
G03X903472Y672480I0J-3828*
G01*
X903472Y672480D01*
X903472Y658480D01*
G75*
D01*
G03X907300Y654652I3828J0*
G01*
X907300Y654652D01*
X914275Y654652D01*
X914275Y645492D01*
D02*
G37*
G36*
X832995Y645492D02*
G75*
D01*
G03X842964Y638632I125J-10492*
G01*
G75*
D01*
G03X843205Y640180I-4864J1548*
G01*
X843205Y640180D01*
X843205Y661435D01*
G75*
D01*
G03X843848Y663560I-3185J2125*
G01*
X843848Y663560D01*
X843848Y677560D01*
G74*
D01*
G03X840020Y681388I3828J0*
G01*
X840020Y681388D01*
X826020Y681388D01*
G75*
D01*
G03X822192Y677560I0J-3828*
G01*
X822192Y677560D01*
X822192Y663560D01*
G75*
D01*
G03X826020Y659732I3828J0*
G01*
X826020Y659732D01*
X832995Y659732D01*
X832995Y645492D01*
D02*
G37*
G36*
X878507Y635000D02*
G75*
D01*
G03X878507Y635000I10493J0*
G01*
D02*
G37*
G36*
X892721Y502571D02*
X892721Y502571D01*
X892721Y496481D01*
X898811Y496481D01*
G74*
D01*
G03X892721Y502571I9811J3721*
G01*
D02*
G37*
G36*
X884555Y492760D02*
G75*
D01*
G03X884555Y492760I4445J0*
G01*
D02*
G37*
G36*
X898811Y489039D02*
X898811Y489039D01*
X892721Y489039D01*
X892721Y482949D01*
G74*
D01*
G03X898811Y489039I3721J9811*
G01*
D02*
G37*
G36*
X879189Y496481D02*
X879189Y496481D01*
X885279Y496481D01*
X885279Y502571D01*
G74*
D01*
G03X879189Y496481I3721J9811*
G01*
D02*
G37*
G36*
X885279Y482949D02*
X885279Y482949D01*
X885279Y489039D01*
X879189Y489039D01*
G74*
D01*
G03X885279Y482949I9811J3721*
G01*
D02*
G37*
G36*
X836841Y568611D02*
X836841Y568611D01*
X836841Y562521D01*
X842931Y562521D01*
G74*
D01*
G03X836841Y568611I9811J3721*
G01*
D02*
G37*
G36*
X842931Y555079D02*
X842931Y555079D01*
X836841Y555079D01*
X836841Y548989D01*
G74*
D01*
G03X842931Y555079I3721J9811*
G01*
D02*
G37*
G36*
X828675Y558800D02*
G75*
D01*
G03X828675Y558800I4445J0*
G01*
D02*
G37*
G36*
X839343Y503274D02*
X839343Y503274D01*
X826897Y503274D01*
G75*
D01*
G03X822606Y498983I0J-4291*
G01*
X822606Y498983D01*
X822606Y486537D01*
G75*
D01*
G03X826897Y482246I4291J0*
G01*
X826897Y482246D01*
X839343Y482246D01*
G75*
D01*
G03X843634Y486537I0J4291*
G01*
X843634Y486537D01*
X843634Y498983D01*
G74*
D01*
G03X839343Y503274I4291J0*
G01*
D02*
G37*
G36*
X690805Y661435D02*
G75*
D01*
G03X691448Y663560I-3185J2125*
G01*
X691448Y663560D01*
X691448Y677560D01*
G74*
D01*
G03X687620Y681388I3828J0*
G01*
X687620Y681388D01*
X673620Y681388D01*
G75*
D01*
G03X669792Y677560I0J-3828*
G01*
X669792Y677560D01*
X669792Y663560D01*
G75*
D01*
G03X673620Y659732I3828J0*
G01*
X673620Y659732D01*
X680595Y659732D01*
X680595Y645492D01*
G75*
D01*
G03X690564Y638632I125J-10492*
G01*
G75*
D01*
G03X690805Y640180I-4864J1548*
G01*
X690805Y640180D01*
X690805Y661435D01*
D02*
G37*
G36*
X599315Y645492D02*
G75*
D01*
G03X609284Y638632I125J-10492*
G01*
G75*
D01*
G03X609525Y640180I-4864J1548*
G01*
X609525Y640180D01*
X609525Y666515D01*
G75*
D01*
G03X610168Y668640I-3185J2125*
G01*
X610168Y668640D01*
X610168Y682640D01*
G74*
D01*
G03X606340Y686468I3828J0*
G01*
X606340Y686468D01*
X592340Y686468D01*
G75*
D01*
G03X588512Y682640I0J-3828*
G01*
X588512Y682640D01*
X588512Y668640D01*
G75*
D01*
G03X592340Y664812I3828J0*
G01*
X592340Y664812D01*
X599315Y664812D01*
X599315Y645492D01*
D02*
G37*
G36*
X573915Y645492D02*
G75*
D01*
G03X583884Y638632I125J-10492*
G01*
G75*
D01*
G03X584125Y640180I-4864J1548*
G01*
X584125Y640180D01*
X584125Y666515D01*
G75*
D01*
G03X584768Y668640I-3185J2125*
G01*
X584768Y668640D01*
X584768Y682640D01*
G74*
D01*
G03X580940Y686468I3828J0*
G01*
X580940Y686468D01*
X566940Y686468D01*
G75*
D01*
G03X563112Y682640I0J-3828*
G01*
X563112Y682640D01*
X563112Y668640D01*
G75*
D01*
G03X566940Y664812I3828J0*
G01*
X566940Y664812D01*
X573915Y664812D01*
X573915Y645492D01*
D02*
G37*
G36*
X558725Y666515D02*
G75*
D01*
G03X559368Y668640I-3185J2125*
G01*
X559368Y668640D01*
X559368Y682640D01*
G74*
D01*
G03X555540Y686468I3828J0*
G01*
X555540Y686468D01*
X541540Y686468D01*
G75*
D01*
G03X537712Y682640I0J-3828*
G01*
X537712Y682640D01*
X537712Y668640D01*
G75*
D01*
G03X541540Y664812I3828J0*
G01*
X541540Y664812D01*
X548515Y664812D01*
X548515Y645492D01*
G75*
D01*
G03X558484Y638632I125J-10492*
G01*
G75*
D01*
G03X558725Y640180I-4864J1548*
G01*
X558725Y640180D01*
X558725Y666515D01*
D02*
G37*
G36*
X533325Y666515D02*
G75*
D01*
G03X533968Y668640I-3185J2125*
G01*
X533968Y668640D01*
X533968Y682640D01*
G74*
D01*
G03X530140Y686468I3828J0*
G01*
X530140Y686468D01*
X516140Y686468D01*
G75*
D01*
G03X512312Y682640I0J-3828*
G01*
X512312Y682640D01*
X512312Y668640D01*
G75*
D01*
G03X516140Y664812I3828J0*
G01*
X516140Y664812D01*
X523115Y664812D01*
X523115Y645492D01*
G75*
D01*
G03X533084Y638632I125J-10492*
G01*
G75*
D01*
G03X533325Y640180I-4864J1548*
G01*
X533325Y640180D01*
X533325Y666515D01*
D02*
G37*
G36*
X497715Y645492D02*
G75*
D01*
G03X507684Y638632I125J-10492*
G01*
G75*
D01*
G03X507925Y640180I-4864J1548*
G01*
X507925Y640180D01*
X507925Y666515D01*
G75*
D01*
G03X508568Y668640I-3185J2125*
G01*
X508568Y668640D01*
X508568Y682640D01*
G74*
D01*
G03X504740Y686468I3828J0*
G01*
X504740Y686468D01*
X490740Y686468D01*
G75*
D01*
G03X486912Y682640I0J-3828*
G01*
X486912Y682640D01*
X486912Y668640D01*
G75*
D01*
G03X490740Y664812I3828J0*
G01*
X490740Y664812D01*
X497715Y664812D01*
X497715Y645492D01*
D02*
G37*
G36*
X644827Y635000D02*
G75*
D01*
G03X644827Y635000I10493J0*
G01*
D02*
G37*
G36*
X609251Y555079D02*
X609251Y555079D01*
X603161Y555079D01*
X603161Y548989D01*
G74*
D01*
G03X609251Y555079I3721J9811*
G01*
D02*
G37*
G36*
X594995Y558800D02*
G75*
D01*
G03X594995Y558800I4445J0*
G01*
D02*
G37*
G36*
X603161Y568611D02*
X603161Y568611D01*
X603161Y562521D01*
X609251Y562521D01*
G74*
D01*
G03X603161Y568611I9811J3721*
G01*
D02*
G37*
G36*
X651599Y482949D02*
X651599Y482949D01*
X651599Y489039D01*
X645509Y489039D01*
G74*
D01*
G03X651599Y482949I9811J3721*
G01*
D02*
G37*
G36*
X645509Y496481D02*
X645509Y496481D01*
X651599Y496481D01*
X651599Y502571D01*
G74*
D01*
G03X645509Y496481I3721J9811*
G01*
D02*
G37*
G36*
X659041Y502571D02*
X659041Y502571D01*
X659041Y496481D01*
X665131Y496481D01*
G74*
D01*
G03X659041Y502571I9811J3721*
G01*
D02*
G37*
G36*
X665131Y489039D02*
X665131Y489039D01*
X659041Y489039D01*
X659041Y482949D01*
G74*
D01*
G03X665131Y489039I3721J9811*
G01*
D02*
G37*
G36*
X650875Y492760D02*
G75*
D01*
G03X650875Y492760I4445J0*
G01*
D02*
G37*
G36*
X605663Y503274D02*
X605663Y503274D01*
X593217Y503274D01*
G75*
D01*
G03X588926Y498983I0J-4291*
G01*
X588926Y498983D01*
X588926Y486537D01*
G75*
D01*
G03X593217Y482246I4291J0*
G01*
X593217Y482246D01*
X605663Y482246D01*
G75*
D01*
G03X609954Y486537I0J4291*
G01*
X609954Y486537D01*
X609954Y498983D01*
G74*
D01*
G03X605663Y503274I4291J0*
G01*
D02*
G37*
G36*
X457125Y666515D02*
G75*
D01*
G03X457768Y668640I-3185J2125*
G01*
X457768Y668640D01*
X457768Y682640D01*
G74*
D01*
G03X453940Y686468I3828J0*
G01*
X453940Y686468D01*
X439940Y686468D01*
G75*
D01*
G03X436112Y682640I0J-3828*
G01*
X436112Y682640D01*
X436112Y668640D01*
G75*
D01*
G03X439940Y664812I3828J0*
G01*
X439940Y664812D01*
X446915Y664812D01*
X446915Y645492D01*
G75*
D01*
G03X456884Y638632I125J-10492*
G01*
G75*
D01*
G03X457125Y640180I-4864J1548*
G01*
X457125Y640180D01*
X457125Y666515D01*
D02*
G37*
G36*
X375845Y661435D02*
G75*
D01*
G03X376488Y663560I-3185J2125*
G01*
X376488Y663560D01*
X376488Y677560D01*
G74*
D01*
G03X372660Y681388I3828J0*
G01*
X372660Y681388D01*
X358660Y681388D01*
G75*
D01*
G03X354832Y677560I0J-3828*
G01*
X354832Y677560D01*
X354832Y663560D01*
G75*
D01*
G03X358660Y659732I3828J0*
G01*
X358660Y659732D01*
X365635Y659732D01*
X365635Y645492D01*
G75*
D01*
G03X375604Y638632I125J-10492*
G01*
G75*
D01*
G03X375845Y640180I-4864J1548*
G01*
X375845Y640180D01*
X375845Y661435D01*
D02*
G37*
G36*
X350445Y661435D02*
G75*
D01*
G03X351088Y663560I-3185J2125*
G01*
X351088Y663560D01*
X351088Y677560D01*
G74*
D01*
G03X347260Y681388I3828J0*
G01*
X347260Y681388D01*
X333260Y681388D01*
G75*
D01*
G03X329432Y677560I0J-3828*
G01*
X329432Y677560D01*
X329432Y663560D01*
G75*
D01*
G03X333260Y659732I3828J0*
G01*
X333260Y659732D01*
X340235Y659732D01*
X340235Y645492D01*
G75*
D01*
G03X350204Y638632I125J-10492*
G01*
G75*
D01*
G03X350445Y640180I-4864J1548*
G01*
X350445Y640180D01*
X350445Y661435D01*
D02*
G37*
G36*
X325045Y661435D02*
G75*
D01*
G03X325688Y663560I-3185J2125*
G01*
X325688Y663560D01*
X325688Y677560D01*
G74*
D01*
G03X321860Y681388I3828J0*
G01*
X321860Y681388D01*
X307860Y681388D01*
G75*
D01*
G03X304032Y677560I0J-3828*
G01*
X304032Y677560D01*
X304032Y663560D01*
G75*
D01*
G03X307860Y659732I3828J0*
G01*
X307860Y659732D01*
X314835Y659732D01*
X314835Y645492D01*
G75*
D01*
G03X324804Y638632I125J-10492*
G01*
G75*
D01*
G03X325045Y640180I-4864J1548*
G01*
X325045Y640180D01*
X325045Y661435D01*
D02*
G37*
G36*
X299645Y661435D02*
G75*
D01*
G03X300288Y663560I-3185J2125*
G01*
X300288Y663560D01*
X300288Y677560D01*
G74*
D01*
G03X296460Y681388I3828J0*
G01*
X296460Y681388D01*
X282460Y681388D01*
G75*
D01*
G03X278632Y677560I0J-3828*
G01*
X278632Y677560D01*
X278632Y663560D01*
G75*
D01*
G03X282460Y659732I3828J0*
G01*
X282460Y659732D01*
X289435Y659732D01*
X289435Y645492D01*
G75*
D01*
G03X299404Y638632I125J-10492*
G01*
G75*
D01*
G03X299645Y640180I-4864J1548*
G01*
X299645Y640180D01*
X299645Y661435D01*
D02*
G37*
G36*
X274245Y661435D02*
G75*
D01*
G03X274888Y663560I-3185J2125*
G01*
X274888Y663560D01*
X274888Y677560D01*
G74*
D01*
G03X271060Y681388I3828J0*
G01*
X271060Y681388D01*
X257060Y681388D01*
G75*
D01*
G03X253232Y677560I0J-3828*
G01*
X253232Y677560D01*
X253232Y663560D01*
G75*
D01*
G03X257060Y659732I3828J0*
G01*
X257060Y659732D01*
X264035Y659732D01*
X264035Y645492D01*
G75*
D01*
G03X274004Y638632I125J-10492*
G01*
G75*
D01*
G03X274245Y640180I-4864J1548*
G01*
X274245Y640180D01*
X274245Y661435D01*
D02*
G37*
G36*
X411147Y635000D02*
G75*
D01*
G03X411147Y635000I10493J0*
G01*
D02*
G37*
G36*
X375571Y555079D02*
X375571Y555079D01*
X369481Y555079D01*
X369481Y548989D01*
G74*
D01*
G03X375571Y555079I3721J9811*
G01*
D02*
G37*
G36*
X361315Y558800D02*
G75*
D01*
G03X361315Y558800I4445J0*
G01*
D02*
G37*
G36*
X369481Y568611D02*
X369481Y568611D01*
X369481Y562521D01*
X375571Y562521D01*
G74*
D01*
G03X369481Y568611I9811J3721*
G01*
D02*
G37*
G36*
X425361Y502571D02*
X425361Y502571D01*
X425361Y496481D01*
X431451Y496481D01*
G74*
D01*
G03X425361Y502571I9811J3721*
G01*
D02*
G37*
G36*
X417919Y482949D02*
X417919Y482949D01*
X417919Y489039D01*
X411829Y489039D01*
G74*
D01*
G03X417919Y482949I9811J3721*
G01*
D02*
G37*
G36*
X411829Y496481D02*
X411829Y496481D01*
X417919Y496481D01*
X417919Y502571D01*
G74*
D01*
G03X411829Y496481I3721J9811*
G01*
D02*
G37*
G36*
X417195Y492760D02*
G75*
D01*
G03X417195Y492760I4445J0*
G01*
D02*
G37*
G36*
X431451Y489039D02*
X431451Y489039D01*
X425361Y489039D01*
X425361Y482949D01*
G74*
D01*
G03X431451Y489039I3721J9811*
G01*
D02*
G37*
%LPD*%
G36*
X662965Y913341D02*
X662965Y913341D01*
X662965Y1029126D01*
X665054Y1031215D01*
X754380Y1031215D01*
G74*
D01*
G03X757995Y1032717I0J5105*
G01*
X757995Y1032717D01*
X770224Y1044945D01*
G75*
D01*
G03X779755Y1047539I1936J11695*
G01*
X779755Y1047539D01*
X779755Y913341D01*
G75*
D01*
G03X772135Y892386I-7595J-9101*
G01*
X772135Y892386D01*
X772135Y889668D01*
X765260Y889668D01*
G75*
D01*
G03X761432Y885840I0J-3828*
G01*
X761432Y885840D01*
X761432Y871840D01*
G75*
D01*
G03X761478Y871245I3828J0*
G01*
X761478Y871245D01*
X748924Y871245D01*
X750363Y872685D01*
G75*
D01*
G03X751865Y876300I-3603J3615*
G01*
X751865Y876300D01*
X751865Y893541D01*
G75*
D01*
G03X741655Y893541I-5105J10699*
G01*
X741655Y893541D01*
X741655Y878414D01*
X739566Y876325D01*
X711206Y876325D01*
G75*
D01*
G03X707591Y874829I-6J-5105*
G01*
X707591Y874829D01*
X701065Y868304D01*
X701065Y893541D01*
G75*
D01*
G03X684170Y905469I-5105J10699*
G01*
X684170Y905469D01*
X681880Y907759D01*
G75*
D01*
G03X662965Y913341I-11320J-3519*
G01*
D02*
G37*
%LPC*%
G36*
X716172Y893582D02*
G75*
D01*
G03X716172Y893582I5188J10658*
G01*
D02*
G37*
%LPD*%
G36*
X802615Y483592D02*
X802615Y483592D01*
X802615Y472014D01*
X764741Y434139D01*
G75*
D01*
G03X763245Y430521I3609J-3609*
G01*
X763245Y430521D01*
X763245Y424932D01*
G75*
D01*
G03X749325Y423800I-6325J-8372*
G01*
X749325Y423800D01*
X749325Y485520D01*
G75*
D01*
G03X749325Y500000I7595J7240*
G01*
X749325Y500000D01*
X749325Y500380D01*
G74*
D01*
G03X747823Y503995I5105J0*
G01*
X747823Y503995D01*
X744025Y507793D01*
G74*
D01*
G03X741328Y509211I3615J3603*
G01*
G75*
D01*
G03X740405Y509295I-918J-5021*
G01*
X740405Y509295D01*
X725170Y509295D01*
G75*
D01*
G03X723428Y508988I0J-5105*
G01*
G74*
D01*
G03X721561Y507799I1742J4798*
G01*
X721561Y507799D01*
X715211Y501449D01*
G74*
D01*
G03X714043Y499639I3609J3609*
G01*
G75*
D01*
G03X697580Y498857I-7923J-6879*
G01*
X697580Y498857D01*
X685512Y510925D01*
X685512Y549465D01*
G75*
D01*
G03X687000Y567206I-4792J9335*
G01*
X687000Y567206D01*
X699840Y567206D01*
G75*
D01*
G03X712400Y567206I6280J-8406*
G01*
X712400Y567206D01*
X725240Y567206D01*
G75*
D01*
G03X737800Y567206I6280J-8406*
G01*
X737800Y567206D01*
X750640Y567206D01*
G75*
D01*
G03X763200Y567206I6280J-8406*
G01*
X763200Y567206D01*
X774813Y567206D01*
X775364Y566656D01*
G75*
D01*
G03X787023Y568180I6956J-7856*
G01*
G74*
D01*
G03X785611Y570846I5015J949*
G01*
X785611Y570846D01*
X784171Y572286D01*
X810373Y572286D01*
X816273Y566386D01*
X816273Y564878D01*
G75*
D01*
G03X802303Y549813I-8553J-6078*
G01*
X802303Y549813D01*
X802303Y510925D01*
X790593Y499215D01*
G75*
D01*
G03X791894Y488466I-8273J-6455*
G01*
X791894Y488466D01*
X792168Y488466D01*
G74*
D01*
G03X795783Y489967I0J5105*
G01*
X795783Y489967D01*
X797304Y491488D01*
G74*
D01*
G03X802615Y483592I10416J1272*
G01*
D02*
G37*
G36*
X947405Y566030D02*
X947405Y566030D01*
X957595Y566030D01*
G75*
D01*
G03X972805Y566030I7605J-7230*
G01*
X972805Y566030D01*
X982995Y566030D01*
G75*
D01*
G03X998205Y566030I7605J-7230*
G01*
X998205Y566030D01*
X1008395Y566030D01*
G75*
D01*
G03X1020638Y568212I7605J-7230*
G01*
G74*
D01*
G03X1019615Y569670I4626J2158*
G01*
X1019615Y569670D01*
X1018175Y571110D01*
X1044378Y571110D01*
X1050277Y565210D01*
X1050277Y564394D01*
G75*
D01*
G03X1036307Y549626I-8877J-5594*
G01*
X1036307Y549626D01*
X1036307Y509749D01*
X1024891Y498332D01*
G75*
D01*
G03X1024954Y487290I-8891J-5572*
G01*
X1024954Y487290D01*
X1026172Y487290D01*
G74*
D01*
G03X1029787Y488791I0J5104*
G01*
X1029787Y488791D01*
X1031219Y490222D01*
G74*
D01*
G03X1036295Y483592I10181J2538*
G01*
X1036295Y483592D01*
X1036295Y477094D01*
X1035373Y476172D01*
X1034206Y475005D01*
X903864Y475005D01*
X905031Y476172D01*
X905031Y476172D01*
X911527Y482668D01*
G75*
D01*
G03X924586Y490241I2873J10092*
G01*
X924586Y490241D01*
X926042Y488785D01*
G74*
D01*
G03X928001Y487564I3610J3609*
G01*
G75*
D01*
G03X929652Y487290I1651J4830*
G01*
X929652Y487290D01*
X930846Y487290D01*
G75*
D01*
G03X930918Y498347I8954J5470*
G01*
X930918Y498347D01*
X919516Y509749D01*
X919516Y549639D01*
G75*
D01*
G03X922005Y566030I-5116J9161*
G01*
X922005Y566030D01*
X932195Y566030D01*
G75*
D01*
G03X947405Y566030I7605J-7230*
G01*
D02*
G37*
%LPC*%
G36*
X956172Y487413D02*
G75*
D01*
G03X956172Y487413I9028J5347*
G01*
D02*
G37*
G36*
X980107Y492760D02*
G75*
D01*
G03X980107Y492760I10493J0*
G01*
D02*
G37*
%LPD*%
G36*
X231520Y566395D02*
G75*
D01*
G03X246000Y566395I7240J-7595*
G01*
X246000Y566395D01*
X256920Y566395D01*
G75*
D01*
G03X271400Y566395I7240J-7595*
G01*
X271400Y566395D01*
X282320Y566395D01*
G75*
D01*
G03X296800Y566395I7240J-7595*
G01*
X296800Y566395D01*
X307720Y566395D01*
G75*
D01*
G03X319771Y568125I7240J-7595*
G01*
G74*
D01*
G03X318563Y570035I4811J1705*
G01*
X318563Y570035D01*
X313495Y575103D01*
G74*
D01*
G03X310587Y576555I3615J3603*
G01*
X310587Y576555D01*
X338246Y576555D01*
X346685Y568116D01*
X346685Y567172D01*
G75*
D01*
G03X330268Y555927I-6325J-8372*
G01*
X330268Y555927D01*
X318971Y544629D01*
G75*
D01*
G03X317475Y541014I3609J-3609*
G01*
X317475Y541014D01*
X317475Y502947D01*
G75*
D01*
G03X307365Y500000I-2515J-10187*
G01*
X307365Y500000D01*
X307365Y500380D01*
G74*
D01*
G03X305863Y503995I5105J0*
G01*
X305863Y503995D01*
X300795Y509063D01*
G74*
D01*
G03X297180Y510565I3615J3603*
G01*
X297180Y510565D01*
X251465Y510565D01*
G75*
D01*
G03X247851Y509069I-5J-5105*
G01*
X247851Y509069D01*
X241633Y502852D01*
G75*
D01*
G03X230017Y498562I-2873J-10092*
G01*
X230017Y498562D01*
X218465Y510114D01*
X218465Y549632D01*
G75*
D01*
G03X220600Y566395I-5105J9168*
G01*
X220600Y566395D01*
X231520Y566395D01*
D02*
G37*
G36*
X683848Y770907D02*
G75*
D01*
G03X670585Y764319I-3128J-10347*
G01*
X670585Y764319D01*
X670585Y813226D01*
X672674Y815315D01*
X688516Y815315D01*
G75*
D01*
G03X688315Y813889I4904J-1415*
G01*
X688315Y813889D01*
X688315Y775374D01*
X683848Y770907D01*
D02*
G37*
G36*
X1032514Y749325D02*
X1032514Y749325D01*
X1024886Y749325D01*
G75*
D01*
G03X1021105Y765009I-8886J6155*
G01*
X1021105Y765009D01*
X1021105Y777240D01*
G74*
D01*
G03X1019603Y780855I5105J0*
G01*
X1019603Y780855D01*
X1018164Y782295D01*
X1034206Y782295D01*
X1036295Y780206D01*
X1036295Y765009D01*
G75*
D01*
G03X1032514Y749325I5105J-9529*
G01*
D02*
G37*
G36*
X336751Y481531D02*
X336751Y481531D01*
X336926Y481355D01*
X313264Y481355D01*
X311894Y482725D01*
G75*
D01*
G03X325261Y490762I3066J10035*
G01*
X325261Y490762D01*
X326183Y491685D01*
G75*
D01*
G03X327685Y495300I-3603J3615*
G01*
X327685Y495300D01*
X327685Y498216D01*
X330268Y495633D01*
G75*
D01*
G03X335549Y483435I10092J-2873*
G01*
G74*
D01*
G03X336751Y481531I4811J1705*
G01*
D02*
G37*
G36*
X834179Y1064235D02*
X834179Y1064235D01*
X826981Y1064235D01*
G75*
D01*
G02X824028Y1046505I-9101J-7595*
G01*
X824028Y1046505D01*
X837132Y1046505D01*
G75*
D01*
G02X834179Y1064235I6148J10135*
G01*
D02*
G37*
G36*
X518135Y1045941D02*
X518135Y1045941D01*
X518135Y957154D01*
X517153Y956172D01*
X517153Y956172D01*
X515645Y954664D01*
X515645Y1047539D01*
G74*
D01*
G03X518135Y1045941I7595J9101*
G01*
D02*
G37*
G36*
X686444Y1063709D02*
G75*
D01*
G03X689812Y1046505I9516J-7069*
G01*
X689812Y1046505D01*
X676708Y1046505D01*
G75*
D01*
G03X680076Y1063709I-6148J10135*
G01*
X680076Y1063709D01*
X686444Y1063709D01*
D02*
G37*
G36*
X806026Y1056615D02*
X806026Y1056615D01*
X799674Y1056615D01*
X795045Y1051986D01*
X795045Y1043564D01*
X796491Y1045009D01*
G75*
D01*
G02X800107Y1046505I3609J-3609*
G01*
X800107Y1046505D01*
X811732Y1046505D01*
G74*
D01*
G02X806026Y1056615I6148J10135*
G01*
D02*
G37*
G36*
X946351Y1047549D02*
G75*
D01*
G02X949967Y1049045I3609J-3609*
G01*
X949967Y1049045D01*
X956099Y1049045D01*
G75*
D01*
G02X953616Y1059155I9101J7595*
G01*
X953616Y1059155D01*
X944454Y1059155D01*
X942365Y1057066D01*
X942365Y1043564D01*
X946351Y1047549D01*
D02*
G37*
G36*
X209061Y576555D02*
G74*
D01*
G03X206158Y575109I707J5055*
G01*
X206158Y575109D01*
X198320Y567271D01*
G74*
D01*
G03X198020Y566943I3610J3609*
G01*
G74*
D01*
G03X194183Y569314I3837J1920*
G01*
X194183Y569314D01*
X187985Y569314D01*
X187985Y569386D01*
X195154Y576555D01*
X209061Y576555D01*
D02*
G37*
G36*
X496566Y776375D02*
G74*
D01*
G03X495870Y776269I1274J10735*
G01*
X495870Y776269D01*
X482625Y789514D01*
X482625Y790316D01*
X496566Y776375D01*
D02*
G37*
G36*
X337487Y548708D02*
G75*
D01*
G03X340428Y548307I2873J10092*
G01*
X340428Y548307D01*
X327685Y535564D01*
X327685Y538906D01*
X337487Y548708D01*
D02*
G37*
G36*
X706095Y288568D02*
X706095Y288568D01*
X706095Y300146D01*
X704006Y302235D01*
X698124Y302235D01*
X702103Y298255D01*
G74*
D01*
G02X703605Y294640I3603J3615*
G01*
X703605Y294640D01*
X703605Y286640D01*
G74*
D01*
G02X706095Y288568I7595J7240*
G01*
D02*
G37*
G36*
X693395Y286640D02*
X693395Y286640D01*
X693395Y292526D01*
X688766Y297155D01*
X682884Y297155D01*
X689403Y290635D01*
G74*
D01*
G02X690611Y288725I3603J3615*
G01*
G74*
D01*
G02X693395Y286640I4811J9325*
G01*
D02*
G37*
G36*
X494924Y896645D02*
X494924Y896645D01*
X505435Y907156D01*
X505435Y898734D01*
X503346Y896645D01*
X494924Y896645D01*
D02*
G37*
G36*
X974301Y1064235D02*
G75*
D01*
G02X974301Y1049045I-9101J-7595*
G01*
X974301Y1049045D01*
X981499Y1049045D01*
G75*
D01*
G02X981499Y1064235I9101J7595*
G01*
X981499Y1064235D01*
X974301Y1064235D01*
D02*
G37*
G36*
X753854Y406525D02*
G75*
D01*
G03X763245Y408188I3066J10035*
G01*
X763245Y408188D01*
X763245Y397134D01*
X753854Y406525D01*
D02*
G37*
G36*
X654251Y1045009D02*
X654251Y1045009D01*
X652805Y1043564D01*
X652805Y1049446D01*
X654894Y1051535D01*
X659861Y1051535D01*
G74*
D01*
G03X664412Y1046505I10699J5105*
G01*
X664412Y1046505D01*
X657867Y1046505D01*
G75*
D01*
G03X654251Y1045009I-7J-5105*
G01*
D02*
G37*
G36*
X1010895Y765009D02*
G74*
D01*
G03X1007352Y761966I5105J9529*
G01*
X1007352Y761966D01*
X1007352Y773212D01*
G74*
D01*
G03X1007271Y774119I5104J0*
G01*
G74*
D01*
G03X1005857Y776822I5023J907*
G01*
X1005857Y776822D01*
X1005464Y777215D01*
X1008806Y777215D01*
X1010895Y775126D01*
X1010895Y765009D01*
D02*
G37*
G36*
X934745Y765035D02*
G75*
D01*
G02X941065Y766216I5055J-9555*
G01*
X941065Y766216D01*
X934745Y772536D01*
X934745Y765035D01*
D02*
G37*
G36*
X696546Y488466D02*
G74*
D01*
G03X698880Y485165I9574J4294*
G01*
X698880Y485165D01*
X695534Y485165D01*
X690812Y489887D01*
G74*
D01*
G03X691055Y490945I10092J2873*
G01*
X691055Y490945D01*
X692038Y489961D01*
G74*
D01*
G03X693997Y488740I3610J3610*
G01*
G75*
D01*
G03X695648Y488466I1651J4831*
G01*
X695648Y488466D01*
X696546Y488466D01*
D02*
G37*
G36*
X563870Y332348D02*
G75*
D01*
G02X563855Y332753I5090J392*
G01*
X563855Y332753D01*
X563855Y346432D01*
G74*
D01*
G02X561365Y348360I5105J9168*
G01*
X561365Y348360D01*
X561365Y334854D01*
X563870Y332348D01*
D02*
G37*
G36*
X995705Y765009D02*
X995705Y765009D01*
X995705Y767080D01*
G74*
D01*
G03X994203Y770695I5105J0*
G01*
X994203Y770695D01*
X992764Y772135D01*
X996106Y772135D01*
X997143Y771098D01*
X997143Y764085D01*
G74*
D01*
G03X995705Y765009I6543J8605*
G01*
D02*
G37*
G36*
X102413Y747758D02*
X102413Y747758D01*
X99085Y747758D01*
X99085Y755922D01*
X102413Y755922D01*
G75*
D01*
G03X102413Y747758I4267J-4082*
G01*
D02*
G37*
G36*
X518135Y893541D02*
X518135Y893541D01*
X518135Y891565D01*
X512704Y891565D01*
X514143Y893005D01*
G74*
D01*
G03X515468Y895289I3603J3615*
G01*
G74*
D01*
G03X518135Y893541I7772J8951*
G01*
D02*
G37*
G36*
X661044Y1063709D02*
G74*
D01*
G03X659861Y1061745I9516J7069*
G01*
X659861Y1061745D01*
X652787Y1061745D01*
G75*
D01*
G03X652388Y1061730I-7J-5105*
G01*
X652388Y1061730D01*
X654368Y1063709D01*
X661044Y1063709D01*
D02*
G37*
G36*
X543535Y407392D02*
G74*
D01*
G02X542315Y408188I5105J9168*
G01*
X542315Y408188D01*
X542315Y399624D01*
X543535Y398404D01*
X543535Y407392D01*
D02*
G37*
G36*
X671542Y563887D02*
X671542Y563887D01*
X671542Y566386D01*
X672362Y567206D01*
X674440Y567206D01*
G74*
D01*
G03X671542Y563887I6280J8406*
G01*
D02*
G37*
G36*
X811907Y750594D02*
G75*
D01*
G02X806832Y749786I-4187J9966*
G01*
X806832Y749786D01*
X807294Y749325D01*
X813176Y749325D01*
X811907Y750594D01*
D02*
G37*
G36*
X438481Y564870D02*
G74*
D01*
G02X440284Y566829I8559J6070*
G01*
X440284Y566829D01*
X439301Y566829D01*
X438481Y566009D01*
X438481Y564870D01*
D02*
G37*
G36*
X905546Y564432D02*
G74*
D01*
G02X906795Y566030I8854J5632*
G01*
X906795Y566030D01*
X906366Y566030D01*
X905546Y565210D01*
X905546Y564432D01*
D02*
G37*
G36*
X842051Y892450D02*
G74*
D01*
G02X840765Y892656I1229J11790*
G01*
X840765Y892656D01*
X840765Y891164D01*
X842051Y892450D01*
D02*
G37*
G36*
X704846Y771295D02*
G74*
D01*
G03X703605Y771073I1274J10735*
G01*
X703605Y771073D01*
X703605Y772536D01*
X704846Y771295D01*
D02*
G37*
G54D11*
X1112520Y124435D02*
G74*
D01*
G03X1116135Y125937I0J5105*
G01*
X1123743Y133545D01*
G75*
D01*
G03X1125245Y137160I-3603J3615*
G01*
X1125245Y439420D01*
G74*
D01*
G03X1123743Y443035I5105J0*
G01*
X1116135Y450643D01*
G74*
D01*
G03X1114027Y451917I3615J3603*
G01*
G75*
D01*
G03X1112513Y452145I-1507J-4877*
G01*
X1073980Y452145D01*
G75*
D01*
G03X1073980Y441935I-7180J-5105*
G01*
X1110406Y441935D01*
X1115035Y437306D01*
X1115035Y139274D01*
X1110406Y134645D01*
X820040Y134645D01*
G74*
D01*
G03X822611Y138519I7240J7595*
G01*
X816521Y138519D01*
X816521Y134645D01*
X809079Y134645D01*
X809079Y138519D01*
X802989Y138519D01*
G74*
D01*
G03X805560Y134645I9811J3721*
G01*
X794640Y134645D01*
G75*
D01*
G03X780160Y134645I-7240J7595*
G01*
X769240Y134645D01*
G74*
D01*
G03X771811Y138519I7240J7595*
G01*
X765721Y138519D01*
X765721Y134645D01*
X758279Y134645D01*
X758279Y138519D01*
X752189Y138519D01*
G74*
D01*
G03X754760Y134645I9811J3721*
G01*
X743840Y134645D01*
G74*
D01*
G03X746411Y138519I7240J7595*
G01*
X740321Y138519D01*
X740321Y134645D01*
X732879Y134645D01*
X732879Y138519D01*
X726789Y138519D01*
G74*
D01*
G03X729360Y134645I9811J3721*
G01*
X719138Y134645D01*
X718789Y134994D01*
G75*
D01*
G03X706852Y132690I-7589J7246*
G01*
G74*
D01*
G03X707591Y131755I4348J2674*
G01*
X713415Y125931D01*
G74*
D01*
G03X715081Y124820I3609J3609*
G01*
G75*
D01*
G03X717024Y124435I1943J4720*
G01*
X1112520Y124435D01*
X714921Y208629D02*
G74*
D01*
G03X721011Y214719I3721J9811*
G01*
X714921Y214719D01*
X714921Y208629D01*
X714921Y228251D02*
X714921Y222161D01*
X721011Y222161D01*
G74*
D01*
G03X714921Y228251I9811J3721*
G01*
X1079579Y236172D02*
G75*
D01*
G03X1079579Y236172I-7699J7268*
G01*
X654177Y268886D02*
X663695Y268886D01*
X665856Y266725D01*
X477094Y266725D01*
X476172Y267647D01*
X476172Y267647D01*
X473162Y270657D01*
G75*
D01*
G03X462255Y270232I-5802J8743*
G01*
X462255Y269252D01*
G75*
D01*
G03X463751Y265631I5105J-12*
G01*
X471371Y258011D01*
G74*
D01*
G03X473949Y256621I3609J3609*
G01*
G75*
D01*
G03X474980Y256515I1031J4999*
G01*
X701416Y256515D01*
X694891Y249989D01*
G75*
D01*
G03X693395Y246372I3609J-3609*
G01*
X693395Y225680D01*
G74*
D01*
G03X689521Y228251I7595J7240*
G01*
X689521Y222161D01*
X693395Y222161D01*
X693395Y215474D01*
X692640Y214719D01*
X689521Y214719D01*
X689521Y211600D01*
X682191Y204269D01*
G75*
D01*
G03X680695Y200652I3609J-3609*
G01*
X680695Y151408D01*
G75*
D01*
G03X690905Y151408I5105J-9168*
G01*
X690905Y198546D01*
X702103Y209745D01*
G74*
D01*
G03X703277Y211561I3603J3615*
G01*
G74*
D01*
G03X707479Y208629I7923J6879*
G01*
X707479Y214719D01*
X703605Y214719D01*
X703605Y222161D01*
X707479Y222161D01*
X707479Y228251D01*
G74*
D01*
G03X703605Y225680I3721J9811*
G01*
X703605Y244266D01*
X710774Y251435D01*
X944880Y251435D01*
G74*
D01*
G03X948495Y252937I0J5105*
G01*
X956172Y260613D01*
X958643Y263085D01*
G75*
D01*
G03X960145Y266700I-3603J3615*
G01*
X960145Y300712D01*
G74*
D01*
G03X962635Y302640I5105J9168*
G01*
X962635Y198129D01*
G75*
D01*
G03X964131Y194511I5105J-9*
G01*
X969311Y189331D01*
G75*
D01*
G03X972927Y187835I3609J3609*
G01*
X984852Y187835D01*
X984852Y185940D01*
G75*
D01*
G03X988680Y182112I3828J0*
G01*
X1002680Y182112D01*
G75*
D01*
G03X1006508Y185940I0J3828*
G01*
X1006508Y192915D01*
X1036305Y192915D01*
G75*
D01*
G03X1042583Y203117I10575J525*
G01*
G74*
D01*
G03X1042300Y203125I283J5097*
G01*
X1004805Y203125D01*
G74*
D01*
G03X1002680Y203768I2125J3185*
G01*
X988680Y203768D01*
G75*
D01*
G03X984852Y199940I0J-3828*
G01*
X984852Y198045D01*
X975034Y198045D01*
X972845Y200234D01*
X972845Y302640D01*
G75*
D01*
G03X972845Y317120I7595J7240*
G01*
X972845Y340360D01*
G74*
D01*
G03X971343Y343975I5105J0*
G01*
X966275Y349043D01*
G74*
D01*
G03X962660Y350545I3615J3603*
G01*
X936834Y350545D01*
X934745Y352634D01*
X934745Y376912D01*
G75*
D01*
G03X924535Y376912I-5105J9168*
G01*
X924535Y350529D01*
G75*
D01*
G03X926031Y346911I5105J-9*
G01*
X931111Y341831D01*
G75*
D01*
G03X934727Y340335I3609J3609*
G01*
X960546Y340335D01*
X962635Y338246D01*
X962635Y317120D01*
G75*
D01*
G03X949935Y300712I-7595J-7240*
G01*
X949935Y268814D01*
X942766Y261645D01*
X781944Y261645D01*
X789398Y269099D01*
G75*
D01*
G03X778988Y273127I-1998J10301*
G01*
X772586Y266725D01*
X698124Y266725D01*
X702103Y270705D01*
G74*
D01*
G03X703277Y272521I3603J3615*
G01*
G75*
D01*
G03X716305Y288568I7923J6879*
G01*
X716305Y302260D01*
G74*
D01*
G03X714803Y305875I5105J0*
G01*
X709735Y310943D01*
G74*
D01*
G03X707798Y312161I3615J3603*
G01*
G75*
D01*
G03X706113Y312445I-1678J-4821*
G01*
X497865Y312445D01*
X497865Y346432D01*
G75*
D01*
G03X487655Y346432I-5105J9168*
G01*
X487655Y309893D01*
G75*
D01*
G03X488318Y307365I5105J-13*
G01*
X408514Y307365D01*
X394995Y320884D01*
X394995Y474545D01*
G74*
D01*
G03X393493Y478160I5105J0*
G01*
X386720Y484933D01*
G74*
D01*
G03X384882Y486115I3615J3603*
G01*
G75*
D01*
G03X383097Y486435I-1777J-4785*
G01*
X376272Y486435D01*
G75*
D01*
G03X376274Y486537I-4289J102*
G01*
X376274Y498983D01*
G74*
D01*
G03X371983Y503274I4291J0*
G01*
X359537Y503274D01*
G75*
D01*
G03X355246Y498983I0J-4291*
G01*
X355246Y486537D01*
G75*
D01*
G03X355248Y486435I4291J0*
G01*
X348732Y486435D01*
G75*
D01*
G03X337487Y502852I-8372J6325*
G01*
X332765Y507574D01*
X332765Y526206D01*
X355393Y548835D01*
G75*
D01*
G03X356895Y552450I-3603J3615*
G01*
X356895Y553187D01*
G74*
D01*
G03X362039Y548989I8865J5613*
G01*
X362039Y555079D01*
X356895Y555079D01*
X356895Y562521D01*
X362039Y562521D01*
X362039Y568611D01*
G74*
D01*
G03X356895Y564413I3721J9811*
G01*
X356895Y570230D01*
G74*
D01*
G03X355393Y573845I5105J0*
G01*
X343975Y585263D01*
G74*
D01*
G03X342262Y586397I3615J3603*
G01*
G75*
D01*
G03X340352Y586765I-1902J-4737*
G01*
X193040Y586765D01*
G75*
D01*
G03X191768Y586604I0J-5105*
G01*
G74*
D01*
G03X189431Y585269I1272J4944*
G01*
X179271Y575109D01*
G75*
D01*
G03X177775Y571488I3609J-3609*
G01*
X177775Y566671D01*
G74*
D01*
G03X177446Y565023I3962J1648*
G01*
X177446Y552577D01*
G75*
D01*
G03X181737Y548286I4291J0*
G01*
X194183Y548286D01*
G74*
D01*
G03X197520Y549880I0J4291*
G01*
G74*
D01*
G03X198321Y548841I4410J2570*
G01*
X203175Y543986D01*
X203175Y497849D01*
G75*
D01*
G03X203446Y496199I5105J-9*
G01*
G75*
D01*
G03X223613Y490528I9914J-3439*
G01*
X224991Y489151D01*
G74*
D01*
G03X226949Y487930I3609J3609*
G01*
G75*
D01*
G03X228600Y487655I1651J4830*
G01*
X229592Y487655D01*
G75*
D01*
G03X248852Y495633I9168J5105*
G01*
X253574Y500355D01*
X256920Y500355D01*
G75*
D01*
G03X271400Y500355I7240J-7595*
G01*
X282320Y500355D01*
G75*
D01*
G03X297155Y485520I7240J-7595*
G01*
X297155Y485146D01*
G75*
D01*
G03X298651Y481531I5105J-6*
G01*
X304009Y476172D01*
X307541Y472641D01*
G75*
D01*
G03X311152Y471145I3609J3609*
G01*
X378142Y471145D01*
X379705Y469582D01*
X379705Y314137D01*
G75*
D01*
G03X381201Y310516I5105J-12*
G01*
X394512Y297205D01*
X266707Y297205D01*
G75*
D01*
G03X263091Y295709I-7J-5105*
G01*
X257350Y289969D01*
G75*
D01*
G03X264569Y282750I-2950J-10169*
G01*
X268814Y286995D01*
X296633Y286995D01*
G75*
D01*
G03X304375Y269212I7767J-7195*
G01*
X304375Y224288D01*
X297800Y224288D01*
G75*
D01*
G03X293972Y220460I0J-3828*
G01*
X293972Y206460D01*
G75*
D01*
G03X297800Y202632I3828J0*
G01*
X311800Y202632D01*
G75*
D01*
G03X315628Y206460I0J3828*
G01*
X315628Y220460D01*
G74*
D01*
G03X314585Y223087I3828J0*
G01*
X314585Y274720D01*
G74*
D01*
G03X314362Y276212I5105J0*
G01*
G75*
D01*
G03X312167Y286995I-9962J3588*
G01*
X427146Y286995D01*
X431446Y282695D01*
X431446Y273177D01*
G75*
D01*
G03X435737Y268886I4291J0*
G01*
X448183Y268886D01*
G75*
D01*
G03X452474Y273177I0J4291*
G01*
X452474Y285623D01*
G74*
D01*
G03X448183Y289914I4291J0*
G01*
X438665Y289914D01*
X436504Y292075D01*
X673526Y292075D01*
X678584Y287017D01*
G75*
D01*
G03X678560Y271805I7216J-7617*
G01*
X675214Y271805D01*
X670914Y276105D01*
X670914Y285623D01*
G74*
D01*
G03X666623Y289914I4291J0*
G01*
X654177Y289914D01*
G75*
D01*
G03X649886Y285623I0J-4291*
G01*
X649886Y273177D01*
G75*
D01*
G03X654177Y268886I4291J0*
G01*
X476172Y136543D02*
G75*
D01*
G03X476172Y136543I-8812J5697*
G01*
X476172Y212743D02*
G75*
D01*
G03X476172Y212743I-8812J5697*
G01*
X956172Y411213D02*
G75*
D01*
G03X956172Y411213I9028J5347*
G01*
X956172Y375648D02*
G75*
D01*
G03X956172Y375648I-1132J10432*
G01*
X863625Y309880D02*
X863625Y460166D01*
X868254Y464795D01*
X1036320Y464795D01*
G74*
D01*
G03X1039935Y466297I0J5105*
G01*
X1045003Y471365D01*
G75*
D01*
G03X1046505Y474980I-3603J3615*
G01*
X1046505Y483592D01*
G75*
D01*
G03X1051380Y496002I-5105J9168*
G01*
G75*
D01*
G03X1051596Y497474I-4888J1472*
G01*
X1051596Y541080D01*
X1058985Y548469D01*
G74*
D01*
G03X1060263Y550592I3603J3615*
G01*
G75*
D01*
G03X1060486Y567181I6537J8208*
G01*
X1060486Y567324D01*
G74*
D01*
G03X1058985Y570940I5104J0*
G01*
X1050101Y579824D01*
G75*
D01*
G03X1046490Y581319I-3609J-3610*
G01*
X956172Y581319D01*
X956172Y581319D01*
X896632Y581319D01*
G75*
D01*
G03X893016Y579818I0J-5105*
G01*
X885402Y572204D01*
G74*
D01*
G03X883958Y569314I3610J3610*
G01*
X882777Y569314D01*
G75*
D01*
G03X878486Y565023I0J-4291*
G01*
X878486Y552577D01*
G75*
D01*
G03X882777Y548286I4291J0*
G01*
X895223Y548286D01*
G74*
D01*
G03X898280Y549567I0J4291*
G01*
X904038Y543809D01*
X904038Y497669D01*
G75*
D01*
G03X904372Y495848I5105J-6*
G01*
G75*
D01*
G03X904308Y489887I10028J-3088*
G01*
X894506Y480085D01*
X863606Y480085D01*
G75*
D01*
G03X859991Y478589I-6J-5105*
G01*
X857573Y476172D01*
X849831Y468429D01*
G75*
D01*
G03X848335Y464812I3609J-3609*
G01*
X848335Y314534D01*
X843706Y309905D01*
X741687Y309905D01*
G75*
D01*
G03X738071Y308409I-7J-5105*
G01*
X732991Y303329D01*
G75*
D01*
G03X731495Y299711I3609J-3609*
G01*
X731495Y288568D01*
G75*
D01*
G03X741705Y288568I5105J-9168*
G01*
X741705Y297606D01*
X743794Y299695D01*
X759836Y299695D01*
X758391Y298249D01*
G75*
D01*
G03X756895Y294631I3609J-3609*
G01*
X756895Y288568D01*
G75*
D01*
G03X767105Y288568I5105J-9168*
G01*
X767105Y292526D01*
X769194Y294615D01*
X848360Y294615D01*
G74*
D01*
G03X851975Y296117I0J5105*
G01*
X862123Y306265D01*
G75*
D01*
G03X863625Y309880I-3603J3615*
G01*
X170185Y124435D02*
X434340Y124435D01*
G74*
D01*
G03X437955Y125937I0J5105*
G01*
X443745Y131726D01*
X448183Y131726D01*
G75*
D01*
G03X452474Y136017I0J4291*
G01*
X452474Y148463D01*
G74*
D01*
G03X448183Y152754I4291J0*
G01*
X435737Y152754D01*
G75*
D01*
G03X431446Y148463I0J-4291*
G01*
X431446Y136017D01*
G75*
D01*
G03X431672Y134645I4291J0*
G01*
X172294Y134645D01*
X167265Y139674D01*
X167265Y270524D01*
G75*
D01*
G03X157055Y270524I-5105J9276*
G01*
X157055Y137567D01*
G75*
D01*
G03X158551Y133951I5105J-7*
G01*
X166571Y125931D01*
G75*
D01*
G03X170185Y124435I3609J3609*
G01*
X637515Y1059173D02*
X637515Y888574D01*
X634740Y885799D01*
X527217Y885799D01*
G75*
D01*
G03X528345Y889000I-3977J3201*
G01*
X528345Y893541D01*
G75*
D01*
G03X532341Y911835I-5105J10699*
G01*
X539539Y911835D01*
G75*
D01*
G03X552159Y915560I9101J-7595*
G01*
X550804Y916915D01*
X592246Y916915D01*
X594259Y914902D01*
G75*
D01*
G03X604545Y914939I5181J-10662*
G01*
X604545Y916940D01*
G74*
D01*
G03X603043Y920555I5105J0*
G01*
X601604Y921995D01*
X614680Y921995D01*
G74*
D01*
G03X618295Y923497I0J5105*
G01*
X628443Y933645D01*
G75*
D01*
G03X629945Y937260I-3603J3615*
G01*
X629945Y1045941D01*
G75*
D01*
G03X619735Y1045941I-5105J10699*
G01*
X619735Y939374D01*
X612566Y932205D01*
X596524Y932205D01*
X603043Y938725D01*
G75*
D01*
G03X604545Y942340I-3603J3615*
G01*
X604545Y1045941D01*
G75*
D01*
G03X594335Y1045941I-5105J10699*
G01*
X594335Y944454D01*
X587166Y937285D01*
X512704Y937285D01*
X526843Y951425D01*
G75*
D01*
G03X528345Y955040I-3603J3615*
G01*
X528345Y1045941D01*
G75*
D01*
G03X532341Y1064235I-5105J10699*
G01*
X533826Y1064235D01*
X537465Y1060596D01*
G75*
D01*
G03X544684Y1067815I11175J-3956*
G01*
X539555Y1072943D01*
G74*
D01*
G03X535940Y1074445I3615J3603*
G01*
X518167Y1074445D01*
G75*
D01*
G03X514551Y1072949I-7J-5105*
G01*
X506931Y1065329D01*
G75*
D01*
G03X505435Y1061711I3609J-3609*
G01*
X505435Y952074D01*
X476172Y922811D01*
X475406Y922045D01*
X462286Y922045D01*
G75*
D01*
G03X458671Y920549I-6J-5105*
G01*
X428191Y890069D01*
G75*
D01*
G03X426695Y886452I3609J-3609*
G01*
X426695Y812825D01*
X220987Y812825D01*
G75*
D01*
G03X217371Y811329I-7J-5105*
G01*
X209751Y803709D01*
G75*
D01*
G03X208255Y800091I3609J-3609*
G01*
X208255Y770089D01*
G75*
D01*
G03X218465Y770089I5105J-9529*
G01*
X218465Y797986D01*
X223094Y802615D01*
X239136Y802615D01*
X236172Y799651D01*
X236172Y799651D01*
X235151Y798629D01*
G75*
D01*
G03X233655Y795011I3609J-3609*
G01*
X233655Y770089D01*
G75*
D01*
G03X243865Y770089I5105J-9529*
G01*
X243865Y792906D01*
X248494Y797535D01*
X264536Y797535D01*
X260551Y793549D01*
G75*
D01*
G03X259055Y789931I3609J-3609*
G01*
X259055Y770089D01*
G75*
D01*
G03X269265Y770089I5105J-9529*
G01*
X269265Y787826D01*
X273894Y792455D01*
X289936Y792455D01*
X285951Y788469D01*
G75*
D01*
G03X284455Y784851I3609J-3609*
G01*
X284455Y770089D01*
G75*
D01*
G03X294665Y770089I5105J-9529*
G01*
X294665Y782746D01*
X299294Y787375D01*
X312796Y787375D01*
X311351Y785929D01*
G75*
D01*
G03X309855Y782311I3609J-3609*
G01*
X309855Y770089D01*
G75*
D01*
G03X320065Y770089I5105J-9529*
G01*
X320065Y780206D01*
X322154Y782295D01*
X338196Y782295D01*
X336751Y780849D01*
G75*
D01*
G03X335255Y777231I3609J-3609*
G01*
X335255Y770089D01*
G75*
D01*
G03X345465Y770089I5105J-9529*
G01*
X345465Y775126D01*
X347554Y777215D01*
X363596Y777215D01*
X362151Y775769D01*
G75*
D01*
G03X360655Y772151I3609J-3609*
G01*
X360655Y770089D01*
G75*
D01*
G03X370893Y770074I5105J-9529*
G01*
X372954Y772135D01*
X438399Y772135D01*
G75*
D01*
G03X456873Y770130I8641J-6495*
G01*
X467335Y780592D01*
X467335Y775169D01*
G75*
D01*
G03X477545Y775169I5105J-9529*
G01*
X477545Y780156D01*
X487874Y769827D01*
G75*
D01*
G03X508575Y764366I9966J-4187*
G01*
X510911Y762031D01*
G74*
D01*
G03X512731Y760859I3609J3609*
G01*
G74*
D01*
G03X513674Y760606I1789J4781*
G01*
G75*
D01*
G03X514883Y772496I9566J5034*
G01*
X487705Y799674D01*
X487705Y860350D01*
X644475Y860350D01*
G74*
D01*
G03X648090Y861851I0J5105*
G01*
X661463Y875225D01*
G75*
D01*
G03X662965Y878840I-3603J3615*
G01*
X662965Y895139D01*
G75*
D01*
G03X679140Y896061I7595J9101*
G01*
X685775Y889426D01*
X685775Y835685D01*
X665486Y835685D01*
G75*
D01*
G03X661871Y834189I-6J-5105*
G01*
X651711Y824029D01*
G75*
D01*
G03X650215Y820412I3609J-3609*
G01*
X650215Y762025D01*
X609627Y762025D01*
G75*
D01*
G03X593018Y756945I-10187J3615*
G01*
X581234Y756945D01*
X580896Y757283D01*
G75*
D01*
G03X569006Y756074I-6856J8357*
G01*
G74*
D01*
G03X570431Y753311I5034J846*
G01*
X571876Y751865D01*
X563454Y751865D01*
X556786Y758533D01*
G75*
D01*
G03X545621Y755260I-8146J7107*
G01*
X557731Y743151D01*
G75*
D01*
G03X561345Y741655I3609J3609*
G01*
X657860Y741655D01*
G74*
D01*
G03X661475Y743157I0J5105*
G01*
X669083Y750765D01*
G75*
D01*
G03X670585Y754380I-3603J3615*
G01*
X670585Y756801D01*
G75*
D01*
G03X691067Y763688I10135J3759*
G01*
X693733Y766354D01*
G74*
D01*
G03X694891Y764571I4767J1826*
G01*
X695773Y763688D01*
G75*
D01*
G03X716855Y759286I10347J-3128*
G01*
X719191Y756951D01*
G74*
D01*
G03X721954Y755526I3609J3609*
G01*
G75*
D01*
G03X740161Y767055I9566J5034*
G01*
X748279Y767055D01*
G75*
D01*
G03X760437Y770782I8641J-6495*
G01*
X755455Y775763D01*
G74*
D01*
G03X753518Y776981I3615J3603*
G01*
G75*
D01*
G03X751833Y777265I-1678J-4821*
G01*
X720934Y777265D01*
X713765Y784434D01*
X713765Y803066D01*
X716172Y805473D01*
X724963Y814265D01*
G75*
D01*
G03X726465Y817880I-3603J3615*
G01*
X726465Y845795D01*
X787400Y845795D01*
G74*
D01*
G03X791015Y847297I0J5105*
G01*
X803703Y859985D01*
G75*
D01*
G03X805205Y863600I-3603J3615*
G01*
X805205Y1029126D01*
X807294Y1031215D01*
X911860Y1031215D01*
G74*
D01*
G03X915475Y1032717I0J5105*
G01*
X923083Y1040325D01*
G75*
D01*
G03X924585Y1043940I-3603J3615*
G01*
X924585Y1045941D01*
G74*
D01*
G03X927075Y1047539I5105J10699*
G01*
X927075Y913341D01*
G75*
D01*
G03X919526Y892386I-7595J-9101*
G01*
G75*
D01*
G03X919455Y891531I5034J-846*
G01*
X919455Y765035D01*
G75*
D01*
G03X924168Y750849I-5055J-9555*
G01*
G74*
D01*
G03X925635Y751877I2148J4631*
G01*
X927100Y753341D01*
X928571Y751871D01*
G74*
D01*
G03X930032Y750849I3609J3609*
G01*
G75*
D01*
G03X948441Y761975I9768J4631*
G01*
X956559Y761975D01*
G75*
D01*
G03X968717Y765702I8641J-6495*
G01*
X967364Y767055D01*
X983406Y767055D01*
X985467Y764994D01*
G75*
D01*
G03X996995Y746764I5133J-9514*
G01*
G75*
D01*
G03X998421Y742316I5035J-839*
G01*
X998634Y742102D01*
G74*
D01*
G03X998642Y742094I3614J3606*
G01*
X1000126Y740611D01*
G74*
D01*
G03X1001864Y739471I3609J3609*
G01*
G75*
D01*
G03X1003735Y739115I1871J4749*
G01*
X1064252Y739115D01*
G75*
D01*
G03X1066085Y739453I8J5105*
G01*
G74*
D01*
G03X1067875Y740617I1825J4767*
G01*
X1070403Y743145D01*
G74*
D01*
G03X1071834Y745914I3603J3615*
G01*
G75*
D01*
G03X1057914Y749325I-5034J9566*
G01*
X1050286Y749325D01*
G75*
D01*
G03X1046505Y765009I-8886J6155*
G01*
X1046505Y782320D01*
G74*
D01*
G03X1045003Y785935I5105J0*
G01*
X1039935Y791003D01*
G74*
D01*
G03X1037998Y792221I3615J3603*
G01*
G75*
D01*
G03X1036313Y792505I-1678J-4821*
G01*
X960145Y792505D01*
X960145Y874186D01*
X967314Y881355D01*
X972820Y881355D01*
G74*
D01*
G03X976435Y882857I0J5105*
G01*
X986644Y893065D01*
G75*
D01*
G03X999701Y911835I3956J11175*
G01*
X1006899Y911835D01*
G75*
D01*
G03X1025101Y911835I9101J-7595*
G01*
X1032299Y911835D01*
G75*
D01*
G03X1044919Y915560I9101J-7595*
G01*
X1039935Y920543D01*
G74*
D01*
G03X1036320Y922045I3615J3603*
G01*
X985527Y922045D01*
G75*
D01*
G03X981911Y920549I-7J-5105*
G01*
X974291Y912929D01*
G74*
D01*
G03X973816Y912382I3609J3609*
G01*
G75*
D01*
G03X954811Y898530I-8616J-8142*
G01*
X952525Y896244D01*
X952525Y1029126D01*
X956182Y1032783D01*
X1058208Y1032783D01*
G74*
D01*
G03X1061823Y1034284I0J5105*
G01*
X1070403Y1042865D01*
G74*
D01*
G03X1071875Y1045927I3603J3615*
G01*
G75*
D01*
G03X1060018Y1046917I-5075J10713*
G01*
X1056093Y1042992D01*
X1042591Y1042992D01*
X1044919Y1045320D01*
G75*
D01*
G03X1032299Y1049045I-3519J11320*
G01*
X1025101Y1049045D01*
G75*
D01*
G03X1006899Y1049045I-9101J7595*
G01*
X999701Y1049045D01*
G75*
D01*
G03X994119Y1067960I-9101J7595*
G01*
X989135Y1072943D01*
G74*
D01*
G03X985520Y1074445I3615J3603*
G01*
X940244Y1074445D01*
G75*
D01*
G03X936626Y1072949I-8J-5105*
G01*
X928571Y1064894D01*
G74*
D01*
G03X928282Y1064580I3609J3610*
G01*
G75*
D01*
G03X914299Y1045978I-8802J-7940*
G01*
X909746Y1041425D01*
X896244Y1041425D01*
X897683Y1042865D01*
G74*
D01*
G03X899155Y1045927I3603J3615*
G01*
G75*
D01*
G03X887298Y1046917I-5075J10713*
G01*
X886886Y1046505D01*
X874828Y1046505D01*
G75*
D01*
G03X862532Y1046505I-6148J10135*
G01*
X849428Y1046505D01*
G75*
D01*
G03X846799Y1067960I-6148J10135*
G01*
X841815Y1072943D01*
G74*
D01*
G03X838200Y1074445I3615J3603*
G01*
X795026Y1074445D01*
G75*
D01*
G03X791411Y1072949I-6J-5105*
G01*
X781883Y1063422D01*
G75*
D01*
G03X761771Y1050930I-9723J-6782*
G01*
X752266Y1041425D01*
X743844Y1041425D01*
X747213Y1044794D01*
G75*
D01*
G03X737377Y1049396I-453J11846*
G01*
X734486Y1046505D01*
X727508Y1046505D01*
G75*
D01*
G03X715212Y1046505I-6148J10135*
G01*
X702108Y1046505D01*
G75*
D01*
G03X696413Y1068486I-6148J10135*
G01*
X692482Y1072417D01*
G74*
D01*
G03X688866Y1073919I3616J3603*
G01*
X652259Y1073919D01*
G75*
D01*
G03X648645Y1072423I-5J-5105*
G01*
X639011Y1062789D01*
G75*
D01*
G03X637515Y1059173I3609J-3609*
G01*
X243905Y955108D02*
G75*
D01*
G03X246108Y952905I2203J0*
G01*
X249594Y952905D01*
X249594Y959193D01*
G75*
D01*
G03X255846Y959193I3126J2527*
G01*
X255846Y952905D01*
X259332Y952905D01*
G75*
D01*
G03X261535Y955108I0J2203*
G01*
X261535Y961594D01*
X256737Y961594D01*
G75*
D01*
G03X256739Y961720I-4017J126*
G01*
X256739Y967720D01*
G74*
D01*
G03X256737Y967846I4019J0*
G01*
X261535Y967846D01*
X261535Y974332D01*
G74*
D01*
G03X259332Y976535I2203J0*
G01*
X255846Y976535D01*
X255846Y970247D01*
G75*
D01*
G03X249594Y970247I-3126J-2527*
G01*
X249594Y976535D01*
X246108Y976535D01*
G75*
D01*
G03X243905Y974332I0J-2203*
G01*
X243905Y967846D01*
X248703Y967846D01*
G74*
D01*
G03X248701Y967720I4017J126*
G01*
X248701Y961720D01*
G75*
D01*
G03X248703Y961594I4019J0*
G01*
X243905Y961594D01*
X243905Y955108D01*
X476172Y349903D02*
G75*
D01*
G03X476172Y349903I-8812J5697*
G01*
X476172Y406753D02*
G75*
D01*
G03X476172Y406753I-3732J9807*
G01*
X278732Y876920D02*
G75*
D01*
G03X282560Y873092I3828J0*
G01*
X296560Y873092D01*
G75*
D01*
G03X300388Y876920I0J3828*
G01*
X300388Y890920D01*
G74*
D01*
G03X296560Y894748I3828J0*
G01*
X282560Y894748D01*
G75*
D01*
G03X280435Y894105I0J-3828*
G01*
X228669Y894105D01*
G74*
D01*
G03X225940Y895248I2729J2685*
G01*
X210940Y895248D01*
G75*
D01*
G03X207112Y891420I0J-3828*
G01*
X207112Y876420D01*
G75*
D01*
G03X210940Y872592I3828J0*
G01*
X213335Y872592D01*
X213335Y863174D01*
X211246Y861085D01*
X111760Y861085D01*
G75*
D01*
G03X111015Y861030I0J-5105*
G01*
G74*
D01*
G03X108151Y859589I745J5050*
G01*
X103071Y854509D01*
G75*
D01*
G03X101575Y850887I3609J-3609*
G01*
X101575Y812937D01*
G75*
D01*
G03X95789Y798968I5105J-10297*
G01*
X90371Y793549D01*
G75*
D01*
G03X88875Y789929I3609J-3609*
G01*
X88875Y662948D01*
G75*
D01*
G03X90371Y659331I5105J-8*
G01*
X95789Y653912D01*
G75*
D01*
G03X103008Y661131I10891J-3672*
G01*
X99085Y665054D01*
X99085Y740329D01*
X102598Y740329D01*
X102598Y747573D01*
G75*
D01*
G03X110762Y747573I4082J4267*
G01*
X110762Y740329D01*
X114363Y740329D01*
G75*
D01*
G03X118191Y744157I0J3828*
G01*
X118191Y747758D01*
X110947Y747758D01*
G75*
D01*
G03X110947Y755922I-4267J4082*
G01*
X118191Y755922D01*
X118191Y759523D01*
G74*
D01*
G03X114363Y763351I3828J0*
G01*
X110762Y763351D01*
X110762Y756107D01*
G75*
D01*
G03X102598Y756107I-4082J-4267*
G01*
X102598Y763351D01*
X99085Y763351D01*
X99085Y768615D01*
G75*
D01*
G03X99085Y785865I7595J8625*
G01*
X99085Y787826D01*
X103008Y791749D01*
G75*
D01*
G03X111785Y812937I3672J10891*
G01*
X111785Y848786D01*
X113874Y850875D01*
X213353Y850875D01*
G75*
D01*
G03X215038Y851159I7J5105*
G01*
G74*
D01*
G03X216975Y852377I1678J4821*
G01*
X222043Y857445D01*
G75*
D01*
G03X223545Y861060I-3603J3615*
G01*
X223545Y872592D01*
X225940Y872592D01*
G75*
D01*
G03X229768Y876420I0J3828*
G01*
X229768Y883895D01*
X278732Y883895D01*
X278732Y876920D01*
X236172Y406391D02*
G75*
D01*
G03X236172Y406391I2588J10169*
G01*
X716172Y364840D02*
G75*
D01*
G03X716172Y364840I-4972J-9240*
G01*
X716172Y419571D02*
G75*
D01*
G03X716172Y419571I-10052J-3011*
G01*
X714815Y476457D02*
X722423Y484065D01*
G74*
D01*
G03X723597Y485881I3603J3615*
G01*
G75*
D01*
G03X739115Y485520I7923J6879*
G01*
X739115Y423800D01*
G75*
D01*
G03X739115Y409320I-7595J-7240*
G01*
X739115Y408952D01*
G75*
D01*
G03X740611Y405331I5105J-12*
G01*
X758165Y387776D01*
X758165Y365367D01*
G75*
D01*
G03X768375Y363935I3835J-9767*
G01*
X768375Y367406D01*
X777308Y358473D01*
G75*
D01*
G03X784527Y365692I10092J-2873*
G01*
X773455Y376764D01*
X773455Y410947D01*
G75*
D01*
G03X773455Y422173I8865J5613*
G01*
X773455Y428416D01*
X811323Y466285D01*
G75*
D01*
G03X812825Y469900I-3603J3615*
G01*
X812825Y483592D01*
G75*
D01*
G03X817318Y497000I-5105J9168*
G01*
G75*
D01*
G03X817592Y498651I-4830J1651*
G01*
X817592Y542256D01*
X824981Y549645D01*
G74*
D01*
G03X825999Y551093I3603J3616*
G01*
G74*
D01*
G03X829399Y548989I7121J7707*
G01*
X829399Y555079D01*
X826482Y555079D01*
X826482Y562521D01*
X829399Y562521D01*
X829399Y568611D01*
G74*
D01*
G03X826482Y566927I3721J9811*
G01*
X826482Y568501D01*
G74*
D01*
G03X824981Y572116I5104J0*
G01*
X816103Y580994D01*
G74*
D01*
G03X812733Y582489I3615J3603*
G01*
G75*
D01*
G03X812486Y582495I-245J-5098*
G01*
X662628Y582495D01*
G75*
D01*
G03X661597Y582390I0J-5104*
G01*
G74*
D01*
G03X659018Y581000I1031J5000*
G01*
X651398Y573380D01*
G75*
D01*
G03X649903Y569758I3610J-3610*
G01*
X649903Y569314D01*
X649097Y569314D01*
G75*
D01*
G03X644806Y565023I0J-4291*
G01*
X644806Y552577D01*
G75*
D01*
G03X649097Y548286I4291J0*
G01*
X661543Y548286D01*
G74*
D01*
G03X664993Y550026I0J4291*
G01*
X670223Y544796D01*
X670223Y498660D01*
G75*
D01*
G03X670824Y496248I5105J-10*
G01*
G75*
D01*
G03X683593Y482668I9896J-3488*
G01*
X689811Y476451D01*
G74*
D01*
G03X691944Y475174I3609J3609*
G01*
G75*
D01*
G03X693420Y474955I1476J4886*
G01*
X711193Y474955D01*
G75*
D01*
G03X712707Y475183I7J5105*
G01*
G74*
D01*
G03X714815Y476457I1507J4877*
G01*
X463044Y488089D02*
G75*
D01*
G03X464002Y498997I9396J4671*
G01*
X452451Y510547D01*
X452451Y549810D01*
G75*
D01*
G03X453796Y566829I-5411J8990*
G01*
X465684Y566829D01*
G75*
D01*
G03X479196Y566829I6756J-8029*
G01*
X491084Y566829D01*
G75*
D01*
G03X504596Y566829I6756J-8029*
G01*
X516484Y566829D01*
G75*
D01*
G03X529996Y566829I6756J-8029*
G01*
X541752Y566829D01*
X541813Y566768D01*
G75*
D01*
G03X553953Y567849I6827J-7968*
G01*
G74*
D01*
G03X552550Y570469I5007J996*
G01*
X551110Y571909D01*
X577312Y571909D01*
X583212Y566009D01*
X583212Y563897D01*
G75*
D01*
G03X569242Y549468I-9172J-5097*
G01*
X569242Y510547D01*
X557332Y498638D01*
G75*
D01*
G03X558036Y488089I-8692J-5878*
G01*
X559106Y488089D01*
G74*
D01*
G03X562722Y489590I0J5104*
G01*
X563765Y490633D01*
G74*
D01*
G03X568935Y483592I10275J2127*
G01*
X568935Y440175D01*
G75*
D01*
G03X570431Y436554I5105J-11*
G01*
X581334Y425651D01*
G74*
D01*
G03X583523Y424357I3610J3609*
G01*
G75*
D01*
G03X584944Y424155I1421J4903*
G01*
X592200Y424155D01*
G75*
D01*
G03X606680Y424155I7240J-7595*
G01*
X648080Y424155D01*
G75*
D01*
G03X662915Y409320I7240J-7595*
G01*
X662915Y365787D01*
G75*
D01*
G03X670893Y355668I-2515J-10187*
G01*
X674571Y351991D01*
G74*
D01*
G03X676475Y350789I3609J3609*
G01*
G75*
D01*
G03X678183Y362816I9325J4811*
G01*
X673125Y367874D01*
X673125Y409320D01*
G75*
D01*
G03X672797Y423439I7595J7240*
G01*
G74*
D01*
G03X671623Y425255I4777J1799*
G01*
X664015Y432863D01*
G74*
D01*
G03X660400Y434365I3615J3603*
G01*
X587058Y434365D01*
X579145Y442278D01*
X579145Y483592D01*
G75*
D01*
G03X584011Y496028I-5105J9168*
G01*
G75*
D01*
G03X584531Y498273I-4585J2245*
G01*
X584531Y541879D01*
X591922Y549269D01*
G74*
D01*
G03X592885Y550606I3606J3614*
G01*
G74*
D01*
G03X595719Y548989I6555J8194*
G01*
X595719Y555079D01*
X593421Y555079D01*
X593421Y562521D01*
X595719Y562521D01*
X595719Y568611D01*
G74*
D01*
G03X593421Y567395I3721J9811*
G01*
X593421Y568123D01*
G74*
D01*
G03X591920Y571739I5105J0*
G01*
X583036Y580623D01*
G75*
D01*
G03X579419Y582118I-3610J-3610*
G01*
X476172Y582118D01*
X476172Y582118D01*
X429571Y582118D01*
G75*
D01*
G03X427990Y581868I-5J-5105*
G01*
G74*
D01*
G03X425953Y580618I1576J4855*
G01*
X418337Y573003D01*
G75*
D01*
G03X416842Y569381I3609J-3610*
G01*
X416842Y569314D01*
X415417Y569314D01*
G75*
D01*
G03X411126Y565023I0J-4291*
G01*
X411126Y552577D01*
G75*
D01*
G03X415417Y548286I4291J0*
G01*
X427863Y548286D01*
G74*
D01*
G03X431413Y550167I0J4291*
G01*
X437162Y544419D01*
X437162Y498282D01*
G75*
D01*
G03X437369Y496832I5104J-9*
G01*
G75*
D01*
G03X457409Y491152I9671J-4072*
G01*
X458977Y489584D01*
G74*
D01*
G03X460935Y488363I3609J3609*
G01*
G75*
D01*
G03X462586Y488089I1651J4830*
G01*
X463044Y488089D01*
X500713Y482668D02*
X507209Y476172D01*
X532105Y451276D01*
X532105Y422173D01*
G75*
D01*
G03X532105Y410947I-8865J-5613*
G01*
X532105Y397518D01*
G75*
D01*
G03X533601Y393901I5105J-8*
G01*
X551155Y376346D01*
X551155Y362840D01*
G75*
D01*
G03X551155Y348360I-7595J-7240*
G01*
X551155Y332748D01*
G75*
D01*
G03X552651Y329131I5105J-8*
G01*
X557733Y324048D01*
G75*
D01*
G03X573600Y317475I8687J-1468*
G01*
X800095Y317475D01*
G75*
D01*
G03X801174Y317590I5J5105*
G01*
G74*
D01*
G03X803715Y318977I1074J4990*
G01*
X816403Y331665D01*
G75*
D01*
G03X817905Y335280I-3603J3615*
G01*
X817905Y346432D01*
G75*
D01*
G03X807695Y346432I-5105J9168*
G01*
X807695Y337394D01*
X797986Y327685D01*
X736224Y327685D01*
X740203Y331665D01*
G75*
D01*
G03X741705Y335280I-3603J3615*
G01*
X741705Y346432D01*
G75*
D01*
G03X731495Y346432I-5105J9168*
G01*
X731495Y337394D01*
X726866Y332765D01*
X576154Y332765D01*
X574065Y334854D01*
X574065Y346432D01*
G75*
D01*
G03X561365Y362840I-5105J9168*
G01*
X561365Y378460D01*
G74*
D01*
G03X560702Y380975I5105J0*
G01*
X587166Y380975D01*
X589255Y378886D01*
X589255Y364768D01*
G75*
D01*
G03X599465Y364768I5105J-9168*
G01*
X599465Y381000D01*
G74*
D01*
G03X597963Y384615I5105J0*
G01*
X592895Y389683D01*
G74*
D01*
G03X589280Y391185I3615J3603*
G01*
X557939Y391185D01*
X553745Y395379D01*
X553745Y407392D01*
G75*
D01*
G03X542315Y424932I-5105J9168*
G01*
X542315Y453390D01*
G74*
D01*
G03X540813Y457005I5105J0*
G01*
X521647Y476172D01*
X521647Y476172D01*
X507932Y489887D01*
G75*
D01*
G03X500713Y482668I-10092J2873*
G01*
X112135Y269212D02*
X112135Y219208D01*
X104760Y219208D01*
G75*
D01*
G03X100932Y215380I0J-3828*
G01*
X100932Y201380D01*
G75*
D01*
G03X104760Y197552I3828J0*
G01*
X118760Y197552D01*
G75*
D01*
G03X122588Y201380I0J3828*
G01*
X122588Y215380D01*
G74*
D01*
G03X122345Y216725I3828J0*
G01*
X122345Y274720D01*
G74*
D01*
G03X122122Y276212I5105J0*
G01*
G75*
D01*
G03X112135Y269212I-9962J3588*
G01*
X63228Y952905D02*
X66714Y952905D01*
X66714Y959193D01*
G75*
D01*
G03X72966Y959193I3126J2527*
G01*
X72966Y952905D01*
X76452Y952905D01*
G75*
D01*
G03X78655Y955108I0J2203*
G01*
X78655Y961594D01*
X73857Y961594D01*
G75*
D01*
G03X73859Y961720I-4017J126*
G01*
X73859Y967720D01*
G74*
D01*
G03X73857Y967846I4019J0*
G01*
X78655Y967846D01*
X78655Y974332D01*
G74*
D01*
G03X76452Y976535I2203J0*
G01*
X72966Y976535D01*
X72966Y970247D01*
G75*
D01*
G03X66714Y970247I-3126J-2527*
G01*
X66714Y976535D01*
X63228Y976535D01*
G75*
D01*
G03X61025Y974332I0J-2203*
G01*
X61025Y967846D01*
X65823Y967846D01*
G74*
D01*
G03X65821Y967720I4017J126*
G01*
X65821Y961720D01*
G75*
D01*
G03X65823Y961594I4019J0*
G01*
X61025Y961594D01*
X61025Y955108D01*
G75*
D01*
G03X63228Y952905I2203J0*
G01*
X231660Y659732D02*
X238635Y659732D01*
X238635Y645492D01*
G75*
D01*
G03X248604Y638632I125J-10492*
G01*
G75*
D01*
G03X248845Y640180I-4864J1548*
G01*
X248845Y661435D01*
G75*
D01*
G03X249488Y663560I-3185J2125*
G01*
X249488Y677560D01*
G74*
D01*
G03X245660Y681388I3828J0*
G01*
X231660Y681388D01*
G75*
D01*
G03X227832Y677560I0J-3828*
G01*
X227832Y663560D01*
G75*
D01*
G03X231660Y659732I3828J0*
G01*
X965075Y645492D02*
G75*
D01*
G03X975044Y638632I125J-10492*
G01*
G75*
D01*
G03X975285Y640180I-4864J1548*
G01*
X975285Y656355D01*
G75*
D01*
G03X975928Y658480I-3185J2125*
G01*
X975928Y672480D01*
G74*
D01*
G03X972100Y676308I3828J0*
G01*
X958100Y676308D01*
G75*
D01*
G03X954272Y672480I0J-3828*
G01*
X954272Y658480D01*
G75*
D01*
G03X958100Y654652I3828J0*
G01*
X965075Y654652D01*
X965075Y645492D01*
X705995Y645492D02*
G75*
D01*
G03X715964Y638632I125J-10492*
G01*
G75*
D01*
G03X716205Y640180I-4864J1548*
G01*
X716205Y661435D01*
G75*
D01*
G03X716848Y663560I-3185J2125*
G01*
X716848Y677560D01*
G74*
D01*
G03X713020Y681388I3828J0*
G01*
X699020Y681388D01*
G75*
D01*
G03X695192Y677560I0J-3828*
G01*
X695192Y663560D01*
G75*
D01*
G03X699020Y659732I3828J0*
G01*
X705995Y659732D01*
X705995Y645492D01*
X472315Y645492D02*
G75*
D01*
G03X482284Y638632I125J-10492*
G01*
G75*
D01*
G03X482525Y640180I-4864J1548*
G01*
X482525Y666515D01*
G75*
D01*
G03X483168Y668640I-3185J2125*
G01*
X483168Y682640D01*
G74*
D01*
G03X479340Y686468I3828J0*
G01*
X465340Y686468D01*
G75*
D01*
G03X461512Y682640I0J-3828*
G01*
X461512Y668640D01*
G75*
D01*
G03X465340Y664812I3828J0*
G01*
X472315Y664812D01*
X472315Y645492D01*
X598081Y289211D02*
X598081Y283121D01*
X604171Y283121D01*
G74*
D01*
G03X598081Y289211I9811J3721*
G01*
X590639Y269589D02*
X590639Y275679D01*
X584549Y275679D01*
G74*
D01*
G03X590639Y269589I9811J3721*
G01*
X604171Y275679D02*
X598081Y275679D01*
X598081Y269589D01*
G74*
D01*
G03X604171Y275679I3721J9811*
G01*
X589915Y279400D02*
G75*
D01*
G03X589915Y279400I4445J0*
G01*
X584549Y283121D02*
X590639Y283121D01*
X590639Y289211D01*
G74*
D01*
G03X584549Y283121I3721J9811*
G01*
X558467Y279400D02*
G75*
D01*
G03X558467Y279400I10493J0*
G01*
X533067Y279400D02*
G75*
D01*
G03X533067Y279400I10493J0*
G01*
X507667Y279400D02*
G75*
D01*
G03X507667Y279400I10493J0*
G01*
X482267Y279400D02*
G75*
D01*
G03X482267Y279400I10493J0*
G01*
X211618Y212717D02*
X207181Y208280D01*
X211618Y203843D01*
G75*
D01*
G03X211618Y212717I-9858J4437*
G01*
X206197Y198422D02*
X201760Y202859D01*
X197323Y198422D01*
G75*
D01*
G03X206197Y198422I4437J9858*
G01*
X197323Y218138D02*
X201760Y213701D01*
X206197Y218138D01*
G75*
D01*
G03X197323Y218138I-4437J-9858*
G01*
X197760Y208280D02*
G75*
D01*
G03X197760Y208280I4000J0*
G01*
X191902Y212717D02*
G75*
D01*
G03X191902Y203843I9858J-4437*
G01*
X196339Y208280D01*
X191902Y212717D01*
X612986Y904240D02*
G75*
D01*
G03X612986Y904240I11854J0*
G01*
X562186Y904240D02*
G75*
D01*
G03X562186Y904240I11854J0*
G01*
X512747Y492760D02*
G75*
D01*
G03X512747Y492760I10493J0*
G01*
X431467Y355600D02*
G75*
D01*
G03X431467Y355600I10493J0*
G01*
X411147Y416560D02*
G75*
D01*
G03X411147Y416560I10493J0*
G01*
X436547Y416560D02*
G75*
D01*
G03X436547Y416560I10493J0*
G01*
X1086980Y197195D02*
X1093125Y197195D01*
X1093125Y203340D01*
G74*
D01*
G03X1086980Y197195I3755J9900*
G01*
X1091880Y193440D02*
G75*
D01*
G03X1091880Y193440I5000J0*
G01*
X1093125Y183540D02*
X1093125Y189685D01*
X1086980Y189685D01*
G74*
D01*
G03X1093125Y183540I9900J3755*
G01*
X1100635Y203340D02*
X1100635Y197195D01*
X1106780Y197195D01*
G74*
D01*
G03X1100635Y203340I9900J3755*
G01*
X1106780Y189685D02*
X1100635Y189685D01*
X1100635Y183540D01*
G74*
D01*
G03X1106780Y189685I3755J9900*
G01*
X791121Y228251D02*
X791121Y222161D01*
X797211Y222161D01*
G74*
D01*
G03X791121Y228251I9811J3721*
G01*
X808355Y142240D02*
G75*
D01*
G03X808355Y142240I4445J0*
G01*
X757555Y142240D02*
G75*
D01*
G03X757555Y142240I4445J0*
G01*
X732155Y142240D02*
G75*
D01*
G03X732155Y142240I4445J0*
G01*
X726789Y145961D02*
X732879Y145961D01*
X732879Y152051D01*
G74*
D01*
G03X726789Y145961I3721J9811*
G01*
X740321Y152051D02*
X740321Y145961D01*
X746411Y145961D01*
G74*
D01*
G03X740321Y152051I9811J3721*
G01*
X752189Y145961D02*
X758279Y145961D01*
X758279Y152051D01*
G74*
D01*
G03X752189Y145961I3721J9811*
G01*
X765721Y152051D02*
X765721Y145961D01*
X771811Y145961D01*
G74*
D01*
G03X765721Y152051I9811J3721*
G01*
X816521Y152051D02*
X816521Y145961D01*
X822611Y145961D01*
G74*
D01*
G03X816521Y152051I9811J3721*
G01*
X802989Y145961D02*
X809079Y145961D01*
X809079Y152051D01*
G74*
D01*
G03X802989Y145961I3721J9811*
G01*
X894870Y193040D02*
G75*
D01*
G03X894870Y193040I10810J0*
G01*
X726107Y218440D02*
G75*
D01*
G03X726107Y218440I10493J0*
G01*
X757555Y218440D02*
G75*
D01*
G03X757555Y218440I4445J0*
G01*
X758279Y208629D02*
X758279Y214719D01*
X752189Y214719D01*
G74*
D01*
G03X758279Y208629I9811J3721*
G01*
X783679Y208629D02*
X783679Y214719D01*
X777589Y214719D01*
G74*
D01*
G03X783679Y208629I9811J3721*
G01*
X771811Y214719D02*
X765721Y214719D01*
X765721Y208629D01*
G74*
D01*
G03X771811Y214719I3721J9811*
G01*
X782955Y218440D02*
G75*
D01*
G03X782955Y218440I4445J0*
G01*
X797211Y214719D02*
X791121Y214719D01*
X791121Y208629D01*
G74*
D01*
G03X797211Y214719I3721J9811*
G01*
X802307Y218440D02*
G75*
D01*
G03X802307Y218440I10493J0*
G01*
X752189Y222161D02*
X758279Y222161D01*
X758279Y228251D01*
G74*
D01*
G03X752189Y222161I3721J9811*
G01*
X777589Y222161D02*
X783679Y222161D01*
X783679Y228251D01*
G74*
D01*
G03X777589Y222161I3721J9811*
G01*
X765721Y228251D02*
X765721Y222161D01*
X771811Y222161D01*
G74*
D01*
G03X765721Y228251I9811J3721*
G01*
X563547Y416560D02*
G75*
D01*
G03X563547Y416560I10493J0*
G01*
X287905Y941332D02*
X287905Y928108D01*
G75*
D01*
G03X290108Y925905I2203J0*
G01*
X309332Y925905D01*
G75*
D01*
G03X311535Y928108I0J2203*
G01*
X311535Y941332D01*
G74*
D01*
G03X309332Y943535I2203J0*
G01*
X290108Y943535D01*
G75*
D01*
G03X287905Y941332I0J-2203*
G01*
X370172Y890920D02*
X370172Y876920D01*
G75*
D01*
G03X374000Y873092I3828J0*
G01*
X388000Y873092D01*
G75*
D01*
G03X391828Y876920I0J3828*
G01*
X391828Y890920D01*
G74*
D01*
G03X388000Y894748I3828J0*
G01*
X374000Y894748D01*
G75*
D01*
G03X370172Y890920I0J-3828*
G01*
X376563Y868778D02*
X381000Y864341D01*
X385437Y868778D01*
G75*
D01*
G03X376563Y868778I-4437J-9858*
G01*
X285123Y868778D02*
X289560Y864341D01*
X293997Y868778D01*
G75*
D01*
G03X285123Y868778I-4437J-9858*
G01*
X390858Y863357D02*
X386421Y858920D01*
X390858Y854483D01*
G75*
D01*
G03X390858Y863357I-9858J4437*
G01*
X377000Y858920D02*
G75*
D01*
G03X377000Y858920I4000J0*
G01*
X385437Y849062D02*
X381000Y853499D01*
X376563Y849062D01*
G75*
D01*
G03X385437Y849062I4437J9858*
G01*
X371142Y863357D02*
G75*
D01*
G03X371142Y854483I9858J-4437*
G01*
X375579Y858920D01*
X371142Y863357D01*
X293997Y849062D02*
X289560Y853499D01*
X285123Y849062D01*
G75*
D01*
G03X293997Y849062I4437J9858*
G01*
X285560Y858920D02*
G75*
D01*
G03X285560Y858920I4000J0*
G01*
X299418Y863357D02*
X294981Y858920D01*
X299418Y854483D01*
G75*
D01*
G03X299418Y863357I-9858J4437*
G01*
X279702Y863357D02*
G75*
D01*
G03X279702Y854483I9858J-4437*
G01*
X284139Y858920D01*
X279702Y863357D01*
X243812Y329800D02*
G75*
D01*
G03X243812Y329800I10588J0*
G01*
X293812Y329800D02*
G75*
D01*
G03X293812Y329800I10588J0*
G01*
X253667Y416560D02*
G75*
D01*
G03X253667Y416560I10493J0*
G01*
X279067Y416560D02*
G75*
D01*
G03X279067Y416560I10493J0*
G01*
X304467Y416560D02*
G75*
D01*
G03X304467Y416560I10493J0*
G01*
X329867Y416560D02*
G75*
D01*
G03X329867Y416560I10493J0*
G01*
X355267Y416560D02*
G75*
D01*
G03X355267Y416560I10493J0*
G01*
X487347Y416560D02*
G75*
D01*
G03X487347Y416560I10493J0*
G01*
X507667Y355600D02*
G75*
D01*
G03X507667Y355600I10493J0*
G01*
X797227Y416560D02*
G75*
D01*
G03X797227Y416560I10493J0*
G01*
X929307Y416560D02*
G75*
D01*
G03X929307Y416560I10493J0*
G01*
X903907Y416560D02*
G75*
D01*
G03X903907Y416560I10493J0*
G01*
X878507Y416560D02*
G75*
D01*
G03X878507Y416560I10493J0*
G01*
X822627Y416560D02*
G75*
D01*
G03X822627Y416560I10493J0*
G01*
X893747Y386080D02*
G75*
D01*
G03X893747Y386080I10493J0*
G01*
X910463Y299366D02*
G75*
D01*
G03X914754Y303657I0J4291*
G01*
X914754Y306152D01*
X907968Y306152D01*
X907968Y299366D01*
X910463Y299366D01*
X898017Y299366D02*
X900512Y299366D01*
X900512Y306152D01*
X893726Y306152D01*
X893726Y303657D01*
G75*
D01*
G03X898017Y299366I4291J0*
G01*
X898017Y320394D02*
G75*
D01*
G03X893726Y316103I0J-4291*
G01*
X893726Y313608D01*
X900512Y313608D01*
X900512Y320394D01*
X898017Y320394D01*
X899795Y309880D02*
G75*
D01*
G03X899795Y309880I4445J0*
G01*
X914754Y316103D02*
G74*
D01*
G03X910463Y320394I4291J0*
G01*
X907968Y320394D01*
X907968Y313608D01*
X914754Y313608D01*
X914754Y316103D01*
X919147Y309880D02*
G75*
D01*
G03X919147Y309880I10493J0*
G01*
X816521Y289211D02*
X816521Y283121D01*
X822611Y283121D01*
G74*
D01*
G03X816521Y289211I9811J3721*
G01*
X809079Y269589D02*
X809079Y275679D01*
X802989Y275679D01*
G74*
D01*
G03X809079Y269589I9811J3721*
G01*
X822611Y275679D02*
X816521Y275679D01*
X816521Y269589D01*
G74*
D01*
G03X822611Y275679I3721J9811*
G01*
X808355Y279400D02*
G75*
D01*
G03X808355Y279400I4445J0*
G01*
X802989Y283121D02*
X809079Y283121D01*
X809079Y289211D01*
G74*
D01*
G03X802989Y283121I3721J9811*
G01*
X51690Y80500D02*
G75*
D01*
G03X51690Y80500I28810J0*
G01*
X1090690Y80500D02*
G75*
D01*
G03X1090690Y80500I28810J0*
G01*
X51690Y1119500D02*
G75*
D01*
G03X51690Y1119500I28810J0*
G01*
X111313Y991594D02*
X105025Y991594D01*
X105025Y988108D01*
G75*
D01*
G03X107228Y985905I2203J0*
G01*
X113714Y985905D01*
X113714Y990703D01*
G75*
D01*
G03X113840Y990701I126J4017*
G01*
X119840Y990701D01*
G74*
D01*
G03X119966Y990703I0J4019*
G01*
X119966Y985905D01*
X126452Y985905D01*
G75*
D01*
G03X128655Y988108I0J2203*
G01*
X128655Y991594D01*
X122367Y991594D01*
G75*
D01*
G03X122367Y997846I-2527J3126*
G01*
X128655Y997846D01*
X128655Y1001332D01*
G74*
D01*
G03X126452Y1003535I2203J0*
G01*
X119966Y1003535D01*
X119966Y998737D01*
G74*
D01*
G03X119840Y998739I126J4017*
G01*
X113840Y998739D01*
G75*
D01*
G03X113714Y998737I0J-4019*
G01*
X113714Y1003535D01*
X107228Y1003535D01*
G75*
D01*
G03X105025Y1001332I0J-2203*
G01*
X105025Y997846D01*
X111313Y997846D01*
G75*
D01*
G03X111313Y991594I2527J-3126*
G01*
X107228Y925905D02*
X118436Y925905D01*
X119355Y924986D01*
X119355Y894947D01*
G75*
D01*
G03X127586Y887447I-2515J-11027*
G01*
X128063Y887925D01*
G75*
D01*
G03X129565Y891540I-3603J3615*
G01*
X129565Y927100D01*
G74*
D01*
G03X128655Y930008I5105J0*
G01*
X128655Y941332D01*
G74*
D01*
G03X126452Y943535I2203J0*
G01*
X107228Y943535D01*
G75*
D01*
G03X105025Y941332I0J-2203*
G01*
X105025Y928108D01*
G75*
D01*
G03X107228Y925905I2203J0*
G01*
X682079Y208629D02*
X682079Y214719D01*
X675989Y214719D01*
G74*
D01*
G03X682079Y208629I9811J3721*
G01*
X681355Y218440D02*
G75*
D01*
G03X681355Y218440I4445J0*
G01*
X706755Y218440D02*
G75*
D01*
G03X706755Y218440I4445J0*
G01*
X482267Y142240D02*
G75*
D01*
G03X482267Y142240I10493J0*
G01*
X546276Y152375D02*
X566244Y152375D01*
G75*
D01*
G03X571676Y152375I2716J-10135*
G01*
X591644Y152375D01*
G75*
D01*
G03X597076Y152375I2716J-10135*
G01*
X652416Y152375D01*
G74*
D01*
G03X649886Y148463I1761J3912*
G01*
X649886Y136017D01*
G75*
D01*
G03X654177Y131726I4291J0*
G01*
X666623Y131726D01*
G75*
D01*
G03X670914Y136017I0J4291*
G01*
X670914Y148463D01*
G74*
D01*
G03X666623Y152754I4291J0*
G01*
X665492Y152754D01*
G74*
D01*
G03X664003Y156015I5092J354*
G01*
X658935Y161083D01*
G74*
D01*
G03X655320Y162585I3615J3603*
G01*
X499954Y162585D01*
X497865Y164674D01*
X497865Y209272D01*
G75*
D01*
G03X487655Y209272I-5105J9168*
G01*
X487655Y162569D01*
G75*
D01*
G03X489151Y158951I5105J-9*
G01*
X494231Y153871D01*
G75*
D01*
G03X497847Y152375I3609J3609*
G01*
X515444Y152375D01*
G75*
D01*
G03X520876Y152375I2716J-10135*
G01*
X540844Y152375D01*
G75*
D01*
G03X546276Y152375I2716J-10135*
G01*
X513715Y218440D02*
G75*
D01*
G03X513715Y218440I4445J0*
G01*
X514439Y208629D02*
X514439Y214719D01*
X508349Y214719D01*
G74*
D01*
G03X514439Y208629I9811J3721*
G01*
X533067Y218440D02*
G75*
D01*
G03X533067Y218440I10493J0*
G01*
X527971Y214719D02*
X521881Y214719D01*
X521881Y208629D01*
G74*
D01*
G03X527971Y214719I3721J9811*
G01*
X558467Y218440D02*
G75*
D01*
G03X558467Y218440I10493J0*
G01*
X583867Y218440D02*
G75*
D01*
G03X583867Y218440I10493J0*
G01*
X649907Y218440D02*
G75*
D01*
G03X649907Y218440I10493J0*
G01*
X508349Y222161D02*
X514439Y222161D01*
X514439Y228251D01*
G74*
D01*
G03X508349Y222161I3721J9811*
G01*
X521881Y228251D02*
X521881Y222161D01*
X527971Y222161D01*
G74*
D01*
G03X521881Y228251I9811J3721*
G01*
X675989Y222161D02*
X682079Y222161D01*
X682079Y228251D01*
G74*
D01*
G03X675989Y222161I3721J9811*
G01*
X101572Y329800D02*
G75*
D01*
G03X101572Y329800I10588J0*
G01*
X151572Y329800D02*
G75*
D01*
G03X151572Y329800I10588J0*
G01*
X177467Y416560D02*
G75*
D01*
G03X177467Y416560I10493J0*
G01*
X202867Y416560D02*
G75*
D01*
G03X202867Y416560I10493J0*
G01*
X178149Y496481D02*
X184239Y496481D01*
X184239Y502571D01*
G74*
D01*
G03X178149Y496481I3721J9811*
G01*
X184239Y482949D02*
X184239Y489039D01*
X178149Y489039D01*
G74*
D01*
G03X184239Y482949I9811J3721*
G01*
X191681Y502571D02*
X191681Y496481D01*
X197771Y496481D01*
G74*
D01*
G03X191681Y502571I9811J3721*
G01*
X197771Y489039D02*
X191681Y489039D01*
X191681Y482949D01*
G74*
D01*
G03X197771Y489039I3721J9811*
G01*
X183515Y492760D02*
G75*
D01*
G03X183515Y492760I4445J0*
G01*
X110762Y595173D02*
X110762Y587929D01*
X114363Y587929D01*
G75*
D01*
G03X118191Y591757I0J3828*
G01*
X118191Y595358D01*
X110947Y595358D01*
G75*
D01*
G03X110947Y603522I-4267J4082*
G01*
X118191Y603522D01*
X118191Y607123D01*
G74*
D01*
G03X114363Y610951I3828J0*
G01*
X110762Y610951D01*
X110762Y603707D01*
G75*
D01*
G03X102598Y603707I-4082J-4267*
G01*
X102598Y610951D01*
X98997Y610951D01*
G75*
D01*
G03X95169Y607123I0J-3828*
G01*
X95169Y603522D01*
X102413Y603522D01*
G75*
D01*
G03X102413Y595358I4267J-4082*
G01*
X95169Y595358D01*
X95169Y591757D01*
G75*
D01*
G03X98997Y587929I3828J0*
G01*
X102598Y587929D01*
X102598Y595173D01*
G75*
D01*
G03X110762Y595173I4082J4267*
G01*
X95187Y624840D02*
G75*
D01*
G03X95187Y624840I11493J0*
G01*
X177467Y635000D02*
G75*
D01*
G03X177467Y635000I10493J0*
G01*
X223445Y661435D02*
G75*
D01*
G03X224088Y663560I-3185J2125*
G01*
X224088Y677560D01*
G74*
D01*
G03X220260Y681388I3828J0*
G01*
X206260Y681388D01*
G75*
D01*
G03X202432Y677560I0J-3828*
G01*
X202432Y663560D01*
G75*
D01*
G03X206260Y659732I3828J0*
G01*
X213235Y659732D01*
X213235Y645492D01*
G75*
D01*
G03X223204Y638632I125J-10492*
G01*
G75*
D01*
G03X223445Y640180I-4864J1548*
G01*
X223445Y661435D01*
X390363Y223218D02*
X394800Y218781D01*
X399237Y223218D01*
G75*
D01*
G03X390363Y223218I-4437J-9858*
G01*
X384942Y217797D02*
G75*
D01*
G03X384942Y208923I9858J-4437*
G01*
X389379Y213360D01*
X384942Y217797D01*
X399237Y203502D02*
X394800Y207939D01*
X390363Y203502D01*
G75*
D01*
G03X399237Y203502I4437J9858*
G01*
X390800Y213360D02*
G75*
D01*
G03X390800Y213360I4000J0*
G01*
X404658Y217797D02*
X400221Y213360D01*
X404658Y208923D01*
G75*
D01*
G03X404658Y217797I-9858J4437*
G01*
X431467Y218440D02*
G75*
D01*
G03X431467Y218440I10493J0*
G01*
X1090690Y1119500D02*
G75*
D01*
G03X1090690Y1119500I28810J0*
G01*
X1054946Y904240D02*
G75*
D01*
G03X1054946Y904240I11854J0*
G01*
X1066675Y645492D02*
G75*
D01*
G03X1076644Y638632I125J-10492*
G01*
G75*
D01*
G03X1076885Y640180I-4864J1548*
G01*
X1076885Y656355D01*
G75*
D01*
G03X1077528Y658480I-3185J2125*
G01*
X1077528Y672480D01*
G74*
D01*
G03X1073700Y676308I3828J0*
G01*
X1059700Y676308D01*
G75*
D01*
G03X1055872Y672480I0J-3828*
G01*
X1055872Y658480D01*
G75*
D01*
G03X1059700Y654652I3828J0*
G01*
X1066675Y654652D01*
X1066675Y645492D01*
X1073023Y503274D02*
X1060577Y503274D01*
G75*
D01*
G03X1056286Y498983I0J-4291*
G01*
X1056286Y486537D01*
G75*
D01*
G03X1060577Y482246I4291J0*
G01*
X1073023Y482246D01*
G75*
D01*
G03X1077314Y486537I0J4291*
G01*
X1077314Y498983D01*
G74*
D01*
G03X1073023Y503274I4291J0*
G01*
X990475Y645492D02*
G75*
D01*
G03X1000444Y638632I125J-10492*
G01*
G75*
D01*
G03X1000685Y640180I-4864J1548*
G01*
X1000685Y656355D01*
G75*
D01*
G03X1001328Y658480I-3185J2125*
G01*
X1001328Y672480D01*
G74*
D01*
G03X997500Y676308I3828J0*
G01*
X983500Y676308D01*
G75*
D01*
G03X979672Y672480I0J-3828*
G01*
X979672Y658480D01*
G75*
D01*
G03X983500Y654652I3828J0*
G01*
X990475Y654652D01*
X990475Y645492D01*
X1015875Y645492D02*
G75*
D01*
G03X1025844Y638632I125J-10492*
G01*
G75*
D01*
G03X1026085Y640180I-4864J1548*
G01*
X1026085Y656355D01*
G75*
D01*
G03X1026728Y658480I-3185J2125*
G01*
X1026728Y672480D01*
G74*
D01*
G03X1022900Y676308I3828J0*
G01*
X1008900Y676308D01*
G75*
D01*
G03X1005072Y672480I0J-3828*
G01*
X1005072Y658480D01*
G75*
D01*
G03X1008900Y654652I3828J0*
G01*
X1015875Y654652D01*
X1015875Y645492D01*
X1051485Y656355D02*
G75*
D01*
G03X1052128Y658480I-3185J2125*
G01*
X1052128Y672480D01*
G74*
D01*
G03X1048300Y676308I3828J0*
G01*
X1034300Y676308D01*
G75*
D01*
G03X1030472Y672480I0J-3828*
G01*
X1030472Y658480D01*
G75*
D01*
G03X1034300Y654652I3828J0*
G01*
X1041275Y654652D01*
X1041275Y645492D01*
G75*
D01*
G03X1051244Y638632I125J-10492*
G01*
G75*
D01*
G03X1051485Y640180I-4864J1548*
G01*
X1051485Y656355D01*
X294193Y991594D02*
X287905Y991594D01*
X287905Y988108D01*
G75*
D01*
G03X290108Y985905I2203J0*
G01*
X296594Y985905D01*
X296594Y990703D01*
G75*
D01*
G03X296720Y990701I126J4017*
G01*
X302720Y990701D01*
G74*
D01*
G03X302846Y990703I0J4019*
G01*
X302846Y985905D01*
X309332Y985905D01*
G75*
D01*
G03X311535Y988108I0J2203*
G01*
X311535Y991594D01*
X305247Y991594D01*
G75*
D01*
G03X305247Y997846I-2527J3126*
G01*
X311535Y997846D01*
X311535Y1001332D01*
G74*
D01*
G03X309332Y1003535I2203J0*
G01*
X302846Y1003535D01*
X302846Y998737D01*
G74*
D01*
G03X302720Y998739I126J4017*
G01*
X296720Y998739D01*
G75*
D01*
G03X296594Y998737I0J-4019*
G01*
X296594Y1003535D01*
X290108Y1003535D01*
G75*
D01*
G03X287905Y1001332I0J-2203*
G01*
X287905Y997846D01*
X294193Y997846D01*
G75*
D01*
G03X294193Y991594I2527J-3126*
G01*
X1064880Y304132D02*
X1078880Y304132D01*
G75*
D01*
G03X1082708Y307960I0J3828*
G01*
X1082708Y321960D01*
G74*
D01*
G03X1078880Y325788I3828J0*
G01*
X1064880Y325788D01*
G75*
D01*
G03X1061052Y321960I0J-3828*
G01*
X1061052Y307960D01*
G75*
D01*
G03X1064880Y304132I3828J0*
G01*
X1101317Y305102D02*
X1096880Y309539D01*
X1092443Y305102D01*
G75*
D01*
G03X1101317Y305102I4437J9858*
G01*
X1092880Y314960D02*
G75*
D01*
G03X1092880Y314960I4000J0*
G01*
X1087022Y319397D02*
G75*
D01*
G03X1087022Y310523I9858J-4437*
G01*
X1091459Y314960D01*
X1087022Y319397D01*
X1106738Y319397D02*
X1102301Y314960D01*
X1106738Y310523D01*
G75*
D01*
G03X1106738Y319397I-9858J4437*
G01*
X1092443Y324818D02*
X1096880Y320381D01*
X1101317Y324818D01*
G75*
D01*
G03X1092443Y324818I-4437J-9858*
G01*
X1039706Y386055D02*
G75*
D01*
G03X1045494Y396265I11854J25*
G01*
X985527Y396265D01*
G75*
D01*
G03X983879Y395994I-7J-5105*
G01*
G75*
D01*
G03X990933Y386055I-3439J-9914*
G01*
X1039706Y386055D01*
X1107225Y375270D02*
X1102360Y380135D01*
X1097495Y375270D01*
G75*
D01*
G03X1107225Y375270I4865J10810*
G01*
X1097495Y396890D02*
X1102360Y392025D01*
X1107225Y396890D01*
G75*
D01*
G03X1097495Y396890I-4865J-10810*
G01*
X1097915Y386080D02*
G75*
D01*
G03X1097915Y386080I4445J0*
G01*
X1091550Y390945D02*
G75*
D01*
G03X1091550Y381215I10810J-4865*
G01*
X1096415Y386080D01*
X1091550Y390945D01*
X1113170Y390945D02*
X1108305Y386080D01*
X1113170Y381215D01*
G75*
D01*
G03X1113170Y390945I-10810J4865*
G01*
X980107Y416560D02*
G75*
D01*
G03X980107Y416560I10493J0*
G01*
X1005507Y416560D02*
G75*
D01*
G03X1005507Y416560I10493J0*
G01*
X1030907Y416560D02*
G75*
D01*
G03X1030907Y416560I10493J0*
G01*
X1056307Y416560D02*
G75*
D01*
G03X1056307Y416560I10493J0*
G01*
X562186Y1056640D02*
G75*
D01*
G03X562186Y1056640I11854J0*
G01*
X789606Y752575D02*
X801571Y740611D01*
G75*
D01*
G03X805186Y739115I3609J3609*
G01*
X843280Y739115D01*
G74*
D01*
G03X846895Y740617I0J5105*
G01*
X854503Y748225D01*
G75*
D01*
G03X856005Y751840I-3603J3615*
G01*
X856005Y769620D01*
G74*
D01*
G03X854503Y773235I5105J0*
G01*
X845845Y781894D01*
X845845Y881806D01*
X859583Y895545D01*
G74*
D01*
G03X860064Y896098I3603J3615*
G01*
G75*
D01*
G03X874828Y914375I8616J8142*
G01*
X886886Y914375D01*
X887298Y913963D01*
G75*
D01*
G03X899155Y914953I6782J-9723*
G01*
G74*
D01*
G03X897683Y918015I5075J553*
G01*
X892615Y923083D01*
G74*
D01*
G03X889000Y924585I3615J3603*
G01*
X863607Y924585D01*
G75*
D01*
G03X859991Y923089I-7J-5105*
G01*
X852371Y915469D01*
G74*
D01*
G03X851052Y913191I3609J3609*
G01*
G75*
D01*
G03X832105Y900284I-7772J-8951*
G01*
X832051Y900229D01*
G74*
D01*
G03X830893Y898446I3609J3609*
G01*
X829055Y900284D01*
G75*
D01*
G03X821836Y893065I-11175J3956*
G01*
X825475Y889426D01*
X825475Y774710D01*
G75*
D01*
G03X826971Y771091I5105J-10*
G01*
X827987Y770074D01*
G75*
D01*
G03X824234Y754405I5133J-9514*
G01*
X822534Y754405D01*
X818349Y758590D01*
G75*
D01*
G03X796946Y759672I-10629J1970*
G01*
X792542Y764077D01*
G75*
D01*
G03X789606Y752575I-10222J-3517*
G01*
X768160Y788840D02*
G75*
D01*
G03X768160Y788840I4000J0*
G01*
X767723Y798698D02*
X772160Y794261D01*
X776597Y798698D01*
G75*
D01*
G03X767723Y798698I-4437J-9858*
G01*
X762302Y793277D02*
G75*
D01*
G03X762302Y784403I9858J-4437*
G01*
X766739Y788840D01*
X762302Y793277D01*
X782018Y793277D02*
X777581Y788840D01*
X782018Y784403D01*
G75*
D01*
G03X782018Y793277I-9858J4437*
G01*
X776597Y778982D02*
X772160Y783419D01*
X767723Y778982D01*
G75*
D01*
G03X776597Y778982I4437J9858*
G01*
X817805Y661435D02*
G75*
D01*
G03X818448Y663560I-3185J2125*
G01*
X818448Y677560D01*
G74*
D01*
G03X814620Y681388I3828J0*
G01*
X800620Y681388D01*
G75*
D01*
G03X796792Y677560I0J-3828*
G01*
X796792Y663560D01*
G75*
D01*
G03X800620Y659732I3828J0*
G01*
X807595Y659732D01*
X807595Y645492D01*
G75*
D01*
G03X817564Y638632I125J-10492*
G01*
G75*
D01*
G03X817805Y640180I-4864J1548*
G01*
X817805Y661435D01*
X792405Y661435D02*
G75*
D01*
G03X793048Y663560I-3185J2125*
G01*
X793048Y677560D01*
G74*
D01*
G03X789220Y681388I3828J0*
G01*
X775220Y681388D01*
G75*
D01*
G03X771392Y677560I0J-3828*
G01*
X771392Y663560D01*
G75*
D01*
G03X775220Y659732I3828J0*
G01*
X782195Y659732D01*
X782195Y645492D01*
G75*
D01*
G03X792164Y638632I125J-10492*
G01*
G75*
D01*
G03X792405Y640180I-4864J1548*
G01*
X792405Y661435D01*
X767005Y661435D02*
G75*
D01*
G03X767648Y663560I-3185J2125*
G01*
X767648Y677560D01*
G74*
D01*
G03X763820Y681388I3828J0*
G01*
X749820Y681388D01*
G75*
D01*
G03X745992Y677560I0J-3828*
G01*
X745992Y663560D01*
G75*
D01*
G03X749820Y659732I3828J0*
G01*
X756795Y659732D01*
X756795Y645492D01*
G75*
D01*
G03X766764Y638632I125J-10492*
G01*
G75*
D01*
G03X767005Y640180I-4864J1548*
G01*
X767005Y661435D01*
X741605Y661435D02*
G75*
D01*
G03X742248Y663560I-3185J2125*
G01*
X742248Y677560D01*
G74*
D01*
G03X738420Y681388I3828J0*
G01*
X724420Y681388D01*
G75*
D01*
G03X720592Y677560I0J-3828*
G01*
X720592Y663560D01*
G75*
D01*
G03X724420Y659732I3828J0*
G01*
X731395Y659732D01*
X731395Y645492D01*
G75*
D01*
G03X741364Y638632I125J-10492*
G01*
G75*
D01*
G03X741605Y640180I-4864J1548*
G01*
X741605Y661435D01*
X939675Y645492D02*
G75*
D01*
G03X949644Y638632I125J-10492*
G01*
G75*
D01*
G03X949885Y640180I-4864J1548*
G01*
X949885Y656355D01*
G75*
D01*
G03X950528Y658480I-3185J2125*
G01*
X950528Y672480D01*
G74*
D01*
G03X946700Y676308I3828J0*
G01*
X932700Y676308D01*
G75*
D01*
G03X928872Y672480I0J-3828*
G01*
X928872Y658480D01*
G75*
D01*
G03X932700Y654652I3828J0*
G01*
X939675Y654652D01*
X939675Y645492D01*
X914275Y645492D02*
G75*
D01*
G03X924244Y638632I125J-10492*
G01*
G75*
D01*
G03X924485Y640180I-4864J1548*
G01*
X924485Y656355D01*
G75*
D01*
G03X925128Y658480I-3185J2125*
G01*
X925128Y672480D01*
G74*
D01*
G03X921300Y676308I3828J0*
G01*
X907300Y676308D01*
G75*
D01*
G03X903472Y672480I0J-3828*
G01*
X903472Y658480D01*
G75*
D01*
G03X907300Y654652I3828J0*
G01*
X914275Y654652D01*
X914275Y645492D01*
X832995Y645492D02*
G75*
D01*
G03X842964Y638632I125J-10492*
G01*
G75*
D01*
G03X843205Y640180I-4864J1548*
G01*
X843205Y661435D01*
G75*
D01*
G03X843848Y663560I-3185J2125*
G01*
X843848Y677560D01*
G74*
D01*
G03X840020Y681388I3828J0*
G01*
X826020Y681388D01*
G75*
D01*
G03X822192Y677560I0J-3828*
G01*
X822192Y663560D01*
G75*
D01*
G03X826020Y659732I3828J0*
G01*
X832995Y659732D01*
X832995Y645492D01*
X878507Y635000D02*
G75*
D01*
G03X878507Y635000I10493J0*
G01*
X892721Y502571D02*
X892721Y496481D01*
X898811Y496481D01*
G74*
D01*
G03X892721Y502571I9811J3721*
G01*
X884555Y492760D02*
G75*
D01*
G03X884555Y492760I4445J0*
G01*
X898811Y489039D02*
X892721Y489039D01*
X892721Y482949D01*
G74*
D01*
G03X898811Y489039I3721J9811*
G01*
X879189Y496481D02*
X885279Y496481D01*
X885279Y502571D01*
G74*
D01*
G03X879189Y496481I3721J9811*
G01*
X885279Y482949D02*
X885279Y489039D01*
X879189Y489039D01*
G74*
D01*
G03X885279Y482949I9811J3721*
G01*
X836841Y568611D02*
X836841Y562521D01*
X842931Y562521D01*
G74*
D01*
G03X836841Y568611I9811J3721*
G01*
X842931Y555079D02*
X836841Y555079D01*
X836841Y548989D01*
G74*
D01*
G03X842931Y555079I3721J9811*
G01*
X828675Y558800D02*
G75*
D01*
G03X828675Y558800I4445J0*
G01*
X839343Y503274D02*
X826897Y503274D01*
G75*
D01*
G03X822606Y498983I0J-4291*
G01*
X822606Y486537D01*
G75*
D01*
G03X826897Y482246I4291J0*
G01*
X839343Y482246D01*
G75*
D01*
G03X843634Y486537I0J4291*
G01*
X843634Y498983D01*
G74*
D01*
G03X839343Y503274I4291J0*
G01*
X690805Y661435D02*
G75*
D01*
G03X691448Y663560I-3185J2125*
G01*
X691448Y677560D01*
G74*
D01*
G03X687620Y681388I3828J0*
G01*
X673620Y681388D01*
G75*
D01*
G03X669792Y677560I0J-3828*
G01*
X669792Y663560D01*
G75*
D01*
G03X673620Y659732I3828J0*
G01*
X680595Y659732D01*
X680595Y645492D01*
G75*
D01*
G03X690564Y638632I125J-10492*
G01*
G75*
D01*
G03X690805Y640180I-4864J1548*
G01*
X690805Y661435D01*
X599315Y645492D02*
G75*
D01*
G03X609284Y638632I125J-10492*
G01*
G75*
D01*
G03X609525Y640180I-4864J1548*
G01*
X609525Y666515D01*
G75*
D01*
G03X610168Y668640I-3185J2125*
G01*
X610168Y682640D01*
G74*
D01*
G03X606340Y686468I3828J0*
G01*
X592340Y686468D01*
G75*
D01*
G03X588512Y682640I0J-3828*
G01*
X588512Y668640D01*
G75*
D01*
G03X592340Y664812I3828J0*
G01*
X599315Y664812D01*
X599315Y645492D01*
X573915Y645492D02*
G75*
D01*
G03X583884Y638632I125J-10492*
G01*
G75*
D01*
G03X584125Y640180I-4864J1548*
G01*
X584125Y666515D01*
G75*
D01*
G03X584768Y668640I-3185J2125*
G01*
X584768Y682640D01*
G74*
D01*
G03X580940Y686468I3828J0*
G01*
X566940Y686468D01*
G75*
D01*
G03X563112Y682640I0J-3828*
G01*
X563112Y668640D01*
G75*
D01*
G03X566940Y664812I3828J0*
G01*
X573915Y664812D01*
X573915Y645492D01*
X558725Y666515D02*
G75*
D01*
G03X559368Y668640I-3185J2125*
G01*
X559368Y682640D01*
G74*
D01*
G03X555540Y686468I3828J0*
G01*
X541540Y686468D01*
G75*
D01*
G03X537712Y682640I0J-3828*
G01*
X537712Y668640D01*
G75*
D01*
G03X541540Y664812I3828J0*
G01*
X548515Y664812D01*
X548515Y645492D01*
G75*
D01*
G03X558484Y638632I125J-10492*
G01*
G75*
D01*
G03X558725Y640180I-4864J1548*
G01*
X558725Y666515D01*
X533325Y666515D02*
G75*
D01*
G03X533968Y668640I-3185J2125*
G01*
X533968Y682640D01*
G74*
D01*
G03X530140Y686468I3828J0*
G01*
X516140Y686468D01*
G75*
D01*
G03X512312Y682640I0J-3828*
G01*
X512312Y668640D01*
G75*
D01*
G03X516140Y664812I3828J0*
G01*
X523115Y664812D01*
X523115Y645492D01*
G75*
D01*
G03X533084Y638632I125J-10492*
G01*
G75*
D01*
G03X533325Y640180I-4864J1548*
G01*
X533325Y666515D01*
X497715Y645492D02*
G75*
D01*
G03X507684Y638632I125J-10492*
G01*
G75*
D01*
G03X507925Y640180I-4864J1548*
G01*
X507925Y666515D01*
G75*
D01*
G03X508568Y668640I-3185J2125*
G01*
X508568Y682640D01*
G74*
D01*
G03X504740Y686468I3828J0*
G01*
X490740Y686468D01*
G75*
D01*
G03X486912Y682640I0J-3828*
G01*
X486912Y668640D01*
G75*
D01*
G03X490740Y664812I3828J0*
G01*
X497715Y664812D01*
X497715Y645492D01*
X644827Y635000D02*
G75*
D01*
G03X644827Y635000I10493J0*
G01*
X609251Y555079D02*
X603161Y555079D01*
X603161Y548989D01*
G74*
D01*
G03X609251Y555079I3721J9811*
G01*
X594995Y558800D02*
G75*
D01*
G03X594995Y558800I4445J0*
G01*
X603161Y568611D02*
X603161Y562521D01*
X609251Y562521D01*
G74*
D01*
G03X603161Y568611I9811J3721*
G01*
X651599Y482949D02*
X651599Y489039D01*
X645509Y489039D01*
G74*
D01*
G03X651599Y482949I9811J3721*
G01*
X645509Y496481D02*
X651599Y496481D01*
X651599Y502571D01*
G74*
D01*
G03X645509Y496481I3721J9811*
G01*
X659041Y502571D02*
X659041Y496481D01*
X665131Y496481D01*
G74*
D01*
G03X659041Y502571I9811J3721*
G01*
X665131Y489039D02*
X659041Y489039D01*
X659041Y482949D01*
G74*
D01*
G03X665131Y489039I3721J9811*
G01*
X650875Y492760D02*
G75*
D01*
G03X650875Y492760I4445J0*
G01*
X605663Y503274D02*
X593217Y503274D01*
G75*
D01*
G03X588926Y498983I0J-4291*
G01*
X588926Y486537D01*
G75*
D01*
G03X593217Y482246I4291J0*
G01*
X605663Y482246D01*
G75*
D01*
G03X609954Y486537I0J4291*
G01*
X609954Y498983D01*
G74*
D01*
G03X605663Y503274I4291J0*
G01*
X457125Y666515D02*
G75*
D01*
G03X457768Y668640I-3185J2125*
G01*
X457768Y682640D01*
G74*
D01*
G03X453940Y686468I3828J0*
G01*
X439940Y686468D01*
G75*
D01*
G03X436112Y682640I0J-3828*
G01*
X436112Y668640D01*
G75*
D01*
G03X439940Y664812I3828J0*
G01*
X446915Y664812D01*
X446915Y645492D01*
G75*
D01*
G03X456884Y638632I125J-10492*
G01*
G75*
D01*
G03X457125Y640180I-4864J1548*
G01*
X457125Y666515D01*
X375845Y661435D02*
G75*
D01*
G03X376488Y663560I-3185J2125*
G01*
X376488Y677560D01*
G74*
D01*
G03X372660Y681388I3828J0*
G01*
X358660Y681388D01*
G75*
D01*
G03X354832Y677560I0J-3828*
G01*
X354832Y663560D01*
G75*
D01*
G03X358660Y659732I3828J0*
G01*
X365635Y659732D01*
X365635Y645492D01*
G75*
D01*
G03X375604Y638632I125J-10492*
G01*
G75*
D01*
G03X375845Y640180I-4864J1548*
G01*
X375845Y661435D01*
X350445Y661435D02*
G75*
D01*
G03X351088Y663560I-3185J2125*
G01*
X351088Y677560D01*
G74*
D01*
G03X347260Y681388I3828J0*
G01*
X333260Y681388D01*
G75*
D01*
G03X329432Y677560I0J-3828*
G01*
X329432Y663560D01*
G75*
D01*
G03X333260Y659732I3828J0*
G01*
X340235Y659732D01*
X340235Y645492D01*
G75*
D01*
G03X350204Y638632I125J-10492*
G01*
G75*
D01*
G03X350445Y640180I-4864J1548*
G01*
X350445Y661435D01*
X325045Y661435D02*
G75*
D01*
G03X325688Y663560I-3185J2125*
G01*
X325688Y677560D01*
G74*
D01*
G03X321860Y681388I3828J0*
G01*
X307860Y681388D01*
G75*
D01*
G03X304032Y677560I0J-3828*
G01*
X304032Y663560D01*
G75*
D01*
G03X307860Y659732I3828J0*
G01*
X314835Y659732D01*
X314835Y645492D01*
G75*
D01*
G03X324804Y638632I125J-10492*
G01*
G75*
D01*
G03X325045Y640180I-4864J1548*
G01*
X325045Y661435D01*
X299645Y661435D02*
G75*
D01*
G03X300288Y663560I-3185J2125*
G01*
X300288Y677560D01*
G74*
D01*
G03X296460Y681388I3828J0*
G01*
X282460Y681388D01*
G75*
D01*
G03X278632Y677560I0J-3828*
G01*
X278632Y663560D01*
G75*
D01*
G03X282460Y659732I3828J0*
G01*
X289435Y659732D01*
X289435Y645492D01*
G75*
D01*
G03X299404Y638632I125J-10492*
G01*
G75*
D01*
G03X299645Y640180I-4864J1548*
G01*
X299645Y661435D01*
X274245Y661435D02*
G75*
D01*
G03X274888Y663560I-3185J2125*
G01*
X274888Y677560D01*
G74*
D01*
G03X271060Y681388I3828J0*
G01*
X257060Y681388D01*
G75*
D01*
G03X253232Y677560I0J-3828*
G01*
X253232Y663560D01*
G75*
D01*
G03X257060Y659732I3828J0*
G01*
X264035Y659732D01*
X264035Y645492D01*
G75*
D01*
G03X274004Y638632I125J-10492*
G01*
G75*
D01*
G03X274245Y640180I-4864J1548*
G01*
X274245Y661435D01*
X411147Y635000D02*
G75*
D01*
G03X411147Y635000I10493J0*
G01*
X375571Y555079D02*
X369481Y555079D01*
X369481Y548989D01*
G74*
D01*
G03X375571Y555079I3721J9811*
G01*
X361315Y558800D02*
G75*
D01*
G03X361315Y558800I4445J0*
G01*
X369481Y568611D02*
X369481Y562521D01*
X375571Y562521D01*
G74*
D01*
G03X369481Y568611I9811J3721*
G01*
X425361Y502571D02*
X425361Y496481D01*
X431451Y496481D01*
G74*
D01*
G03X425361Y502571I9811J3721*
G01*
X417919Y482949D02*
X417919Y489039D01*
X411829Y489039D01*
G74*
D01*
G03X417919Y482949I9811J3721*
G01*
X411829Y496481D02*
X417919Y496481D01*
X417919Y502571D01*
G74*
D01*
G03X411829Y496481I3721J9811*
G01*
X417195Y492760D02*
G75*
D01*
G03X417195Y492760I4445J0*
G01*
X431451Y489039D02*
X425361Y489039D01*
X425361Y482949D01*
G74*
D01*
G03X431451Y489039I3721J9811*
G01*
X101586Y3828D02*
X3828Y101586D01*
X3828Y1098414D01*
X101586Y1196172D01*
X101586Y1196172D01*
X1098414Y1196172D01*
X1196172Y1098414D01*
X1196172Y101586D01*
X1098414Y3828D01*
X101586Y3828D01*
X811907Y750594D02*
G75*
D01*
G02X806832Y749786I-4187J9966*
G01*
X807294Y749325D01*
X813176Y749325D01*
X811907Y750594D01*
X842051Y892450D02*
G74*
D01*
G02X840765Y892656I1229J11790*
G01*
X840765Y891164D01*
X842051Y892450D01*
X704846Y771295D02*
G74*
D01*
G03X703605Y771073I1274J10735*
G01*
X703605Y772536D01*
X704846Y771295D01*
X716172Y893582D02*
G75*
D01*
G03X716172Y893582I5188J10658*
G01*
X662965Y913341D02*
X662965Y1029126D01*
X665054Y1031215D01*
X754380Y1031215D01*
G74*
D01*
G03X757995Y1032717I0J5105*
G01*
X770224Y1044945D01*
G75*
D01*
G03X779755Y1047539I1936J11695*
G01*
X779755Y913341D01*
G75*
D01*
G03X772135Y892386I-7595J-9101*
G01*
X772135Y889668D01*
X765260Y889668D01*
G75*
D01*
G03X761432Y885840I0J-3828*
G01*
X761432Y871840D01*
G75*
D01*
G03X761478Y871245I3828J0*
G01*
X748924Y871245D01*
X750363Y872685D01*
G75*
D01*
G03X751865Y876300I-3603J3615*
G01*
X751865Y893541D01*
G75*
D01*
G03X741655Y893541I-5105J10699*
G01*
X741655Y878414D01*
X739566Y876325D01*
X711206Y876325D01*
G75*
D01*
G03X707591Y874829I-6J-5105*
G01*
X701065Y868304D01*
X701065Y893541D01*
G75*
D01*
G03X684170Y905469I-5105J10699*
G01*
X681880Y907759D01*
G75*
D01*
G03X662965Y913341I-11320J-3519*
G01*
X802615Y483592D02*
X802615Y472014D01*
X764741Y434139D01*
G75*
D01*
G03X763245Y430521I3609J-3609*
G01*
X763245Y424932D01*
G75*
D01*
G03X749325Y423800I-6325J-8372*
G01*
X749325Y485520D01*
G75*
D01*
G03X749325Y500000I7595J7240*
G01*
X749325Y500380D01*
G74*
D01*
G03X747823Y503995I5105J0*
G01*
X744025Y507793D01*
G74*
D01*
G03X741328Y509211I3615J3603*
G01*
G75*
D01*
G03X740405Y509295I-918J-5021*
G01*
X725170Y509295D01*
G75*
D01*
G03X723428Y508988I0J-5105*
G01*
G74*
D01*
G03X721561Y507799I1742J4798*
G01*
X715211Y501449D01*
G74*
D01*
G03X714043Y499639I3609J3609*
G01*
G75*
D01*
G03X697580Y498857I-7923J-6879*
G01*
X685512Y510925D01*
X685512Y549465D01*
G75*
D01*
G03X687000Y567206I-4792J9335*
G01*
X699840Y567206D01*
G75*
D01*
G03X712400Y567206I6280J-8406*
G01*
X725240Y567206D01*
G75*
D01*
G03X737800Y567206I6280J-8406*
G01*
X750640Y567206D01*
G75*
D01*
G03X763200Y567206I6280J-8406*
G01*
X774813Y567206D01*
X775364Y566656D01*
G75*
D01*
G03X787023Y568180I6956J-7856*
G01*
G74*
D01*
G03X785611Y570846I5015J949*
G01*
X784171Y572286D01*
X810373Y572286D01*
X816273Y566386D01*
X816273Y564878D01*
G75*
D01*
G03X802303Y549813I-8553J-6078*
G01*
X802303Y510925D01*
X790593Y499215D01*
G75*
D01*
G03X791894Y488466I-8273J-6455*
G01*
X792168Y488466D01*
G74*
D01*
G03X795783Y489967I0J5105*
G01*
X797304Y491488D01*
G74*
D01*
G03X802615Y483592I10416J1272*
G01*
X336751Y481531D02*
X336926Y481355D01*
X313264Y481355D01*
X311894Y482725D01*
G75*
D01*
G03X325261Y490762I3066J10035*
G01*
X326183Y491685D01*
G75*
D01*
G03X327685Y495300I-3603J3615*
G01*
X327685Y498216D01*
X330268Y495633D01*
G75*
D01*
G03X335549Y483435I10092J-2873*
G01*
G74*
D01*
G03X336751Y481531I4811J1705*
G01*
X231520Y566395D02*
G75*
D01*
G03X246000Y566395I7240J-7595*
G01*
X256920Y566395D01*
G75*
D01*
G03X271400Y566395I7240J-7595*
G01*
X282320Y566395D01*
G75*
D01*
G03X296800Y566395I7240J-7595*
G01*
X307720Y566395D01*
G75*
D01*
G03X319771Y568125I7240J-7595*
G01*
G74*
D01*
G03X318563Y570035I4811J1705*
G01*
X313495Y575103D01*
G74*
D01*
G03X310587Y576555I3615J3603*
G01*
X338246Y576555D01*
X346685Y568116D01*
X346685Y567172D01*
G75*
D01*
G03X330268Y555927I-6325J-8372*
G01*
X318971Y544629D01*
G75*
D01*
G03X317475Y541014I3609J-3609*
G01*
X317475Y502947D01*
G75*
D01*
G03X307365Y500000I-2515J-10187*
G01*
X307365Y500380D01*
G74*
D01*
G03X305863Y503995I5105J0*
G01*
X300795Y509063D01*
G74*
D01*
G03X297180Y510565I3615J3603*
G01*
X251465Y510565D01*
G75*
D01*
G03X247851Y509069I-5J-5105*
G01*
X241633Y502852D01*
G75*
D01*
G03X230017Y498562I-2873J-10092*
G01*
X218465Y510114D01*
X218465Y549632D01*
G75*
D01*
G03X220600Y566395I-5105J9168*
G01*
X231520Y566395D01*
X518135Y1045941D02*
X518135Y957154D01*
X517153Y956172D01*
X517153Y956172D01*
X515645Y954664D01*
X515645Y1047539D01*
G74*
D01*
G03X518135Y1045941I7595J9101*
G01*
X686444Y1063709D02*
G75*
D01*
G03X689812Y1046505I9516J-7069*
G01*
X676708Y1046505D01*
G75*
D01*
G03X680076Y1063709I-6148J10135*
G01*
X686444Y1063709D01*
X806026Y1056615D02*
X799674Y1056615D01*
X795045Y1051986D01*
X795045Y1043564D01*
X796491Y1045009D01*
G75*
D01*
G02X800107Y1046505I3609J-3609*
G01*
X811732Y1046505D01*
G74*
D01*
G02X806026Y1056615I6148J10135*
G01*
X834179Y1064235D02*
X826981Y1064235D01*
G75*
D01*
G02X824028Y1046505I-9101J-7595*
G01*
X837132Y1046505D01*
G75*
D01*
G02X834179Y1064235I6148J10135*
G01*
X956172Y487413D02*
G75*
D01*
G03X956172Y487413I9028J5347*
G01*
X980107Y492760D02*
G75*
D01*
G03X980107Y492760I10493J0*
G01*
X947405Y566030D02*
X957595Y566030D01*
G75*
D01*
G03X972805Y566030I7605J-7230*
G01*
X982995Y566030D01*
G75*
D01*
G03X998205Y566030I7605J-7230*
G01*
X1008395Y566030D01*
G75*
D01*
G03X1020638Y568212I7605J-7230*
G01*
G74*
D01*
G03X1019615Y569670I4626J2158*
G01*
X1018175Y571110D01*
X1044378Y571110D01*
X1050277Y565210D01*
X1050277Y564394D01*
G75*
D01*
G03X1036307Y549626I-8877J-5594*
G01*
X1036307Y509749D01*
X1024891Y498332D01*
G75*
D01*
G03X1024954Y487290I-8891J-5572*
G01*
X1026172Y487290D01*
G74*
D01*
G03X1029787Y488791I0J5104*
G01*
X1031219Y490222D01*
G74*
D01*
G03X1036295Y483592I10181J2538*
G01*
X1036295Y477094D01*
X1035373Y476172D01*
X1034206Y475005D01*
X903864Y475005D01*
X905031Y476172D01*
X905031Y476172D01*
X911527Y482668D01*
G75*
D01*
G03X924586Y490241I2873J10092*
G01*
X926042Y488785D01*
G74*
D01*
G03X928001Y487564I3610J3609*
G01*
G75*
D01*
G03X929652Y487290I1651J4830*
G01*
X930846Y487290D01*
G75*
D01*
G03X930918Y498347I8954J5470*
G01*
X919516Y509749D01*
X919516Y549639D01*
G75*
D01*
G03X922005Y566030I-5116J9161*
G01*
X932195Y566030D01*
G75*
D01*
G03X947405Y566030I7605J-7230*
G01*
X683848Y770907D02*
G75*
D01*
G03X670585Y764319I-3128J-10347*
G01*
X670585Y813226D01*
X672674Y815315D01*
X688516Y815315D01*
G75*
D01*
G03X688315Y813889I4904J-1415*
G01*
X688315Y775374D01*
X683848Y770907D01*
X1032514Y749325D02*
X1024886Y749325D01*
G75*
D01*
G03X1021105Y765009I-8886J6155*
G01*
X1021105Y777240D01*
G74*
D01*
G03X1019603Y780855I5105J0*
G01*
X1018164Y782295D01*
X1034206Y782295D01*
X1036295Y780206D01*
X1036295Y765009D01*
G75*
D01*
G03X1032514Y749325I5105J-9529*
G01*
X102413Y747758D02*
X99085Y747758D01*
X99085Y755922D01*
X102413Y755922D01*
G75*
D01*
G03X102413Y747758I4267J-4082*
G01*
X563870Y332348D02*
G75*
D01*
G02X563855Y332753I5090J392*
G01*
X563855Y346432D01*
G74*
D01*
G02X561365Y348360I5105J9168*
G01*
X561365Y334854D01*
X563870Y332348D01*
X518135Y893541D02*
X518135Y891565D01*
X512704Y891565D01*
X514143Y893005D01*
G74*
D01*
G03X515468Y895289I3603J3615*
G01*
G74*
D01*
G03X518135Y893541I7772J8951*
G01*
X995705Y765009D02*
X995705Y767080D01*
G74*
D01*
G03X994203Y770695I5105J0*
G01*
X992764Y772135D01*
X996106Y772135D01*
X997143Y771098D01*
X997143Y764085D01*
G74*
D01*
G03X995705Y765009I6543J8605*
G01*
X974301Y1064235D02*
G75*
D01*
G02X974301Y1049045I-9101J-7595*
G01*
X981499Y1049045D01*
G75*
D01*
G02X981499Y1064235I9101J7595*
G01*
X974301Y1064235D01*
X946351Y1047549D02*
G75*
D01*
G02X949967Y1049045I3609J-3609*
G01*
X956099Y1049045D01*
G75*
D01*
G02X953616Y1059155I9101J7595*
G01*
X944454Y1059155D01*
X942365Y1057066D01*
X942365Y1043564D01*
X946351Y1047549D01*
X496566Y776375D02*
G74*
D01*
G03X495870Y776269I1274J10735*
G01*
X482625Y789514D01*
X482625Y790316D01*
X496566Y776375D01*
X337487Y548708D02*
G75*
D01*
G03X340428Y548307I2873J10092*
G01*
X327685Y535564D01*
X327685Y538906D01*
X337487Y548708D01*
X706095Y288568D02*
X706095Y300146D01*
X704006Y302235D01*
X698124Y302235D01*
X702103Y298255D01*
G74*
D01*
G02X703605Y294640I3603J3615*
G01*
X703605Y286640D01*
G74*
D01*
G02X706095Y288568I7595J7240*
G01*
X693395Y286640D02*
X693395Y292526D01*
X688766Y297155D01*
X682884Y297155D01*
X689403Y290635D01*
G74*
D01*
G02X690611Y288725I3603J3615*
G01*
G74*
D01*
G02X693395Y286640I4811J9325*
G01*
X209061Y576555D02*
G74*
D01*
G03X206158Y575109I707J5055*
G01*
X198320Y567271D01*
G74*
D01*
G03X198020Y566943I3610J3609*
G01*
G74*
D01*
G03X194183Y569314I3837J1920*
G01*
X187985Y569314D01*
X187985Y569386D01*
X195154Y576555D01*
X209061Y576555D01*
X494924Y896645D02*
X505435Y907156D01*
X505435Y898734D01*
X503346Y896645D01*
X494924Y896645D01*
X753854Y406525D02*
G75*
D01*
G03X763245Y408188I3066J10035*
G01*
X763245Y397134D01*
X753854Y406525D01*
X654251Y1045009D02*
X652805Y1043564D01*
X652805Y1049446D01*
X654894Y1051535D01*
X659861Y1051535D01*
G74*
D01*
G03X664412Y1046505I10699J5105*
G01*
X657867Y1046505D01*
G75*
D01*
G03X654251Y1045009I-7J-5105*
G01*
X1010895Y765009D02*
G74*
D01*
G03X1007352Y761966I5105J9529*
G01*
X1007352Y773212D01*
G74*
D01*
G03X1007271Y774119I5104J0*
G01*
G74*
D01*
G03X1005857Y776822I5023J907*
G01*
X1005464Y777215D01*
X1008806Y777215D01*
X1010895Y775126D01*
X1010895Y765009D01*
X934745Y765035D02*
G75*
D01*
G02X941065Y766216I5055J-9555*
G01*
X934745Y772536D01*
X934745Y765035D01*
X696546Y488466D02*
G74*
D01*
G03X698880Y485165I9574J4294*
G01*
X695534Y485165D01*
X690812Y489887D01*
G74*
D01*
G03X691055Y490945I10092J2873*
G01*
X692038Y489961D01*
G74*
D01*
G03X693997Y488740I3610J3610*
G01*
G75*
D01*
G03X695648Y488466I1651J4831*
G01*
X696546Y488466D01*
X438481Y564870D02*
G74*
D01*
G02X440284Y566829I8559J6070*
G01*
X439301Y566829D01*
X438481Y566009D01*
X438481Y564870D01*
X905546Y564432D02*
G74*
D01*
G02X906795Y566030I8854J5632*
G01*
X906366Y566030D01*
X905546Y565210D01*
X905546Y564432D01*
X661044Y1063709D02*
G74*
D01*
G03X659861Y1061745I9516J7069*
G01*
X652787Y1061745D01*
G75*
D01*
G03X652388Y1061730I-7J-5105*
G01*
X654368Y1063709D01*
X661044Y1063709D01*
X671542Y563887D02*
X671542Y566386D01*
X672362Y567206D01*
X674440Y567206D01*
G74*
D01*
G03X671542Y563887I6280J8406*
G01*
X543535Y407392D02*
G74*
D01*
G02X542315Y408188I5105J9168*
G01*
X542315Y399624D01*
X543535Y398404D01*
X543535Y407392D01*
X492760Y162560D02*
X497840Y157480D01*
X655320Y157480D01*
X660400Y152400D02*
X660400Y142240D01*
X655320Y157480D02*
X660400Y152400D01*
X685800Y142240D02*
X685800Y200660D01*
X717024Y129540D02*
X711200Y135364D01*
X717024Y129540D02*
X1112520Y129540D01*
X711200Y142240D02*
X711200Y135364D01*
X1112520Y129540D02*
X1120140Y137160D01*
X492760Y218440D02*
X492760Y162560D01*
X685800Y200660D02*
X698500Y213360D01*
X967740Y198120D02*
X972920Y192940D01*
X995680Y192940D01*
X967740Y340360D02*
X967740Y198120D01*
X995680Y192940D02*
X1000760Y198020D01*
X1042300Y198020D01*
X1046880Y193440D01*
X698500Y213360D02*
X698500Y246380D01*
X708660Y256540D01*
X944880Y256540D01*
X955040Y266700D01*
X254400Y279800D02*
X266700Y292100D01*
X429260Y292100D02*
X441960Y279400D01*
X474980Y261620D02*
X467360Y269240D01*
X774700Y261620D02*
X474980Y261620D01*
X467360Y269240D02*
X467360Y279400D01*
X660400Y279400D02*
X673100Y266700D01*
X690880Y266700D01*
X685800Y279400D02*
X685800Y287020D01*
X690880Y266700D02*
X698500Y274320D01*
X698500Y294640D01*
X711200Y279400D02*
X711200Y302260D01*
X736600Y279400D02*
X736600Y299720D01*
X787400Y274320D02*
X774700Y261620D01*
X762000Y279400D02*
X762000Y294640D01*
X787400Y279400D02*
X787400Y274320D01*
X955040Y266700D02*
X955040Y309880D01*
X266700Y292100D02*
X429260Y292100D01*
X401755Y297180D02*
X384810Y314125D01*
X675640Y297180D02*
X401755Y297180D01*
X685800Y287020D02*
X675640Y297180D01*
X698500Y294640D02*
X690880Y302260D01*
X736600Y299720D02*
X741680Y304800D01*
X767080Y299720D02*
X848360Y299720D01*
X762000Y294640D02*
X767080Y299720D01*
X848360Y299720D02*
X858520Y309880D01*
X406400Y302260D02*
X389890Y318770D01*
X384810Y314125D02*
X384810Y471696D01*
X389890Y474545D02*
X389890Y318770D01*
X690880Y302260D02*
X406400Y302260D01*
X495300Y307340D02*
X492760Y309880D01*
X492760Y355600D01*
X706120Y307340D02*
X495300Y307340D01*
X711200Y302260D02*
X706120Y307340D01*
X741680Y304800D02*
X845820Y304800D01*
X853440Y312420D01*
X853440Y464820D01*
X858520Y309880D02*
X858520Y462280D01*
X556260Y332740D02*
X566420Y322580D01*
X556260Y378460D02*
X556260Y332740D01*
X800100Y322580D02*
X566420Y322580D01*
X728980Y327660D02*
X574040Y327660D01*
X568960Y332740D01*
X568960Y355600D01*
X736600Y355600D02*
X736600Y335280D01*
X728980Y327660D01*
X812800Y335280D02*
X800100Y322580D01*
X812800Y355600D02*
X812800Y335280D01*
X962660Y345440D02*
X967740Y340360D01*
X594360Y381000D02*
X594360Y355600D01*
X668020Y365760D02*
X678180Y355600D01*
X685800Y355600D01*
X763270Y356870D02*
X763270Y389890D01*
X787400Y355600D02*
X768350Y374650D01*
X929640Y350520D02*
X934720Y345440D01*
X962660Y345440D01*
X929640Y386080D02*
X929640Y350520D01*
X537210Y397510D02*
X556260Y378460D01*
X668020Y421640D02*
X668020Y365760D01*
X768350Y374650D02*
X768350Y430530D01*
X537210Y453390D02*
X537210Y397510D01*
X548640Y393264D02*
X555824Y386080D01*
X589280Y386080D01*
X548640Y416560D02*
X548640Y393264D01*
X589280Y386080D02*
X594360Y381000D01*
X763270Y389890D02*
X744220Y408940D01*
X980440Y386080D02*
X985520Y391160D01*
X1046480Y391160D01*
X1051560Y386080D01*
X744220Y408940D02*
X744220Y500380D01*
X574040Y492760D02*
X574040Y440164D01*
X584944Y429260D02*
X574040Y440164D01*
X584944Y429260D02*
X660400Y429260D01*
X668020Y421640D01*
X768350Y430530D02*
X807720Y469900D01*
X497840Y492760D02*
X537210Y453390D01*
X302260Y485140D02*
X311150Y476250D01*
X380256Y476250D01*
X384810Y471696D02*
X380256Y476250D01*
X389890Y474545D02*
X383105Y481330D01*
X693420Y480060D02*
X680720Y492760D01*
X693420Y480060D02*
X711200Y480060D01*
X718820Y487680D02*
X711200Y480060D01*
X807720Y469900D02*
X807720Y492760D01*
X853440Y464820D02*
X863600Y474980D01*
X858520Y462280D02*
X866140Y469900D01*
X1036320Y469900D01*
X863600Y474980D02*
X896620Y474980D01*
X914400Y492760D01*
X1036320Y469900D02*
X1041400Y474980D01*
X1041400Y492760D01*
X208280Y497840D02*
X208280Y546100D01*
X228600Y492760D02*
X213360Y508000D01*
X208280Y497840D02*
X213360Y492760D01*
X238760Y492760D02*
X228600Y492760D01*
X238760Y492760D02*
X251460Y505460D01*
X297180Y505460D02*
X302260Y500380D01*
X302260Y485140D01*
X314960Y492760D02*
X320040Y492760D01*
X322580Y495300D01*
X340360Y485140D02*
X340360Y492760D01*
X344170Y481330D02*
X340360Y485140D01*
X340360Y492760D02*
X327660Y505460D01*
X322580Y495300D02*
X322580Y541020D01*
X383105Y481330D02*
X344170Y481330D01*
X462586Y493193D02*
X447346Y508433D01*
X442266Y498273D02*
X442266Y546533D01*
X442266Y498273D02*
X447346Y493193D01*
X472746Y493193D02*
X462586Y493193D01*
X548946Y493193D02*
X559106Y493193D01*
X574346Y508433D01*
X579426Y498273D02*
X574346Y493193D01*
X579426Y498273D02*
X579426Y543993D01*
X695648Y493571D02*
X680408Y508811D01*
X675328Y498651D02*
X675328Y546911D01*
X675328Y498651D02*
X680408Y493571D01*
X705808Y493571D02*
X695648Y493571D01*
X725170Y504190D02*
X718820Y497840D01*
X718820Y487680D01*
X744220Y500380D02*
X740410Y504190D01*
X792168Y493571D02*
X807408Y508811D01*
X782008Y493571D02*
X792168Y493571D01*
X812488Y498651D02*
X807408Y493571D01*
X812488Y498651D02*
X812488Y544371D01*
X909143Y497664D02*
X914412Y492394D01*
X909143Y497664D02*
X909143Y545924D01*
X929652Y492394D02*
X914412Y507634D01*
X939812Y492394D02*
X929652Y492394D01*
X1016012Y492394D02*
X1026172Y492394D01*
X1041412Y507634D01*
X1046492Y497474D02*
X1046492Y543194D01*
X1046492Y497474D02*
X1041412Y492394D01*
X213360Y508000D02*
X213360Y558800D01*
X251460Y505460D02*
X297180Y505460D01*
X327660Y505460D02*
X327660Y528320D01*
X447346Y508433D02*
X447346Y559233D01*
X574346Y508433D02*
X574346Y559233D01*
X680408Y508811D02*
X680408Y559611D01*
X725170Y504190D02*
X740410Y504190D01*
X807408Y508811D02*
X807408Y559611D01*
X914412Y507634D02*
X914412Y558434D01*
X1041412Y507634D02*
X1041412Y558434D01*
X327660Y528320D02*
X351790Y552450D01*
X182880Y563880D02*
X187960Y558800D01*
X201930Y552450D02*
X201930Y563662D01*
X208280Y546100D02*
X201930Y552450D01*
X314960Y566420D02*
X314960Y558800D01*
X322580Y541020D02*
X340360Y558800D01*
X351790Y552450D02*
X351790Y570230D01*
X421946Y569393D02*
X421946Y559233D01*
X442266Y546533D02*
X433376Y555423D01*
X433376Y568123D01*
X548946Y566853D02*
X548946Y559233D01*
X579426Y543993D02*
X588316Y552883D01*
X588316Y568123D01*
X655008Y569771D02*
X655008Y559611D01*
X675328Y546911D02*
X666438Y555801D01*
X666438Y568501D01*
X782008Y567231D02*
X782008Y559611D01*
X812488Y544371D02*
X821378Y553261D01*
X821378Y568501D01*
X909143Y545924D02*
X900442Y554624D01*
X900442Y567324D01*
X889012Y568594D02*
X889012Y558434D01*
X1016012Y566054D02*
X1016012Y558434D01*
X1046492Y543194D02*
X1055382Y552084D01*
X1055382Y567324D01*
X193040Y581660D02*
X182880Y571500D01*
X182880Y563880D01*
X209768Y571500D02*
X309880Y571500D01*
X209768Y571500D02*
X201930Y563662D01*
X309880Y571500D02*
X314960Y566420D01*
X351790Y570230D02*
X340360Y581660D01*
X433376Y568123D02*
X437186Y571933D01*
X543866Y571933D01*
X579426Y577013D02*
X429566Y577013D01*
X421946Y569393D01*
X543866Y571933D02*
X548946Y566853D01*
X588316Y568123D02*
X579426Y577013D01*
X662628Y577391D02*
X655008Y569771D01*
X670248Y572311D02*
X776928Y572311D01*
X812488Y577391D02*
X662628Y577391D01*
X666438Y568501D02*
X670248Y572311D01*
X776928Y572311D02*
X782008Y567231D01*
X821378Y568501D02*
X812488Y577391D01*
X1046492Y576214D02*
X896632Y576214D01*
X900442Y567324D02*
X904252Y571134D01*
X896632Y576214D02*
X889012Y568594D01*
X904252Y571134D02*
X1010932Y571134D01*
X1016012Y566054D01*
X1055382Y567324D02*
X1046492Y576214D01*
X340360Y581660D02*
X193040Y581660D01*
X218340Y640180D02*
X213260Y635100D01*
X218340Y665480D02*
X218340Y640180D01*
X243740Y640180D02*
X238660Y635100D01*
X243740Y665480D02*
X243740Y640180D01*
X269140Y640180D02*
X264060Y635100D01*
X269140Y665480D02*
X269140Y640180D01*
X294540Y640180D02*
X289460Y635100D01*
X294540Y665480D02*
X294540Y640180D01*
X319940Y640180D02*
X314860Y635100D01*
X319940Y665480D02*
X319940Y640180D01*
X345340Y640180D02*
X340260Y635100D01*
X345340Y665480D02*
X345340Y640180D01*
X370740Y640180D02*
X365660Y635100D01*
X370740Y665480D02*
X370740Y640180D01*
X452020Y670560D02*
X452020Y640180D01*
X446940Y635100D01*
X477420Y670560D02*
X477420Y640180D01*
X472340Y635100D01*
X502820Y640180D02*
X497740Y635100D01*
X502820Y670560D02*
X502820Y640180D01*
X528220Y640180D02*
X523140Y635100D01*
X528220Y670560D02*
X528220Y640180D01*
X553620Y670560D02*
X553620Y640180D01*
X548540Y635100D01*
X579020Y640180D02*
X573940Y635100D01*
X579020Y670560D02*
X579020Y640180D01*
X604420Y640180D02*
X599340Y635100D01*
X604420Y670560D02*
X604420Y640180D01*
X685700Y640180D02*
X680620Y635100D01*
X685700Y665480D02*
X685700Y640180D01*
X711100Y665480D02*
X711100Y640180D01*
X706020Y635100D01*
X736500Y665480D02*
X736500Y640180D01*
X731420Y635100D01*
X761900Y640180D02*
X756820Y635100D01*
X761900Y665480D02*
X761900Y640180D01*
X787300Y665480D02*
X787300Y640180D01*
X782220Y635100D01*
X812700Y665480D02*
X812700Y640180D01*
X807620Y635100D01*
X838100Y665480D02*
X838100Y640180D01*
X833020Y635100D01*
X919380Y660400D02*
X919380Y640180D01*
X914300Y635100D01*
X944780Y640180D02*
X939700Y635100D01*
X944780Y660400D02*
X944780Y640180D01*
X970180Y660400D02*
X970180Y640180D01*
X965100Y635100D01*
X995580Y660400D02*
X995580Y640180D01*
X990500Y635100D01*
X1020980Y640180D02*
X1015900Y635100D01*
X1020980Y660400D02*
X1020980Y640180D01*
X1046380Y660400D02*
X1046380Y640180D01*
X1041300Y635100D01*
X1071780Y660400D02*
X1071780Y640180D01*
X1066700Y635100D01*
X919380Y660400D02*
X914300Y665480D01*
X944780Y660400D02*
X939700Y665480D01*
X970180Y660400D02*
X965100Y665480D01*
X995580Y660400D02*
X990500Y665480D01*
X1020980Y660400D02*
X1015900Y665480D01*
X1046380Y660400D02*
X1041300Y665480D01*
X1071780Y660400D02*
X1066700Y665480D01*
X218340Y665480D02*
X213260Y670560D01*
X243740Y665480D02*
X238660Y670560D01*
X269140Y665480D02*
X264060Y670560D01*
X294540Y665480D02*
X289460Y670560D01*
X319940Y665480D02*
X314860Y670560D01*
X345340Y665480D02*
X340260Y670560D01*
X370740Y665480D02*
X365660Y670560D01*
X452020Y670560D02*
X446940Y675640D01*
X477420Y670560D02*
X472340Y675640D01*
X502820Y670560D02*
X497740Y675640D01*
X528220Y670560D02*
X523140Y675640D01*
X553620Y670560D02*
X548540Y675640D01*
X579020Y670560D02*
X573940Y675640D01*
X604420Y670560D02*
X599340Y675640D01*
X685700Y665480D02*
X680620Y670560D01*
X711100Y665480D02*
X706020Y670560D01*
X736500Y665480D02*
X731420Y670560D01*
X761900Y665480D02*
X756820Y670560D01*
X787300Y665480D02*
X782220Y670560D01*
X812700Y665480D02*
X807620Y670560D01*
X838100Y665480D02*
X833020Y670560D01*
X548640Y759460D02*
X561340Y746760D01*
X548640Y765640D02*
X548640Y759460D01*
X574040Y756920D02*
X579120Y751840D01*
X574040Y765640D02*
X574040Y756920D01*
X579120Y751840D02*
X655320Y751840D01*
X599440Y759460D02*
X601980Y756920D01*
X599440Y759460D02*
X599440Y765640D01*
X601980Y756920D02*
X652780Y756920D01*
X655320Y759460D01*
X655320Y820420D01*
X660400Y756920D02*
X660400Y817880D01*
X655320Y751840D02*
X660400Y756920D01*
X693420Y773260D02*
X680720Y760560D01*
X706120Y760560D02*
X698500Y768180D01*
X722800Y760560D02*
X703580Y779780D01*
X731520Y760560D02*
X722800Y760560D01*
X756920Y760560D02*
X756920Y767080D01*
X788840Y760560D02*
X805180Y744220D01*
X782320Y760560D02*
X788840Y760560D01*
X805180Y744220D02*
X843280Y744220D01*
X809160Y760560D02*
X820420Y749300D01*
X840740Y749300D01*
X845820Y754380D01*
X839818Y760560D02*
X833120Y760560D01*
X845820Y754380D02*
X845820Y767080D01*
X850900Y751840D02*
X850900Y769620D01*
X843280Y744220D02*
X850900Y751840D01*
X922020Y755480D02*
X914400Y755480D01*
X924560Y758020D02*
X924560Y891540D01*
X929640Y889000D02*
X929640Y758020D01*
X932180Y755480D02*
X939800Y755480D01*
X924560Y758020D02*
X922020Y755480D01*
X929640Y758020D02*
X932180Y755480D01*
X965200Y755480D02*
X965200Y762000D01*
X1041400Y755480D02*
X1041400Y782320D01*
X1066800Y755480D02*
X1066800Y746760D01*
X497840Y767080D02*
X477520Y787400D01*
X514520Y765640D02*
X482600Y797560D01*
X514520Y765640D02*
X523240Y765640D01*
X718820Y772160D02*
X708660Y782320D01*
X751840Y772160D02*
X718820Y772160D01*
X756920Y767080D02*
X751840Y772160D01*
X840562Y764718D02*
X830580Y774700D01*
X840562Y761304D02*
X840562Y764718D01*
X835660Y777240D02*
X835660Y896620D01*
X830580Y774700D02*
X830580Y891540D01*
X845820Y767080D02*
X835660Y777240D01*
X850900Y769620D02*
X840740Y779780D01*
X840740Y883920D01*
X965200Y762000D02*
X960120Y767080D01*
X1036320Y787400D02*
X957580Y787400D01*
X955040Y789940D01*
X955040Y876300D01*
X1041400Y782320D02*
X1036320Y787400D01*
X655320Y820420D02*
X665480Y830580D01*
X660400Y817880D02*
X668020Y825500D01*
X665480Y815340D02*
X670560Y820420D01*
X711200Y855980D02*
X716280Y861060D01*
X706120Y858520D02*
X713740Y866140D01*
X716280Y853440D02*
X718820Y855980D01*
X784860Y855980D01*
X723900Y850900D02*
X787400Y850900D01*
X721360Y848360D02*
X723900Y850900D01*
X784860Y855980D02*
X795020Y866140D01*
X787400Y850900D02*
X800100Y863600D01*
X639395Y875615D02*
X647700Y883920D01*
X636855Y880695D02*
X642620Y886460D01*
X644475Y865455D02*
X657860Y878840D01*
X657860Y1031240D01*
X641935Y870535D02*
X652780Y881380D01*
X716280Y861060D02*
X782320Y861060D01*
X713740Y866140D02*
X779780Y866140D01*
X777240Y883820D02*
X772260Y878840D01*
X779780Y866140D02*
X784860Y871220D01*
X782320Y861060D02*
X789940Y868680D01*
X949960Y878840D02*
X962660Y891540D01*
X955040Y876300D02*
X965200Y886460D01*
X124460Y891540D02*
X116840Y883920D01*
X124460Y927100D02*
X124460Y891540D01*
X218440Y883920D02*
X223520Y889000D01*
X284480Y889000D01*
X289560Y883920D01*
X652780Y881380D02*
X652780Y1036320D01*
X647700Y883920D02*
X647700Y1051560D01*
X690880Y891540D02*
X678180Y904240D01*
X777240Y899160D02*
X777240Y883820D01*
X772160Y904240D02*
X777240Y899160D01*
X830580Y891540D02*
X817880Y904240D01*
X840740Y883920D02*
X855980Y899160D01*
X835660Y896620D02*
X843280Y904240D01*
X855980Y899160D02*
X855980Y911860D01*
X939800Y883920D02*
X947420Y891540D01*
X924560Y891540D02*
X932180Y899160D01*
X937260Y896620D02*
X929640Y889000D01*
X934720Y886460D02*
X942340Y894080D01*
X944880Y881380D02*
X965200Y901700D01*
X942340Y894080D02*
X942340Y1036320D01*
X947420Y891540D02*
X947420Y1031240D01*
X970280Y891540D02*
X977900Y899160D01*
X977900Y909320D01*
X972820Y886460D02*
X990600Y904240D01*
X962660Y891540D02*
X970280Y891540D01*
X965200Y886460D02*
X972820Y886460D01*
X678180Y904240D02*
X670560Y904240D01*
X855980Y911860D02*
X863600Y919480D01*
X977900Y909320D02*
X985520Y916940D01*
X965200Y901700D02*
X965200Y904240D01*
X116840Y934720D02*
X124460Y927100D01*
X652780Y1036320D02*
X657860Y1041400D01*
X657860Y1031240D02*
X662940Y1036320D01*
X754380Y1036320D01*
X772160Y1054100D01*
X911860Y1036320D02*
X919480Y1043940D01*
X942340Y1036320D02*
X949960Y1043940D01*
X657860Y1041400D02*
X736600Y1041400D01*
X695960Y1061720D02*
X695960Y1056640D01*
X736600Y1041400D02*
X746760Y1051560D01*
X746760Y1056640D01*
X772160Y1054100D02*
X772160Y1056640D01*
X889000Y1041400D02*
X894080Y1046480D01*
X894080Y1056640D01*
X919480Y1043940D02*
X919480Y1056640D01*
X688866Y1068814D02*
X695960Y1061720D01*
X434340Y129540D02*
X441960Y137160D01*
X441960Y142240D01*
X1120140Y439420D02*
X1112520Y447040D01*
X1066800Y447040D01*
X1120140Y137160D02*
X1120140Y439420D01*
X162160Y137560D02*
X170180Y129540D01*
X434340Y129540D01*
X365760Y760560D02*
X365760Y772160D01*
X370840Y777240D01*
X447040Y767515D02*
X447040Y765640D01*
X467360Y787835D02*
X447040Y767515D01*
X370840Y777240D02*
X449580Y777240D01*
X462280Y789940D01*
X462280Y871220D01*
X485252Y865455D02*
X644475Y865455D01*
X482600Y862803D02*
X485252Y865455D01*
X482600Y797560D02*
X482600Y862803D01*
X477520Y864907D02*
X483147Y870535D01*
X477520Y787400D02*
X477520Y864907D01*
X483147Y870535D02*
X641935Y870535D01*
X472440Y867012D02*
X481043Y875615D01*
X639395Y875615D01*
X472440Y765640D02*
X472440Y867012D01*
X478939Y880695D02*
X636855Y880695D01*
X467360Y787835D02*
X467360Y869116D01*
X478939Y880695D01*
X462280Y871220D02*
X477520Y886460D01*
X520700Y886460D01*
X523240Y889000D01*
X523240Y904240D01*
X340360Y760560D02*
X340360Y777240D01*
X345440Y782320D01*
X447040Y782320D01*
X457200Y792480D01*
X457200Y873760D01*
X474980Y891540D01*
X505460Y891540D01*
X510540Y896620D01*
X314960Y760560D02*
X314960Y782320D01*
X320040Y787400D01*
X444500Y787400D01*
X452120Y795020D01*
X543560Y916940D02*
X548640Y911860D01*
X548640Y904240D01*
X594360Y922020D02*
X599440Y916940D01*
X599440Y904240D01*
X510540Y911860D02*
X515620Y916940D01*
X543560Y916940D01*
X510540Y896620D02*
X510540Y911860D01*
X487680Y896620D02*
X513080Y922020D01*
X594360Y922020D01*
X452120Y876300D02*
X472440Y896620D01*
X487680Y896620D01*
X452120Y795020D02*
X452120Y876300D01*
X289560Y760560D02*
X289560Y784860D01*
X297180Y792480D01*
X441960Y792480D01*
X447040Y797560D01*
X447040Y878840D01*
X469900Y901700D01*
X485140Y901700D01*
X510540Y927100D01*
X264160Y760560D02*
X264160Y789940D01*
X271780Y797560D01*
X441960Y881380D02*
X467360Y906780D01*
X482600Y906780D01*
X508000Y932180D01*
X589280Y932180D02*
X599440Y942340D01*
X508000Y932180D02*
X589280Y932180D01*
X599440Y942340D02*
X599440Y1056640D01*
X614680Y927100D02*
X624840Y937260D01*
X510540Y927100D02*
X614680Y927100D01*
X624840Y937260D02*
X624840Y1056640D01*
X657860Y746760D02*
X665480Y754380D01*
X665480Y815340D01*
X561340Y746760D02*
X657860Y746760D01*
X690880Y833120D02*
X690880Y891540D01*
X665480Y830580D02*
X688340Y830580D01*
X690880Y833120D01*
X668020Y825500D02*
X690572Y825500D01*
X695960Y830888D01*
X695960Y904240D01*
X670560Y820420D02*
X692676Y820420D01*
X701040Y828784D02*
X692676Y820420D01*
X706120Y826600D02*
X706120Y858520D01*
X693420Y813900D02*
X693420Y773260D01*
X706120Y826600D02*
X693420Y813900D01*
X708660Y782320D02*
X708660Y805180D01*
X721360Y817880D01*
X721360Y848360D01*
X716280Y820420D02*
X716280Y853440D01*
X703580Y779780D02*
X703580Y807720D01*
X716280Y820420D01*
X698500Y810260D02*
X711200Y822960D01*
X711200Y855980D01*
X698500Y768180D02*
X698500Y810260D01*
X889000Y919480D02*
X894080Y914400D01*
X863600Y919480D02*
X889000Y919480D01*
X894080Y914400D02*
X894080Y904240D01*
X1036320Y916940D02*
X1041400Y911860D01*
X985520Y916940D02*
X1036320Y916940D01*
X1041400Y911860D02*
X1041400Y904240D01*
X1066800Y1046480D02*
X1066800Y1056640D01*
X1036320Y1043940D02*
X1041400Y1049020D01*
X947420Y1031240D02*
X954068Y1037888D01*
X1058208Y1037888D02*
X1066800Y1046480D01*
X954068Y1037888D02*
X1058208Y1037888D01*
X1041400Y1049020D02*
X1041400Y1056640D01*
X949960Y1043940D02*
X1036320Y1043940D01*
X990600Y1064260D02*
X990600Y1056640D01*
X965200Y1061720D02*
X965200Y1056640D01*
X784860Y871220D02*
X784860Y1059180D01*
X642620Y1059180D02*
X652254Y1068814D01*
X642620Y886460D02*
X642620Y1059180D01*
X652254Y1068814D02*
X688866Y1068814D01*
X652780Y1056640D02*
X670560Y1056640D01*
X647700Y1051560D02*
X652780Y1056640D01*
X436880Y883920D02*
X464820Y911860D01*
X480060Y911860D01*
X523240Y955040D02*
X523240Y1056640D01*
X480060Y911860D02*
X523240Y955040D01*
X238760Y795020D02*
X246380Y802640D01*
X238760Y760560D02*
X238760Y795020D01*
X213360Y760560D02*
X213360Y800100D01*
X220980Y807720D01*
X431800Y886460D02*
X462280Y916940D01*
X477520Y916940D01*
X510540Y949960D01*
X510540Y1061720D01*
X518160Y1069340D01*
X535940Y1069340D01*
X548640Y1056640D01*
X439420Y797560D02*
X441960Y800100D01*
X271780Y797560D02*
X439420Y797560D01*
X441960Y800100D02*
X441960Y881380D01*
X434340Y802640D02*
X436880Y805180D01*
X436880Y883920D01*
X246380Y802640D02*
X434340Y802640D01*
X429260Y807720D02*
X431800Y810260D01*
X220980Y807720D02*
X429260Y807720D01*
X431800Y810260D02*
X431800Y886460D01*
X701040Y828784D02*
X701040Y861060D01*
X711200Y871220D01*
X741680Y871220D01*
X746760Y876300D01*
X746760Y904240D01*
X955040Y782320D02*
X949960Y787400D01*
X949960Y878840D01*
X952500Y777240D02*
X944880Y784860D01*
X944880Y881380D01*
X949960Y772160D02*
X939800Y782320D01*
X939800Y883920D01*
X947420Y767080D02*
X934720Y779780D01*
X960120Y767080D02*
X947420Y767080D01*
X934720Y886460D02*
X934720Y779780D01*
X990600Y767080D02*
X985520Y772160D01*
X949960Y772160D01*
X990600Y767080D02*
X990600Y756920D01*
X1002248Y773212D02*
X998220Y777240D01*
X952500Y777240D01*
X1002248Y745708D02*
X1002248Y773212D01*
X1016000Y777240D02*
X1010920Y782320D01*
X955040Y782320D01*
X1016000Y755480D02*
X1016000Y777240D01*
X1064260Y744220D02*
X1003735Y744220D01*
X1066800Y746760D02*
X1064260Y744220D01*
X1003735Y744220D02*
X1002030Y745925D01*
X800100Y1031240D02*
X805180Y1036320D01*
X911860Y1036320D01*
X800100Y863600D02*
X800100Y1031240D01*
X800100Y1041400D02*
X889000Y1041400D01*
X795020Y1036320D02*
X800100Y1041400D01*
X795020Y866140D02*
X795020Y1036320D01*
X789940Y868680D02*
X789940Y1054100D01*
X797560Y1061720D02*
X812800Y1061720D01*
X817880Y1056640D01*
X789940Y1054100D02*
X797560Y1061720D01*
X784860Y1059180D02*
X795020Y1069340D01*
X838200Y1069340D02*
X843280Y1064260D01*
X843280Y1056640D01*
X795020Y1069340D02*
X838200Y1069340D01*
X985520Y1069340D02*
X990600Y1064260D01*
X940236Y1069340D02*
X985520Y1069340D01*
X932180Y899160D02*
X932180Y1061284D01*
X940236Y1069340D01*
X937260Y1059180D02*
X937260Y896620D01*
X942340Y1064260D02*
X962660Y1064260D01*
X965200Y1061720D01*
X937260Y1059180D02*
X942340Y1064260D01*
X111760Y855980D02*
X106680Y850900D01*
X106680Y802640D01*
X218440Y861060D02*
X213360Y855980D01*
X111760Y855980D01*
X218440Y883920D02*
X218440Y861060D01*
X106680Y802640D02*
X93980Y789940D01*
X93980Y662940D01*
X106680Y650240D01*
X162160Y279800D02*
X162160Y137560D01*
X309480Y274720D02*
X309480Y218940D01*
X309480Y274720D02*
X304400Y279800D01*
X309480Y218940D02*
X304400Y213860D01*
X117240Y274720D02*
X117240Y213860D01*
X112160Y208780D01*
X117240Y274720D02*
X112160Y279800D01*
G54D12*
G36*
X74840Y972720D02*
X74840Y972720D01*
X64840Y972720D01*
X64840Y956720D01*
X74840Y956720D01*
X74840Y972720D01*
D02*
G37*
X64840Y972720D01*
X64840Y956720D01*
X74840Y956720D01*
X74840Y972720D01*
G36*
X108840Y999720D02*
X108840Y999720D01*
X108840Y989720D01*
X124840Y989720D01*
X124840Y999720D01*
X108840Y999720D01*
D02*
G37*
X108840Y989720D01*
X124840Y989720D01*
X124840Y999720D01*
X108840Y999720D01*
G36*
X108840Y939720D02*
X108840Y939720D01*
X108840Y929720D01*
X124840Y929720D01*
X124840Y939720D01*
X108840Y939720D01*
D02*
G37*
X108840Y929720D01*
X124840Y929720D01*
X124840Y939720D01*
X108840Y939720D01*
G36*
X257720Y972720D02*
X257720Y972720D01*
X247720Y972720D01*
X247720Y956720D01*
X257720Y956720D01*
X257720Y972720D01*
D02*
G37*
X247720Y972720D01*
X247720Y956720D01*
X257720Y956720D01*
X257720Y972720D01*
G36*
X291720Y999720D02*
X291720Y999720D01*
X291720Y989720D01*
X307720Y989720D01*
X307720Y999720D01*
X291720Y999720D01*
D02*
G37*
X291720Y989720D01*
X307720Y989720D01*
X307720Y999720D01*
X291720Y999720D01*
G36*
X291720Y939720D02*
X291720Y939720D01*
X291720Y929720D01*
X307720Y929720D01*
X307720Y939720D01*
X291720Y939720D01*
D02*
G37*
X291720Y929720D01*
X307720Y929720D01*
X307720Y939720D01*
X291720Y939720D01*
G54D13*
X-2540Y-2540D02*
X-2540Y117968D01*
X-2540Y-2540D02*
X117968Y-2540D01*
X1202540Y-2540D02*
X1082032Y-2540D01*
X1202540Y-2540D02*
X1202540Y117968D01*
X1202540Y1202540D02*
X1202540Y1082032D01*
X1202540Y1202540D02*
X1082032Y1202540D01*
X-2540Y1202540D02*
X117968Y1202540D01*
X-2540Y1202540D02*
X-2540Y1082032D01*
X-52540Y-2540D02*
X-152540Y-2540D01*
X-102540Y-52540D02*
X-102540Y47460D01*
X-140040Y-2540D02*
G75*
D01*
G02X-140040Y-2540I37500J0*
G01*
X1252540Y-2540D02*
X1352540Y-2540D01*
X1302540Y-52540D02*
X1302540Y47460D01*
X1265040Y-2540D02*
G75*
D01*
G02X1265040Y-2540I37500J0*
G01*
X1290040Y-2540D02*
G75*
D01*
G02X1290040Y-2540I12500J0*
G01*
X-52540Y1202540D02*
X-152540Y1202540D01*
X-102540Y1152540D02*
X-102540Y1252540D01*
X-140040Y1202540D02*
G75*
D01*
G02X-140040Y1202540I37500J0*
G01*
X-127540Y1202540D02*
G75*
D01*
G02X-127540Y1202540I25000J0*
G01*
X-115040Y1202540D02*
G75*
D01*
G02X-115040Y1202540I12500J0*
G01*
G54D14*
X441960Y218440D03*
X518160Y142240D03*
X467360Y142240D03*
X492760Y142240D03*
X543560Y142240D03*
X568960Y142240D03*
X594360Y142240D03*
X594360Y218440D03*
X518160Y218440D03*
X467360Y218440D03*
X492760Y218440D03*
X543560Y218440D03*
X568960Y218440D03*
X660400Y218440D03*
X736600Y142240D03*
X685800Y142240D03*
X711200Y142240D03*
X762000Y142240D03*
X787400Y142240D03*
X812800Y142240D03*
X812800Y218440D03*
X736600Y218440D03*
X685800Y218440D03*
X711200Y218440D03*
X762000Y218440D03*
X787400Y218440D03*
X441960Y355600D03*
X518160Y279400D03*
X467360Y279400D03*
X492760Y279400D03*
X543560Y279400D03*
X568960Y279400D03*
X594360Y279400D03*
X594360Y355600D03*
X518160Y355600D03*
X467360Y355600D03*
X492760Y355600D03*
X543560Y355600D03*
X568960Y355600D03*
X660400Y355600D03*
X736600Y279400D03*
X685800Y279400D03*
X711200Y279400D03*
X762000Y279400D03*
X787400Y279400D03*
X812800Y279400D03*
X812800Y355600D03*
X736600Y355600D03*
X685800Y355600D03*
X711200Y355600D03*
X762000Y355600D03*
X787400Y355600D03*
X904240Y386080D03*
X929640Y309880D03*
X980440Y309880D03*
X955040Y309880D03*
X980440Y386080D03*
X929640Y386080D03*
X955040Y386080D03*
X187960Y635000D03*
X238760Y558800D03*
X213360Y558800D03*
X264160Y558800D03*
X314960Y558800D03*
X289560Y558800D03*
X340360Y558800D03*
X365760Y558800D03*
X340360Y635000D03*
X264160Y635000D03*
X238760Y635000D03*
X213360Y635000D03*
X314960Y635000D03*
X289560Y635000D03*
X365760Y635000D03*
X421640Y635000D03*
X472440Y558800D03*
X447040Y558800D03*
X497840Y558800D03*
X548640Y558800D03*
X523240Y558800D03*
X574040Y558800D03*
X599440Y558800D03*
X574040Y635000D03*
X497840Y635000D03*
X472440Y635000D03*
X447040Y635000D03*
X548640Y635000D03*
X523240Y635000D03*
X599440Y635000D03*
X655320Y635000D03*
X706120Y558800D03*
X680720Y558800D03*
X731520Y558800D03*
X782320Y558800D03*
X756920Y558800D03*
X807720Y558800D03*
X833120Y558800D03*
X807720Y635000D03*
X731520Y635000D03*
X706120Y635000D03*
X680720Y635000D03*
X782320Y635000D03*
X756920Y635000D03*
X833120Y635000D03*
X889000Y635000D03*
X939800Y558800D03*
X914400Y558800D03*
X965200Y558800D03*
X1016000Y558800D03*
X990600Y558800D03*
X1041400Y558800D03*
X1066800Y558800D03*
X1041400Y635000D03*
X965200Y635000D03*
X939800Y635000D03*
X914400Y635000D03*
X1016000Y635000D03*
X990600Y635000D03*
X1066800Y635000D03*
X365760Y416560D03*
X314960Y492760D03*
X340360Y492760D03*
X289560Y492760D03*
X238760Y492760D03*
X264160Y492760D03*
X213360Y492760D03*
X187960Y492760D03*
X213360Y416560D03*
X289560Y416560D03*
X314960Y416560D03*
X340360Y416560D03*
X238760Y416560D03*
X264160Y416560D03*
X187960Y416560D03*
X599440Y416560D03*
X548640Y492760D03*
X574040Y492760D03*
X523240Y492760D03*
X472440Y492760D03*
X497840Y492760D03*
X447040Y492760D03*
X421640Y492760D03*
X447040Y416560D03*
X523240Y416560D03*
X548640Y416560D03*
X574040Y416560D03*
X472440Y416560D03*
X497840Y416560D03*
X421640Y416560D03*
X833120Y416560D03*
X782320Y492760D03*
X807720Y492760D03*
X756920Y492760D03*
X706120Y492760D03*
X731520Y492760D03*
X680720Y492760D03*
X655320Y492760D03*
X680720Y416560D03*
X756920Y416560D03*
X782320Y416560D03*
X807720Y416560D03*
X706120Y416560D03*
X731520Y416560D03*
X655320Y416560D03*
X1066800Y416560D03*
X1016000Y492760D03*
X1041400Y492760D03*
X990600Y492760D03*
X939800Y492760D03*
X965200Y492760D03*
X914400Y492760D03*
X889000Y492760D03*
X914400Y416560D03*
X990600Y416560D03*
X1016000Y416560D03*
X1041400Y416560D03*
X939800Y416560D03*
X965200Y416560D03*
X889000Y416560D03*
G54D15*
X441960Y142240D03*
X660400Y142240D03*
X441960Y279400D03*
X660400Y279400D03*
X904240Y309880D03*
X187960Y558800D03*
X421640Y558800D03*
X655320Y558800D03*
X889000Y558800D03*
X365760Y492760D03*
X599440Y492760D03*
X833120Y492760D03*
X1066800Y492760D03*
G54D16*
X1046880Y193440D03*
X1096880Y193440D03*
X1071880Y243440D03*
X112160Y329800D03*
X162160Y329800D03*
X112160Y279800D03*
X162160Y279800D03*
X304400Y329800D03*
X254400Y329800D03*
X254400Y279800D03*
X304400Y279800D03*
G54D17*
X566420Y322580D03*
X1066800Y447040D03*
G54D18*
X914400Y755480D03*
X939800Y755480D03*
X965200Y755480D03*
X990600Y755480D03*
X1016000Y755480D03*
X1041400Y755480D03*
X1066800Y755480D03*
X213360Y760560D03*
X238760Y760560D03*
X264160Y760560D03*
X289560Y760560D03*
X314960Y760560D03*
X340360Y760560D03*
X365760Y760560D03*
X447040Y765640D03*
X472440Y765640D03*
X497840Y765640D03*
X523240Y765640D03*
X548640Y765640D03*
X574040Y765640D03*
X599440Y765640D03*
X680720Y760560D03*
X706120Y760560D03*
X731520Y760560D03*
X756920Y760560D03*
X782320Y760560D03*
X807720Y760560D03*
X833120Y760560D03*
X772160Y788840D03*
X289560Y858920D03*
X381000Y858920D03*
X1096880Y314960D03*
X394800Y213360D03*
X905680Y193040D03*
X201760Y208280D03*
G54D19*
X914300Y665480D03*
X939700Y665480D03*
X965100Y665480D03*
X990500Y665480D03*
X1015900Y665480D03*
X1041300Y665480D03*
X1066700Y665480D03*
X213260Y670560D03*
X238660Y670560D03*
X264060Y670560D03*
X289460Y670560D03*
X314860Y670560D03*
X340260Y670560D03*
X365660Y670560D03*
X446940Y675640D03*
X472340Y675640D03*
X497740Y675640D03*
X523140Y675640D03*
X548540Y675640D03*
X573940Y675640D03*
X599340Y675640D03*
X680620Y670560D03*
X706020Y670560D03*
X731420Y670560D03*
X756820Y670560D03*
X782220Y670560D03*
X807620Y670560D03*
X833020Y670560D03*
X772260Y878840D03*
X289560Y883920D03*
X381000Y883920D03*
X1071880Y314960D03*
X304800Y213460D03*
X995680Y192940D03*
X111760Y208380D03*
G54D20*
X721360Y904240D03*
X670560Y904240D03*
X695960Y904240D03*
X746760Y904240D03*
X772160Y904240D03*
X721360Y1056640D03*
X670560Y1056640D03*
X695960Y1056640D03*
X746760Y1056640D03*
X772160Y1056640D03*
X868680Y904240D03*
X817880Y904240D03*
X843280Y904240D03*
X894080Y904240D03*
X919480Y904240D03*
X868680Y1056640D03*
X817880Y1056640D03*
X843280Y1056640D03*
X894080Y1056640D03*
X919480Y1056640D03*
X1016000Y904240D03*
X965200Y904240D03*
X990600Y904240D03*
X1041400Y904240D03*
X1066800Y904240D03*
X1016000Y1056640D03*
X965200Y1056640D03*
X990600Y1056640D03*
X1041400Y1056640D03*
X1066800Y1056640D03*
X1051560Y386080D03*
X1102360Y386080D03*
X574040Y904240D03*
X523240Y904240D03*
X548640Y904240D03*
X599440Y904240D03*
X624840Y904240D03*
X574040Y1056640D03*
X523240Y1056640D03*
X548640Y1056640D03*
X599440Y1056640D03*
X624840Y1056640D03*
G54D21*
X116840Y883920D03*
G54D22*
X218440Y883920D03*
G54D23*
X106680Y802640D03*
X106680Y777240D03*
X106680Y624840D03*
X106680Y650240D03*
G54D24*
X106680Y751840D03*
X106680Y599440D03*

M02*
